M48
;Layer_Color=9474304
;FILE_FORMAT=4:4
METRIC,LZ
;TYPE=PLATED
T1F00S00C0.4000
T2F00S00C0.8000
T3F00S00C1.0000
T4F00S00C1.5000
T5F00S00C1.9000
T6F00S00C2.4000
T7F00S00C3.2000
T8F00S00C3.5000
%
T01
X00235Y-01605
Y-01575
X00315
Y-01605
X00395
Y-01575
X00475
X0048Y-01606
X0045Y-01611
X005Y-01587
X00523Y-01605
X00155
X00155Y-01575
X00075
X00075Y-01605
X00014Y-01604
X0Y-01595
X-00015Y-01595
X-00037Y-01596
X-00005Y-01575
X0Y-014575
X-00025Y-0133
X-00005Y-0127
X00075
Y-0135
X00155
X00057Y-0118
Y-0117
Y-0116
X00046
Y-0117
Y-0118
X00035
Y-0117
Y-0116
X00019Y-0117
X00011
X00285Y-0115
X00443Y-01143
X0043Y-01115
X00467Y-01114
X004875Y-0111325
X0051Y-01123
X00505Y-0116
Y-0117
Y-0118
X00516
Y-0117
Y-0116
X00527
Y-0117
Y-0118
X00489Y-0117
X00481
X005Y-0132
Y-014575
X00315Y-0146
Y-0135
X0023Y-013425
X002475Y-013925
X00273Y-011
X00264Y-01082
X00294Y-01091
X0032Y-0109
X003425
X003175Y-0105
X0028Y-01035
Y-009625
X002475Y-009525
X003075Y-008925
X0036484Y-0089
Y-009
X00365Y-0088
Y-0087
X0036484Y-0086
X00384Y-00866
X00416
X00435Y-0087
X00443Y-00914
X00420999Y-00926998
X004025Y-00925
X0037246Y-0092139
X003875Y-0083734
X003225Y-0083
X00328Y-00819
Y-00809
Y-00799
X00321Y-00804
Y-00814
X00335Y-00814
Y-00804
X00316Y-00748
X00405Y-007325
X004175Y-007275
X00465Y-00745
X00527Y-00768
X00442499Y-00967498
X004425Y-010095
X004625Y-0101
X00495Y-01025
X004975Y-010375
X00486Y-01053
X0050984Y-0105516
X0053Y-01056
X005225Y-01065
X0052475Y-0107525
X004975Y-010975
X004525Y-01065
X00439Y-01049
X00429999Y-01042998
X00437999Y-01033998
X00409999Y-01022998
X00398Y-01037
X00391999Y-01008998
X003825Y-01065
X00206Y-00858
X0015Y-0084
Y-0083
X00143Y-00835
Y-00845
X00136Y-0084
Y-0083
X00143Y-00825
X00126Y-00906
X00096Y-0091732
X00088Y-00957
X00089Y-0099
X00052
Y-00945
X00065Y-00935
X0005Y-0091
X00013Y-0085
X-00018Y-00859
X-00025Y-00878
X-00034Y-00957
X-00031Y-0097
X-00005Y-01025
X00075
X00135Y-00991
X00127Y-00982998
X00127Y-00953
X00169Y-00947
X00163Y-00931
X000175Y-010975
X-00028Y-00757
X000175Y-0069
X00018Y-00645
Y-005942
Y-005434
X00069Y-005658
Y-00515
Y-004448
X00117Y-00443
X00142
X00167
X00069Y-00394
Y-003305
X000182Y-003686
Y-004194
Y-004702
X00069Y-006166
X000725Y-0069
X001225
X002
X00255
X00305
Y-00615
X00255
X002
Y-0054
X00255
X0031
X00359Y-00567
X0037525Y-00575
X00382999Y-00564999
X00377999Y-0060165
X0041327Y-00596529
X00443999Y-00584999
X0044Y-00547
X00456Y-00523
X004Y-005175
X004225Y-004825
X0042234Y-0043766
X0042Y-004175
X00475Y-004225
X004725Y-003625
X00438Y-00365
Y-00355
Y-00375
X00385Y-00365
X002921Y-003683
Y-003175
Y-004191
X00192949Y-00442949
X00372Y-00483
X0036Y-00635
X00385Y-006825
X004225Y-006485
X00455Y-006475
X0052429Y-00375
Y-003095
X00525Y-002425
X00483Y-0026
Y-00269
Y-00278
X0044634Y-0027266
X00455Y-002325
Y-0018
X00495
Y-00171
Y-0019
X0052429Y-0018
X0047Y-00135
X00408Y-00162
X0041165Y-00174
X004Y-00206
X00344Y-00197
Y-00189
Y-00181
X00319Y-00168
X00355Y-00146
X00361Y-00152
X00366999Y-00158
X00378Y-00152
X00386Y-00125
X00339Y-00109
X003375Y-00005
Y00045
X0042
X00456Y00046
X00467999Y00052
X00526Y00052
X0042Y-00005
X00255
X00255Y00045
X002286Y-0029845
X00372Y-003
X003875Y-002975
X00401Y-0029
X003725Y-002475
X00351Y-002355
X-0003Y-00252
X-00028Y-00263
X-00022Y-00275
X-00009Y-00278
X0Y-002921
X-0003Y-00183
X-000251Y-00173758
X-000171Y-00167
X00003Y-00143
X00017
X000675Y-001
X0009Y-00005
X0009Y00045
X00054Y00054
X00043Y00043
X-00034Y00051
X-00036Y-00031
X-00002Y-00035
X0002Y-00028
X001725Y-00005
X001725Y00045
T02
X00385Y-00895
T03
X00155Y-00476
X00209999Y-00475999
X00265Y-00476
X00319999Y-00475999
X003258Y-000924
X003512
Y-00067
X003766
X00402
Y-000924
X003766
X003004
X00275
Y-00067
X002496
Y-000924
X002242
Y-00067
X001988
Y-000924
X003004Y-00067
X003258
X001734
X00148
X001226
X000972
Y-000924
X001226
X00148
X001734
T04
X-00003Y-0122
X00033
X00467
X00503
X004322Y-0083845
Y-0079145
Y-0074445
X00249Y-00856
X00058
X00249Y-001338
X00058
T05
X00249Y-008014
X002744Y-007252
X002236
X005275Y-007254
Y-008575
X00058Y-008014
X000834Y-007252
X000326
X002236Y-002652
X002744
X00249Y-00189
X00058Y-00189
X000834Y-002652
X000326
T06
X0032855Y-001299
T07
X005Y-0152
X0
Y-01395
X005Y-01395
Y-00915
X001535Y-007699
X0Y-00915
X005Y-00495
Y-00075
Y00005
X0
Y-00075
X001535Y-002179
T08
X0032855Y-007699
X-000215Y-002179
M30
