G04*
G04 #@! TF.GenerationSoftware,Altium Limited,Altium Designer,18.0.11 (651)*
G04*
G04 Layer_Color=65535*
%FSLAX44Y44*%
%MOMM*%
G71*
G01*
G75*
%ADD10C,0.2500*%
%ADD11C,0.1000*%
%ADD12C,0.2000*%
%ADD13C,0.2540*%
%ADD14C,0.2286*%
%ADD15C,0.1500*%
%ADD16R,2.4130X0.5080*%
G36*
X409000Y-834000D02*
X386537D01*
Y-790059D01*
X409000D01*
Y-834000D01*
D02*
G37*
G36*
X268526Y-655863D02*
X268589Y-655987D01*
Y-694727D01*
Y-694790D01*
Y-694853D01*
X268526Y-694915D01*
X268401Y-694977D01*
X229599D01*
X229536Y-694915D01*
X229474Y-694853D01*
X229411Y-694727D01*
Y-655987D01*
Y-655925D01*
X229536Y-655863D01*
X229661Y-655800D01*
X268464D01*
X268526Y-655863D01*
D02*
G37*
G36*
X77526D02*
X77589Y-655987D01*
Y-694727D01*
Y-694790D01*
Y-694853D01*
X77526Y-694915D01*
X77401Y-694977D01*
X38599D01*
X38536Y-694915D01*
X38474Y-694853D01*
X38411Y-694727D01*
Y-655987D01*
Y-655925D01*
X38536Y-655863D01*
X38661Y-655800D01*
X77464D01*
X77526Y-655863D01*
D02*
G37*
G36*
X77464Y-294885D02*
X77526Y-294947D01*
X77589Y-295072D01*
Y-333812D01*
Y-333875D01*
X77464Y-333937D01*
X77339Y-334000D01*
X38536D01*
X38474Y-333937D01*
X38411Y-333812D01*
Y-295072D01*
Y-295010D01*
Y-294947D01*
X38474Y-294885D01*
X38599Y-294823D01*
X77401D01*
X77464Y-294885D01*
D02*
G37*
G36*
X268464D02*
X268526Y-294947D01*
X268589Y-295072D01*
Y-333812D01*
Y-333875D01*
X268464Y-333937D01*
X268339Y-334000D01*
X229536D01*
X229474Y-333937D01*
X229411Y-333812D01*
Y-295072D01*
Y-295010D01*
Y-294947D01*
X229474Y-294885D01*
X229599Y-294823D01*
X268401D01*
X268464Y-294885D01*
D02*
G37*
%LPC*%
G36*
X403750Y-795059D02*
X391786D01*
Y-803623D01*
X403750D01*
Y-800541D01*
X398635D01*
Y-795459D01*
X396319D01*
Y-800541D01*
X394103D01*
Y-795059D01*
X403750D01*
D02*
G37*
G36*
Y-805756D02*
Y-811238D01*
X398635D01*
Y-806156D01*
X396319D01*
Y-811238D01*
X394103D01*
Y-805756D01*
X403750D01*
X391786D01*
Y-814320D01*
X403750D01*
Y-805756D01*
D02*
G37*
G36*
X404000Y-816686D02*
X397785D01*
X397252Y-816703D01*
X396768Y-816753D01*
X396285Y-816836D01*
X395852Y-816936D01*
X395452Y-817070D01*
X395069Y-817203D01*
X394736Y-817353D01*
X394419Y-817503D01*
X394152Y-817670D01*
X393903Y-817820D01*
X393703Y-817953D01*
X393519Y-818070D01*
X393386Y-818186D01*
X393303Y-818269D01*
X393236Y-818319D01*
X393219Y-818336D01*
X392920Y-818653D01*
X392670Y-819003D01*
X392436Y-819369D01*
X392253Y-819736D01*
X392086Y-820119D01*
X391953Y-820486D01*
X391837Y-820852D01*
X391753Y-821219D01*
X391670Y-821552D01*
X391620Y-821852D01*
X391586Y-822135D01*
X391570Y-822385D01*
X391553Y-822568D01*
X391536Y-822718D01*
Y-822852D01*
X391553Y-823385D01*
X391603Y-823868D01*
X391687Y-824334D01*
X391803Y-824768D01*
X391920Y-825168D01*
X392070Y-825551D01*
X392220Y-825884D01*
X392370Y-826184D01*
X392536Y-826467D01*
X392686Y-826701D01*
X392836Y-826901D01*
X392953Y-827067D01*
X393069Y-827200D01*
X393153Y-827284D01*
X393203Y-827350D01*
X393219Y-827367D01*
X393553Y-827650D01*
X393903Y-827900D01*
X394269Y-828117D01*
X394636Y-828317D01*
X395019Y-828467D01*
X395402Y-828600D01*
X395769Y-828717D01*
X396135Y-828800D01*
X396469Y-828867D01*
X396785Y-828917D01*
X397068Y-828950D01*
X397302Y-828967D01*
X397502Y-828983D01*
X397652Y-829000D01*
X404000D01*
Y-822852D01*
X403983Y-822318D01*
X403933Y-821835D01*
X403850Y-821369D01*
X403733Y-820935D01*
X403617Y-820519D01*
X403467Y-820152D01*
X403317Y-819819D01*
X403150Y-819519D01*
X403000Y-819236D01*
X402850Y-819003D01*
X402700Y-818803D01*
X402584Y-818636D01*
X402467Y-818503D01*
X402384Y-818419D01*
X402334Y-818353D01*
X402317Y-818336D01*
X401984Y-818053D01*
X401634Y-817786D01*
X401267Y-817570D01*
X400901Y-817386D01*
X400518Y-817220D01*
X400151Y-817086D01*
X399768Y-816986D01*
X399418Y-816887D01*
X399085Y-816820D01*
X398768Y-816770D01*
X398501Y-816737D01*
X398251Y-816720D01*
X398051Y-816703D01*
X397918Y-816686D01*
X404000D01*
D02*
G37*
%LPD*%
G36*
X398135Y-819902D02*
X398468Y-819919D01*
X398768Y-819952D01*
X399035Y-820002D01*
X399251Y-820052D01*
X399401Y-820086D01*
X399501Y-820102D01*
X399518Y-820119D01*
X399534D01*
X399801Y-820202D01*
X400051Y-820319D01*
X400268Y-820419D01*
X400451Y-820519D01*
X400601Y-820619D01*
X400718Y-820702D01*
X400784Y-820752D01*
X400817Y-820769D01*
X400984Y-820935D01*
X401134Y-821085D01*
X401251Y-821252D01*
X401351Y-821402D01*
X401434Y-821535D01*
X401484Y-821635D01*
X401517Y-821702D01*
X401534Y-821719D01*
X401601Y-821918D01*
X401651Y-822118D01*
X401701Y-822318D01*
X401717Y-822485D01*
X401734Y-822635D01*
X401751Y-822752D01*
Y-822852D01*
X401734Y-823068D01*
X401717Y-823268D01*
X401684Y-823468D01*
X401634Y-823635D01*
X401601Y-823785D01*
X401567Y-823885D01*
X401551Y-823951D01*
X401534Y-823985D01*
X401434Y-824185D01*
X401317Y-824351D01*
X401217Y-824518D01*
X401101Y-824651D01*
X401001Y-824768D01*
X400918Y-824851D01*
X400851Y-824901D01*
X400834Y-824918D01*
X400634Y-825068D01*
X400434Y-825184D01*
X400234Y-825301D01*
X400034Y-825384D01*
X399868Y-825468D01*
X399718Y-825518D01*
X399635Y-825551D01*
X399601Y-825568D01*
X399301Y-825651D01*
X399001Y-825701D01*
X398701Y-825751D01*
X398418Y-825768D01*
X398168Y-825784D01*
X398051Y-825801D01*
X397968D01*
X397885D01*
X397835D01*
X397802D01*
X397785D01*
X397402Y-825784D01*
X397052Y-825768D01*
X396735Y-825717D01*
X396469Y-825667D01*
X396252Y-825634D01*
X396085Y-825584D01*
X396035Y-825568D01*
X395985D01*
X395969Y-825551D01*
X395952D01*
X395669Y-825451D01*
X395419Y-825351D01*
X395202Y-825234D01*
X395019Y-825134D01*
X394886Y-825034D01*
X394786Y-824968D01*
X394719Y-824918D01*
X394702Y-824901D01*
X394536Y-824734D01*
X394386Y-824568D01*
X394269Y-824418D01*
X394169Y-824268D01*
X394103Y-824135D01*
X394036Y-824035D01*
X394019Y-823968D01*
X394003Y-823951D01*
X393936Y-823751D01*
X393869Y-823568D01*
X393836Y-823368D01*
X393819Y-823202D01*
X393803Y-823068D01*
X393786Y-822952D01*
Y-822852D01*
X393803Y-822635D01*
X393819Y-822435D01*
X393853Y-822235D01*
X393903Y-822068D01*
X393953Y-821935D01*
X393986Y-821835D01*
X394003Y-821752D01*
X394019Y-821735D01*
X394119Y-821535D01*
X394219Y-821369D01*
X394336Y-821202D01*
X394452Y-821052D01*
X394552Y-820952D01*
X394636Y-820852D01*
X394702Y-820802D01*
X394719Y-820786D01*
X394902Y-820636D01*
X395102Y-820519D01*
X395302Y-820402D01*
X395502Y-820302D01*
X395669Y-820236D01*
X395802Y-820186D01*
X395902Y-820152D01*
X395919Y-820136D01*
X395935D01*
X396235Y-820052D01*
X396535Y-819986D01*
X396852Y-819952D01*
X397135Y-819919D01*
X397385Y-819902D01*
X397502Y-819886D01*
X397585D01*
X397668D01*
X397718D01*
X397752D01*
X397768D01*
X398135Y-819902D01*
D02*
G37*
G36*
X404000Y-829000D02*
X397785D01*
X398302Y-828983D01*
X398801Y-828933D01*
X399268Y-828850D01*
X399701Y-828750D01*
X400101Y-828617D01*
X400468Y-828484D01*
X400817Y-828334D01*
X401117Y-828184D01*
X401401Y-828034D01*
X401634Y-827884D01*
X401834Y-827750D01*
X402017Y-827617D01*
X402150Y-827517D01*
X402234Y-827434D01*
X402300Y-827384D01*
X402317Y-827367D01*
X402617Y-827050D01*
X402867Y-826701D01*
X403100Y-826351D01*
X403284Y-825967D01*
X403450Y-825601D01*
X403583Y-825218D01*
X403700Y-824851D01*
X403783Y-824501D01*
X403867Y-824168D01*
X403917Y-823851D01*
X403950Y-823568D01*
X403967Y-823335D01*
X403983Y-823135D01*
X404000Y-822985D01*
Y-829000D01*
D02*
G37*
%LPC*%
G36*
X261653Y-671796D02*
X236285D01*
X236097Y-671858D01*
X235785Y-671921D01*
X235472Y-672108D01*
X235222Y-672296D01*
X234910Y-672608D01*
X234722Y-672983D01*
X234660Y-673483D01*
Y-677294D01*
Y-677357D01*
X234722Y-677544D01*
X234785Y-677857D01*
X234972Y-678169D01*
X235160Y-678419D01*
X235472Y-678732D01*
X235847Y-678919D01*
X236347Y-678982D01*
X261716D01*
X261903Y-678919D01*
X262215Y-678857D01*
X262465Y-678732D01*
X262778Y-678482D01*
X263090Y-678169D01*
X263278Y-677794D01*
X263340Y-677294D01*
Y-673483D01*
Y-673420D01*
X263278Y-673233D01*
X263215Y-672921D01*
X263028Y-672671D01*
X262840Y-672358D01*
X262528Y-672046D01*
X262153Y-671858D01*
X261653Y-671796D01*
D02*
G37*
G36*
X59906Y-661049D02*
X56032D01*
X55844Y-661111D01*
X55532Y-661174D01*
X55219Y-661361D01*
X54970Y-661548D01*
X54657Y-661861D01*
X54470Y-662236D01*
X54407Y-662736D01*
Y-671546D01*
Y-671609D01*
Y-671671D01*
X54345Y-671733D01*
X54220Y-671796D01*
X45285D01*
X45097Y-671858D01*
X44785Y-671921D01*
X44472Y-672108D01*
X44222Y-672296D01*
X43910Y-672608D01*
X43722Y-672983D01*
X43660Y-673483D01*
Y-677294D01*
Y-677357D01*
X43722Y-677544D01*
X43785Y-677857D01*
X43972Y-678169D01*
X44160Y-678419D01*
X44472Y-678732D01*
X44847Y-678919D01*
X45347Y-678982D01*
X54282D01*
X54345Y-679044D01*
X54407Y-679169D01*
Y-688042D01*
Y-688104D01*
X54470Y-688292D01*
X54532Y-688604D01*
X54657Y-688916D01*
X54907Y-689166D01*
X55219Y-689479D01*
X55594Y-689666D01*
X56094Y-689729D01*
X59968D01*
X60156Y-689666D01*
X60468Y-689604D01*
X60718Y-689416D01*
X61031Y-689229D01*
X61343Y-688916D01*
X61530Y-688542D01*
X61593Y-688042D01*
Y-679169D01*
Y-679107D01*
X61718Y-679044D01*
X61843Y-678982D01*
X70715D01*
X70903Y-678919D01*
X71215Y-678857D01*
X71465Y-678732D01*
X71778Y-678482D01*
X72090Y-678169D01*
X72278Y-677794D01*
X72340Y-677294D01*
Y-673483D01*
Y-673420D01*
X72278Y-673233D01*
X72215Y-672921D01*
X72028Y-672671D01*
X71840Y-672358D01*
X71528Y-672046D01*
X71153Y-671858D01*
X70653Y-671796D01*
X61780D01*
X61718Y-671733D01*
X61655Y-671671D01*
X61593Y-671546D01*
Y-662736D01*
Y-662673D01*
X61530Y-662486D01*
X61468Y-662173D01*
X61280Y-661923D01*
X61093Y-661611D01*
X60781Y-661299D01*
X60406Y-661111D01*
X59906Y-661049D01*
D02*
G37*
G36*
X70653Y-310818D02*
X45285D01*
X45097Y-310881D01*
X44785Y-310943D01*
X44535Y-311068D01*
X44222Y-311318D01*
X43910Y-311631D01*
X43722Y-312006D01*
X43660Y-312505D01*
Y-316317D01*
Y-316380D01*
X43722Y-316567D01*
X43785Y-316879D01*
X43972Y-317129D01*
X44160Y-317442D01*
X44472Y-317754D01*
X44847Y-317942D01*
X45347Y-318004D01*
X70715D01*
X70903Y-317942D01*
X71215Y-317879D01*
X71528Y-317692D01*
X71778Y-317504D01*
X72090Y-317192D01*
X72278Y-316817D01*
X72340Y-316317D01*
Y-312505D01*
Y-312443D01*
X72278Y-312256D01*
X72215Y-311943D01*
X72028Y-311631D01*
X71840Y-311381D01*
X71528Y-311068D01*
X71153Y-310881D01*
X70653Y-310818D01*
D02*
G37*
G36*
X250906Y-300071D02*
X247032D01*
X246844Y-300134D01*
X246532Y-300196D01*
X246282Y-300384D01*
X245970Y-300571D01*
X245657Y-300884D01*
X245470Y-301258D01*
X245407Y-301758D01*
Y-310631D01*
Y-310693D01*
X245282Y-310756D01*
X245157Y-310818D01*
X236285D01*
X236097Y-310881D01*
X235785Y-310943D01*
X235535Y-311068D01*
X235222Y-311318D01*
X234910Y-311631D01*
X234722Y-312006D01*
X234660Y-312505D01*
Y-316317D01*
Y-316380D01*
X234722Y-316567D01*
X234785Y-316879D01*
X234972Y-317129D01*
X235160Y-317442D01*
X235472Y-317754D01*
X235847Y-317942D01*
X236347Y-318004D01*
X245220D01*
X245282Y-318067D01*
X245345Y-318129D01*
X245407Y-318254D01*
Y-327064D01*
Y-327127D01*
X245470Y-327314D01*
X245532Y-327627D01*
X245720Y-327877D01*
X245907Y-328189D01*
X246220Y-328501D01*
X246594Y-328689D01*
X247094Y-328751D01*
X250968D01*
X251156Y-328689D01*
X251468Y-328626D01*
X251780Y-328439D01*
X252031Y-328251D01*
X252343Y-327939D01*
X252530Y-327564D01*
X252593Y-327064D01*
Y-318254D01*
Y-318192D01*
Y-318129D01*
X252655Y-318067D01*
X252780Y-318004D01*
X261716D01*
X261903Y-317942D01*
X262215Y-317879D01*
X262528Y-317692D01*
X262778Y-317504D01*
X263090Y-317192D01*
X263278Y-316817D01*
X263340Y-316317D01*
Y-312505D01*
Y-312443D01*
X263278Y-312256D01*
X263215Y-311943D01*
X263028Y-311631D01*
X262840Y-311381D01*
X262528Y-311068D01*
X262153Y-310881D01*
X261653Y-310818D01*
X252718D01*
X252655Y-310756D01*
X252593Y-310631D01*
Y-301758D01*
Y-301696D01*
X252530Y-301508D01*
X252468Y-301196D01*
X252343Y-300884D01*
X252093Y-300634D01*
X251780Y-300321D01*
X251406Y-300134D01*
X250906Y-300071D01*
D02*
G37*
%LPD*%
D10*
X495866Y-1023968D02*
G03*
X495866Y-1023968I-1250J0D01*
G01*
X495866Y-978968D02*
G03*
X495866Y-978968I-1250J0D01*
G01*
X419218Y-1057384D02*
G03*
X419218Y-1057384I-1250J0D01*
G01*
X359600Y-710400D02*
G03*
X359600Y-710400I-1250J0D01*
G01*
X285634Y-908032D02*
G03*
X285634Y-908032I-1250J0D01*
G01*
X129634Y-909032D02*
G03*
X129634Y-909032I-1250J0D01*
G01*
X359500Y-992500D02*
G03*
X359500Y-992500I-1250J0D01*
G01*
X412500Y-947500D02*
G03*
X412500Y-947500I-1250J0D01*
G01*
X401250Y-569000D02*
G03*
X401250Y-569000I-1250J0D01*
G01*
X359250Y-578500D02*
G03*
X359250Y-578500I-1250J0D01*
G01*
X359600Y-390400D02*
G03*
X359600Y-390400I-1250J0D01*
G01*
X425750Y-242000D02*
G03*
X425750Y-242000I-1250J0D01*
G01*
X356750Y-251000D02*
G03*
X356750Y-251000I-1250J0D01*
G01*
X443866Y-99968D02*
G03*
X443866Y-99968I-1250J0D01*
G01*
X427250Y-132500D02*
G03*
X427250Y-132500I-1250J0D01*
G01*
X390250Y-214500D02*
G03*
X390250Y-214500I-1250J0D01*
G01*
X386866Y-122968D02*
G03*
X386866Y-122968I-1250J0D01*
G01*
X379282Y-183616D02*
G03*
X379282Y-183616I-1250J0D01*
G01*
X383250Y-136500D02*
G03*
X383250Y-136500I-1250J0D01*
G01*
X233634Y-908032D02*
G03*
X233634Y-908032I-1250J0D01*
G01*
X181634D02*
G03*
X181634Y-908032I-1250J0D01*
G01*
D11*
X3500Y-1184500D02*
G03*
X3500Y-1184500I-500J0D01*
G01*
X473500D02*
G03*
X473500Y-1184500I-500J0D01*
G01*
D12*
X339000Y-753000D02*
X339000Y-150200D01*
Y-842700D02*
Y-788000D01*
X266000Y-842700D02*
X339000D01*
X159000D02*
X232000D01*
X159000D02*
Y-802000D01*
X159000Y-490000D02*
X159000Y-738000D01*
Y-185000D02*
Y-150200D01*
Y-463000D02*
Y-251000D01*
X264000Y-150200D02*
X339000D01*
X159000D02*
X234000D01*
X-32000Y-201000D02*
Y-147700D01*
X-32000Y-235000D02*
X-32000Y-840200D01*
X73000D02*
X148000D01*
X-32000D02*
X43000D01*
X148000D02*
Y-802000D01*
X148000Y-490000D02*
X148000Y-738000D01*
Y-185000D02*
Y-147700D01*
Y-463000D02*
Y-251000D01*
X75000Y-147700D02*
X148000D01*
X-32000D02*
X40000D01*
X443728Y-1051128D02*
Y-1034872D01*
X455920D01*
X443728Y-1051128D02*
X455920D01*
X466080Y-1034872D02*
X478272D01*
X466080Y-1051128D02*
X478272D01*
Y-1034872D01*
X502728Y-995128D02*
Y-978872D01*
X514920D01*
X502728Y-995128D02*
X514920D01*
X525080Y-978872D02*
X537272D01*
X525080Y-995128D02*
X537272D01*
Y-978872D01*
X502728Y-1052128D02*
Y-1035872D01*
X514920D01*
X502728Y-1052128D02*
X514920D01*
X525080Y-1035872D02*
X537272D01*
X525080Y-1052128D02*
X537272D01*
Y-1035872D01*
X502960Y-1016618D02*
X515160D01*
X502960Y-1033382D02*
Y-1016618D01*
Y-1033382D02*
X515160D01*
X525160D02*
X537360D01*
Y-1016618D01*
X525160D02*
X537360D01*
X537272Y-1014128D02*
Y-997872D01*
X525080Y-1014128D02*
X537272D01*
X525080Y-997872D02*
X537272D01*
X502728Y-1014128D02*
X514920D01*
X502728Y-997872D02*
X514920D01*
X502728Y-1014128D02*
Y-997872D01*
X525000Y-975132D02*
X537200D01*
Y-958368D01*
X525000D02*
X537200D01*
X502800D02*
X515000D01*
X502800Y-975132D02*
Y-958368D01*
Y-975132D02*
X515000D01*
X470760Y-1032350D02*
X478380D01*
X493620D02*
X501240D01*
X483460Y-1018380D02*
X488540D01*
X470760Y-1032350D02*
Y-1018380D01*
X501240Y-1032350D02*
Y-1018380D01*
X470760Y-987350D02*
X478380D01*
X493620D02*
X501240D01*
X483460Y-973380D02*
X488540D01*
X470760Y-987350D02*
Y-973380D01*
X501240Y-987350D02*
Y-973380D01*
X451872Y-832272D02*
X468128D01*
X451872D02*
Y-820080D01*
X468128Y-832272D02*
Y-820080D01*
X451872Y-809920D02*
Y-797728D01*
X468128Y-809920D02*
Y-797728D01*
X451872D02*
X468128D01*
X470500Y-784340D02*
Y-772840D01*
X468750Y-786090D02*
X470500Y-784340D01*
X451250Y-786090D02*
X468750D01*
X449500Y-784340D02*
Y-772840D01*
Y-784340D02*
X451250Y-786090D01*
X470500Y-762840D02*
Y-749590D01*
X449500D02*
X470500D01*
X449500Y-762840D02*
Y-749590D01*
X394118Y-1004700D02*
Y-992500D01*
Y-1004700D02*
X410882D01*
Y-992500D01*
Y-982500D02*
Y-970300D01*
X394118D02*
X410882D01*
X394118Y-982500D02*
Y-970300D01*
X412380Y-1050760D02*
X426350D01*
X412380Y-1081240D02*
X426350D01*
X412380Y-1068540D02*
Y-1063460D01*
X426350Y-1058380D02*
Y-1050760D01*
Y-1081240D02*
Y-1073620D01*
X414872Y-606728D02*
X431128D01*
Y-618920D02*
Y-606728D01*
X414872Y-618920D02*
Y-606728D01*
X431128Y-641272D02*
Y-629080D01*
X414872Y-641272D02*
Y-629080D01*
Y-641272D02*
X431128D01*
X403680Y-643050D02*
X431620D01*
X403680D02*
Y-637970D01*
Y-610030D02*
Y-604950D01*
X431620D01*
X443050Y-629080D02*
Y-618920D01*
X-45500Y-108900D02*
X352500Y-108900D01*
Y-878900D02*
Y-108900D01*
X-45500Y-878900D02*
Y-108900D01*
Y-878900D02*
X352500Y-878900D01*
X466000Y-1611500D02*
Y-1610000D01*
X494000Y-1611500D02*
Y-1610000D01*
X466000D02*
X473000D01*
X475000Y-1611000D01*
X476000D01*
X485000D01*
X487000Y-1610000D01*
X494000D01*
X477000Y-1623000D02*
X483000D01*
X6000Y-1611500D02*
Y-1610000D01*
X34000Y-1611500D02*
Y-1610000D01*
X6000D02*
X13000D01*
X15000Y-1611000D01*
X16000D01*
X25000D01*
X27000Y-1610000D01*
X34000D01*
X17000Y-1623000D02*
X23000D01*
X154872Y-924272D02*
X171128D01*
X154872D02*
Y-912080D01*
X171128Y-924272D02*
Y-912080D01*
X154872Y-901920D02*
Y-889728D01*
X171128Y-901920D02*
Y-889728D01*
X154872D02*
X171128D01*
X360000Y-693810D02*
X410000D01*
X360000Y-698970D02*
Y-671030D01*
X410000Y-698970D02*
Y-671030D01*
X360000Y-698970D02*
X410000D01*
X360000Y-671030D02*
X410000D01*
X511000Y-1611500D02*
Y-1610000D01*
X539000Y-1611500D02*
Y-1610000D01*
X511000D02*
X518000D01*
X520000Y-1611000D01*
X521000D01*
X530000D01*
X532000Y-1610000D01*
X539000D01*
X522000Y-1623000D02*
X528000D01*
X258872Y-924272D02*
X275128D01*
X258872D02*
Y-912080D01*
X275128Y-924272D02*
Y-912080D01*
X258872Y-901920D02*
Y-889728D01*
X275128Y-901920D02*
Y-889728D01*
X258872D02*
X275128D01*
X206872D02*
X223128D01*
Y-901920D02*
Y-889728D01*
X206872Y-901920D02*
Y-889728D01*
X223128Y-924272D02*
Y-912080D01*
X206872Y-924272D02*
Y-912080D01*
Y-924272D02*
X223128D01*
X300620Y-899650D02*
X308240D01*
X277760D02*
X285380D01*
X290460Y-913620D02*
X295540D01*
X308240D02*
Y-899650D01*
X277760Y-913620D02*
Y-899650D01*
X275728Y-945128D02*
Y-928872D01*
X287920D01*
X275728Y-945128D02*
X287920D01*
X298080Y-928872D02*
X310272D01*
X298080Y-945128D02*
X310272D01*
Y-928872D01*
X-28000Y-1623000D02*
X-22000D01*
X-18000Y-1610000D02*
X-11000D01*
X-20000Y-1611000D02*
X-18000Y-1610000D01*
X-29000Y-1611000D02*
X-20000D01*
X-30000D02*
X-29000D01*
X-32000Y-1610000D02*
X-30000Y-1611000D01*
X-39000Y-1610000D02*
X-32000D01*
X-11000Y-1611500D02*
Y-1610000D01*
X-39000Y-1611500D02*
Y-1610000D01*
X102872Y-924272D02*
X119128D01*
X102872D02*
Y-912080D01*
X119128Y-924272D02*
Y-912080D01*
X102872Y-901920D02*
Y-889728D01*
X119128Y-901920D02*
Y-889728D01*
X102872D02*
X119128D01*
X144620Y-900650D02*
X152240D01*
X121760D02*
X129380D01*
X134460Y-914620D02*
X139540D01*
X152240D02*
Y-900650D01*
X121760Y-914620D02*
Y-900650D01*
X119728Y-947128D02*
Y-930872D01*
X131920D01*
X119728Y-947128D02*
X131920D01*
X142080Y-930872D02*
X154272D01*
X142080Y-947128D02*
X154272D01*
Y-930872D01*
X51910Y-1139410D02*
Y-1107660D01*
X-16670Y-1139410D02*
X51910D01*
X-31910Y-1124170D02*
X-16670Y-1139410D01*
X-31910Y-1124170D02*
Y-1107660D01*
Y-1087340D02*
Y-1070830D01*
X-16670Y-1055590D01*
X51910D01*
X-26830Y-1078450D02*
X-16750D01*
X-21750Y-1083450D02*
Y-1073370D01*
X51910Y-1087340D02*
Y-1055590D01*
X-19118Y-1166910D02*
Y-1154710D01*
X-35882D02*
X-19118D01*
X-35882Y-1166910D02*
Y-1154710D01*
Y-1189110D02*
Y-1176910D01*
Y-1189110D02*
X-19118D01*
Y-1176910D01*
X-15882Y-1176950D02*
Y-1164750D01*
Y-1176950D02*
X882D01*
Y-1164750D01*
Y-1154750D02*
Y-1142550D01*
X-15882D02*
X882D01*
X-15882Y-1154750D02*
Y-1142550D01*
X3000Y-1180500D02*
Y-1177550D01*
Y-1162450D02*
Y-1159500D01*
X27000Y-1162450D02*
Y-1159500D01*
Y-1180500D02*
Y-1177550D01*
X450882Y-1167000D02*
Y-1154800D01*
X434118D02*
X450882D01*
X434118Y-1167000D02*
Y-1154800D01*
Y-1189200D02*
Y-1177000D01*
Y-1189200D02*
X450882D01*
Y-1177000D01*
X497000Y-1180500D02*
Y-1177550D01*
Y-1162450D02*
Y-1159500D01*
X473000Y-1162450D02*
Y-1159500D01*
Y-1180500D02*
Y-1177550D01*
X454118Y-1176950D02*
Y-1164750D01*
Y-1176950D02*
X470882D01*
Y-1164750D01*
Y-1154750D02*
Y-1142550D01*
X454118D02*
X470882D01*
X454118Y-1154750D02*
Y-1142550D01*
X531910Y-1138910D02*
Y-1107160D01*
X463330Y-1138910D02*
X531910D01*
X448090Y-1123670D02*
X463330Y-1138910D01*
X448090Y-1123670D02*
Y-1107160D01*
Y-1086840D02*
Y-1070330D01*
X463330Y-1055090D01*
X531910D01*
X453170Y-1077950D02*
X463250D01*
X458250Y-1082950D02*
Y-1072870D01*
X531910Y-1086840D02*
Y-1055090D01*
X454372Y-1004772D02*
X470628D01*
X454372D02*
Y-992580D01*
X470628Y-1004772D02*
Y-992580D01*
X454372Y-982420D02*
Y-970228D01*
X470628Y-982420D02*
Y-970228D01*
X454372D02*
X470628D01*
X434372Y-1004772D02*
X450628D01*
X434372D02*
Y-992580D01*
X450628Y-1004772D02*
Y-992580D01*
X434372Y-982420D02*
Y-970228D01*
X450628Y-982420D02*
Y-970228D01*
X434372D02*
X450628D01*
X414118Y-982500D02*
Y-970300D01*
X430882D01*
Y-982500D02*
Y-970300D01*
Y-1004700D02*
Y-992500D01*
X414118Y-1004700D02*
X430882D01*
X414118D02*
Y-992500D01*
X366872Y-947728D02*
X383128D01*
Y-959920D02*
Y-947728D01*
X366872Y-959920D02*
Y-947728D01*
X383128Y-982272D02*
Y-970080D01*
X366872Y-982272D02*
Y-970080D01*
Y-982272D02*
X383128D01*
X357728Y-920628D02*
Y-904372D01*
X369920D01*
X357728Y-920628D02*
X369920D01*
X380080Y-904372D02*
X392272D01*
X380080Y-920628D02*
X392272D01*
Y-904372D01*
X394372Y-927888D02*
X410628D01*
Y-940080D02*
Y-927888D01*
X394372Y-940080D02*
Y-927888D01*
X410628Y-962432D02*
Y-950240D01*
X394372Y-962432D02*
Y-950240D01*
Y-962432D02*
X410628D01*
X394372Y-887568D02*
X410628D01*
Y-899760D02*
Y-887568D01*
X394372Y-899760D02*
Y-887568D01*
X410628Y-922112D02*
Y-909920D01*
X394372Y-922112D02*
Y-909920D01*
Y-922112D02*
X410628D01*
X410882Y-884700D02*
Y-872500D01*
X394118Y-884700D02*
X410882D01*
X394118D02*
Y-872500D01*
Y-862500D02*
Y-850300D01*
X410882D01*
Y-862500D02*
Y-850300D01*
X396618Y-747500D02*
Y-735300D01*
X413382D01*
Y-747500D02*
Y-735300D01*
Y-769700D02*
Y-757500D01*
X396618Y-769700D02*
X413382D01*
X396618D02*
Y-757500D01*
X376872Y-735228D02*
X393128D01*
Y-747420D02*
Y-735228D01*
X376872Y-747420D02*
Y-735228D01*
X393128Y-769772D02*
Y-757580D01*
X376872Y-769772D02*
Y-757580D01*
Y-769772D02*
X393128D01*
X356618Y-769700D02*
Y-757500D01*
Y-769700D02*
X373382D01*
Y-757500D01*
Y-747500D02*
Y-735300D01*
X356618D02*
X373382D01*
X356618Y-747500D02*
Y-735300D01*
X540150Y-842250D02*
Y-740650D01*
X472840Y-854950D02*
Y-727950D01*
X508400D01*
X472840Y-854950D02*
X508400D01*
X414372Y-650228D02*
X430628D01*
Y-662420D02*
Y-650228D01*
X414372Y-662420D02*
Y-650228D01*
X430628Y-684772D02*
Y-672580D01*
X414372Y-684772D02*
Y-672580D01*
Y-684772D02*
X430628D01*
X414118Y-700000D02*
Y-687800D01*
X430882D01*
Y-700000D02*
Y-687800D01*
Y-722200D02*
Y-710000D01*
X414118Y-722200D02*
X430882D01*
X414118D02*
Y-710000D01*
X491272Y-620128D02*
Y-603872D01*
X479080Y-620128D02*
X491272D01*
X479080Y-603872D02*
X491272D01*
X456728Y-620128D02*
X468920D01*
X456728Y-603872D02*
X468920D01*
X456728Y-620128D02*
Y-603872D01*
X361568Y-643128D02*
Y-626872D01*
X373760D01*
X361568Y-643128D02*
X373760D01*
X383920Y-626872D02*
X396112D01*
X383920Y-643128D02*
X396112D01*
Y-626872D01*
X392272Y-623128D02*
Y-606872D01*
X380080Y-623128D02*
X392272D01*
X380080Y-606872D02*
X392272D01*
X357728Y-623128D02*
X369920D01*
X357728Y-606872D02*
X369920D01*
X357728Y-623128D02*
Y-606872D01*
X531910Y-706910D02*
Y-675160D01*
X463330Y-706910D02*
X531910D01*
X448090Y-691670D02*
X463330Y-706910D01*
X448090Y-691670D02*
Y-675160D01*
Y-654840D02*
Y-638330D01*
X463330Y-623090D01*
X531910D01*
X453170Y-645950D02*
X463250D01*
X458250Y-650950D02*
Y-640870D01*
X531910Y-654840D02*
Y-623090D01*
X515500Y-531000D02*
X542000D01*
Y-569000D02*
Y-531000D01*
X515500Y-569000D02*
X542000D01*
X468000Y-531000D02*
X488500D01*
X462000Y-563000D02*
Y-537000D01*
X468000Y-569000D02*
X488500D01*
X462000Y-537000D02*
X468000Y-531000D01*
X462000Y-563000D02*
X468000Y-569000D01*
X456800Y-601382D02*
X469000D01*
X456800D02*
Y-584618D01*
X469000D01*
X479000D02*
X491200D01*
Y-601382D02*
Y-584618D01*
X479000Y-601382D02*
X491200D01*
X435872Y-565728D02*
X452128D01*
Y-577920D02*
Y-565728D01*
X435872Y-577920D02*
Y-565728D01*
X452128Y-600272D02*
Y-588080D01*
X435872Y-600272D02*
Y-588080D01*
Y-600272D02*
X452128D01*
X405380Y-601000D02*
X420620D01*
X405380Y-571000D02*
X420620D01*
X405380Y-581428D02*
Y-581174D01*
Y-590826D02*
Y-590572D01*
X420620Y-581174D02*
Y-580920D01*
Y-590572D02*
Y-590318D01*
X368000Y-601500D02*
Y-601000D01*
X382000Y-601500D02*
Y-601000D01*
X368000Y-579000D02*
Y-578500D01*
X382000Y-579000D02*
Y-578500D01*
X368000D02*
X382000D01*
X368000Y-601500D02*
X382000D01*
X458500Y-560000D02*
Y-456000D01*
X355500D02*
X388000D01*
X355500Y-560000D02*
Y-456000D01*
Y-560000D02*
X388000D01*
X426000D02*
X458500D01*
X426000Y-456000D02*
X458500D01*
X399118Y-444700D02*
Y-432500D01*
Y-444700D02*
X415882D01*
Y-432500D01*
Y-422500D02*
Y-410300D01*
X399118D02*
X415882D01*
X399118Y-422500D02*
Y-410300D01*
X359118Y-444540D02*
Y-432340D01*
Y-444540D02*
X375882D01*
Y-432340D01*
Y-422340D02*
Y-410140D01*
X359118D02*
X375882D01*
X359118Y-422340D02*
Y-410140D01*
X379212Y-410068D02*
X395468D01*
Y-422260D02*
Y-410068D01*
X379212Y-422260D02*
Y-410068D01*
X395468Y-444612D02*
Y-432420D01*
X379212Y-444612D02*
Y-432420D01*
Y-444612D02*
X395468D01*
X414118Y-402360D02*
Y-390160D01*
Y-402360D02*
X430882D01*
Y-390160D01*
Y-380160D02*
Y-367960D01*
X414118D02*
X430882D01*
X414118Y-380160D02*
Y-367960D01*
X414372Y-364772D02*
X430628D01*
X414372D02*
Y-352580D01*
X430628Y-364772D02*
Y-352580D01*
X414372Y-342420D02*
Y-330228D01*
X430628Y-342420D02*
Y-330228D01*
X414372D02*
X430628D01*
X397728Y-320628D02*
Y-304372D01*
X409920D01*
X397728Y-320628D02*
X409920D01*
X420080Y-304372D02*
X432272D01*
X420080Y-320628D02*
X432272D01*
Y-304372D01*
X360000Y-351030D02*
X410000D01*
X360000Y-378970D02*
X410000D01*
Y-351030D01*
X360000Y-378970D02*
Y-351030D01*
Y-373810D02*
X410000D01*
X394772Y-320628D02*
Y-304372D01*
X382580Y-320628D02*
X394772D01*
X382580Y-304372D02*
X394772D01*
X360228Y-320628D02*
X372420D01*
X360228Y-304372D02*
X372420D01*
X360228Y-320628D02*
Y-304372D01*
X394772Y-295628D02*
Y-279372D01*
X382580Y-295628D02*
X394772D01*
X382580Y-279372D02*
X394772D01*
X360228Y-295628D02*
X372420D01*
X360228Y-279372D02*
X372420D01*
X360228Y-295628D02*
Y-279372D01*
X406800Y-281618D02*
X419000D01*
X406800Y-298382D02*
Y-281618D01*
Y-298382D02*
X419000D01*
X429000D02*
X441200D01*
Y-281618D01*
X429000D02*
X441200D01*
X424372Y-245228D02*
X440628D01*
Y-257420D02*
Y-245228D01*
X424372Y-257420D02*
Y-245228D01*
X440628Y-279772D02*
Y-267580D01*
X424372Y-279772D02*
Y-267580D01*
Y-279772D02*
X440628D01*
X392500Y-262620D02*
Y-247380D01*
X422500Y-262620D02*
Y-247380D01*
X412072D02*
X412326D01*
X402674D02*
X402928D01*
X412326Y-262620D02*
X412580D01*
X402928D02*
X403182D01*
X365500Y-274000D02*
Y-273500D01*
X379500Y-274000D02*
Y-273500D01*
X365500Y-251500D02*
Y-251000D01*
X379500Y-251500D02*
Y-251000D01*
X365500D02*
X379500D01*
X365500Y-274000D02*
X379500D01*
X519500Y-322000D02*
X546000D01*
Y-360000D02*
Y-322000D01*
X519500Y-360000D02*
X546000D01*
X472000Y-322000D02*
X492500D01*
X466000Y-354000D02*
Y-328000D01*
X472000Y-360000D02*
X492500D01*
X466000Y-328000D02*
X472000Y-322000D01*
X466000Y-354000D02*
X472000Y-360000D01*
X531910Y-447910D02*
Y-416160D01*
X463330Y-447910D02*
X531910D01*
X448090Y-432670D02*
X463330Y-447910D01*
X448090Y-432670D02*
Y-416160D01*
Y-395840D02*
Y-379330D01*
X463330Y-364090D01*
X531910D01*
X453170Y-386950D02*
X463250D01*
X458250Y-391950D02*
Y-381870D01*
X531910Y-395840D02*
Y-364090D01*
Y-141840D02*
Y-110090D01*
X458250Y-137950D02*
Y-127870D01*
X453170Y-132950D02*
X463250D01*
X463330Y-110090D02*
X531910D01*
X448090Y-125330D02*
X463330Y-110090D01*
X448090Y-141840D02*
Y-125330D01*
Y-178670D02*
Y-162160D01*
Y-178670D02*
X463330Y-193910D01*
X531910D01*
Y-162160D01*
X449240Y-108350D02*
Y-94380D01*
X418760Y-108350D02*
Y-94380D01*
X431460D02*
X436540D01*
X441620Y-108350D02*
X449240D01*
X418760D02*
X426380D01*
X416728Y-78128D02*
Y-61872D01*
X428920D01*
X416728Y-78128D02*
X428920D01*
X439080Y-61872D02*
X451272D01*
X439080Y-78128D02*
X451272D01*
Y-61872D01*
X402000Y-109500D02*
X416000D01*
X402000Y-132500D02*
X416000D01*
X402000D02*
Y-132000D01*
X416000Y-132500D02*
Y-132000D01*
X402000Y-110000D02*
Y-109500D01*
X416000Y-110000D02*
Y-109500D01*
X439272Y-194128D02*
Y-177872D01*
X427080Y-194128D02*
X439272D01*
X427080Y-177872D02*
X439272D01*
X404728Y-194128D02*
X416920D01*
X404728Y-177872D02*
X416920D01*
X404728Y-194128D02*
Y-177872D01*
X416872Y-175112D02*
X433128D01*
X416872D02*
Y-162920D01*
X433128Y-175112D02*
Y-162920D01*
X416872Y-152760D02*
Y-140568D01*
X433128Y-152760D02*
Y-140568D01*
X416872D02*
X433128D01*
X439272Y-214128D02*
Y-197872D01*
X427080Y-214128D02*
X439272D01*
X427080Y-197872D02*
X439272D01*
X404728Y-214128D02*
X416920D01*
X404728Y-197872D02*
X416920D01*
X404728Y-214128D02*
Y-197872D01*
X439272Y-233128D02*
Y-216872D01*
X427080Y-233128D02*
X439272D01*
X427080Y-216872D02*
X439272D01*
X404728Y-233128D02*
X416920D01*
X404728Y-216872D02*
X416920D01*
X404728Y-233128D02*
Y-216872D01*
X367728Y-233128D02*
Y-216872D01*
X379920D01*
X367728Y-233128D02*
X379920D01*
X390080Y-216872D02*
X402272D01*
X390080Y-233128D02*
X402272D01*
Y-216872D01*
X365000Y-191500D02*
X379000D01*
X365000Y-214500D02*
X379000D01*
X365000D02*
Y-214000D01*
X379000Y-214500D02*
Y-214000D01*
X365000Y-192000D02*
Y-191500D01*
X379000Y-192000D02*
Y-191500D01*
X392240Y-131350D02*
Y-117380D01*
X361760Y-131350D02*
Y-117380D01*
X374460D02*
X379540D01*
X384620Y-131350D02*
X392240D01*
X361760D02*
X369380D01*
X369650Y-167380D02*
Y-159760D01*
Y-190240D02*
Y-182620D01*
X383620Y-177540D02*
Y-172460D01*
X369650Y-159760D02*
X383620D01*
X369650Y-190240D02*
X383620D01*
X392000Y-159500D02*
X406000D01*
X392000Y-136500D02*
X406000D01*
Y-137000D02*
Y-136500D01*
X392000Y-137000D02*
Y-136500D01*
X406000Y-159500D02*
Y-159000D01*
X392000Y-159500D02*
Y-159000D01*
X546500Y-310500D02*
Y-206500D01*
X443500D02*
X476000D01*
X443500Y-310500D02*
Y-206500D01*
Y-310500D02*
X476000D01*
X514000D02*
X546500D01*
X514000Y-206500D02*
X546500D01*
X443840Y-313400D02*
X464160D01*
X443840Y-328500D02*
Y-313400D01*
X464160Y-328500D02*
Y-313400D01*
X443840Y-360622D02*
Y-345500D01*
X464160Y-360622D02*
Y-345500D01*
X443840Y-360622D02*
X464160D01*
X225760Y-913620D02*
Y-899650D01*
X256240Y-913620D02*
Y-899650D01*
X238460Y-913620D02*
X243540D01*
X225760Y-899650D02*
X233380D01*
X248620D02*
X256240D01*
X173760Y-913620D02*
Y-899650D01*
X204240Y-913620D02*
Y-899650D01*
X186460Y-913620D02*
X191540D01*
X173760Y-899650D02*
X181380D01*
X196620D02*
X204240D01*
X258272Y-946128D02*
Y-929872D01*
X246080Y-946128D02*
X258272D01*
X246080Y-929872D02*
X258272D01*
X223728Y-946128D02*
X235920D01*
X223728Y-929872D02*
X235920D01*
X223728Y-946128D02*
Y-929872D01*
X206272Y-946128D02*
Y-929872D01*
X194080Y-946128D02*
X206272D01*
X194080Y-929872D02*
X206272D01*
X171728Y-946128D02*
X183920D01*
X171728Y-929872D02*
X183920D01*
X171728Y-946128D02*
Y-929872D01*
X34000Y55000D02*
Y56500D01*
X6000Y55000D02*
Y56500D01*
X27000Y55000D02*
X34000D01*
X25000Y56000D02*
X27000Y55000D01*
X24000Y56000D02*
X25000D01*
X15000D02*
X24000D01*
X13000Y55000D02*
X15000Y56000D01*
X6000Y55000D02*
X13000D01*
X17000Y68000D02*
X23000D01*
X-11000Y55000D02*
Y56500D01*
X-39000Y55000D02*
Y56500D01*
X-18000Y55000D02*
X-11000D01*
X-20000Y56000D02*
X-18000Y55000D01*
X-21000Y56000D02*
X-20000D01*
X-30000D02*
X-21000D01*
X-32000Y55000D02*
X-30000Y56000D01*
X-39000Y55000D02*
X-32000D01*
X-28000Y68000D02*
X-22000D01*
X477000D02*
X483000D01*
X466000Y55000D02*
X473000D01*
X475000Y56000D01*
X484000D01*
X485000D01*
X487000Y55000D01*
X494000D01*
X466000D02*
Y56500D01*
X494000Y55000D02*
Y56500D01*
X522000Y68000D02*
X528000D01*
X511000Y55000D02*
X518000D01*
X520000Y56000D01*
X529000D01*
X530000D01*
X532000Y55000D01*
X539000D01*
X511000D02*
Y56500D01*
X539000Y55000D02*
Y56500D01*
D13*
X84249Y39173D02*
X97330Y26092D01*
X110538Y39300D01*
X273860Y-25724D02*
Y39300D01*
X225600Y-26232D02*
Y39300D01*
Y-26232D02*
X273860D01*
X245920D02*
Y31680D01*
X249730Y35490D01*
X253540Y31680D01*
Y-26232D02*
Y31680D01*
X452800Y-48700D02*
Y39300D01*
X46400D02*
X452800D01*
X46400Y-48700D02*
X452800D01*
X46400D02*
Y39300D01*
D14*
X359500Y-983750D02*
Y-946250D01*
X390500Y-983750D02*
Y-946250D01*
X359500Y-983750D02*
X390500D01*
X359500Y-946250D02*
X390500D01*
X359500Y-979500D02*
X390500D01*
X412500Y-938750D02*
Y-901250D01*
X443500Y-938750D02*
Y-901250D01*
X412500Y-938750D02*
X443500D01*
X412500Y-901250D02*
X443500D01*
X412500Y-934500D02*
X443500D01*
D15*
X440000Y-1049000D02*
X434002D01*
Y-1046001D01*
X435002Y-1045001D01*
X437001D01*
X438001Y-1046001D01*
Y-1049000D01*
Y-1047001D02*
X440000Y-1045001D01*
Y-1043002D02*
Y-1041003D01*
Y-1042002D01*
X434002D01*
X435002Y-1043002D01*
X440000Y-1038004D02*
Y-1036004D01*
Y-1037004D01*
X434002D01*
X435002Y-1038004D01*
X477999Y-1028000D02*
Y-1024002D01*
X476999Y-1023002D01*
X475000D01*
X474000Y-1024002D01*
Y-1028000D01*
X475000Y-1029000D01*
X476999D01*
X475999Y-1027001D02*
X477999Y-1029000D01*
X476999D02*
X477999Y-1028000D01*
X482997Y-1029000D02*
Y-1023002D01*
X479998Y-1026001D01*
X483997D01*
X477999Y-983000D02*
Y-979002D01*
X476999Y-978002D01*
X475000D01*
X474000Y-979002D01*
Y-983000D01*
X475000Y-984000D01*
X476999D01*
X475999Y-982001D02*
X477999Y-984000D01*
X476999D02*
X477999Y-983000D01*
X479998Y-979002D02*
X480998Y-978002D01*
X482997D01*
X483997Y-979002D01*
Y-980001D01*
X482997Y-981001D01*
X481997D01*
X482997D01*
X483997Y-982001D01*
Y-983000D01*
X482997Y-984000D01*
X480998D01*
X479998Y-983000D01*
X449000Y-825000D02*
X443002D01*
Y-822001D01*
X444002Y-821001D01*
X446001D01*
X447001Y-822001D01*
Y-825000D01*
Y-823001D02*
X449000Y-821001D01*
Y-815003D02*
Y-819002D01*
X445001Y-815003D01*
X444002D01*
X443002Y-816003D01*
Y-818002D01*
X444002Y-819002D01*
X449000Y-813004D02*
Y-811004D01*
Y-812004D01*
X443002D01*
X444002Y-813004D01*
X441002Y-776000D02*
X447000D01*
Y-773001D01*
X446000Y-772001D01*
X442002D01*
X441002Y-773001D01*
Y-776000D01*
X447000Y-767003D02*
X441002D01*
X444001Y-770002D01*
Y-766003D01*
X399999Y-1008002D02*
X398999Y-1007002D01*
X397000D01*
X396000Y-1008002D01*
Y-1012000D01*
X397000Y-1013000D01*
X398999D01*
X399999Y-1012000D01*
X401998Y-1008002D02*
X402998Y-1007002D01*
X404997D01*
X405997Y-1008002D01*
Y-1009001D01*
X404997Y-1010001D01*
X403997D01*
X404997D01*
X405997Y-1011001D01*
Y-1012000D01*
X404997Y-1013000D01*
X402998D01*
X401998Y-1012000D01*
X-32000Y-139002D02*
Y-145000D01*
X-29001D01*
X-28001Y-144000D01*
Y-143001D01*
X-29001Y-142001D01*
X-32000D01*
X-29001D01*
X-28001Y-141001D01*
Y-140002D01*
X-29001Y-139002D01*
X-32000D01*
X-26002D02*
X-22003D01*
X-24003D01*
Y-145000D01*
X-20004D02*
X-18004D01*
X-19004D01*
Y-139002D01*
X-20004Y-140002D01*
X523000Y-1049000D02*
X517002D01*
Y-1046001D01*
X518002Y-1045001D01*
X520001D01*
X521001Y-1046001D01*
Y-1049000D01*
Y-1047001D02*
X523000Y-1045001D01*
X522000Y-1043002D02*
X523000Y-1042002D01*
Y-1040003D01*
X522000Y-1039003D01*
X518002D01*
X517002Y-1040003D01*
Y-1042002D01*
X518002Y-1043002D01*
X519001D01*
X520001Y-1042002D01*
Y-1039003D01*
X523000Y-992000D02*
X517002D01*
Y-989001D01*
X518002Y-988001D01*
X520001D01*
X521001Y-989001D01*
Y-992000D01*
Y-990001D02*
X523000Y-988001D01*
X518002Y-986002D02*
X517002Y-985002D01*
Y-983003D01*
X518002Y-982003D01*
X519001D01*
X520001Y-983003D01*
X521001Y-982003D01*
X522000D01*
X523000Y-983003D01*
Y-985002D01*
X522000Y-986002D01*
X521001D01*
X520001Y-985002D01*
X519001Y-986002D01*
X518002D01*
X520001Y-985002D02*
Y-983003D01*
X523000Y-1011000D02*
X517002D01*
Y-1008001D01*
X518002Y-1007001D01*
X520001D01*
X521001Y-1008001D01*
Y-1011000D01*
Y-1009001D02*
X523000Y-1007001D01*
X517002Y-1005002D02*
Y-1001003D01*
X518002D01*
X522000Y-1005002D01*
X523000D01*
X404393Y-1042054D02*
Y-1038056D01*
X403393Y-1037056D01*
X401394D01*
X400394Y-1038056D01*
Y-1042054D01*
X401394Y-1043054D01*
X403393D01*
X402393Y-1041055D02*
X404393Y-1043054D01*
X403393D02*
X404393Y-1042054D01*
X410391Y-1043054D02*
X406392D01*
X410391Y-1039055D01*
Y-1038056D01*
X409391Y-1037056D01*
X407392D01*
X406392Y-1038056D01*
X518002Y-968001D02*
X517002Y-969001D01*
Y-971000D01*
X518002Y-972000D01*
X522000D01*
X523000Y-971000D01*
Y-969001D01*
X522000Y-968001D01*
X517002Y-962003D02*
Y-966002D01*
X520001D01*
X519001Y-964003D01*
Y-963003D01*
X520001Y-962003D01*
X522000D01*
X523000Y-963003D01*
Y-965002D01*
X522000Y-966002D01*
X518002Y-1026001D02*
X517002Y-1027001D01*
Y-1029000D01*
X518002Y-1030000D01*
X522000D01*
X523000Y-1029000D01*
Y-1027001D01*
X522000Y-1026001D01*
X523000Y-1021003D02*
X517002D01*
X520001Y-1024002D01*
Y-1020003D01*
X159000Y-141002D02*
Y-147000D01*
X161999D01*
X162999Y-146000D01*
Y-145001D01*
X161999Y-144001D01*
X159000D01*
X161999D01*
X162999Y-143001D01*
Y-142002D01*
X161999Y-141002D01*
X159000D01*
X164998D02*
X168997D01*
X166997D01*
Y-147000D01*
X170996Y-142002D02*
X171996Y-141002D01*
X173995D01*
X174995Y-142002D01*
Y-143001D01*
X173995Y-144001D01*
X172995D01*
X173995D01*
X174995Y-145001D01*
Y-146000D01*
X173995Y-147000D01*
X171996D01*
X170996Y-146000D01*
X415000Y-627000D02*
Y-621002D01*
X417999D01*
X418999Y-622002D01*
Y-624001D01*
X417999Y-625001D01*
X415000D01*
X416999D02*
X418999Y-627000D01*
X420998D02*
X422997D01*
X421998D01*
Y-621002D01*
X420998Y-622002D01*
X429995Y-621002D02*
X427996Y-622002D01*
X425996Y-624001D01*
Y-626000D01*
X426996Y-627000D01*
X428996D01*
X429995Y-626000D01*
Y-625001D01*
X428996Y-624001D01*
X425996D01*
X453000Y-628000D02*
X447002D01*
Y-625001D01*
X448002Y-624001D01*
X450001D01*
X451001Y-625001D01*
Y-628000D01*
X453000Y-622002D02*
Y-620003D01*
Y-621002D01*
X447002D01*
X448002Y-622002D01*
X166000Y-942000D02*
X160002D01*
Y-939001D01*
X161002Y-938001D01*
X163001D01*
X164001Y-939001D01*
Y-942000D01*
Y-940001D02*
X166000Y-938001D01*
X161002Y-936002D02*
X160002Y-935002D01*
Y-933003D01*
X161002Y-932003D01*
X162001D01*
X163001Y-933003D01*
Y-934003D01*
Y-933003D01*
X164001Y-932003D01*
X165000D01*
X166000Y-933003D01*
Y-935002D01*
X165000Y-936002D01*
X166000Y-930004D02*
Y-928005D01*
Y-929004D01*
X160002D01*
X161002Y-930004D01*
X-45000Y-99002D02*
Y-105000D01*
X-42001D01*
X-41001Y-104000D01*
Y-103001D01*
X-42001Y-102001D01*
X-45000D01*
X-42001D01*
X-41001Y-101001D01*
Y-100002D01*
X-42001Y-99002D01*
X-45000D01*
X-39002D02*
X-35003D01*
X-37003D01*
Y-105000D01*
X-29005D02*
X-33004D01*
X-29005Y-101001D01*
Y-100002D01*
X-30005Y-99002D01*
X-32004D01*
X-33004Y-100002D01*
X406999Y-257000D02*
Y-253002D01*
X405999Y-252002D01*
X404000D01*
X403000Y-253002D01*
Y-257000D01*
X404000Y-258000D01*
X405999D01*
X404999Y-256001D02*
X406999Y-258000D01*
X405999D02*
X406999Y-257000D01*
X408998Y-252002D02*
X412997D01*
Y-253002D01*
X408998Y-257000D01*
Y-258000D01*
X433999Y-130000D02*
Y-126002D01*
X432999Y-125002D01*
X431000D01*
X430000Y-126002D01*
Y-130000D01*
X431000Y-131000D01*
X432999D01*
X431999Y-129001D02*
X433999Y-131000D01*
X432999D02*
X433999Y-130000D01*
X435998Y-131000D02*
X437997D01*
X436998D01*
Y-125002D01*
X435998Y-126002D01*
X440996D02*
X441996Y-125002D01*
X443996D01*
X444995Y-126002D01*
Y-127001D01*
X443996Y-128001D01*
X444995Y-129001D01*
Y-130000D01*
X443996Y-131000D01*
X441996D01*
X440996Y-130000D01*
Y-129001D01*
X441996Y-128001D01*
X440996Y-127001D01*
Y-126002D01*
X441996Y-128001D02*
X443996D01*
X367999Y-154000D02*
Y-150002D01*
X366999Y-149002D01*
X365000D01*
X364000Y-150002D01*
Y-154000D01*
X365000Y-155000D01*
X366999D01*
X365999Y-153001D02*
X367999Y-155000D01*
X366999D02*
X367999Y-154000D01*
X369998Y-155000D02*
X371997D01*
X370998D01*
Y-149002D01*
X369998Y-150002D01*
X378995Y-149002D02*
X376996Y-150002D01*
X374996Y-152001D01*
Y-154000D01*
X375996Y-155000D01*
X377995D01*
X378995Y-154000D01*
Y-153001D01*
X377995Y-152001D01*
X374996D01*
X395000Y-206001D02*
X391002D01*
X390002Y-207001D01*
Y-209000D01*
X391002Y-210000D01*
X395000D01*
X396000Y-209000D01*
Y-207001D01*
X394001Y-208001D02*
X396000Y-206001D01*
Y-207001D02*
X395000Y-206001D01*
X396000Y-204002D02*
Y-202003D01*
Y-203002D01*
X390002D01*
X391002Y-204002D01*
X396000Y-196005D02*
X390002D01*
X393001Y-199004D01*
Y-195005D01*
X435000Y-59000D02*
Y-53002D01*
X437999D01*
X438999Y-54002D01*
Y-56001D01*
X437999Y-57001D01*
X435000D01*
X436999D02*
X438999Y-59000D01*
X443997D02*
Y-53002D01*
X440998Y-56001D01*
X444997D01*
X446996Y-54002D02*
X447996Y-53002D01*
X449995D01*
X450995Y-54002D01*
Y-55001D01*
X449995Y-56001D01*
X448996D01*
X449995D01*
X450995Y-57001D01*
Y-58000D01*
X449995Y-59000D01*
X447996D01*
X446996Y-58000D01*
X417000Y-161000D02*
Y-155002D01*
X419999D01*
X420999Y-156002D01*
Y-158001D01*
X419999Y-159001D01*
X417000D01*
X418999D02*
X420999Y-161000D01*
X425997D02*
Y-155002D01*
X422998Y-158001D01*
X426997D01*
X432995Y-161000D02*
X428996D01*
X432995Y-157001D01*
Y-156002D01*
X431995Y-155002D01*
X429996D01*
X428996Y-156002D01*
X425000Y-194000D02*
X419002D01*
Y-191001D01*
X420002Y-190001D01*
X422001D01*
X423001Y-191001D01*
Y-194000D01*
Y-192001D02*
X425000Y-190001D01*
Y-185003D02*
X419002D01*
X422001Y-188002D01*
Y-184003D01*
X425000Y-182004D02*
Y-180005D01*
Y-181004D01*
X419002D01*
X420002Y-182004D01*
X425000Y-214000D02*
X419002D01*
Y-211001D01*
X420002Y-210001D01*
X422001D01*
X423001Y-211001D01*
Y-214000D01*
Y-212001D02*
X425000Y-210001D01*
Y-205003D02*
X419002D01*
X422001Y-208002D01*
Y-204003D01*
X420002Y-202004D02*
X419002Y-201004D01*
Y-199005D01*
X420002Y-198005D01*
X424000D01*
X425000Y-199005D01*
Y-201004D01*
X424000Y-202004D01*
X420002D01*
X426999Y-103000D02*
Y-99002D01*
X425999Y-98002D01*
X424000D01*
X423000Y-99002D01*
Y-103000D01*
X424000Y-104000D01*
X425999D01*
X424999Y-102001D02*
X426999Y-104000D01*
X425999D02*
X426999Y-103000D01*
X428998Y-104000D02*
X430997D01*
X429998D01*
Y-98002D01*
X428998Y-99002D01*
X433996Y-98002D02*
X437995D01*
Y-99002D01*
X433996Y-103000D01*
Y-104000D01*
X368999Y-127000D02*
Y-123002D01*
X367999Y-122002D01*
X366000D01*
X365000Y-123002D01*
Y-127000D01*
X366000Y-128000D01*
X367999D01*
X366999Y-126001D02*
X368999Y-128000D01*
X367999D02*
X368999Y-127000D01*
X370998Y-128000D02*
X372997D01*
X371998D01*
Y-122002D01*
X370998Y-123002D01*
X379995Y-122002D02*
X375996D01*
Y-125001D01*
X377996Y-124001D01*
X378996D01*
X379995Y-125001D01*
Y-127000D01*
X378996Y-128000D01*
X376996D01*
X375996Y-127000D01*
X233000Y-955000D02*
Y-949002D01*
X235999D01*
X236999Y-950002D01*
Y-952001D01*
X235999Y-953001D01*
X233000D01*
X234999D02*
X236999Y-955000D01*
X238998Y-950002D02*
X239998Y-949002D01*
X241997D01*
X242997Y-950002D01*
Y-951001D01*
X241997Y-952001D01*
X240997D01*
X241997D01*
X242997Y-953001D01*
Y-954000D01*
X241997Y-955000D01*
X239998D01*
X238998Y-954000D01*
X248995Y-955000D02*
X244996D01*
X248995Y-951001D01*
Y-950002D01*
X247995Y-949002D01*
X245996D01*
X244996Y-950002D01*
X182000Y-955000D02*
Y-949002D01*
X184999D01*
X185999Y-950002D01*
Y-952001D01*
X184999Y-953001D01*
X182000D01*
X183999D02*
X185999Y-955000D01*
X187998Y-950002D02*
X188998Y-949002D01*
X190997D01*
X191997Y-950002D01*
Y-951001D01*
X190997Y-952001D01*
X189997D01*
X190997D01*
X191997Y-953001D01*
Y-954000D01*
X190997Y-955000D01*
X188998D01*
X187998Y-954000D01*
X193996Y-950002D02*
X194996Y-949002D01*
X196995D01*
X197995Y-950002D01*
Y-951001D01*
X196995Y-952001D01*
X195996D01*
X196995D01*
X197995Y-953001D01*
Y-954000D01*
X196995Y-955000D01*
X194996D01*
X193996Y-954000D01*
X218000Y-945000D02*
X212002D01*
Y-942001D01*
X213002Y-941001D01*
X215001D01*
X216001Y-942001D01*
Y-945000D01*
Y-943001D02*
X218000Y-941001D01*
X213002Y-939002D02*
X212002Y-938002D01*
Y-936003D01*
X213002Y-935003D01*
X214001D01*
X215001Y-936003D01*
Y-937003D01*
Y-936003D01*
X216001Y-935003D01*
X217000D01*
X218000Y-936003D01*
Y-938002D01*
X217000Y-939002D01*
X213002Y-933004D02*
X212002Y-932004D01*
Y-930005D01*
X213002Y-929005D01*
X217000D01*
X218000Y-930005D01*
Y-932004D01*
X217000Y-933004D01*
X213002D01*
X246999Y-909000D02*
Y-905002D01*
X245999Y-904002D01*
X244000D01*
X243000Y-905002D01*
Y-909000D01*
X244000Y-910000D01*
X245999D01*
X244999Y-908001D02*
X246999Y-910000D01*
X245999D02*
X246999Y-909000D01*
X248998D02*
X249998Y-910000D01*
X251997D01*
X252997Y-909000D01*
Y-905002D01*
X251997Y-904002D01*
X249998D01*
X248998Y-905002D01*
Y-906001D01*
X249998Y-907001D01*
X252997D01*
X189999Y-909000D02*
Y-905002D01*
X188999Y-904002D01*
X187000D01*
X186000Y-905002D01*
Y-909000D01*
X187000Y-910000D01*
X188999D01*
X187999Y-908001D02*
X189999Y-910000D01*
X188999D02*
X189999Y-909000D01*
X191998Y-910000D02*
X193997D01*
X192998D01*
Y-904002D01*
X191998Y-905002D01*
X196996D02*
X197996Y-904002D01*
X199995D01*
X200995Y-905002D01*
Y-909000D01*
X199995Y-910000D01*
X197996D01*
X196996Y-909000D01*
Y-905002D01*
X519999Y-1143002D02*
X518999Y-1142002D01*
X517000D01*
X516000Y-1143002D01*
Y-1147000D01*
X517000Y-1148000D01*
X518999D01*
X519999Y-1147000D01*
X521998Y-1148000D02*
X523997D01*
X522998D01*
Y-1142002D01*
X521998Y-1143002D01*
X526996Y-1142002D02*
X530995D01*
Y-1143002D01*
X526996Y-1147000D01*
Y-1148000D01*
X40999Y-1144002D02*
X39999Y-1143002D01*
X38000D01*
X37000Y-1144002D01*
Y-1148000D01*
X38000Y-1149000D01*
X39999D01*
X40999Y-1148000D01*
X46997Y-1149000D02*
X42998D01*
X46997Y-1145001D01*
Y-1144002D01*
X45997Y-1143002D01*
X43998D01*
X42998Y-1144002D01*
X48996D02*
X49996Y-1143002D01*
X51995D01*
X52995Y-1144002D01*
Y-1148000D01*
X51995Y-1149000D01*
X49996D01*
X48996Y-1148000D01*
Y-1144002D01*
X447002Y-939000D02*
X452000D01*
X453000Y-938000D01*
Y-936001D01*
X452000Y-935001D01*
X447002D01*
X453000Y-933002D02*
Y-931003D01*
Y-932002D01*
X447002D01*
X448002Y-933002D01*
X364000Y-902000D02*
X358002D01*
Y-899001D01*
X359002Y-898001D01*
X361001D01*
X362001Y-899001D01*
Y-902000D01*
Y-900001D02*
X364000Y-898001D01*
X358002Y-892003D02*
Y-896002D01*
X361001D01*
X360001Y-894003D01*
Y-893003D01*
X361001Y-892003D01*
X363000D01*
X364000Y-893003D01*
Y-895002D01*
X363000Y-896002D01*
X455000Y-968000D02*
Y-962002D01*
X457999D01*
X458999Y-963002D01*
Y-965001D01*
X457999Y-966001D01*
X455000D01*
X456999D02*
X458999Y-968000D01*
X463997D02*
Y-962002D01*
X460998Y-965001D01*
X464997D01*
X437000Y-1013000D02*
Y-1007002D01*
X439999D01*
X440999Y-1008002D01*
Y-1010001D01*
X439999Y-1011001D01*
X437000D01*
X438999D02*
X440999Y-1013000D01*
X442998Y-1008002D02*
X443998Y-1007002D01*
X445997D01*
X446997Y-1008002D01*
Y-1009001D01*
X445997Y-1010001D01*
X444997D01*
X445997D01*
X446997Y-1011001D01*
Y-1012000D01*
X445997Y-1013000D01*
X443998D01*
X442998Y-1012000D01*
X397000Y-948000D02*
Y-942002D01*
X399999D01*
X400999Y-943002D01*
Y-945001D01*
X399999Y-946001D01*
X397000D01*
X398999D02*
X400999Y-948000D01*
X406997D02*
X402998D01*
X406997Y-944001D01*
Y-943002D01*
X405997Y-942002D01*
X403998D01*
X402998Y-943002D01*
X398000Y-908000D02*
Y-902002D01*
X400999D01*
X401999Y-903002D01*
Y-905001D01*
X400999Y-906001D01*
X398000D01*
X399999D02*
X401999Y-908000D01*
X403998D02*
X405997D01*
X404998D01*
Y-902002D01*
X403998Y-903002D01*
X355000Y-965001D02*
X351002D01*
X350002Y-966001D01*
Y-968000D01*
X351002Y-969000D01*
X355000D01*
X356000Y-968000D01*
Y-966001D01*
X354001Y-967001D02*
X356000Y-965001D01*
Y-966001D02*
X355000Y-965001D01*
X356000Y-963002D02*
Y-961003D01*
Y-962002D01*
X350002D01*
X351002Y-963002D01*
X418999Y-963002D02*
X417999Y-962002D01*
X416000D01*
X415000Y-963002D01*
Y-967000D01*
X416000Y-968000D01*
X417999D01*
X418999Y-967000D01*
X424997Y-968000D02*
X420998D01*
X424997Y-964001D01*
Y-963002D01*
X423997Y-962002D01*
X421998D01*
X420998Y-963002D01*
X386002Y-862001D02*
X385002Y-863001D01*
Y-865000D01*
X386002Y-866000D01*
X390000D01*
X391000Y-865000D01*
Y-863001D01*
X390000Y-862001D01*
X391000Y-860002D02*
Y-858003D01*
Y-859002D01*
X385002D01*
X386002Y-860002D01*
X536002Y-703001D02*
X535002Y-704001D01*
Y-706000D01*
X536002Y-707000D01*
X540000D01*
X541000Y-706000D01*
Y-704001D01*
X540000Y-703001D01*
X535002Y-697003D02*
X536002Y-699003D01*
X538001Y-701002D01*
X540000D01*
X541000Y-700002D01*
Y-698003D01*
X540000Y-697003D01*
X539001D01*
X538001Y-698003D01*
Y-701002D01*
X380000Y-681002D02*
Y-686000D01*
X381000Y-687000D01*
X382999D01*
X383999Y-686000D01*
Y-681002D01*
X389997Y-687000D02*
X385998D01*
X389997Y-683001D01*
Y-682002D01*
X388997Y-681002D01*
X386998D01*
X385998Y-682002D01*
X477000Y-619000D02*
X471002D01*
Y-616001D01*
X472002Y-615001D01*
X474001D01*
X475001Y-616001D01*
Y-619000D01*
Y-617001D02*
X477000Y-615001D01*
Y-613002D02*
Y-611003D01*
Y-612002D01*
X471002D01*
X472002Y-613002D01*
X471002Y-604005D02*
Y-608004D01*
X474001D01*
X473001Y-606004D01*
Y-605005D01*
X474001Y-604005D01*
X476000D01*
X477000Y-605005D01*
Y-607004D01*
X476000Y-608004D01*
X382000Y-643000D02*
X376002D01*
Y-640001D01*
X377002Y-639001D01*
X379001D01*
X380001Y-640001D01*
Y-643000D01*
Y-641001D02*
X382000Y-639001D01*
Y-637002D02*
Y-635003D01*
Y-636002D01*
X376002D01*
X377002Y-637002D01*
X381000Y-632004D02*
X382000Y-631004D01*
Y-629005D01*
X381000Y-628005D01*
X377002D01*
X376002Y-629005D01*
Y-631004D01*
X377002Y-632004D01*
X378001D01*
X379001Y-631004D01*
Y-628005D01*
X440000Y-684000D02*
X434002D01*
Y-681001D01*
X435002Y-680001D01*
X437001D01*
X438001Y-681001D01*
Y-684000D01*
Y-682001D02*
X440000Y-680001D01*
Y-678002D02*
Y-676003D01*
Y-677002D01*
X434002D01*
X435002Y-678002D01*
X440000Y-669005D02*
Y-673004D01*
X436001Y-669005D01*
X435002D01*
X434002Y-670005D01*
Y-672004D01*
X435002Y-673004D01*
X464002Y-735001D02*
X463002Y-736001D01*
Y-738000D01*
X464002Y-739000D01*
X465001D01*
X466001Y-738000D01*
Y-736001D01*
X467001Y-735001D01*
X468000D01*
X469000Y-736001D01*
Y-738000D01*
X468000Y-739000D01*
X463002Y-733002D02*
X469000D01*
X467001Y-731003D01*
X469000Y-729003D01*
X463002D01*
X469000Y-723005D02*
Y-727004D01*
X465001Y-723005D01*
X464002D01*
X463002Y-724005D01*
Y-726004D01*
X464002Y-727004D01*
X449000Y-448002D02*
Y-454000D01*
X452999D01*
X454998D02*
X456997D01*
X455998D01*
Y-448002D01*
X454998Y-449002D01*
X532000Y-522002D02*
Y-528000D01*
X534999D01*
X535999Y-527000D01*
Y-523002D01*
X534999Y-522002D01*
X532000D01*
X537998Y-523002D02*
X538998Y-522002D01*
X540997D01*
X541997Y-523002D01*
Y-524001D01*
X540997Y-525001D01*
X539997D01*
X540997D01*
X541997Y-526001D01*
Y-527000D01*
X540997Y-528000D01*
X538998D01*
X537998Y-527000D01*
X536002Y-444001D02*
X535002Y-445001D01*
Y-447000D01*
X536002Y-448000D01*
X540000D01*
X541000Y-447000D01*
Y-445001D01*
X540000Y-444001D01*
X535002Y-442002D02*
Y-438003D01*
X536002D01*
X540000Y-442002D01*
X541000D01*
X498499Y-596502D02*
X497499Y-595502D01*
X495500D01*
X494500Y-596502D01*
Y-600500D01*
X495500Y-601500D01*
X497499D01*
X498499Y-600500D01*
X500498Y-596502D02*
X501498Y-595502D01*
X503497D01*
X504497Y-596502D01*
Y-597501D01*
X503497Y-598501D01*
X504497Y-599501D01*
Y-600500D01*
X503497Y-601500D01*
X501498D01*
X500498Y-600500D01*
Y-599501D01*
X501498Y-598501D01*
X500498Y-597501D01*
Y-596502D01*
X501498Y-598501D02*
X503497D01*
X402999Y-774002D02*
X401999Y-773002D01*
X400000D01*
X399000Y-774002D01*
Y-778000D01*
X400000Y-779000D01*
X401999D01*
X402999Y-778000D01*
X404998Y-779000D02*
X406997D01*
X405998D01*
Y-773002D01*
X404998Y-774002D01*
X409996D02*
X410996Y-773002D01*
X412995D01*
X413995Y-774002D01*
Y-778000D01*
X412995Y-779000D01*
X410996D01*
X409996Y-778000D01*
Y-774002D01*
X435002Y-717001D02*
X434002Y-718001D01*
Y-720000D01*
X435002Y-721000D01*
X439000D01*
X440000Y-720000D01*
Y-718001D01*
X439000Y-717001D01*
Y-715002D02*
X440000Y-714002D01*
Y-712003D01*
X439000Y-711003D01*
X435002D01*
X434002Y-712003D01*
Y-714002D01*
X435002Y-715002D01*
X436001D01*
X437001Y-714002D01*
Y-711003D01*
X362999Y-774002D02*
X361999Y-773002D01*
X360000D01*
X359000Y-774002D01*
Y-778000D01*
X360000Y-779000D01*
X361999D01*
X362999Y-778000D01*
X364998Y-779000D02*
X366997D01*
X365998D01*
Y-773002D01*
X364998Y-774002D01*
X369996Y-779000D02*
X371996D01*
X370996D01*
Y-773002D01*
X369996Y-774002D01*
X414500Y-585001D02*
X410502D01*
X409502Y-586001D01*
Y-588000D01*
X410502Y-589000D01*
X414500D01*
X415500Y-588000D01*
Y-586001D01*
X413501Y-587001D02*
X415500Y-585001D01*
Y-586001D02*
X414500Y-585001D01*
X409502Y-579003D02*
Y-583002D01*
X412501D01*
X411501Y-581003D01*
Y-580003D01*
X412501Y-579003D01*
X414500D01*
X415500Y-580003D01*
Y-582002D01*
X414500Y-583002D01*
X370999Y-247000D02*
Y-243002D01*
X369999Y-242002D01*
X368000D01*
X367000Y-243002D01*
Y-247000D01*
X368000Y-248000D01*
X369999D01*
X368999Y-246001D02*
X370999Y-248000D01*
X369999D02*
X370999Y-247000D01*
X372998Y-243002D02*
X373998Y-242002D01*
X375997D01*
X376997Y-243002D01*
Y-244001D01*
X375997Y-245001D01*
X376997Y-246001D01*
Y-247000D01*
X375997Y-248000D01*
X373998D01*
X372998Y-247000D01*
Y-246001D01*
X373998Y-245001D01*
X372998Y-244001D01*
Y-243002D01*
X373998Y-245001D02*
X375997D01*
X378000Y-623000D02*
X372002D01*
Y-620001D01*
X373002Y-619001D01*
X375001D01*
X376001Y-620001D01*
Y-623000D01*
Y-621001D02*
X378000Y-619001D01*
Y-617002D02*
Y-615003D01*
Y-616002D01*
X372002D01*
X373002Y-617002D01*
Y-612004D02*
X372002Y-611004D01*
Y-609005D01*
X373002Y-608005D01*
X374001D01*
X375001Y-609005D01*
Y-610004D01*
Y-609005D01*
X376001Y-608005D01*
X377000D01*
X378000Y-609005D01*
Y-611004D01*
X377000Y-612004D01*
X378000Y-733000D02*
Y-727002D01*
X380999D01*
X381999Y-728002D01*
Y-730001D01*
X380999Y-731001D01*
X378000D01*
X379999D02*
X381999Y-733000D01*
X383998D02*
X385997D01*
X384998D01*
Y-727002D01*
X383998Y-728002D01*
X388996D02*
X389996Y-727002D01*
X391996D01*
X392995Y-728002D01*
Y-729001D01*
X391996Y-730001D01*
X392995Y-731001D01*
Y-732000D01*
X391996Y-733000D01*
X389996D01*
X388996Y-732000D01*
Y-731001D01*
X389996Y-730001D01*
X388996Y-729001D01*
Y-728002D01*
X389996Y-730001D02*
X391996D01*
X437000Y-586000D02*
Y-580002D01*
X439999D01*
X440999Y-581002D01*
Y-583001D01*
X439999Y-584001D01*
X437000D01*
X438999D02*
X440999Y-586000D01*
X442998D02*
X444997D01*
X443998D01*
Y-580002D01*
X442998Y-581002D01*
X447996Y-580002D02*
X451995D01*
Y-581002D01*
X447996Y-585000D01*
Y-586000D01*
X536002Y-190001D02*
X535002Y-191001D01*
Y-193000D01*
X536002Y-194000D01*
X540000D01*
X541000Y-193000D01*
Y-191001D01*
X540000Y-190001D01*
X541000Y-188002D02*
Y-186003D01*
Y-187002D01*
X535002D01*
X536002Y-188002D01*
X541000Y-179005D02*
Y-183004D01*
X537001Y-179005D01*
X536002D01*
X535002Y-180005D01*
Y-182004D01*
X536002Y-183004D01*
X399002Y-294001D02*
X398002Y-295001D01*
Y-297000D01*
X399002Y-298000D01*
X403000D01*
X404000Y-297000D01*
Y-295001D01*
X403000Y-294001D01*
X404000Y-292002D02*
Y-290003D01*
Y-291002D01*
X398002D01*
X399002Y-292002D01*
Y-287004D02*
X398002Y-286004D01*
Y-284004D01*
X399002Y-283005D01*
X400001D01*
X401001Y-284004D01*
Y-285004D01*
Y-284004D01*
X402001Y-283005D01*
X403000D01*
X404000Y-284004D01*
Y-286004D01*
X403000Y-287004D01*
X424999Y-406002D02*
X423999Y-405002D01*
X422000D01*
X421000Y-406002D01*
Y-410000D01*
X422000Y-411000D01*
X423999D01*
X424999Y-410000D01*
X426998Y-411000D02*
X428997D01*
X427998D01*
Y-405002D01*
X426998Y-406002D01*
X434995Y-411000D02*
Y-405002D01*
X431996Y-408001D01*
X435995D01*
X420002Y-441001D02*
X419002Y-442001D01*
Y-444000D01*
X420002Y-445000D01*
X424000D01*
X425000Y-444000D01*
Y-442001D01*
X424000Y-441001D01*
X425000Y-439002D02*
Y-437003D01*
Y-438002D01*
X419002D01*
X420002Y-439002D01*
X419002Y-430005D02*
Y-434004D01*
X422001D01*
X421001Y-432004D01*
Y-431004D01*
X422001Y-430005D01*
X424000D01*
X425000Y-431004D01*
Y-433004D01*
X424000Y-434004D01*
X364999Y-448002D02*
X363999Y-447002D01*
X362000D01*
X361000Y-448002D01*
Y-452000D01*
X362000Y-453000D01*
X363999D01*
X364999Y-452000D01*
X366998Y-453000D02*
X368997D01*
X367998D01*
Y-447002D01*
X366998Y-448002D01*
X375995Y-447002D02*
X373996Y-448002D01*
X371996Y-450001D01*
Y-452000D01*
X372996Y-453000D01*
X374995D01*
X375995Y-452000D01*
Y-451001D01*
X374995Y-450001D01*
X371996D01*
X535000Y-363002D02*
Y-369000D01*
X537999D01*
X538999Y-368000D01*
Y-364002D01*
X537999Y-363002D01*
X535000D01*
X540998D02*
X544997D01*
Y-364002D01*
X540998Y-368000D01*
Y-369000D01*
X464000Y-198002D02*
Y-204000D01*
X467999D01*
X473997D02*
X469998D01*
X473997Y-200001D01*
Y-199002D01*
X472997Y-198002D01*
X470998D01*
X469998Y-199002D01*
X440000Y-347000D02*
X434002D01*
Y-344001D01*
X435002Y-343001D01*
X437001D01*
X438001Y-344001D01*
Y-347000D01*
Y-345001D02*
X440000Y-343001D01*
Y-337003D02*
Y-341002D01*
X436001Y-337003D01*
X435002D01*
X434002Y-338003D01*
Y-340002D01*
X435002Y-341002D01*
Y-335004D02*
X434002Y-334004D01*
Y-332005D01*
X435002Y-331005D01*
X436001D01*
X437001Y-332005D01*
Y-333004D01*
Y-332005D01*
X438001Y-331005D01*
X439000D01*
X440000Y-332005D01*
Y-334004D01*
X439000Y-335004D01*
X380000Y-295000D02*
X374002D01*
Y-292001D01*
X375002Y-291001D01*
X377001D01*
X378001Y-292001D01*
Y-295000D01*
Y-293001D02*
X380000Y-291001D01*
Y-285003D02*
Y-289002D01*
X376001Y-285003D01*
X375002D01*
X374002Y-286003D01*
Y-288002D01*
X375002Y-289002D01*
X380000Y-280005D02*
X374002D01*
X377001Y-283004D01*
Y-279005D01*
X441000Y-320000D02*
X435002D01*
Y-317001D01*
X436002Y-316001D01*
X438001D01*
X439001Y-317001D01*
Y-320000D01*
Y-318001D02*
X441000Y-316001D01*
Y-310003D02*
Y-314002D01*
X437001Y-310003D01*
X436002D01*
X435002Y-311003D01*
Y-313002D01*
X436002Y-314002D01*
X435002Y-304005D02*
X436002Y-306005D01*
X438001Y-308004D01*
X440000D01*
X441000Y-307004D01*
Y-305005D01*
X440000Y-304005D01*
X439001D01*
X438001Y-305005D01*
Y-308004D01*
X425750Y-242000D02*
Y-236002D01*
X428749D01*
X429749Y-237002D01*
Y-239001D01*
X428749Y-240001D01*
X425750D01*
X427749D02*
X429749Y-242000D01*
X435747D02*
X431748D01*
X435747Y-238001D01*
Y-237002D01*
X434747Y-236002D01*
X432748D01*
X431748Y-237002D01*
X437746Y-236002D02*
X441745D01*
Y-237002D01*
X437746Y-241000D01*
Y-242000D01*
X380000Y-320000D02*
X374002D01*
Y-317001D01*
X375002Y-316001D01*
X377001D01*
X378001Y-317001D01*
Y-320000D01*
Y-318001D02*
X380000Y-316001D01*
Y-310003D02*
Y-314002D01*
X376001Y-310003D01*
X375002D01*
X374002Y-311003D01*
Y-313002D01*
X375002Y-314002D01*
Y-308004D02*
X374002Y-307004D01*
Y-305005D01*
X375002Y-304005D01*
X376001D01*
X377001Y-305005D01*
X378001Y-304005D01*
X379000D01*
X380000Y-305005D01*
Y-307004D01*
X379000Y-308004D01*
X378001D01*
X377001Y-307004D01*
X376001Y-308004D01*
X375002D01*
X377001Y-307004D02*
Y-305005D01*
X380000Y-430000D02*
Y-424002D01*
X382999D01*
X383999Y-425002D01*
Y-427001D01*
X382999Y-428001D01*
X380000D01*
X381999D02*
X383999Y-430000D01*
X389997D02*
X385998D01*
X389997Y-426001D01*
Y-425002D01*
X388997Y-424002D01*
X386998D01*
X385998Y-425002D01*
X391996Y-429000D02*
X392996Y-430000D01*
X394995D01*
X395995Y-429000D01*
Y-425002D01*
X394995Y-424002D01*
X392996D01*
X391996Y-425002D01*
Y-426001D01*
X392996Y-427001D01*
X395995D01*
X379000Y-361002D02*
Y-366000D01*
X380000Y-367000D01*
X381999D01*
X382999Y-366000D01*
Y-361002D01*
X384998Y-362002D02*
X385998Y-361002D01*
X387997D01*
X388997Y-362002D01*
Y-363001D01*
X387997Y-364001D01*
X386997D01*
X387997D01*
X388997Y-365001D01*
Y-366000D01*
X387997Y-367000D01*
X385998D01*
X384998Y-366000D01*
X446000Y-341000D02*
Y-335002D01*
X448999D01*
X449999Y-336002D01*
Y-338001D01*
X448999Y-339001D01*
X446000D01*
X447999D02*
X449999Y-341000D01*
X455997D02*
X451998D01*
X455997Y-337001D01*
Y-336002D01*
X454997Y-335002D01*
X452998D01*
X451998Y-336002D01*
X461995Y-341000D02*
X457996D01*
X461995Y-337001D01*
Y-336002D01*
X460995Y-335002D01*
X458996D01*
X457996Y-336002D01*
X29002Y-1175000D02*
X34000D01*
X35000Y-1174000D01*
Y-1172001D01*
X34000Y-1171001D01*
X29002D01*
X35000Y-1166003D02*
X29002D01*
X32001Y-1169002D01*
Y-1165003D01*
X500002Y-1175000D02*
X505000D01*
X506000Y-1174000D01*
Y-1172001D01*
X505000Y-1171001D01*
X500002D01*
Y-1165003D02*
Y-1169002D01*
X503001D01*
X502001Y-1167003D01*
Y-1166003D01*
X503001Y-1165003D01*
X505000D01*
X506000Y-1166003D01*
Y-1168002D01*
X505000Y-1169002D01*
X438999Y-1147002D02*
X437999Y-1146002D01*
X436000D01*
X435000Y-1147002D01*
Y-1151000D01*
X436000Y-1152000D01*
X437999D01*
X438999Y-1151000D01*
X444997Y-1152000D02*
X440998D01*
X444997Y-1148001D01*
Y-1147002D01*
X443997Y-1146002D01*
X441998D01*
X440998Y-1147002D01*
X450995Y-1152000D02*
X446996D01*
X450995Y-1148001D01*
Y-1147002D01*
X449995Y-1146002D01*
X447996D01*
X446996Y-1147002D01*
X457999Y-1180002D02*
X456999Y-1179002D01*
X455000D01*
X454000Y-1180002D01*
Y-1184000D01*
X455000Y-1185000D01*
X456999D01*
X457999Y-1184000D01*
X463997Y-1185000D02*
X459998D01*
X463997Y-1181001D01*
Y-1180002D01*
X462997Y-1179002D01*
X460998D01*
X459998Y-1180002D01*
X465996Y-1185000D02*
X467995D01*
X466996D01*
Y-1179002D01*
X465996Y-1180002D01*
X-31001Y-1147002D02*
X-32001Y-1146002D01*
X-34000D01*
X-35000Y-1147002D01*
Y-1151000D01*
X-34000Y-1152000D01*
X-32001D01*
X-31001Y-1151000D01*
X-29002Y-1152000D02*
X-27003D01*
X-28002D01*
Y-1146002D01*
X-29002Y-1147002D01*
X-24004Y-1151000D02*
X-23004Y-1152000D01*
X-21005D01*
X-20005Y-1151000D01*
Y-1147002D01*
X-21005Y-1146002D01*
X-23004D01*
X-24004Y-1147002D01*
Y-1148001D01*
X-23004Y-1149001D01*
X-20005D01*
X-11001Y-1181002D02*
X-12001Y-1180002D01*
X-14000D01*
X-15000Y-1181002D01*
Y-1185000D01*
X-14000Y-1186000D01*
X-12001D01*
X-11001Y-1185000D01*
X-9002Y-1186000D02*
X-7003D01*
X-8002D01*
Y-1180002D01*
X-9002Y-1181002D01*
X-4004D02*
X-3004Y-1180002D01*
X-1005D01*
X-5Y-1181002D01*
Y-1182001D01*
X-1005Y-1183001D01*
X-5Y-1184001D01*
Y-1185000D01*
X-1005Y-1186000D01*
X-3004D01*
X-4004Y-1185000D01*
Y-1184001D01*
X-3004Y-1183001D01*
X-4004Y-1182001D01*
Y-1181002D01*
X-3004Y-1183001D02*
X-1005D01*
X370000Y-968000D02*
Y-962002D01*
X372999D01*
X373999Y-963002D01*
Y-965001D01*
X372999Y-966001D01*
X370000D01*
X371999D02*
X373999Y-968000D01*
X379997Y-962002D02*
X377997Y-963002D01*
X375998Y-965001D01*
Y-967000D01*
X376998Y-968000D01*
X378997D01*
X379997Y-967000D01*
Y-966001D01*
X378997Y-965001D01*
X375998D01*
X374999Y-574000D02*
Y-570002D01*
X373999Y-569002D01*
X372000D01*
X371000Y-570002D01*
Y-574000D01*
X372000Y-575000D01*
X373999D01*
X372999Y-573001D02*
X374999Y-575000D01*
X373999D02*
X374999Y-574000D01*
X380997Y-569002D02*
X378997Y-570002D01*
X376998Y-572001D01*
Y-574000D01*
X377998Y-575000D01*
X379997D01*
X380997Y-574000D01*
Y-573001D01*
X379997Y-572001D01*
X376998D01*
X52599Y-54002D02*
X51599Y-53002D01*
X49600D01*
X48600Y-54002D01*
Y-58000D01*
X49600Y-59000D01*
X51599D01*
X52599Y-58000D01*
X54598Y-59000D02*
Y-53002D01*
X58597Y-59000D01*
Y-53002D01*
X64595Y-59000D02*
X60596D01*
X64595Y-55001D01*
Y-54002D01*
X63595Y-53002D01*
X61596D01*
X60596Y-54002D01*
X378000Y-174001D02*
X374002D01*
X373002Y-175001D01*
Y-177000D01*
X374002Y-178000D01*
X378000D01*
X379000Y-177000D01*
Y-175001D01*
X377001Y-176001D02*
X379000Y-174001D01*
Y-175001D02*
X378000Y-174001D01*
X379000Y-172002D02*
Y-170003D01*
Y-171002D01*
X373002D01*
X374002Y-172002D01*
Y-167004D02*
X373002Y-166004D01*
Y-164004D01*
X374002Y-163005D01*
X375001D01*
X376001Y-164004D01*
Y-165004D01*
Y-164004D01*
X377001Y-163005D01*
X378000D01*
X379000Y-164004D01*
Y-166004D01*
X378000Y-167004D01*
X365000Y-232000D02*
X359002D01*
Y-229001D01*
X360002Y-228001D01*
X362001D01*
X363001Y-229001D01*
Y-232000D01*
Y-230001D02*
X365000Y-228001D01*
X360002Y-226002D02*
X359002Y-225002D01*
Y-223003D01*
X360002Y-222003D01*
X361001D01*
X362001Y-223003D01*
Y-224003D01*
Y-223003D01*
X363001Y-222003D01*
X364000D01*
X365000Y-223003D01*
Y-225002D01*
X364000Y-226002D01*
X360002Y-220004D02*
X359002Y-219004D01*
Y-217005D01*
X360002Y-216005D01*
X361001D01*
X362001Y-217005D01*
X363001Y-216005D01*
X364000D01*
X365000Y-217005D01*
Y-219004D01*
X364000Y-220004D01*
X363001D01*
X362001Y-219004D01*
X361001Y-220004D01*
X360002D01*
X362001Y-219004D02*
Y-217005D01*
X425000Y-233000D02*
X419002D01*
Y-230001D01*
X420002Y-229001D01*
X422001D01*
X423001Y-230001D01*
Y-233000D01*
Y-231001D02*
X425000Y-229001D01*
X420002Y-227002D02*
X419002Y-226002D01*
Y-224003D01*
X420002Y-223003D01*
X421001D01*
X422001Y-224003D01*
Y-225003D01*
Y-224003D01*
X423001Y-223003D01*
X424000D01*
X425000Y-224003D01*
Y-226002D01*
X424000Y-227002D01*
Y-221004D02*
X425000Y-220004D01*
Y-218005D01*
X424000Y-217005D01*
X420002D01*
X419002Y-218005D01*
Y-220004D01*
X420002Y-221004D01*
X421001D01*
X422001Y-220004D01*
Y-217005D01*
X137999Y-909000D02*
Y-905002D01*
X136999Y-904002D01*
X135000D01*
X134000Y-905002D01*
Y-909000D01*
X135000Y-910000D01*
X136999D01*
X135999Y-908001D02*
X137999Y-910000D01*
X136999D02*
X137999Y-909000D01*
X139998Y-910000D02*
X141997D01*
X140998D01*
Y-904002D01*
X139998Y-905002D01*
X148995Y-910000D02*
X144996D01*
X148995Y-906001D01*
Y-905002D01*
X147996Y-904002D01*
X145996D01*
X144996Y-905002D01*
X295999Y-908000D02*
Y-904002D01*
X294999Y-903002D01*
X293000D01*
X292000Y-904002D01*
Y-908000D01*
X293000Y-909000D01*
X294999D01*
X293999Y-907001D02*
X295999Y-909000D01*
X294999D02*
X295999Y-908000D01*
X297998Y-909000D02*
X299997D01*
X298998D01*
Y-903002D01*
X297998Y-904002D01*
X302996Y-909000D02*
X304996D01*
X303996D01*
Y-903002D01*
X302996Y-904002D01*
X130000Y-956000D02*
Y-950002D01*
X132999D01*
X133999Y-951002D01*
Y-953001D01*
X132999Y-954001D01*
X130000D01*
X131999D02*
X133999Y-956000D01*
X135998Y-951002D02*
X136998Y-950002D01*
X138997D01*
X139997Y-951002D01*
Y-952001D01*
X138997Y-953001D01*
X137997D01*
X138997D01*
X139997Y-954001D01*
Y-955000D01*
X138997Y-956000D01*
X136998D01*
X135998Y-955000D01*
X141996Y-950002D02*
X145995D01*
Y-951002D01*
X141996Y-955000D01*
Y-956000D01*
X113000Y-945000D02*
X107002D01*
Y-942001D01*
X108002Y-941001D01*
X110001D01*
X111001Y-942001D01*
Y-945000D01*
Y-943001D02*
X113000Y-941001D01*
X108002Y-939002D02*
X107002Y-938002D01*
Y-936003D01*
X108002Y-935003D01*
X109001D01*
X110001Y-936003D01*
Y-937003D01*
Y-936003D01*
X111001Y-935003D01*
X112000D01*
X113000Y-936003D01*
Y-938002D01*
X112000Y-939002D01*
X107002Y-929005D02*
Y-933004D01*
X110001D01*
X109001Y-931004D01*
Y-930005D01*
X110001Y-929005D01*
X112000D01*
X113000Y-930005D01*
Y-932004D01*
X112000Y-933004D01*
X271000Y-945000D02*
X265002D01*
Y-942001D01*
X266002Y-941001D01*
X268001D01*
X269001Y-942001D01*
Y-945000D01*
Y-943001D02*
X271000Y-941001D01*
X266002Y-939002D02*
X265002Y-938002D01*
Y-936003D01*
X266002Y-935003D01*
X267001D01*
X268001Y-936003D01*
Y-937003D01*
Y-936003D01*
X269001Y-935003D01*
X270000D01*
X271000Y-936003D01*
Y-938002D01*
X270000Y-939002D01*
X271000Y-930005D02*
X265002D01*
X268001Y-933004D01*
Y-929005D01*
X285000Y-954000D02*
Y-948002D01*
X287999D01*
X288999Y-949002D01*
Y-951001D01*
X287999Y-952001D01*
X285000D01*
X286999D02*
X288999Y-954000D01*
X290998Y-949002D02*
X291998Y-948002D01*
X293997D01*
X294997Y-949002D01*
Y-950001D01*
X293997Y-951001D01*
X292997D01*
X293997D01*
X294997Y-952001D01*
Y-953000D01*
X293997Y-954000D01*
X291998D01*
X290998Y-953000D01*
X300995Y-948002D02*
X298995Y-949002D01*
X296996Y-951001D01*
Y-953000D01*
X297996Y-954000D01*
X299995D01*
X300995Y-953000D01*
Y-952001D01*
X299995Y-951001D01*
X296996D01*
D16*
X460775Y-744450D02*
D03*
Y-838450D02*
D03*
Y-791450D02*
D03*
M02*
