G04*
G04 #@! TF.GenerationSoftware,Altium Limited,Altium Designer,18.0.12 (696)*
G04*
G04 Layer_Color=8421504*
%FSLAX44Y44*%
%MOMM*%
G71*
G01*
G75*
%ADD17R,0.2500X0.5000*%
%ADD18R,1.3000X0.7000*%
%ADD19R,1.4000X0.8000*%
%ADD20R,0.8000X1.4000*%
%ADD21R,1.2000X0.6000*%
%ADD22R,0.6000X1.2000*%
%ADD23R,1.0160X1.2700*%
%ADD24R,12.0000X13.5000*%
%ADD25R,1.2700X1.0160*%
%ADD26R,1.5240X1.0160*%
%ADD27R,1.1000X2.4000*%
%ADD28R,1.5000X1.3000*%
%ADD29R,1.4000X0.8600*%
%ADD30R,0.6000X2.0000*%
%ADD31R,4.0000X1.5000*%
%ADD32R,0.4200X1.7800*%
%ADD33R,2.5000X2.3000*%
%ADD34R,1.0500X0.3500*%
%ADD35R,3.2000X2.4000*%
%ADD36R,1.6510X1.2700*%
D17*
X7500Y-1160500D02*
D03*
X12500Y-1160500D02*
D03*
X17500Y-1160500D02*
D03*
X22500Y-1160500D02*
D03*
X22500Y-1179500D02*
D03*
X17500Y-1179500D02*
D03*
X7500Y-1179500D02*
D03*
X12500Y-1179500D02*
D03*
X482500Y-1179500D02*
D03*
X477500Y-1179500D02*
D03*
X487500Y-1179500D02*
D03*
X492500Y-1179500D02*
D03*
X492500Y-1160500D02*
D03*
X487500Y-1160500D02*
D03*
X482500Y-1160500D02*
D03*
X477500Y-1160500D02*
D03*
D18*
X15000Y-1169996D02*
D03*
X485000Y-1169999D02*
D03*
D19*
X407000Y-1057000D02*
D03*
Y-1075000D02*
D03*
X433000Y-1066000D02*
D03*
X363000Y-175000D02*
D03*
X389000Y-166000D02*
D03*
Y-184000D02*
D03*
D20*
X293000Y-893000D02*
D03*
X302000Y-919000D02*
D03*
X284000D02*
D03*
X128000Y-920000D02*
D03*
X146000D02*
D03*
X137000Y-894000D02*
D03*
X180000Y-919000D02*
D03*
X198000D02*
D03*
X189000Y-893000D02*
D03*
X241000D02*
D03*
X250000Y-919000D02*
D03*
X232000D02*
D03*
X386000Y-112000D02*
D03*
X368000D02*
D03*
X377000Y-138000D02*
D03*
X434000Y-115000D02*
D03*
X425000Y-89000D02*
D03*
X443000D02*
D03*
X486000Y-994000D02*
D03*
X477000Y-968000D02*
D03*
X495000D02*
D03*
X495000Y-1013000D02*
D03*
X477000D02*
D03*
X486000Y-1039000D02*
D03*
D21*
X427000Y-586000D02*
D03*
Y-576500D02*
D03*
X399000D02*
D03*
Y-586000D02*
D03*
Y-595500D02*
D03*
X427000D02*
D03*
D22*
X398000Y-269000D02*
D03*
Y-241000D02*
D03*
X407500D02*
D03*
X417000D02*
D03*
Y-269000D02*
D03*
X407500D02*
D03*
D23*
X471160Y-1043000D02*
D03*
X450840D02*
D03*
X530160Y-987000D02*
D03*
X509840D02*
D03*
X530160Y-1044000D02*
D03*
X509840D02*
D03*
X530320Y-1025000D02*
D03*
X510000D02*
D03*
X509840Y-1006000D02*
D03*
X530160D02*
D03*
X509840Y-966750D02*
D03*
X530160D02*
D03*
X303160Y-937000D02*
D03*
X282840D02*
D03*
X147160Y-939000D02*
D03*
X126840D02*
D03*
X385160Y-912500D02*
D03*
X364840D02*
D03*
X463840Y-612000D02*
D03*
X484160D02*
D03*
X389000Y-635000D02*
D03*
X368680D02*
D03*
X364840Y-615000D02*
D03*
X385160D02*
D03*
X484160Y-593000D02*
D03*
X463840D02*
D03*
X425160Y-312500D02*
D03*
X404840D02*
D03*
X367340D02*
D03*
X387660D02*
D03*
X367340Y-287500D02*
D03*
X387660D02*
D03*
X434160Y-290000D02*
D03*
X413840D02*
D03*
X444160Y-70000D02*
D03*
X423840D02*
D03*
X411840Y-186000D02*
D03*
X432160D02*
D03*
X411840Y-206000D02*
D03*
X432160D02*
D03*
X411840Y-225000D02*
D03*
X432160D02*
D03*
X395160D02*
D03*
X374840D02*
D03*
X230840Y-938000D02*
D03*
X251160D02*
D03*
X178840D02*
D03*
X199160D02*
D03*
D24*
X249000Y-220200D02*
D03*
Y-772700D02*
D03*
X58000Y-217700D02*
D03*
Y-770200D02*
D03*
D25*
X460000Y-804840D02*
D03*
Y-825160D02*
D03*
X402500Y-977340D02*
D03*
Y-997660D02*
D03*
X423000Y-634160D02*
D03*
Y-613840D02*
D03*
X163000Y-896840D02*
D03*
Y-917160D02*
D03*
X267000Y-896840D02*
D03*
Y-917160D02*
D03*
X215000D02*
D03*
Y-896840D02*
D03*
X111000D02*
D03*
Y-917160D02*
D03*
X-27500Y-1182070D02*
D03*
Y-1161750D02*
D03*
X-7500Y-1149590D02*
D03*
Y-1169910D02*
D03*
X442500Y-1182160D02*
D03*
Y-1161840D02*
D03*
X462500Y-1149590D02*
D03*
Y-1169910D02*
D03*
X462500Y-977340D02*
D03*
Y-997660D02*
D03*
X442500Y-977340D02*
D03*
Y-997660D02*
D03*
X422500D02*
D03*
Y-977340D02*
D03*
X375000Y-975160D02*
D03*
Y-954840D02*
D03*
X402500Y-955320D02*
D03*
Y-935000D02*
D03*
Y-915000D02*
D03*
Y-894680D02*
D03*
Y-857340D02*
D03*
Y-877660D02*
D03*
X405000Y-762660D02*
D03*
Y-742340D02*
D03*
X385000Y-762660D02*
D03*
Y-742340D02*
D03*
X365000D02*
D03*
Y-762660D02*
D03*
X422500Y-677660D02*
D03*
Y-657340D02*
D03*
Y-715160D02*
D03*
Y-694840D02*
D03*
X444000Y-593160D02*
D03*
Y-572840D02*
D03*
X407500Y-417340D02*
D03*
Y-437660D02*
D03*
X367500Y-417180D02*
D03*
Y-437500D02*
D03*
X387340D02*
D03*
Y-417180D02*
D03*
X422500Y-375000D02*
D03*
Y-395320D02*
D03*
Y-337340D02*
D03*
Y-357660D02*
D03*
X432500Y-272660D02*
D03*
Y-252340D02*
D03*
X425000Y-147680D02*
D03*
Y-168000D02*
D03*
D26*
X460000Y-778000D02*
D03*
Y-757680D02*
D03*
D27*
X403680Y-624000D02*
D03*
D28*
X441780Y-637970D02*
D03*
Y-610030D02*
D03*
D29*
X468000Y-1618000D02*
D03*
X492000D02*
D03*
X8000D02*
D03*
X32000D02*
D03*
X513000D02*
D03*
X537000D02*
D03*
X-13000D02*
D03*
X-37000D02*
D03*
X32000Y63000D02*
D03*
X8000D02*
D03*
X-13000D02*
D03*
X-37000D02*
D03*
X468000D02*
D03*
X492000D02*
D03*
X513000D02*
D03*
X537000D02*
D03*
D30*
X365950Y-712940D02*
D03*
X378650D02*
D03*
X391350D02*
D03*
X404050D02*
D03*
X365950Y-657060D02*
D03*
X378650D02*
D03*
X391350D02*
D03*
X404050D02*
D03*
Y-337060D02*
D03*
X391350D02*
D03*
X378650D02*
D03*
X365950D02*
D03*
X404050Y-392940D02*
D03*
X391350D02*
D03*
X378650D02*
D03*
X365950D02*
D03*
D31*
X-24290Y-1097500D02*
D03*
X44290D02*
D03*
X455710Y-1097000D02*
D03*
X524290D02*
D03*
X455710Y-665000D02*
D03*
X524290D02*
D03*
X455710Y-406000D02*
D03*
X524290D02*
D03*
Y-152000D02*
D03*
X455710D02*
D03*
D32*
X365250Y-995000D02*
D03*
X371750D02*
D03*
X378250D02*
D03*
X384750D02*
D03*
X365250Y-935000D02*
D03*
X371750D02*
D03*
X378250D02*
D03*
X384750D02*
D03*
X418250Y-950000D02*
D03*
X424750D02*
D03*
X431250D02*
D03*
X437750D02*
D03*
X418250Y-890000D02*
D03*
X424750D02*
D03*
X431250D02*
D03*
X437750D02*
D03*
D33*
X476600Y-550000D02*
D03*
X527400D02*
D03*
X480600Y-341000D02*
D03*
X531400D02*
D03*
D34*
X366250Y-583500D02*
D03*
Y-590000D02*
D03*
Y-596500D02*
D03*
X383750Y-583500D02*
D03*
Y-596500D02*
D03*
Y-590000D02*
D03*
X363750Y-256000D02*
D03*
Y-262500D02*
D03*
Y-269000D02*
D03*
X381250Y-256000D02*
D03*
Y-269000D02*
D03*
Y-262500D02*
D03*
X400250Y-121000D02*
D03*
Y-114500D02*
D03*
Y-127500D02*
D03*
X417750Y-114500D02*
D03*
Y-121000D02*
D03*
Y-127500D02*
D03*
X363250Y-203000D02*
D03*
Y-196500D02*
D03*
Y-209500D02*
D03*
X380750Y-196500D02*
D03*
Y-203000D02*
D03*
Y-209500D02*
D03*
X407750Y-148000D02*
D03*
Y-154500D02*
D03*
Y-141500D02*
D03*
X390250Y-154500D02*
D03*
Y-148000D02*
D03*
Y-141500D02*
D03*
D35*
X407000Y-555500D02*
D03*
Y-460500D02*
D03*
X495000Y-306000D02*
D03*
Y-211000D02*
D03*
D36*
X454000Y-352240D02*
D03*
Y-321760D02*
D03*
M02*
