G04*
G04 #@! TF.GenerationSoftware,Altium Limited,Altium Designer,18.0.11 (651)*
G04*
G04 Layer_Color=255*
%FSLAX44Y44*%
%MOMM*%
G71*
G01*
G75*
%ADD19R,1.0160X1.2700*%
%ADD27R,1.4000X0.8600*%
%ADD98C,4.0000*%
%ADD99C,2.2000*%
%ADD100P,5.9532X8X292.5*%
%ADD101C,0.8000*%
%ADD102C,6.0000*%
%ADD103C,3.4500*%
%ADD104C,2.4000*%
%ADD105P,6.4944X8X292.5*%
%ADD106P,1.7318X8X292.5*%
%ADD107R,1.6000X1.6000*%
%ADD108C,3.0000*%
%ADD109C,3.5000*%
%ADD111R,1.0160X1.5240*%
%ADD112R,1.7000X0.8000*%
%ADD113R,1.5000X3.5000*%
D19*
X110160Y-493000D02*
D03*
X89840D02*
D03*
X330160Y-500000D02*
D03*
X309840D02*
D03*
X254840D02*
D03*
X275160D02*
D03*
X199840D02*
D03*
X220160D02*
D03*
D27*
X-13000Y63000D02*
D03*
X-37000D02*
D03*
X8000D02*
D03*
X32000D02*
D03*
X537000D02*
D03*
X513000D02*
D03*
X468000D02*
D03*
X492000D02*
D03*
X468000Y-1618000D02*
D03*
X492000D02*
D03*
X537000D02*
D03*
X513000D02*
D03*
X-13000D02*
D03*
X-37000D02*
D03*
X8000D02*
D03*
X32000D02*
D03*
D98*
X274400Y-265200D02*
D03*
X223600D02*
D03*
X249000Y-189000D02*
D03*
Y-801400D02*
D03*
X274400Y-725200D02*
D03*
X223600D02*
D03*
X83400Y-265200D02*
D03*
X32600D02*
D03*
X58000Y-189000D02*
D03*
Y-801400D02*
D03*
X83400Y-725200D02*
D03*
X32600D02*
D03*
X249000Y-133800D02*
D03*
Y-856000D02*
D03*
X58000Y-133800D02*
D03*
Y-856000D02*
D03*
D99*
X209999Y-475999D02*
D03*
X155000Y-476000D02*
D03*
X319999Y-475999D02*
D03*
X265000Y-476000D02*
D03*
D100*
X0Y5000D02*
D03*
X500000Y-75000D02*
D03*
X0D02*
D03*
X500000Y5000D02*
D03*
D101*
X385000Y-895000D02*
D03*
D102*
X153500Y-769900D02*
D03*
Y-217900D02*
D03*
D103*
X328550Y-769900D02*
D03*
X-21500Y-217900D02*
D03*
D104*
X328550Y-129900D02*
D03*
D105*
X0Y-1395000D02*
D03*
Y-1520000D02*
D03*
X500000Y-1395000D02*
D03*
Y-1520000D02*
D03*
Y-915000D02*
D03*
Y-495000D02*
D03*
X0Y-915000D02*
D03*
D106*
X402000Y-92400D02*
D03*
Y-67000D02*
D03*
X351200Y-92400D02*
D03*
Y-67000D02*
D03*
X376600Y-92400D02*
D03*
Y-67000D02*
D03*
X275000Y-92400D02*
D03*
Y-67000D02*
D03*
X249600D02*
D03*
Y-92400D02*
D03*
X224200Y-67000D02*
D03*
Y-92400D02*
D03*
X97200Y-67000D02*
D03*
X122600Y-92400D02*
D03*
Y-67000D02*
D03*
X148000Y-92400D02*
D03*
Y-67000D02*
D03*
X173400Y-92400D02*
D03*
Y-67000D02*
D03*
X198800Y-92400D02*
D03*
Y-67000D02*
D03*
X300400Y-92400D02*
D03*
Y-67000D02*
D03*
X325800Y-92400D02*
D03*
Y-67000D02*
D03*
D107*
X97200Y-92400D02*
D03*
D108*
X503000Y-1220000D02*
D03*
X467000D02*
D03*
X33000D02*
D03*
X-3000D02*
D03*
X432200Y-791450D02*
D03*
Y-838450D02*
D03*
Y-744450D02*
D03*
D109*
X527500Y-857500D02*
D03*
Y-725400D02*
D03*
D111*
X330160Y-521000D02*
D03*
X309840D02*
D03*
X254840D02*
D03*
X275160D02*
D03*
X199840D02*
D03*
X220160D02*
D03*
X110160D02*
D03*
X89840D02*
D03*
D112*
X385000Y-877500D02*
D03*
Y-912500D02*
D03*
D113*
X117749Y-366600D02*
D03*
X143149D02*
D03*
X168549D02*
D03*
X193949D02*
D03*
X219349D02*
D03*
X244749D02*
D03*
Y-417400D02*
D03*
X219349D02*
D03*
X193949D02*
D03*
X168549D02*
D03*
X143149D02*
D03*
X117749D02*
D03*
M02*
