G04*
G04 #@! TF.GenerationSoftware,Altium Limited,Altium Designer,18.1.7 (191)*
G04*
G04 Layer_Color=255*
%FSLAX44Y44*%
%MOMM*%
G71*
G01*
G75*
%ADD79R,1.2700X1.0160*%
%ADD80R,1.0160X1.2700*%
%ADD81R,2.4000X0.6000*%
%ADD82R,0.6000X2.0000*%
%ADD83R,1.3000X1.5000*%
%ADD84R,2.4000X1.1000*%
%ADD85R,1.5240X1.0160*%
%ADD86R,3.2000X2.4000*%
%ADD87R,4.0000X1.5000*%
%ADD88R,0.6000X1.2000*%
%ADD89R,0.3500X1.0500*%
%ADD90R,1.2000X0.7000*%
%ADD91R,1.2000X0.6000*%
%ADD92R,1.4000X0.9000*%
%ADD93R,1.2700X2.7000*%
%ADD94R,1.0160X1.5240*%
%ADD95R,0.7000X0.4500*%
%ADD96R,0.9000X1.4000*%
%ADD97R,1.6000X1.6000*%
%ADD98R,1.6000X1.6000*%
%ADD99R,1.0500X0.3500*%
%ADD100R,1.0000X0.3500*%
%ADD101R,1.2000X2.5000*%
%ADD102R,2.3000X2.5000*%
%ADD103R,1.3000X1.6000*%
%ADD169P,1.7318X8X112.5*%
%ADD170C,1.5000*%
%ADD171P,1.7870X8X22.5*%
%ADD172R,1.6510X1.6510*%
%ADD173C,2.0000*%
%ADD174R,2.0000X2.0000*%
%ADD175C,4.4000*%
%ADD176P,2.1648X8X22.5*%
%ADD177R,1.5000X1.5000*%
G04:AMPARAMS|DCode=178|XSize=1.6mm|YSize=1.651mm|CornerRadius=0mm|HoleSize=0mm|Usage=FLASHONLY|Rotation=0.000|XOffset=0mm|YOffset=0mm|HoleType=Round|Shape=Octagon|*
%AMOCTAGOND178*
4,1,8,-0.4000,0.8255,0.4000,0.8255,0.8000,0.4255,0.8000,-0.4255,0.4000,-0.8255,-0.4000,-0.8255,-0.8000,-0.4255,-0.8000,0.4255,-0.4000,0.8255,0.0*
%
%ADD178OCTAGOND178*%

%ADD179R,1.6510X1.6510*%
%ADD180P,1.7870X8X112.5*%
%ADD181C,3.5000*%
%ADD182C,3.1999*%
%ADD183O,1.6000X1.8000*%
G04:AMPARAMS|DCode=184|XSize=1.6mm|YSize=1.651mm|CornerRadius=0mm|HoleSize=0mm|Usage=FLASHONLY|Rotation=90.000|XOffset=0mm|YOffset=0mm|HoleType=Round|Shape=Octagon|*
%AMOCTAGOND184*
4,1,8,-0.8255,-0.4000,-0.8255,0.4000,-0.4255,0.8000,0.4255,0.8000,0.8255,0.4000,0.8255,-0.4000,0.4255,-0.8000,-0.4255,-0.8000,-0.8255,-0.4000,0.0*
%
%ADD184OCTAGOND184*%

%ADD185R,1.6510X1.6000*%
%ADD186P,4.3296X8X112.5*%
%ADD187R,1.6000X2.0000*%
%ADD188O,1.6000X2.0000*%
%ADD189O,1.6000X2.0000*%
%ADD190O,2.0000X1.6000*%
%ADD191C,5.6000*%
%ADD192C,1.8000*%
%ADD193R,1.8000X1.8000*%
%ADD194P,2.1648X8X112.5*%
G04:AMPARAMS|DCode=195|XSize=1.6mm|YSize=1.8mm|CornerRadius=0mm|HoleSize=0mm|Usage=FLASHONLY|Rotation=180.000|XOffset=0mm|YOffset=0mm|HoleType=Round|Shape=Octagon|*
%AMOCTAGOND195*
4,1,8,0.4000,-0.9000,-0.4000,-0.9000,-0.8000,-0.5000,-0.8000,0.5000,-0.4000,0.9000,0.4000,0.9000,0.8000,0.5000,0.8000,-0.5000,0.4000,-0.9000,0.0*
%
%ADD195OCTAGOND195*%

%ADD196R,1.6000X1.8000*%
%ADD197P,6.1697X8X292.5*%
%ADD198P,6.4944X8X292.5*%
D79*
X-159000Y-1031160D02*
D03*
Y-1010840D02*
D03*
X-140000Y-1032000D02*
D03*
Y-1011680D02*
D03*
X772000Y-1320740D02*
D03*
Y-1341060D02*
D03*
Y-1283090D02*
D03*
Y-1303410D02*
D03*
Y-1103840D02*
D03*
Y-1124160D02*
D03*
Y-1140840D02*
D03*
Y-1161160D02*
D03*
X640000Y-917840D02*
D03*
Y-938160D02*
D03*
X659000D02*
D03*
Y-917840D02*
D03*
X731000Y-936840D02*
D03*
Y-957160D02*
D03*
Y-900060D02*
D03*
Y-920380D02*
D03*
X750000Y-920160D02*
D03*
Y-899840D02*
D03*
X745000Y-861160D02*
D03*
Y-840840D02*
D03*
X725800D02*
D03*
Y-861160D02*
D03*
X640000Y-840840D02*
D03*
Y-861160D02*
D03*
X457000Y240000D02*
D03*
Y260320D02*
D03*
X438000Y239840D02*
D03*
Y260160D02*
D03*
X419000D02*
D03*
Y239840D02*
D03*
X457000Y183060D02*
D03*
Y162740D02*
D03*
Y221000D02*
D03*
Y200680D02*
D03*
X498000Y234840D02*
D03*
Y255160D02*
D03*
X480000D02*
D03*
Y234840D02*
D03*
X420000Y129160D02*
D03*
Y108840D02*
D03*
X398000Y129160D02*
D03*
Y108840D02*
D03*
X23000Y259160D02*
D03*
Y238840D02*
D03*
X3000Y259160D02*
D03*
Y238840D02*
D03*
X-21000Y-101840D02*
D03*
Y-122160D02*
D03*
X4000Y-101840D02*
D03*
Y-122160D02*
D03*
X25000D02*
D03*
Y-101840D02*
D03*
X-17410Y-139840D02*
D03*
Y-160160D02*
D03*
X-250000Y-939160D02*
D03*
Y-918840D02*
D03*
X-232000Y-1034160D02*
D03*
Y-1013840D02*
D03*
X-159000Y-1070160D02*
D03*
Y-1049840D02*
D03*
X-140000D02*
D03*
Y-1070160D02*
D03*
X-193000Y-1233840D02*
D03*
Y-1254160D02*
D03*
X722000Y-1565840D02*
D03*
Y-1586160D02*
D03*
X690000Y-1565840D02*
D03*
Y-1586160D02*
D03*
X657000D02*
D03*
Y-1565840D02*
D03*
X624000D02*
D03*
Y-1586160D02*
D03*
X648000Y-1641160D02*
D03*
Y-1620840D02*
D03*
X700000Y-1641160D02*
D03*
Y-1620840D02*
D03*
X700100Y-1678160D02*
D03*
Y-1657840D02*
D03*
X648000Y-1678320D02*
D03*
Y-1658000D02*
D03*
X78000Y-1795160D02*
D03*
Y-1774840D02*
D03*
X-236000Y-1670000D02*
D03*
Y-1649680D02*
D03*
X-235000Y-1570866D02*
D03*
Y-1591186D02*
D03*
X-247000Y-1230840D02*
D03*
Y-1251160D02*
D03*
X-266000Y-1251160D02*
D03*
Y-1230840D02*
D03*
X140000Y-1056840D02*
D03*
Y-1077160D02*
D03*
X121000D02*
D03*
Y-1056840D02*
D03*
X-255000Y-781840D02*
D03*
Y-802160D02*
D03*
X-274000D02*
D03*
Y-781840D02*
D03*
X-293000Y-802160D02*
D03*
Y-781840D02*
D03*
X256000Y-1042840D02*
D03*
Y-1063160D02*
D03*
X191000Y-1033680D02*
D03*
Y-1054000D02*
D03*
X221000Y-43840D02*
D03*
Y-64160D02*
D03*
X202000Y-43840D02*
D03*
Y-64160D02*
D03*
D80*
X67160Y-1198000D02*
D03*
X46840D02*
D03*
X626160Y52500D02*
D03*
X605840D02*
D03*
X584840Y34000D02*
D03*
X605160D02*
D03*
X563840Y52500D02*
D03*
X584160D02*
D03*
X-186382Y-967000D02*
D03*
X-166062D02*
D03*
X-223160D02*
D03*
X-202840D02*
D03*
X-113840Y-1235000D02*
D03*
X-134160D02*
D03*
X-133790Y-1254000D02*
D03*
X-113470D02*
D03*
X67160Y-1272000D02*
D03*
X46840D02*
D03*
X67160Y-1291000D02*
D03*
X46840D02*
D03*
X68160Y-1343000D02*
D03*
X47840D02*
D03*
X68160Y-1362000D02*
D03*
X47840D02*
D03*
X68160Y-1414000D02*
D03*
X47840D02*
D03*
X369700Y-1484000D02*
D03*
X349380D02*
D03*
X311840D02*
D03*
X332160D02*
D03*
X420840Y-1299000D02*
D03*
X441160D02*
D03*
Y-1280000D02*
D03*
X420840D02*
D03*
Y-1318000D02*
D03*
X441160D02*
D03*
X735840Y-1517000D02*
D03*
X756160D02*
D03*
X698840D02*
D03*
X719160D02*
D03*
X682320D02*
D03*
X662000D02*
D03*
X624840D02*
D03*
X645160D02*
D03*
X441160Y-1185000D02*
D03*
X420840D02*
D03*
X441160Y-1166000D02*
D03*
X420840D02*
D03*
X441160Y-1204000D02*
D03*
X420840D02*
D03*
Y-1223000D02*
D03*
X441160D02*
D03*
Y-1261000D02*
D03*
X420840D02*
D03*
Y-1242000D02*
D03*
X441160D02*
D03*
X349231Y-1465000D02*
D03*
X369551D02*
D03*
X46840Y-1220000D02*
D03*
X67160D02*
D03*
X271160Y-1025000D02*
D03*
X250840D02*
D03*
X276320Y-1081000D02*
D03*
X256000D02*
D03*
X239000D02*
D03*
X218680D02*
D03*
D81*
X744530Y-1262500D02*
D03*
Y-1275200D02*
D03*
Y-1287900D02*
D03*
Y-1300600D02*
D03*
Y-1313300D02*
D03*
Y-1326000D02*
D03*
Y-1338700D02*
D03*
Y-1351400D02*
D03*
Y-1249800D02*
D03*
X645470Y-1326000D02*
D03*
Y-1313300D02*
D03*
Y-1300600D02*
D03*
Y-1287900D02*
D03*
Y-1275200D02*
D03*
Y-1262500D02*
D03*
Y-1249800D02*
D03*
Y-1338700D02*
D03*
Y-1351400D02*
D03*
X744530Y-1081900D02*
D03*
Y-1094600D02*
D03*
Y-1107300D02*
D03*
Y-1120000D02*
D03*
Y-1132700D02*
D03*
Y-1145400D02*
D03*
Y-1158100D02*
D03*
Y-1170800D02*
D03*
Y-1069200D02*
D03*
X645470Y-1145400D02*
D03*
Y-1132700D02*
D03*
Y-1120000D02*
D03*
Y-1107300D02*
D03*
Y-1094600D02*
D03*
Y-1081900D02*
D03*
Y-1069200D02*
D03*
Y-1158100D02*
D03*
Y-1170800D02*
D03*
X-113470Y-1287900D02*
D03*
Y-1300600D02*
D03*
Y-1313300D02*
D03*
Y-1326000D02*
D03*
Y-1338700D02*
D03*
Y-1351400D02*
D03*
Y-1364100D02*
D03*
Y-1376800D02*
D03*
Y-1275200D02*
D03*
X-212530Y-1351400D02*
D03*
Y-1338700D02*
D03*
Y-1326000D02*
D03*
Y-1313300D02*
D03*
Y-1300600D02*
D03*
Y-1287900D02*
D03*
Y-1275200D02*
D03*
Y-1364100D02*
D03*
Y-1376800D02*
D03*
D82*
X714050Y-901060D02*
D03*
X701350D02*
D03*
X688650D02*
D03*
X675950D02*
D03*
X714050Y-956940D02*
D03*
X701350D02*
D03*
X688650D02*
D03*
X675950D02*
D03*
X439050Y213940D02*
D03*
X426350D02*
D03*
X413650D02*
D03*
X400950D02*
D03*
X439050Y158060D02*
D03*
X426350D02*
D03*
X413650D02*
D03*
X400950D02*
D03*
X553050Y254940D02*
D03*
X540350D02*
D03*
X527650D02*
D03*
X514950D02*
D03*
X553050Y199060D02*
D03*
X540350D02*
D03*
X527650D02*
D03*
X514950D02*
D03*
X-53050D02*
D03*
X-40350D02*
D03*
X-27650D02*
D03*
X-14950D02*
D03*
X-53050Y254940D02*
D03*
X-40350D02*
D03*
X-27650D02*
D03*
X-14950D02*
D03*
X-176222Y-995060D02*
D03*
X-188922D02*
D03*
X-201622D02*
D03*
X-214322D02*
D03*
X-176222Y-1050940D02*
D03*
X-188922D02*
D03*
X-201622D02*
D03*
X-214322D02*
D03*
D83*
X681030Y-837220D02*
D03*
X708970D02*
D03*
X-209242Y-910220D02*
D03*
X-181302D02*
D03*
X-273970Y-1799780D02*
D03*
X-246030D02*
D03*
D84*
X695000Y-875320D02*
D03*
X-195272Y-948320D02*
D03*
X-260000Y-1761680D02*
D03*
D85*
X661000Y-840840D02*
D03*
Y-861160D02*
D03*
X489000Y192840D02*
D03*
Y213160D02*
D03*
X-229000Y-939160D02*
D03*
Y-918840D02*
D03*
X77000Y-1814680D02*
D03*
Y-1835000D02*
D03*
X-50000Y118840D02*
D03*
Y139160D02*
D03*
X-26000Y118840D02*
D03*
Y139160D02*
D03*
X-50000Y61840D02*
D03*
Y82160D02*
D03*
Y4840D02*
D03*
Y25160D02*
D03*
X8000Y197840D02*
D03*
Y218160D02*
D03*
D86*
X582000Y78500D02*
D03*
Y173500D02*
D03*
D87*
X544710Y-19000D02*
D03*
X613290D02*
D03*
D88*
X474000Y114000D02*
D03*
X483500D02*
D03*
Y142000D02*
D03*
X474000D02*
D03*
X464500D02*
D03*
Y114000D02*
D03*
D89*
X451500Y131750D02*
D03*
X445000D02*
D03*
X438500D02*
D03*
X451500Y114250D02*
D03*
X438500D02*
D03*
X445000D02*
D03*
D90*
X1000Y-159500D02*
D03*
X29000D02*
D03*
Y-150000D02*
D03*
Y-140500D02*
D03*
X1000D02*
D03*
X239000Y-1063500D02*
D03*
X211000D02*
D03*
Y-1054000D02*
D03*
Y-1044500D02*
D03*
X239000D02*
D03*
D91*
X-36000Y-159500D02*
D03*
X-64000D02*
D03*
Y-150000D02*
D03*
Y-140500D02*
D03*
X-36000D02*
D03*
Y-150000D02*
D03*
D92*
X65000Y-1255000D02*
D03*
Y-1237000D02*
D03*
X39000Y-1246000D02*
D03*
X65000Y-1326000D02*
D03*
Y-1308000D02*
D03*
X39000Y-1317000D02*
D03*
X66000Y-1397000D02*
D03*
Y-1379000D02*
D03*
X40000Y-1388000D02*
D03*
D93*
X106500Y-1030000D02*
D03*
X139500D02*
D03*
D94*
X552160Y-847000D02*
D03*
X531840D02*
D03*
X552160Y-881500D02*
D03*
X531840D02*
D03*
X552160Y-916156D02*
D03*
X531840D02*
D03*
X552160Y-950500D02*
D03*
X531840D02*
D03*
X552320Y-985000D02*
D03*
X532000D02*
D03*
X552160Y-1019500D02*
D03*
X531840D02*
D03*
X552160Y-1054000D02*
D03*
X531840D02*
D03*
X552160Y-1088500D02*
D03*
X531840D02*
D03*
D95*
X498981Y-926500D02*
D03*
Y-934500D02*
D03*
Y-942500D02*
D03*
X513981Y-926500D02*
D03*
X498981Y-950500D02*
D03*
X513981Y-934500D02*
D03*
Y-942500D02*
D03*
Y-950500D02*
D03*
X498981Y-985000D02*
D03*
Y-993000D02*
D03*
Y-1001000D02*
D03*
X513981Y-985000D02*
D03*
X498981Y-1009000D02*
D03*
X513981Y-993000D02*
D03*
Y-1001000D02*
D03*
Y-1009000D02*
D03*
D96*
X649000Y-1536000D02*
D03*
X631000D02*
D03*
X640000Y-1562000D02*
D03*
X682000Y-1536000D02*
D03*
X664000D02*
D03*
X673000Y-1562000D02*
D03*
X715000Y-1536000D02*
D03*
X697000D02*
D03*
X706000Y-1562000D02*
D03*
X748000Y-1536000D02*
D03*
X730000D02*
D03*
X739000Y-1562000D02*
D03*
X683000Y-1629000D02*
D03*
X665000D02*
D03*
X674000Y-1655000D02*
D03*
X735000Y-1628540D02*
D03*
X717000D02*
D03*
X726000Y-1654540D02*
D03*
X-221000Y-1256000D02*
D03*
X-230000Y-1230000D02*
D03*
X-212000D02*
D03*
D97*
X452000Y-1002500D02*
D03*
Y-1052500D02*
D03*
X310000Y-1002500D02*
D03*
Y-1052500D02*
D03*
X452000Y-1537500D02*
D03*
Y-1587500D02*
D03*
X310000Y-1537500D02*
D03*
Y-1587500D02*
D03*
D98*
X548000Y-1259900D02*
D03*
X497999D02*
D03*
X548000Y-1117900D02*
D03*
X498000D02*
D03*
X548000Y-1472900D02*
D03*
X498000D02*
D03*
X548000Y-1330900D02*
D03*
X498000D02*
D03*
X97200Y67700D02*
D03*
X121180Y-521900D02*
D03*
Y-428600D02*
D03*
X-156950Y-225400D02*
D03*
X-259600Y-17500D02*
D03*
Y-225400D02*
D03*
D99*
X215750Y-1018500D02*
D03*
Y-1025000D02*
D03*
X234250Y-1018500D02*
D03*
D100*
X215750Y-1031500D02*
D03*
X234250D02*
D03*
D101*
X327000Y-54000D02*
D03*
Y2000D02*
D03*
X377000D02*
D03*
Y-54000D02*
D03*
X352000Y2000D02*
D03*
Y-54000D02*
D03*
D102*
X509000Y112600D02*
D03*
Y163400D02*
D03*
D103*
X158500Y14250D02*
D03*
Y-68250D02*
D03*
X113500D02*
D03*
Y14250D02*
D03*
D169*
X402000Y67700D02*
D03*
Y42300D02*
D03*
X351200Y67700D02*
D03*
Y42300D02*
D03*
X376600Y67700D02*
D03*
Y42300D02*
D03*
X275000Y67700D02*
D03*
Y42300D02*
D03*
X249600D02*
D03*
Y67700D02*
D03*
X224200Y42300D02*
D03*
Y67700D02*
D03*
X97200Y42300D02*
D03*
X122600Y67700D02*
D03*
Y42300D02*
D03*
X148000Y67700D02*
D03*
Y42300D02*
D03*
X173400Y67700D02*
D03*
Y42300D02*
D03*
X198800Y67700D02*
D03*
Y42300D02*
D03*
X300400Y67700D02*
D03*
Y42300D02*
D03*
X325800Y67700D02*
D03*
Y42300D02*
D03*
X-207750Y-750500D02*
D03*
X-182350D02*
D03*
X-207750Y-725100D02*
D03*
X-182350D02*
D03*
X-207750Y-699700D02*
D03*
X-182350D02*
D03*
X-207750Y-674300D02*
D03*
X-182350D02*
D03*
X-207750Y-648900D02*
D03*
X-182350D02*
D03*
X-207750Y-623500D02*
D03*
X-182350D02*
D03*
X-207750Y-598100D02*
D03*
X-182350D02*
D03*
X-207750Y-572700D02*
D03*
X-182350D02*
D03*
X-207750Y-547300D02*
D03*
X-182350D02*
D03*
X-207750Y-521900D02*
D03*
X-182350D02*
D03*
X-207750Y-496500D02*
D03*
X-182350D02*
D03*
X-207750Y-471100D02*
D03*
X-182350D02*
D03*
X-207750Y-445700D02*
D03*
X-182350D02*
D03*
X-207750Y-420300D02*
D03*
X-182350D02*
D03*
X-207750Y-394900D02*
D03*
X-182350D02*
D03*
X-207750Y-369500D02*
D03*
X-182350D02*
D03*
X-207750Y-344100D02*
D03*
X-182350D02*
D03*
X-207750Y-318700D02*
D03*
X-182350D02*
D03*
X95780Y-521900D02*
D03*
Y-547300D02*
D03*
Y-572700D02*
D03*
X121180D02*
D03*
Y-547300D02*
D03*
Y-454000D02*
D03*
Y-479400D02*
D03*
X95780D02*
D03*
Y-454000D02*
D03*
Y-428600D02*
D03*
X-182350Y-225400D02*
D03*
Y-200000D02*
D03*
X-156950D02*
D03*
Y-174600D02*
D03*
X-182350D02*
D03*
X-285000Y84100D02*
D03*
X-259600D02*
D03*
X-285000Y58700D02*
D03*
X-259600D02*
D03*
X-285000Y33300D02*
D03*
X-259600D02*
D03*
X-285000Y7900D02*
D03*
X-259600D02*
D03*
X-285000Y-17500D02*
D03*
Y-225400D02*
D03*
X-259600Y-200000D02*
D03*
X-285000D02*
D03*
X-259600Y-174600D02*
D03*
X-285000D02*
D03*
X-259600Y-149200D02*
D03*
X-285000D02*
D03*
X-259600Y-123800D02*
D03*
X-285000D02*
D03*
D170*
X719600Y215000D02*
D03*
X745000D02*
D03*
X655600D02*
D03*
X681000D02*
D03*
X193325Y133000D02*
D03*
X213325D02*
D03*
X-180700Y215000D02*
D03*
X-155300D02*
D03*
X-244700D02*
D03*
X-219300D02*
D03*
X306675Y-1705000D02*
D03*
X286675D02*
D03*
X19072Y-1797152D02*
D03*
X44472D02*
D03*
X-45190D02*
D03*
X-19790D02*
D03*
D171*
X750900Y-209800D02*
D03*
Y-235200D02*
D03*
X725500Y-209800D02*
D03*
X700100D02*
D03*
Y-235200D02*
D03*
X725500D02*
D03*
X674700D02*
D03*
Y-209800D02*
D03*
X649300Y-235200D02*
D03*
X275875Y133000D02*
D03*
X224125Y-1705000D02*
D03*
X198725D02*
D03*
X173325D02*
D03*
X569490Y-179000D02*
D03*
X493290D02*
D03*
X417090D02*
D03*
X518690D02*
D03*
X544090D02*
D03*
X-178000Y142450D02*
D03*
X-152600Y117050D02*
D03*
Y142450D02*
D03*
X-101800D02*
D03*
X-127200D02*
D03*
Y117050D02*
D03*
X-101800D02*
D03*
Y2750D02*
D03*
X-127200D02*
D03*
Y28150D02*
D03*
X-101800D02*
D03*
X-152600D02*
D03*
Y2750D02*
D03*
X-178000Y28150D02*
D03*
X544090Y-270000D02*
D03*
X518690D02*
D03*
X417090D02*
D03*
X493290D02*
D03*
X569490D02*
D03*
X-101800Y-54400D02*
D03*
X-127200D02*
D03*
Y-29000D02*
D03*
X-101800D02*
D03*
X-152600D02*
D03*
Y-54400D02*
D03*
X-178000Y-29000D02*
D03*
X-101652Y59900D02*
D03*
X-127052D02*
D03*
Y85300D02*
D03*
X-101652D02*
D03*
X-152452D02*
D03*
Y59900D02*
D03*
X-177852Y85300D02*
D03*
D172*
X649300Y-209800D02*
D03*
X250475Y133000D02*
D03*
X249525Y-1705000D02*
D03*
X340890Y-179000D02*
D03*
X-178000Y117050D02*
D03*
Y2750D02*
D03*
X340890Y-270000D02*
D03*
X-178000Y-54400D02*
D03*
X-177852Y59900D02*
D03*
D173*
X750900Y-70100D02*
D03*
X725500D02*
D03*
X674700D02*
D03*
X649300D02*
D03*
X628800Y-1833350D02*
D03*
X751800Y-1833600D02*
D03*
D174*
X700100Y-70100D02*
D03*
D175*
X738200Y95000D02*
D03*
X662000Y145800D02*
D03*
D176*
X624354Y202328D02*
D03*
X573554D02*
D03*
X598954Y253128D02*
D03*
X-73600Y202330D02*
D03*
X-124400D02*
D03*
X-99000Y253130D02*
D03*
X116000Y-1710400D02*
D03*
X141400Y-1659600D02*
D03*
X90600D02*
D03*
D177*
X173325Y133000D02*
D03*
X326675Y-1705000D02*
D03*
D178*
X301275Y133000D02*
D03*
X326675D02*
D03*
X366290Y-179000D02*
D03*
X391690D02*
D03*
X442490D02*
D03*
X467890D02*
D03*
Y-270000D02*
D03*
X442490D02*
D03*
X391690D02*
D03*
X366290D02*
D03*
D179*
X374460Y189600D02*
D03*
X-308638Y-318700D02*
D03*
X125540Y-1762600D02*
D03*
D180*
X374460Y215000D02*
D03*
Y240400D02*
D03*
X-308638Y-750500D02*
D03*
X-283238D02*
D03*
Y-725100D02*
D03*
X-308638D02*
D03*
Y-699700D02*
D03*
X-283238D02*
D03*
Y-674300D02*
D03*
X-308638D02*
D03*
Y-648900D02*
D03*
X-283238D02*
D03*
X-308638Y-547300D02*
D03*
X-283238D02*
D03*
X-308638Y-394900D02*
D03*
X-283238Y-318700D02*
D03*
X-308638Y-344100D02*
D03*
X-283238D02*
D03*
X-308638Y-369500D02*
D03*
X-283238D02*
D03*
Y-394900D02*
D03*
X-308638Y-420300D02*
D03*
X-283238Y-496500D02*
D03*
Y-445700D02*
D03*
Y-420300D02*
D03*
X-308638Y-445700D02*
D03*
Y-471100D02*
D03*
X-283238D02*
D03*
X-308638Y-496500D02*
D03*
Y-521900D02*
D03*
X-283238D02*
D03*
Y-572700D02*
D03*
X-308638D02*
D03*
Y-598100D02*
D03*
X-283238D02*
D03*
Y-623500D02*
D03*
X-308638D02*
D03*
X-258162Y-1342864D02*
D03*
Y-1368264D02*
D03*
Y-1469864D02*
D03*
Y-1495264D02*
D03*
Y-1546064D02*
D03*
Y-1571464D02*
D03*
Y-1520664D02*
D03*
Y-1393664D02*
D03*
Y-1317464D02*
D03*
Y-1292064D02*
D03*
X125540Y-1813400D02*
D03*
Y-1788000D02*
D03*
D181*
X53150Y215000D02*
D03*
X338851D02*
D03*
X161149Y-1788000D02*
D03*
X446850D02*
D03*
D182*
X-207750Y-801300D02*
D03*
X605050Y-318700D02*
D03*
X-144250D02*
D03*
X617750Y-801300D02*
D03*
Y-708000D02*
D03*
X605050Y-225400D02*
D03*
X97050Y-657200D02*
D03*
Y-377800D02*
D03*
D183*
X300250Y-318700D02*
D03*
X274850D02*
D03*
X249450D02*
D03*
X224050D02*
D03*
X198650D02*
D03*
X173250D02*
D03*
X147850D02*
D03*
X122450D02*
D03*
X71650Y-801300D02*
D03*
X97050D02*
D03*
X122450D02*
D03*
X147850D02*
D03*
X173250D02*
D03*
X198650D02*
D03*
X224050D02*
D03*
X249450D02*
D03*
X71650Y-318700D02*
D03*
X46250D02*
D03*
X20850D02*
D03*
X-4550D02*
D03*
X-29950D02*
D03*
X-55350D02*
D03*
X-80750D02*
D03*
X-106150D02*
D03*
X-156950Y-801300D02*
D03*
X-131550D02*
D03*
X-106150D02*
D03*
X-80750D02*
D03*
X-55350D02*
D03*
X-29950D02*
D03*
X-4550D02*
D03*
X20850D02*
D03*
X340890Y-318700D02*
D03*
X366290D02*
D03*
X391690D02*
D03*
X417090D02*
D03*
X442490D02*
D03*
X467890D02*
D03*
X493290D02*
D03*
X518690D02*
D03*
X544090D02*
D03*
X569490D02*
D03*
X300250Y-801300D02*
D03*
X325650D02*
D03*
X351050D02*
D03*
X376450D02*
D03*
X401850D02*
D03*
X427250D02*
D03*
X452650D02*
D03*
X478050D02*
D03*
Y-708000D02*
D03*
X452650D02*
D03*
X427250D02*
D03*
X401850D02*
D03*
X376450D02*
D03*
X351050D02*
D03*
X325650D02*
D03*
X300250D02*
D03*
X249450D02*
D03*
X224050D02*
D03*
X198650D02*
D03*
X173250D02*
D03*
X147850D02*
D03*
X122450D02*
D03*
X340890Y-225400D02*
D03*
X366290D02*
D03*
X391690D02*
D03*
X417090D02*
D03*
X442490D02*
D03*
X467890D02*
D03*
X493290D02*
D03*
X518690D02*
D03*
X544090D02*
D03*
X569490D02*
D03*
X122450D02*
D03*
X147850D02*
D03*
X173250D02*
D03*
X198650D02*
D03*
X224050D02*
D03*
X249450D02*
D03*
X274850D02*
D03*
X300250D02*
D03*
D184*
X-258162Y-1596864D02*
D03*
Y-1622264D02*
D03*
Y-1647664D02*
D03*
Y-1444464D02*
D03*
Y-1419064D02*
D03*
D185*
Y-1673064D02*
D03*
D186*
X51838Y-1728064D02*
D03*
X-258162D02*
D03*
Y-978064D02*
D03*
X51838D02*
D03*
D187*
X725800Y-1459600D02*
D03*
D188*
Y-1485000D02*
D03*
X700400Y-1459600D02*
D03*
Y-1485000D02*
D03*
X675000Y-1459600D02*
D03*
Y-1485000D02*
D03*
X649600Y-1459600D02*
D03*
Y-1485000D02*
D03*
D189*
X-211306Y-1543406D02*
D03*
X-185906D02*
D03*
X-160506D02*
D03*
X-135106D02*
D03*
X-109706D02*
D03*
X-84306D02*
D03*
X-211306Y-1429406D02*
D03*
X-185906D02*
D03*
X-160506D02*
D03*
X-135106D02*
D03*
X-109706D02*
D03*
X-84306D02*
D03*
D190*
X109000Y-1384000D02*
D03*
Y-1358600D02*
D03*
Y-1333200D02*
D03*
Y-1307800D02*
D03*
Y-1282400D02*
D03*
Y-1257000D02*
D03*
Y-1231600D02*
D03*
Y-1206200D02*
D03*
D191*
X106500Y-1472900D02*
D03*
Y-1117900D02*
D03*
X431500D02*
D03*
Y-1472900D02*
D03*
D192*
X506481Y-1665000D02*
D03*
X555000D02*
D03*
D193*
X580400D02*
D03*
D194*
X156000Y-1539000D02*
D03*
Y-1615000D02*
D03*
D195*
X71650Y-850000D02*
D03*
X122450D02*
D03*
X147850D02*
D03*
X173250D02*
D03*
X198650D02*
D03*
X224050D02*
D03*
X97050D02*
D03*
X274850Y-270000D02*
D03*
X147850D02*
D03*
X173250D02*
D03*
X198650D02*
D03*
X224050D02*
D03*
X249450D02*
D03*
X300250D02*
D03*
X-106150D02*
D03*
X-55350D02*
D03*
X-29950D02*
D03*
X-4550D02*
D03*
X20850D02*
D03*
X46250D02*
D03*
X-80750D02*
D03*
X274850Y-179000D02*
D03*
X147850D02*
D03*
X173250D02*
D03*
X198650D02*
D03*
X224050D02*
D03*
X249450D02*
D03*
X300250D02*
D03*
X-156950Y-850000D02*
D03*
X-106150D02*
D03*
X-80750D02*
D03*
X-55350D02*
D03*
X-29950D02*
D03*
X-4550D02*
D03*
X-131550D02*
D03*
X325650D02*
D03*
X452650D02*
D03*
X427250D02*
D03*
X401850D02*
D03*
X376450D02*
D03*
X351050D02*
D03*
X300250D02*
D03*
X223800Y-755000D02*
D03*
X198400D02*
D03*
X173000D02*
D03*
X147600D02*
D03*
X122200D02*
D03*
D196*
X249450Y-850000D02*
D03*
X122450Y-270000D02*
D03*
X71650D02*
D03*
X122450Y-179000D02*
D03*
X20850Y-850000D02*
D03*
X478050D02*
D03*
X249200Y-755000D02*
D03*
D197*
X0Y50000D02*
D03*
X500000Y-50000D02*
D03*
Y50000D02*
D03*
X0Y-50000D02*
D03*
D198*
Y-1520000D02*
D03*
X500000D02*
D03*
M02*
