G04*
G04 #@! TF.GenerationSoftware,Altium Limited,Altium Designer,18.1.7 (191)*
G04*
G04 Layer_Color=16711935*
%FSLAX44Y44*%
%MOMM*%
G71*
G01*
G75*
%ADD104R,1.4732X1.2192*%
%ADD105R,1.2192X1.4732*%
%ADD117R,1.6032X1.1032*%
%ADD121R,1.1032X1.6032*%
%ADD123R,1.8032X1.8032*%
%ADD129P,1.9518X8X112.5*%
%ADD130C,1.7032*%
%ADD131P,2.0070X8X22.5*%
%ADD132R,1.8542X1.8542*%
%ADD133C,2.2032*%
%ADD134R,2.2032X2.2032*%
%ADD135C,4.6032*%
%ADD136P,2.3848X8X22.5*%
%ADD137R,1.7032X1.7032*%
G04:AMPARAMS|DCode=138|XSize=1.8032mm|YSize=1.8542mm|CornerRadius=0mm|HoleSize=0mm|Usage=FLASHONLY|Rotation=0.000|XOffset=0mm|YOffset=0mm|HoleType=Round|Shape=Octagon|*
%AMOCTAGOND138*
4,1,8,-0.4508,0.9271,0.4508,0.9271,0.9016,0.4763,0.9016,-0.4763,0.4508,-0.9271,-0.4508,-0.9271,-0.9016,-0.4763,-0.9016,0.4763,-0.4508,0.9271,0.0*
%
%ADD138OCTAGOND138*%

%ADD139R,1.8542X1.8542*%
%ADD140P,2.0070X8X112.5*%
%ADD141C,3.7032*%
%ADD142C,3.4031*%
%ADD143O,1.8032X2.0032*%
G04:AMPARAMS|DCode=144|XSize=1.8032mm|YSize=1.8542mm|CornerRadius=0mm|HoleSize=0mm|Usage=FLASHONLY|Rotation=90.000|XOffset=0mm|YOffset=0mm|HoleType=Round|Shape=Octagon|*
%AMOCTAGOND144*
4,1,8,-0.9271,-0.4508,-0.9271,0.4508,-0.4763,0.9016,0.4763,0.9016,0.9271,0.4508,0.9271,-0.4508,0.4763,-0.9016,-0.4763,-0.9016,-0.9271,-0.4508,0.0*
%
%ADD144OCTAGOND144*%

%ADD145R,1.8542X1.8032*%
%ADD146P,4.5495X8X112.5*%
%ADD147R,1.8032X2.2032*%
%ADD148O,1.8032X2.2032*%
%ADD149O,1.8032X2.2032*%
%ADD150O,2.2032X1.8032*%
%ADD151C,5.8032*%
%ADD152C,2.0032*%
%ADD153R,2.0032X2.0032*%
%ADD154P,2.3848X8X112.5*%
G04:AMPARAMS|DCode=155|XSize=1.8032mm|YSize=2.0032mm|CornerRadius=0mm|HoleSize=0mm|Usage=FLASHONLY|Rotation=180.000|XOffset=0mm|YOffset=0mm|HoleType=Round|Shape=Octagon|*
%AMOCTAGOND155*
4,1,8,0.4508,-1.0016,-0.4508,-1.0016,-0.9016,-0.5508,-0.9016,0.5508,-0.4508,1.0016,0.4508,1.0016,0.9016,0.5508,0.9016,-0.5508,0.4508,-1.0016,0.0*
%
%ADD155OCTAGOND155*%

%ADD156R,1.8032X2.0032*%
%ADD157P,6.3896X8X292.5*%
%ADD158P,6.7144X8X292.5*%
%ADD207R,1.3032X1.7032*%
%ADD208R,1.4032X1.2032*%
G04:AMPARAMS|DCode=209|XSize=1.3032mm|YSize=1.7032mm|CornerRadius=0mm|HoleSize=0mm|Usage=FLASHONLY|Rotation=135.000|XOffset=0mm|YOffset=0mm|HoleType=Round|Shape=Rectangle|*
%AMROTATEDRECTD209*
4,1,4,1.0629,0.1414,-0.1414,-1.0629,-1.0629,-0.1414,0.1414,1.0629,1.0629,0.1414,0.0*
%
%ADD209ROTATEDRECTD209*%

%ADD210R,1.7032X1.3032*%
%ADD211R,2.2032X0.8032*%
G04:AMPARAMS|DCode=212|XSize=1.3032mm|YSize=1.7032mm|CornerRadius=0mm|HoleSize=0mm|Usage=FLASHONLY|Rotation=45.000|XOffset=0mm|YOffset=0mm|HoleType=Round|Shape=Rectangle|*
%AMROTATEDRECTD212*
4,1,4,0.1414,-1.0629,-1.0629,0.1414,-0.1414,1.0629,1.0629,-0.1414,0.1414,-1.0629,0.0*
%
%ADD212ROTATEDRECTD212*%

D104*
X181000Y-1667160D02*
D03*
Y-1646840D02*
D03*
X162000Y-1667160D02*
D03*
Y-1646840D02*
D03*
X156000Y-1683840D02*
D03*
Y-1704160D02*
D03*
X137000Y-1689840D02*
D03*
Y-1710160D02*
D03*
X-83000Y-1288090D02*
D03*
Y-1308410D02*
D03*
X-123000Y-1288250D02*
D03*
Y-1308570D02*
D03*
X-93000Y-1378090D02*
D03*
Y-1398410D02*
D03*
X-113000Y-1398250D02*
D03*
Y-1377930D02*
D03*
X-133000Y-1378107D02*
D03*
Y-1398427D02*
D03*
X-153000Y-1398410D02*
D03*
Y-1378090D02*
D03*
X-173000Y-1398410D02*
D03*
Y-1378090D02*
D03*
X-193000Y-1398410D02*
D03*
Y-1378090D02*
D03*
X-79000Y26160D02*
D03*
Y5840D02*
D03*
Y82220D02*
D03*
Y61900D02*
D03*
X-255549Y158300D02*
D03*
Y178620D02*
D03*
X-308000Y174160D02*
D03*
Y153840D02*
D03*
X-180700Y176680D02*
D03*
Y197000D02*
D03*
X-219000Y176680D02*
D03*
Y197000D02*
D03*
X-45000Y249160D02*
D03*
Y228840D02*
D03*
X275875Y94840D02*
D03*
Y115160D02*
D03*
X301000Y95840D02*
D03*
Y116160D02*
D03*
X541000Y175160D02*
D03*
Y154840D02*
D03*
X559000D02*
D03*
Y175160D02*
D03*
X655600Y199760D02*
D03*
Y179440D02*
D03*
X745000Y199760D02*
D03*
Y179440D02*
D03*
X-98000Y-1760160D02*
D03*
Y-1739840D02*
D03*
X-79000Y-1760160D02*
D03*
Y-1739840D02*
D03*
X397500Y208840D02*
D03*
Y229160D02*
D03*
X468000Y163840D02*
D03*
Y184160D02*
D03*
X201000Y-1552840D02*
D03*
Y-1573160D02*
D03*
X-50000Y118840D02*
D03*
Y139160D02*
D03*
X-26000Y118840D02*
D03*
Y139160D02*
D03*
X729000Y234840D02*
D03*
Y255160D02*
D03*
X456000Y249320D02*
D03*
Y229000D02*
D03*
X544090Y-1819320D02*
D03*
Y-1799000D02*
D03*
X33000Y-1815840D02*
D03*
Y-1836160D02*
D03*
X-229000D02*
D03*
Y-1815840D02*
D03*
X-226000Y263160D02*
D03*
Y242840D02*
D03*
X-259000Y-290160D02*
D03*
Y-269840D02*
D03*
X-103000Y-1278090D02*
D03*
Y-1298410D02*
D03*
X-143000Y-1277930D02*
D03*
Y-1298250D02*
D03*
D105*
X808160Y-1756000D02*
D03*
X787840D02*
D03*
X554840Y-1690000D02*
D03*
X575160D02*
D03*
X534660D02*
D03*
X514340D02*
D03*
X19000Y-1779000D02*
D03*
X39320D02*
D03*
X-19790D02*
D03*
X-40110D02*
D03*
X-25160Y-1704000D02*
D03*
X-4840D02*
D03*
X-145266Y254000D02*
D03*
X-124946D02*
D03*
X416160Y116000D02*
D03*
X395840D02*
D03*
X-183160Y254000D02*
D03*
X-162840D02*
D03*
X394840Y150000D02*
D03*
X415160D02*
D03*
X89000Y-1766000D02*
D03*
X68680D02*
D03*
X99160Y-1695000D02*
D03*
X78840D02*
D03*
X778840Y-755000D02*
D03*
X799160D02*
D03*
Y-1267000D02*
D03*
X778840D02*
D03*
X799160Y-225400D02*
D03*
X778840D02*
D03*
X-279000Y-1355000D02*
D03*
X-299320D02*
D03*
X-299160Y-844000D02*
D03*
X-278840D02*
D03*
D117*
X224340Y-1674000D02*
D03*
X198340Y-1665000D02*
D03*
Y-1683000D02*
D03*
X163000Y-1735000D02*
D03*
X137000Y-1726000D02*
D03*
Y-1744000D02*
D03*
X156000Y-1563000D02*
D03*
X182000Y-1572000D02*
D03*
Y-1554000D02*
D03*
X349000Y126000D02*
D03*
X375000Y117000D02*
D03*
Y135000D02*
D03*
X349000Y159372D02*
D03*
X375000Y150372D02*
D03*
Y168372D02*
D03*
X400501Y193000D02*
D03*
X426501Y184000D02*
D03*
Y202000D02*
D03*
D121*
X89000Y-1745000D02*
D03*
X98000Y-1719000D02*
D03*
X80000D02*
D03*
X-103000Y-1325250D02*
D03*
X-112000Y-1351250D02*
D03*
X-94000D02*
D03*
X-134000D02*
D03*
X-152000D02*
D03*
X-143000Y-1325250D02*
D03*
X-173350Y-1350790D02*
D03*
X-191350D02*
D03*
X-182350Y-1324790D02*
D03*
X-272713Y152000D02*
D03*
X-290713D02*
D03*
X-281713Y178000D02*
D03*
D123*
X97200Y67700D02*
D03*
X121180Y-521900D02*
D03*
Y-428600D02*
D03*
X-156950Y-225400D02*
D03*
X-259600Y-17500D02*
D03*
Y-225400D02*
D03*
D129*
X402000Y67700D02*
D03*
Y42300D02*
D03*
X351200Y67700D02*
D03*
Y42300D02*
D03*
X376600Y67700D02*
D03*
Y42300D02*
D03*
X275000Y67700D02*
D03*
Y42300D02*
D03*
X249600D02*
D03*
Y67700D02*
D03*
X224200Y42300D02*
D03*
Y67700D02*
D03*
X97200Y42300D02*
D03*
X122600Y67700D02*
D03*
Y42300D02*
D03*
X148000Y67700D02*
D03*
Y42300D02*
D03*
X173400Y67700D02*
D03*
Y42300D02*
D03*
X198800Y67700D02*
D03*
Y42300D02*
D03*
X300400Y67700D02*
D03*
Y42300D02*
D03*
X325800Y67700D02*
D03*
Y42300D02*
D03*
X-207750Y-750500D02*
D03*
X-182350D02*
D03*
X-207750Y-725100D02*
D03*
X-182350D02*
D03*
X-207750Y-699700D02*
D03*
X-182350D02*
D03*
X-207750Y-674300D02*
D03*
X-182350D02*
D03*
X-207750Y-648900D02*
D03*
X-182350D02*
D03*
X-207750Y-623500D02*
D03*
X-182350D02*
D03*
X-207750Y-598100D02*
D03*
X-182350D02*
D03*
X-207750Y-572700D02*
D03*
X-182350D02*
D03*
X-207750Y-547300D02*
D03*
X-182350D02*
D03*
X-207750Y-521900D02*
D03*
X-182350D02*
D03*
X-207750Y-496500D02*
D03*
X-182350D02*
D03*
X-207750Y-471100D02*
D03*
X-182350D02*
D03*
X-207750Y-445700D02*
D03*
X-182350D02*
D03*
X-207750Y-420300D02*
D03*
X-182350D02*
D03*
X-207750Y-394900D02*
D03*
X-182350D02*
D03*
X-207750Y-369500D02*
D03*
X-182350D02*
D03*
X-207750Y-344100D02*
D03*
X-182350D02*
D03*
X-207750Y-318700D02*
D03*
X-182350D02*
D03*
X95780Y-521900D02*
D03*
Y-547300D02*
D03*
Y-572700D02*
D03*
X121180D02*
D03*
Y-547300D02*
D03*
Y-454000D02*
D03*
Y-479400D02*
D03*
X95780D02*
D03*
Y-454000D02*
D03*
Y-428600D02*
D03*
X-182350Y-225400D02*
D03*
Y-200000D02*
D03*
X-156950D02*
D03*
Y-174600D02*
D03*
X-182350D02*
D03*
X-285000Y84100D02*
D03*
X-259600D02*
D03*
X-285000Y58700D02*
D03*
X-259600D02*
D03*
X-285000Y33300D02*
D03*
X-259600D02*
D03*
X-285000Y7900D02*
D03*
X-259600D02*
D03*
X-285000Y-17500D02*
D03*
Y-225400D02*
D03*
X-259600Y-200000D02*
D03*
X-285000D02*
D03*
X-259600Y-174600D02*
D03*
X-285000D02*
D03*
X-259600Y-149200D02*
D03*
X-285000D02*
D03*
X-259600Y-123800D02*
D03*
X-285000D02*
D03*
D130*
X719600Y215000D02*
D03*
X745000D02*
D03*
X655600D02*
D03*
X681000D02*
D03*
X193325Y133000D02*
D03*
X213325D02*
D03*
X-180700Y215000D02*
D03*
X-155300D02*
D03*
X-244700D02*
D03*
X-219300D02*
D03*
X306675Y-1705000D02*
D03*
X286675D02*
D03*
X19072Y-1797152D02*
D03*
X44472D02*
D03*
X-45190D02*
D03*
X-19790D02*
D03*
D131*
X750900Y-209800D02*
D03*
Y-235200D02*
D03*
X725500Y-209800D02*
D03*
X700100D02*
D03*
Y-235200D02*
D03*
X725500D02*
D03*
X674700D02*
D03*
Y-209800D02*
D03*
X649300Y-235200D02*
D03*
X275875Y133000D02*
D03*
X224125Y-1705000D02*
D03*
X198725D02*
D03*
X173325D02*
D03*
X569490Y-179000D02*
D03*
X493290D02*
D03*
X417090D02*
D03*
X518690D02*
D03*
X544090D02*
D03*
X-178000Y142450D02*
D03*
X-152600Y117050D02*
D03*
Y142450D02*
D03*
X-101800D02*
D03*
X-127200D02*
D03*
Y117050D02*
D03*
X-101800D02*
D03*
Y2750D02*
D03*
X-127200D02*
D03*
Y28150D02*
D03*
X-101800D02*
D03*
X-152600D02*
D03*
Y2750D02*
D03*
X-178000Y28150D02*
D03*
X544090Y-270000D02*
D03*
X518690D02*
D03*
X417090D02*
D03*
X493290D02*
D03*
X569490D02*
D03*
X-101800Y-54400D02*
D03*
X-127200D02*
D03*
Y-29000D02*
D03*
X-101800D02*
D03*
X-152600D02*
D03*
Y-54400D02*
D03*
X-178000Y-29000D02*
D03*
X-101652Y59900D02*
D03*
X-127052D02*
D03*
Y85300D02*
D03*
X-101652D02*
D03*
X-152452D02*
D03*
Y59900D02*
D03*
X-177852Y85300D02*
D03*
D132*
X649300Y-209800D02*
D03*
X250475Y133000D02*
D03*
X249525Y-1705000D02*
D03*
X340890Y-179000D02*
D03*
X-178000Y117050D02*
D03*
Y2750D02*
D03*
X340890Y-270000D02*
D03*
X-178000Y-54400D02*
D03*
X-177852Y59900D02*
D03*
D133*
X750900Y-70100D02*
D03*
X725500D02*
D03*
X674700D02*
D03*
X649300D02*
D03*
X628800Y-1833350D02*
D03*
X751800Y-1833600D02*
D03*
D134*
X700100Y-70100D02*
D03*
D135*
X738200Y95000D02*
D03*
X662000Y145800D02*
D03*
D136*
X624354Y202328D02*
D03*
X573554D02*
D03*
X598954Y253128D02*
D03*
X-73600Y202330D02*
D03*
X-124400D02*
D03*
X-99000Y253130D02*
D03*
X116000Y-1710400D02*
D03*
X141400Y-1659600D02*
D03*
X90600D02*
D03*
D137*
X173325Y133000D02*
D03*
X326675Y-1705000D02*
D03*
D138*
X301275Y133000D02*
D03*
X326675D02*
D03*
X366290Y-179000D02*
D03*
X391690D02*
D03*
X442490D02*
D03*
X467890D02*
D03*
Y-270000D02*
D03*
X442490D02*
D03*
X391690D02*
D03*
X366290D02*
D03*
D139*
X374460Y189600D02*
D03*
X-308638Y-318700D02*
D03*
X125540Y-1762600D02*
D03*
D140*
X374460Y215000D02*
D03*
Y240400D02*
D03*
X-308638Y-750500D02*
D03*
X-283238D02*
D03*
Y-725100D02*
D03*
X-308638D02*
D03*
Y-699700D02*
D03*
X-283238D02*
D03*
Y-674300D02*
D03*
X-308638D02*
D03*
Y-648900D02*
D03*
X-283238D02*
D03*
X-308638Y-547300D02*
D03*
X-283238D02*
D03*
X-308638Y-394900D02*
D03*
X-283238Y-318700D02*
D03*
X-308638Y-344100D02*
D03*
X-283238D02*
D03*
X-308638Y-369500D02*
D03*
X-283238D02*
D03*
Y-394900D02*
D03*
X-308638Y-420300D02*
D03*
X-283238Y-496500D02*
D03*
Y-445700D02*
D03*
Y-420300D02*
D03*
X-308638Y-445700D02*
D03*
Y-471100D02*
D03*
X-283238D02*
D03*
X-308638Y-496500D02*
D03*
Y-521900D02*
D03*
X-283238D02*
D03*
Y-572700D02*
D03*
X-308638D02*
D03*
Y-598100D02*
D03*
X-283238D02*
D03*
Y-623500D02*
D03*
X-308638D02*
D03*
X-258162Y-1342864D02*
D03*
Y-1368264D02*
D03*
Y-1469864D02*
D03*
Y-1495264D02*
D03*
Y-1546064D02*
D03*
Y-1571464D02*
D03*
Y-1520664D02*
D03*
Y-1393664D02*
D03*
Y-1317464D02*
D03*
Y-1292064D02*
D03*
X125540Y-1813400D02*
D03*
Y-1788000D02*
D03*
D141*
X53150Y215000D02*
D03*
X338851D02*
D03*
X161149Y-1788000D02*
D03*
X446850D02*
D03*
D142*
X-207750Y-801300D02*
D03*
X605050Y-318700D02*
D03*
X-144250D02*
D03*
X617750Y-801300D02*
D03*
Y-708000D02*
D03*
X605050Y-225400D02*
D03*
X97050Y-657200D02*
D03*
Y-377800D02*
D03*
D143*
X300250Y-318700D02*
D03*
X274850D02*
D03*
X249450D02*
D03*
X224050D02*
D03*
X198650D02*
D03*
X173250D02*
D03*
X147850D02*
D03*
X122450D02*
D03*
X71650Y-801300D02*
D03*
X97050D02*
D03*
X122450D02*
D03*
X147850D02*
D03*
X173250D02*
D03*
X198650D02*
D03*
X224050D02*
D03*
X249450D02*
D03*
X71650Y-318700D02*
D03*
X46250D02*
D03*
X20850D02*
D03*
X-4550D02*
D03*
X-29950D02*
D03*
X-55350D02*
D03*
X-80750D02*
D03*
X-106150D02*
D03*
X-156950Y-801300D02*
D03*
X-131550D02*
D03*
X-106150D02*
D03*
X-80750D02*
D03*
X-55350D02*
D03*
X-29950D02*
D03*
X-4550D02*
D03*
X20850D02*
D03*
X340890Y-318700D02*
D03*
X366290D02*
D03*
X391690D02*
D03*
X417090D02*
D03*
X442490D02*
D03*
X467890D02*
D03*
X493290D02*
D03*
X518690D02*
D03*
X544090D02*
D03*
X569490D02*
D03*
X300250Y-801300D02*
D03*
X325650D02*
D03*
X351050D02*
D03*
X376450D02*
D03*
X401850D02*
D03*
X427250D02*
D03*
X452650D02*
D03*
X478050D02*
D03*
Y-708000D02*
D03*
X452650D02*
D03*
X427250D02*
D03*
X401850D02*
D03*
X376450D02*
D03*
X351050D02*
D03*
X325650D02*
D03*
X300250D02*
D03*
X249450D02*
D03*
X224050D02*
D03*
X198650D02*
D03*
X173250D02*
D03*
X147850D02*
D03*
X122450D02*
D03*
X340890Y-225400D02*
D03*
X366290D02*
D03*
X391690D02*
D03*
X417090D02*
D03*
X442490D02*
D03*
X467890D02*
D03*
X493290D02*
D03*
X518690D02*
D03*
X544090D02*
D03*
X569490D02*
D03*
X122450D02*
D03*
X147850D02*
D03*
X173250D02*
D03*
X198650D02*
D03*
X224050D02*
D03*
X249450D02*
D03*
X274850D02*
D03*
X300250D02*
D03*
D144*
X-258162Y-1596864D02*
D03*
Y-1622264D02*
D03*
Y-1647664D02*
D03*
Y-1444464D02*
D03*
Y-1419064D02*
D03*
D145*
Y-1673064D02*
D03*
D146*
X51838Y-1728064D02*
D03*
X-258162D02*
D03*
Y-978064D02*
D03*
X51838D02*
D03*
D147*
X725800Y-1459600D02*
D03*
D148*
Y-1485000D02*
D03*
X700400Y-1459600D02*
D03*
Y-1485000D02*
D03*
X675000Y-1459600D02*
D03*
Y-1485000D02*
D03*
X649600Y-1459600D02*
D03*
Y-1485000D02*
D03*
D149*
X-211306Y-1543406D02*
D03*
X-185906D02*
D03*
X-160506D02*
D03*
X-135106D02*
D03*
X-109706D02*
D03*
X-84306D02*
D03*
X-211306Y-1429406D02*
D03*
X-185906D02*
D03*
X-160506D02*
D03*
X-135106D02*
D03*
X-109706D02*
D03*
X-84306D02*
D03*
D150*
X109000Y-1384000D02*
D03*
Y-1358600D02*
D03*
Y-1333200D02*
D03*
Y-1307800D02*
D03*
Y-1282400D02*
D03*
Y-1257000D02*
D03*
Y-1231600D02*
D03*
Y-1206200D02*
D03*
D151*
X106500Y-1472900D02*
D03*
Y-1117900D02*
D03*
X431500D02*
D03*
Y-1472900D02*
D03*
D152*
X506481Y-1665000D02*
D03*
X555000D02*
D03*
D153*
X580400D02*
D03*
D154*
X156000Y-1539000D02*
D03*
Y-1615000D02*
D03*
D155*
X71650Y-850000D02*
D03*
X122450D02*
D03*
X147850D02*
D03*
X173250D02*
D03*
X198650D02*
D03*
X224050D02*
D03*
X97050D02*
D03*
X274850Y-270000D02*
D03*
X147850D02*
D03*
X173250D02*
D03*
X198650D02*
D03*
X224050D02*
D03*
X249450D02*
D03*
X300250D02*
D03*
X-106150D02*
D03*
X-55350D02*
D03*
X-29950D02*
D03*
X-4550D02*
D03*
X20850D02*
D03*
X46250D02*
D03*
X-80750D02*
D03*
X274850Y-179000D02*
D03*
X147850D02*
D03*
X173250D02*
D03*
X198650D02*
D03*
X224050D02*
D03*
X249450D02*
D03*
X300250D02*
D03*
X-156950Y-850000D02*
D03*
X-106150D02*
D03*
X-80750D02*
D03*
X-55350D02*
D03*
X-29950D02*
D03*
X-4550D02*
D03*
X-131550D02*
D03*
X325650D02*
D03*
X452650D02*
D03*
X427250D02*
D03*
X401850D02*
D03*
X376450D02*
D03*
X351050D02*
D03*
X300250D02*
D03*
X223800Y-755000D02*
D03*
X198400D02*
D03*
X173000D02*
D03*
X147600D02*
D03*
X122200D02*
D03*
D156*
X249450Y-850000D02*
D03*
X122450Y-270000D02*
D03*
X71650D02*
D03*
X122450Y-179000D02*
D03*
X20850Y-850000D02*
D03*
X478050D02*
D03*
X249200Y-755000D02*
D03*
D157*
X0Y50000D02*
D03*
X500000Y-50000D02*
D03*
Y50000D02*
D03*
X0Y-50000D02*
D03*
D158*
Y-1520000D02*
D03*
X500000D02*
D03*
D207*
X811000Y-294500D02*
D03*
X779000D02*
D03*
X811000Y-245500D02*
D03*
X779000D02*
D03*
X811000Y-824500D02*
D03*
X779000Y-824500D02*
D03*
X811000Y-775500D02*
D03*
X779000Y-775500D02*
D03*
X811000Y-1334500D02*
D03*
X779000D02*
D03*
X811000Y-1285500D02*
D03*
X779000D02*
D03*
X97810Y-1835622D02*
D03*
X65810Y-1835622D02*
D03*
X97810Y-1786622D02*
D03*
X65810Y-1786622D02*
D03*
X-279000Y-1334500D02*
D03*
X-311000Y-1334500D02*
D03*
X-279000Y-1285500D02*
D03*
X-311000Y-1285500D02*
D03*
Y-775500D02*
D03*
X-279000D02*
D03*
X-311000Y-824500D02*
D03*
X-279000D02*
D03*
X-311000Y-245500D02*
D03*
X-279000D02*
D03*
X-311000Y-294500D02*
D03*
X-279000D02*
D03*
D208*
X718000Y-1015000D02*
D03*
X672000Y-1033000D02*
D03*
Y-1015000D02*
D03*
X718000Y-1033000D02*
D03*
X-172000D02*
D03*
X-218000Y-1015000D02*
D03*
Y-1033000D02*
D03*
X-172000Y-1015000D02*
D03*
D209*
X775352Y-1833258D02*
D03*
X752724Y-1810630D02*
D03*
X810000Y-1798610D02*
D03*
X787373Y-1775982D02*
D03*
X-273990Y258638D02*
D03*
X-251362Y236010D02*
D03*
X-308638Y223990D02*
D03*
X-286010Y201362D02*
D03*
D210*
X475500Y-1831000D02*
D03*
X475500Y-1799000D02*
D03*
X524500Y-1831000D02*
D03*
X524500Y-1799000D02*
D03*
X-24500Y229000D02*
D03*
Y261000D02*
D03*
X24500Y229000D02*
D03*
Y261000D02*
D03*
X524500D02*
D03*
Y229000D02*
D03*
X475500Y261000D02*
D03*
Y229000D02*
D03*
D211*
X-42940Y-1759200D02*
D03*
Y-1746500D02*
D03*
Y-1733800D02*
D03*
Y-1721100D02*
D03*
X12940Y-1759200D02*
D03*
Y-1746500D02*
D03*
Y-1733800D02*
D03*
Y-1721100D02*
D03*
D212*
X-308638Y-1798612D02*
D03*
X-286010Y-1775985D02*
D03*
X-273990Y-1833260D02*
D03*
X-251362Y-1810633D02*
D03*
X808638Y223990D02*
D03*
X786010Y201362D02*
D03*
X773990Y258638D02*
D03*
X751362Y236010D02*
D03*
M02*
