G04*
G04 #@! TF.GenerationSoftware,Altium Limited,Altium Designer,18.1.9 (240)*
G04*
G04 Layer_Color=128*
%FSLAX44Y44*%
%MOMM*%
G71*
G01*
G75*
%ADD80R,1.2700X1.0160*%
%ADD82R,1.0160X1.2700*%
%ADD95R,1.4000X0.9000*%
%ADD99R,0.9000X1.4000*%
%ADD210R,3.5000X1.0000*%
%ADD211R,1.1000X1.5000*%
G04:AMPARAMS|DCode=212|XSize=1.1mm|YSize=1.5mm|CornerRadius=0mm|HoleSize=0mm|Usage=FLASHONLY|Rotation=135.000|XOffset=0mm|YOffset=0mm|HoleType=Round|Shape=Rectangle|*
%AMROTATEDRECTD212*
4,1,4,0.9192,0.1414,-0.1414,-0.9192,-0.9192,-0.1414,0.1414,0.9192,0.9192,0.1414,0.0*
%
%ADD212ROTATEDRECTD212*%

%ADD213R,1.5000X1.1000*%
%ADD214R,2.0000X0.6000*%
G04:AMPARAMS|DCode=215|XSize=1.1mm|YSize=1.5mm|CornerRadius=0mm|HoleSize=0mm|Usage=FLASHONLY|Rotation=45.000|XOffset=0mm|YOffset=0mm|HoleType=Round|Shape=Rectangle|*
%AMROTATEDRECTD215*
4,1,4,0.1414,-0.9192,-0.9192,0.1414,-0.1414,0.9192,0.9192,-0.1414,0.1414,-0.9192,0.0*
%
%ADD215ROTATEDRECTD215*%

D80*
X181000Y-1667160D02*
D03*
Y-1646840D02*
D03*
X162000Y-1667160D02*
D03*
Y-1646840D02*
D03*
X156000Y-1683840D02*
D03*
Y-1704160D02*
D03*
X137000Y-1689840D02*
D03*
Y-1710160D02*
D03*
X-83000Y-1288090D02*
D03*
Y-1308410D02*
D03*
X-123000Y-1288250D02*
D03*
Y-1308570D02*
D03*
X-93000Y-1378090D02*
D03*
Y-1398410D02*
D03*
X-113000Y-1398250D02*
D03*
Y-1377930D02*
D03*
X-133000Y-1378107D02*
D03*
Y-1398427D02*
D03*
X-153000Y-1398410D02*
D03*
Y-1378090D02*
D03*
X-173000Y-1398410D02*
D03*
Y-1378090D02*
D03*
X-193000Y-1398410D02*
D03*
Y-1378090D02*
D03*
X-79000Y26160D02*
D03*
Y5840D02*
D03*
Y82220D02*
D03*
Y61900D02*
D03*
X64000Y170160D02*
D03*
Y149840D02*
D03*
X2000Y180320D02*
D03*
Y160000D02*
D03*
X-180700Y176680D02*
D03*
Y197000D02*
D03*
X-219000Y176680D02*
D03*
Y197000D02*
D03*
X-45000Y249160D02*
D03*
Y228840D02*
D03*
X275875Y94840D02*
D03*
Y115160D02*
D03*
X301000Y94840D02*
D03*
Y115160D02*
D03*
X541000Y175160D02*
D03*
Y154840D02*
D03*
X559000D02*
D03*
Y175160D02*
D03*
X655600Y199760D02*
D03*
Y179440D02*
D03*
X745000Y199760D02*
D03*
Y179440D02*
D03*
X-98000Y-1760160D02*
D03*
Y-1739840D02*
D03*
X-79000Y-1760160D02*
D03*
Y-1739840D02*
D03*
X404000Y194840D02*
D03*
Y215160D02*
D03*
X466000Y191840D02*
D03*
Y212160D02*
D03*
X201000Y-1552840D02*
D03*
Y-1573160D02*
D03*
X-50000Y118840D02*
D03*
Y139160D02*
D03*
X-26000Y118840D02*
D03*
Y139160D02*
D03*
X729000Y234840D02*
D03*
Y255160D02*
D03*
X456000Y249320D02*
D03*
Y229000D02*
D03*
X544090Y-1819320D02*
D03*
Y-1799000D02*
D03*
X40840Y-1815840D02*
D03*
Y-1836160D02*
D03*
X-229000D02*
D03*
Y-1815840D02*
D03*
X-226000Y263160D02*
D03*
Y242840D02*
D03*
X-259000Y-290160D02*
D03*
Y-269840D02*
D03*
X-103000Y-1278090D02*
D03*
Y-1298410D02*
D03*
X-143000Y-1277930D02*
D03*
Y-1298250D02*
D03*
D82*
X415160Y150000D02*
D03*
X394840D02*
D03*
X808160Y-1756000D02*
D03*
X787840D02*
D03*
X554840Y-1690000D02*
D03*
X575160D02*
D03*
X534660D02*
D03*
X514340D02*
D03*
X19000Y-1779000D02*
D03*
X39320D02*
D03*
X-19790D02*
D03*
X-40110D02*
D03*
X-25160Y-1704000D02*
D03*
X-4840D02*
D03*
X-132105Y257000D02*
D03*
X-111785D02*
D03*
X416160Y116000D02*
D03*
X395840D02*
D03*
X-168160Y257000D02*
D03*
X-147840D02*
D03*
X89000Y-1766000D02*
D03*
X68680D02*
D03*
X114160Y-1696000D02*
D03*
X93840D02*
D03*
X778840Y-755000D02*
D03*
X799160D02*
D03*
Y-1267000D02*
D03*
X778840D02*
D03*
X799160Y-225400D02*
D03*
X778840D02*
D03*
X-279000Y-1355000D02*
D03*
X-299320D02*
D03*
X-299160Y-844000D02*
D03*
X-278840D02*
D03*
D95*
X224340Y-1674000D02*
D03*
X198340Y-1665000D02*
D03*
Y-1683000D02*
D03*
X163000Y-1735000D02*
D03*
X137000Y-1726000D02*
D03*
Y-1744000D02*
D03*
X156000Y-1563000D02*
D03*
X182000Y-1572000D02*
D03*
Y-1554000D02*
D03*
X20000Y161000D02*
D03*
Y179000D02*
D03*
X46000Y170000D02*
D03*
X349000Y126000D02*
D03*
X375000Y117000D02*
D03*
Y135000D02*
D03*
X349000Y159372D02*
D03*
X375000Y150372D02*
D03*
Y168372D02*
D03*
X422200Y202000D02*
D03*
X448200Y193000D02*
D03*
Y211000D02*
D03*
D99*
X104000Y-1742000D02*
D03*
X113000Y-1716000D02*
D03*
X95000D02*
D03*
X-103000Y-1325250D02*
D03*
X-112000Y-1351250D02*
D03*
X-94000D02*
D03*
X-134000D02*
D03*
X-152000D02*
D03*
X-143000Y-1325250D02*
D03*
X-173350Y-1350790D02*
D03*
X-191350D02*
D03*
X-182350Y-1324790D02*
D03*
D210*
X716001Y-1032999D02*
D03*
X674000Y-1015000D02*
D03*
Y-1033000D02*
D03*
X716001Y-1014999D02*
D03*
X-173999Y-1032999D02*
D03*
X-216000Y-1015000D02*
D03*
Y-1033000D02*
D03*
X-173999Y-1014999D02*
D03*
D211*
X811000Y-294500D02*
D03*
X779000D02*
D03*
X811000Y-245500D02*
D03*
X779000D02*
D03*
X811000Y-824500D02*
D03*
X779000Y-824500D02*
D03*
X811000Y-775500D02*
D03*
X779000Y-775500D02*
D03*
X811000Y-1334500D02*
D03*
X779000D02*
D03*
X811000Y-1285500D02*
D03*
X779000D02*
D03*
X95810Y-1835622D02*
D03*
X63810Y-1835622D02*
D03*
X95810Y-1786622D02*
D03*
X63810Y-1786622D02*
D03*
X-279000Y-1334500D02*
D03*
X-311000Y-1334500D02*
D03*
X-279000Y-1285500D02*
D03*
X-311000Y-1285500D02*
D03*
Y-775500D02*
D03*
X-279000D02*
D03*
X-311000Y-824500D02*
D03*
X-279000D02*
D03*
X-311000Y-245500D02*
D03*
X-279000D02*
D03*
X-311000Y-294500D02*
D03*
X-279000D02*
D03*
D212*
X775352Y-1833258D02*
D03*
X752724Y-1810630D02*
D03*
X810000Y-1798610D02*
D03*
X787373Y-1775982D02*
D03*
X-273990Y258638D02*
D03*
X-251362Y236010D02*
D03*
X-308638Y223990D02*
D03*
X-286010Y201362D02*
D03*
D213*
X478000Y-1831000D02*
D03*
X478000Y-1799000D02*
D03*
X527000Y-1831000D02*
D03*
X527000Y-1799000D02*
D03*
X-26500Y229000D02*
D03*
Y261000D02*
D03*
X22500Y229000D02*
D03*
Y261000D02*
D03*
X524500D02*
D03*
Y229000D02*
D03*
X475500Y261000D02*
D03*
Y229000D02*
D03*
D214*
X-51940Y-1760210D02*
D03*
Y-1747510D02*
D03*
Y-1734810D02*
D03*
Y-1722110D02*
D03*
X3940Y-1760210D02*
D03*
Y-1747510D02*
D03*
Y-1734810D02*
D03*
Y-1722110D02*
D03*
D215*
X-308638Y-1798612D02*
D03*
X-286010Y-1775985D02*
D03*
X-273990Y-1833260D02*
D03*
X-251362Y-1810633D02*
D03*
X808638Y223990D02*
D03*
X786010Y201362D02*
D03*
X773990Y258638D02*
D03*
X751362Y236010D02*
D03*
M02*
