M48
;Layer_Color=9474304
;FILE_FORMAT=4:4
METRIC,LZ
;TYPE=PLATED
T1F00S00C0.4000
T2F00S00C0.7000
T3F00S00C0.8000
T4F00S00C0.8499
T5F00S00C0.9000
T6F00S00C0.9500
T7F00S00C1.0000
T8F00S00C2.2000
T9F00S00C2.5000
T10F00S00C3.1999
T11F00S00C3.2000
%
T01
X00600001Y-0178
X00670001
X00736Y-01679
X00775001Y-0171
Y-0157
X00739Y-01575
X00736Y-0158616
X00706Y-01576
X00673
X00624354Y-01553
X00588Y-01575664
X00548Y-01578
X00551Y-01564
X00548Y-01553
X00530001Y-0164
X00460001
X00390001
X00320001
X00308Y-01678
X00250001Y-0164
X00195Y-01648
X00215001Y-0157
X00355001
X00328Y-01537
X00320001Y-015
X00460001
X00435Y-01537
X00495001Y-0171
X005Y-01799
X00509Y-01799
X00530001Y-0178
X0017554Y-0168
X00124323Y-01677
X0011Y-01684
X00040001Y-0164
X-00029999
X-00099999
X-00169999
X-00134999Y-0171
X-00064999
X-00061Y-01747
X-00027Y-01734
X-00024Y-0181584
X-00015
X-00006Y-01826
X00028Y-01816
X00037
X0005Y-0183616
X-00099999Y-0178
X-00169999
X-00204999Y-0157
X-00064999
X00005001
X00075001
X00040001Y-015
X00180001
X-00099999
X-0029912Y-01641
X-00245Y-01698
X-00253Y-01779
X-00309999Y-0178
X-00289Y-01801
X-00242Y-0183616
X-0027884Y-0132016
X-00299Y-0129686
X-00291Y-01267
X-00279Y-012645
X-00274999Y-01149999
X-00204999
X-00134999
X-00067Y-01164998
X-0006Y-01173
X-00068Y-0118
X-00039Y-01204
X-00024Y-01195
X-00006Y-01200998
X00005001Y-01149999
X-00005Y-01107572
X00018Y-01255
X00022664Y-01284
X000322Y-012752
X00005001Y-0129
X00012Y-0134
X-00003Y-01341
X-00029999Y-0136
X00034371Y-01373
X00028Y-01413
X00075001Y-0143
X0007796Y-01397
X00082Y-01362
X000784Y-0132
X00039547Y-013285
X000784Y-01272
X0009Y-01213
X0005846Y-0122
X-00169999Y-01219999
X-00167Y-012645
X-00213Y-01386997
X-00064999Y-0143
X00180001Y-0136
X00250001
X00215001Y-0143
X00295Y-01484
X0037Y-01451
X00355001Y-0129
X00408Y-01261
X00408Y-01242
X00453Y-01223
X00498
X00530001Y-01219999
X00565001Y-01149999
X00495001
X00408Y-01166
X00352Y-01148
X00320001Y-01219999
X00269Y-01205
X00226Y-01199
X00215001Y-01149999
X00495001Y-0129
X00565001
X00548Y-01347
Y-01457
X00635001Y-0143
X00705001
X00775001
X00779Y-01249
X0074Y-01235
X00727
X007237Y-01171
X00712587Y-011327
X00670001Y-01219999
X006682Y-012752
X0067674Y-0128764
X006654Y-013007
X0067Y-01313
X00626Y-0125
X00600001Y-01219999
X00670001Y-01079999
X00686Y-01033
X00672Y-01004
X0064Y-00945981
X0069384Y-0091784
X0074484Y-0093684
X007255Y-00823
X00661Y-00829
X0062916Y-0084084
X00705001Y-00729999
X00530001Y-00799999
X00565001Y-00869999
X00483Y-00959
X0042725
X00390001Y-00939999
X00397Y-01053
X00436
X00449999Y-01036998
X00457Y-01025
X00482
X0025084Y-0101316
X00250001Y-00939999
X00262Y-00877
X00285001Y-00729999
X00355001
X00292215Y-01081445
X00054Y-01082
X00052Y-01092998
X00042625Y-01099
X00094Y-0103
X00075001Y-01009999
X00005001
X00005Y-00914404
X00032Y-00921
X0004084Y-00927836
X0005Y-00879
X0000831Y-008245
X-0001709Y-00825
X-00029999Y-00939999
X00110001
X00180001
X00108Y-00745248
X-0008075Y-00734687
X-0010615Y-00759362
X-0005535Y-00709
X-0017854Y-00876
X-001615Y-009845
X-00161Y-00999
X-00159Y-01057998
X-00159Y-01079
X-00120025Y-01100975
X-00085Y-010692
X-00249Y-01065
X-00245Y-01033
X-00225Y-00995
X-0023Y-00867
X-00255Y-0085
X-00264Y-00841
X-00309999Y-00799999
X-00232999Y-00784998
X-00251362Y-00762638
Y-00687
X-00169999Y-00659999
X-00064999Y-00589999
X00005001
X00040001Y-00519999
X-00029999
X-00099999
X-00064999Y-00449999
X00005001
X00035Y-00364785
X00021Y-00349
X0007Y-00345
X-0003Y-0035696
X-00099999Y-00379999
X-00134999Y-00449999
X00143Y-0055
X0014608Y-00683
X00180001Y-00659999
X00074Y-00664
X00219006Y-00675629
X00229Y-00651713
X00277Y-00654
X00271Y-00689
X00252Y-00684
X00391Y-00669
X0039Y-00646
Y-00635
X00390001Y-00519999
X00425001Y-00449999
X00495001
X00530001Y-00379999
Y-00519999
X00565001Y-00589999
X00530001Y-00659999
X00355001Y-00449999
X00285001
X00234Y-00477
X0023Y-0055
X00250001Y-00379999
X00285Y-00369
X00365
X00390001Y-00379999
X00405Y-00338
X00321Y-00324
Y-00314
X00635001Y-00309999
X00705001
X00670001Y-00379999
X00600001
X00635001Y-00449999
X00705001
X00670001Y-00519999
X00600001
X00635001Y-00589999
X00670001Y-00659999
X00600001
X00635001Y-00169999
X00705001
X00740001Y-00099999
X00705001Y-00029999
X00740001Y00040001
X00670001
X00600001Y-00099999
X00494Y-00099
X00491Y00011
X005
X00460001Y00040001
X00377Y-00025
X00381Y-00077
X00250001Y-00099999
X00259Y-00015
X00239Y-00016
X00228Y-00014
X00224Y-00001
X0021134Y-00017
X00191Y-00022
X00211Y-00203
X00237Y-00302
X00262Y-00292
X00321125Y-00187875
Y-00177
X00455Y-00249
X00530001Y-00239999
X00040001
X00034Y-00254
X-00029999Y-00239999
X-000335Y-00183
X-0004492Y-00159329
X-00071Y-00168
X-00107Y-00187875
X-00099999Y-00099999
X-00169999
X-00204999Y-00029999
X-00032Y00015
X-00037Y0008222
X00048Y00069
X0006Y00055
X001Y-0003746
X00127Y-00064
X0014608Y-0002308
X0013546Y-00002
X0017016Y-0004384
X00098Y-00099751
X00099Y-00113
X00087Y-00129
X00079Y-00166
X-00038Y-0012216
X-00274999Y00110001
X-00272713Y00136
X-00306
X-00295Y00192
X-00242Y00179
X-00234
X-0025Y00263
X-00196Y00253
X-00116Y00254
X-0008Y0025313
X-00064Y0025516
X0004184Y0025916
X000245Y00202
X-00015Y00182
X-00026Y00106
X-0005
X-00073Y0011884
X00005001Y00110001
X00038Y0011425
X00075001Y00110001
X00133Y00115
X-00205Y00130843
X00213325Y00108896
X0034Y00104232
Y00095
X00332Y0018107
X00413999Y00175
X0043857Y0019268
X00450057Y0015
X00461999Y00128
X00442022Y00102255
X0050725Y0013925
X00489Y0018
X0052765Y00184
X0054035Y0018335
X0056294Y0025494
X00565001Y00110001
X00705001
X00598954Y00217
T02
X005804Y-01665
X00555
X00506481
X00044472Y-01797152
X00019072
X-0001979
X-0004519
X-002193Y00215
X-002447
X-001807
X-001553
X006556
X00681
X007196
X00745
T03
X00286675Y-01705
X00306675
X00326675
X00173325Y00133
X00193325
X00213325
T04
X0019865Y-008013
X0022405
X0024945
X0030025
X0032565
X0035105
X0037645
X0040185
X0042725
X0045265
X0047805
Y-00708
X0045265
X0042725
X0040185
X0037645
X0035105
X0032565
X0030025
X0024945
X0022405
X0019865
X0017325
X0014785
X0012245
Y-008013
X0009705
X0007165
X0002085
X-0000455
X-0002995
X-0005535
X-0008075
X-0010615
X-0013155
X-0015695
X0014785
X0017325
Y-003187
X0014785
X0012245
X0007165
X0004625
X0002085
X-0000455
X-0002995
X-0005535
X-0008075
X-0010615
X0019865
X0022405
X0024945
X0027485
X0030025
X0034089
X0036629
X0039169
X0041709
X0044249
X0046789
X0049329
X0051869
X0054409
X0056949
Y-002254
X0054409
X0051869
X0049329
X0046789
X0044249
X0041709
X0039169
X0036629
X0034089
X0030025
X0027485
X0024945
X0022405
X0019865
X0017325
X0014785
X0012245
T05
X00156Y-01615
Y-01539
T06
X-0020775Y-007505
X-0018235
Y-007251
X-0020775
Y-006997
X-0018235
Y-006743
X-0020775
Y-006489
X-0018235
Y-006235
X-0020775
Y-005981
X-0018235
Y-005727
X-0020775
Y-005473
X-0018235
Y-005219
X-0020775
Y-004965
X-0018235
Y-004711
X-0020775
Y-004457
X-0018235
Y-004203
X-0020775
Y-003949
X-0018235
Y-003695
X-0020775
Y-003441
X-0018235
Y-003187
X-0020775
T07
X006288Y-0183335
X007518Y-018336
X00249525Y-01705
X00224125
X00198725
X00173325
X00116Y-017104
X0012554Y-017626
Y-01788
Y-018134
X001414Y-016596
X000906
X-00084306Y-01543406
X-00109706
X-00135106
X-00160506
X-00185906
X-00211306
X-00258162Y-01546064
Y-01571464
Y-01596864
Y-01622264
Y-01647664
Y-01673064
Y-01520664
Y-01495264
Y-01469864
Y-01444464
Y-01419064
Y-01393664
Y-01368264
Y-01342864
Y-01317464
Y-01292064
X-00211306Y-01429406
X-00185906
X-00160506
X-00135106
X-00109706
X-00084306
X00109Y-01384
Y-013586
Y-013332
Y-013078
Y-012824
Y-01257
Y-012316
Y-012062
X006496Y-014596
X00675
X007004
X007258
Y-01485
X007004
X00675
X006496
X0047805Y-0085
X0045265
X0042725
X0040185
X0037645
X0035105
X0032565
X0030025
X0024945
X0022405
X0019865
X001984Y-00755
X002238
X002492
X00173
X001476
X001222
X0012245Y-0085
X0014785
X0017325
X0009705
X0007165
X0002085
X-0000455
X-0002995
X-0005535
X-0008075
X-0010615
X-0013155
X-0015695
X-00283238Y-007505
X-00308638
Y-007251
X-00283238
Y-006997
X-00308638
Y-006743
X-00283238
Y-006489
X-00308638
Y-006235
Y-005981
Y-005727
Y-005473
X-00283238
Y-005219
Y-004965
Y-004711
Y-004457
Y-004203
Y-003949
X-00308638
Y-003695
Y-003441
Y-003187
X-00283238
Y-003441
Y-003695
X-00308638Y-004203
Y-004457
Y-004711
Y-004965
Y-005219
X-00283238Y-005727
Y-005981
Y-006235
X0009578Y-005727
Y-005473
Y-005219
X0012118
Y-005473
Y-005727
Y-004794
Y-00454
Y-004286
X0009578
Y-00454
Y-004794
X006493Y-002352
X006747
X007001
Y-002098
X007255
X007509
Y-002352
X007255
X006747Y-002098
X006493
Y-000701
X006747
X007001
X007255
X007509
X0056949Y-00179
X0054409
X0051869
X0049329
X0046789
X0044249
X0041709
X0039169
X0036629
X0034089
X0030025
X0027485
X0024945
X0022405
X0019865
Y-0027
X0022405
X0024945
X0027485
X0030025
X0034089
X0036629
X0039169
X0041709
X0044249
X0046789
X0049329
X0051869
X0054409
X0056949
X00402Y000423
Y000677
X003766
X003512
Y000423
X003766
X003258
X003004
X00275
Y000677
X002496
Y000423
X002242
Y000677
X001988
Y000423
X003004Y000677
X003258
X001734
X00148
X001226
X000972
Y000423
X001226
X00148
X001734
X0017325Y-00179
X0014785
X0012245
Y-0027
X0014785
X0017325
X0007165
X0004625
X0002085
X-0000455
X-0002995
X-0005535
X-0008075
X-0010615
X-0015695Y-002254
X-0018235
Y-002
X-0015695
Y-001746
X-0018235
X-00178Y-000544
X-001526
X-001272
X-001018
Y-00029
X-001272
X-001526
X-00178
Y0000275
X-001526
X-001272
X-001018
Y0002815
X-001272
X-001526
X-00178
X-00177852Y000599
X-00152452
X-00127052
X-00101652
Y000853
X-00127052
X-00152452
X-00177852
X-002596Y000841
X-00285
Y000587
X-002596
Y000333
X-00285
Y000079
X-002596
Y-000175
X-00285
Y-001238
Y-001492
Y-001746
Y-002
Y-002254
X-002596
Y-002
Y-001746
Y-001492
Y-001238
X-00178Y0011705
Y0014245
X-001526
Y0011705
X-001272
Y0014245
X-001018
Y0011705
X-001244Y0020233
X-000736
X-00099Y0025313
X00250475Y00133
X00275875
X00301275
X00326675
X0037446Y001896
Y00215
Y002404
X00573554Y00202328
X00624354
X00598954Y00253128
T08
X0044685Y-01788
X00161149
X0005315Y00215
X00338851
X00662Y001458
X007382Y00095
T09
X00051838Y-01728064
X-00258162
X00051838Y-00978064
X-00258162
T10
X0061775Y-008013
Y-00708
X-0020775Y-008013
X0009705Y-006572
Y-003778
X-0014425Y-003187
X0060505
Y-002254
T11
X005Y-0152
X0
X001065Y-014729
Y-011179
X004315
Y-014729
X005Y-0005
Y0005
X0
Y-0005
M30
