M48
;Layer_Color=9474304
;FILE_FORMAT=4:4
METRIC,LZ
;TYPE=PLATED
T1F00S00C0.4000
T2F00S00C0.7000
T3F00S00C0.8000
T4F00S00C0.8499
T5F00S00C0.9000
T6F00S00C0.9500
T7F00S00C1.0000
T8F00S00C2.1000
T9F00S00C2.2000
T10F00S00C2.5000
T11F00S00C2.9000
T12F00S00C3.0000
T13F00S00C3.1999
T14F00S00C3.2000
%
T01
X00595Y-0178
X00645
X00695
X0072Y-0173
X0077
X00736Y-01679
X0077Y-0163
X00736Y-0158616
X00739Y-01575
X00706Y-01576
X00673
X00624354Y-01553
X00588Y-01575664
X00595Y-0168
X0062Y-0173
X0067
Y-0183
X0072
X0077Y-0153
X00557Y-01554
X00556999Y-01565997
X00556751Y-01577
X0057Y-0163
X0052
X0047
X0042
X0037
X00395Y-0158
X00345
X00295
X00245
X0027Y-0153
X0022
Y-0163
X00195Y-01648
X0027Y-0163
X00295Y-0168
X00308Y-01678
X00328Y-01537
X00435
X0047Y-0173
X0052
X0057
X00545Y-0178
X00511999Y-01798996
X00504
Y-01791
X0017Y-0183
X0012
X00056Y-01836
X0003Y-01816
X00023Y-0181584
X00016Y-01816
X-00015Y-0181584
X-00022
X-00029
X-00006Y-01826
X-0003401Y-0174751
X-0002781Y-0173481
X-00055Y-0168
X-00105
X-0008Y-0163
X-0003
X0002
X0007
X00095Y-0158
X00045
X-00005
X-00055
X-00105
X-00155
X-00205
X-0018Y-0163
X-0013
Y-0173
X-0018
X-00205Y-0178
X-00105
X00113Y-01678997
X00124323Y-01677
X001414Y-016596
X0017554Y-0168
X0007Y-0153
X-0023
Y-0163
X-00241Y-01683997
X-0029912Y-01641
X-00289Y-01801
X-00255Y-0178
X-00224Y-01798
X-00242Y-0183616
X-0027884Y-0132016
X-00299Y-0129686
X-00291Y-01267
X-00279Y-012645
X-0028Y-0113
X-0023
X-0018
X-0013
X-00105Y-0118
X-00068Y-0118
X-0006Y-01173
X-00067Y-01164998
X-00039Y-01204
X-00024Y-01195
X-00006Y-01200998
X00018Y-01255
X00022664Y-01284
X000322Y-012752
X000784Y-01272
Y-0132
X00082Y-01362
X0007796Y-01397
X0007Y-0143
X0012
X0017
Y-0133
X00039547Y-013285
X0002Y-0133
X00012Y-0134
X-00003Y-01341
X-00005Y-0138
X00034371Y-01373
X00028Y-01413
X-0003Y-0143
X-00005Y-0148
X-00055
X-00105
X-0008Y-0133
X-00055Y-0128
X-0008Y-0123
X-0018
X-00167Y-012645
X-00155Y-0118
X-00205
X-00213Y-01386997
X0005846Y-0122
X0009Y-01213
X00052Y-01105998
X0002Y-0113
X-00005Y-01107572
X0017Y-0113
X0022
X0027
X0032
X0037
X00382Y-0119
Y-01198
Y-01206
X0037Y-0123
X0037Y-0125154
X00408Y-01242
X00453Y-01223
X00498
X0052Y-0123
X00512Y-01257
X00495Y-0128
X00545
X00548Y-01347
X00495Y-0138
X0047Y-0133
X00434Y-01405
X00408Y-01400371
X0037Y-01451
X0032Y-0143
X0027
X0022
X00245Y-0138
X00295
Y-0128
X00345
X0032Y-0123
X0027
X00295Y-0118
X00345
X00408Y-01166
X00495Y-0118
X0052Y-0113
X0057Y-0123
X00548Y-01457
X00245Y-0148
X00195
Y-0138
X0022Y-0133
X00245Y-0118
X00195
X00595
X0062Y-0123
X00595Y-0128
X00627Y-01299
X0062Y-0133
X00668Y-013242
X00668Y-013371
Y-0135
X006682Y-01363
X00717Y-013708
Y-014006
X00787Y-01402
Y-01394
Y-01386
Y-0141
X0077Y-0143
X0067
X0062
X00625Y-01388
X00595Y-0138
X00682Y-01262
X007246Y-012485
X007248Y-012358
X0075942Y-012752
X00759Y-01288
X00795Y-0128
X0077Y-0113
X0072
X00645Y-0108
X00651Y-01033
X00645Y-0098
X00745
X00743Y-00886
X0072779Y-0088779
X0067Y-00883
X00595Y-0088
Y-0078
X00645
X00695
X00745
X00795
X0072Y-0083
X00545Y-0078
X00495
Y-0088
X00439925Y-00866
X0042Y-0093
X0047
X00445Y-0098
X00457Y-01025
X00449999Y-01036998
X00436Y-01053
X00397
X0037Y-0103
X00345Y-0098
Y-0088
X00295
X00262Y-00877
X0032Y-0083
X00345Y-0078
X0037Y-0073
X00345Y-0108
X00292215Y-01081445
X0025084Y-0101316
X00245Y-0098
X00195
X00482Y-01025
X00495Y-0108
X0057Y-0103
Y-0093
X0004084Y-00927836
X00032Y-00921
X00005Y-00914404
X-0003Y-0093
X-0001709Y-00825
X-00005Y-0078
X-00006Y-00762
X0002Y-0073
X-0005535Y-00709
X-0008075Y-00734687
X-0010615Y-00759362
X-0017854Y-00876
X-00205Y-0088
X-001615Y-009845
X-00159Y-01
X-00139Y-01022998
X-0016Y-01060998
X-00155Y-0108
X-00120025Y-01100975
X-00085Y-010692
X0002Y-0103
X0007
X00094Y-0103
X0012Y-0103
X00095Y-0108
X00054Y-01082
X00042625Y-01099
X0005Y-00879
X00108Y-00745248
X0012Y-0073
X-00265Y-00771
X-00227Y-00865
X-00216Y-00884
X-00225Y-00949
Y-00995
X-00245Y-01033
X-00273Y-01045
X-00268Y-01055
X-00275Y-01066
X-00272Y-00686
X-0008Y-0063
X-0003
X0002
X00045Y-0058
X-00005
X-00055
X-00105
X-0008Y-0053
X-0003
X-00005Y-0048
X00045
X00095
X0007Y-0053
X00143Y-0055
X00095Y-0068
X00074Y-00664
X00095Y-0038
X00089Y-00372
X0007Y-00345
X00021Y-00349
X00036Y-00372
X-0003Y-0035696
X-00105Y-0038
X-00155
X-0013Y-0043
X-0008
X-00055Y-0048
X-00105
X-0013Y-0053
X00259Y-0055
X00225Y-00585
X0022Y-0063
X00229Y-00651713
X00205923Y-00677
X00207Y-00688
X0028746Y-00684
X00336Y-00688
X0036375Y-00697
X00391Y-00669
X0039Y-00646
Y-00635
X00395Y-0058
X00445
X00545
X0057Y-0053
X0052
X00545Y-0048
X00495
X00445
X00395
X0042Y-0043
X0037
X00365Y-00369
X00345Y-0038
X00395
X00445
X00495
X00545
X00295
X00285Y-00369
X00232Y-00357
X00321Y-00324
Y-00316
X00296Y-00509
X00322Y-00654
X00445Y-0068
X00495
X0057Y-0063
X0062
X0067
X0072
X00745Y-0058
X00795
Y-0048
X00745
X00695
X00645
X00595
X0062Y-0043
X0067
X0072
X00745Y-0038
X00795
X00695
X00645
X00595
X0072Y-0033
Y-0053
X0067
X0062
X00645Y-0058
X00695
Y-0068
X00745
X00795
X00645
X00595
Y-0058
Y-0028
X00645
X00695
X00745
X00795
Y-0018
Y-0008
Y0002
X00745
X00695
X00645
X00595
X0062Y0007
X0067
X0072
Y-0003
X0067
X0062Y-0013
X00645Y-0018
X00695
X0072Y-0023
X0062
X0057Y-0013
X0052
X00483021Y-00099
X00449Y-00053
X00401Y-00035
X00377Y-00025
X00352Y-00035
X00345Y-0008
X00381Y-00077
X0042Y-0013
X0043Y-00138
X00347Y-00166
Y-001746
Y-00183
X00379Y-00207
X0045503Y-00258
X00321Y-00308
X00262Y-00292
X0023659Y-00215
X0021151Y-00195
X00262Y-00136223
X0027Y-0013
X00309Y-00103277
X00285Y-0006575
X0027Y-0003
X00259Y-00015
X00239Y-00016
X00228Y-00014
X00224Y-00001
X0021134Y-00017
X00191Y-00022
X00245Y-0008
X0042Y0007
X00491Y00011
X005
X00509
X00537Y00084
X0013546Y-00002
X0014608Y-0002308
X0017016Y-0004384
X0017325Y-00078
X00127Y-00064
X00095Y-0008
X001Y-00094211
X001Y-00112
X00087Y-00129
X00079Y-00166
X00123Y-00151
Y-002244
X0002Y-0023
X00034Y-00254
X-0003Y-0023
X-000335Y-00183
X-00005Y-0018
X-0004492Y-00159329
X-00071Y-00168
X-00107Y-00187875
X-00105Y-0008
X-00055
X-00038Y-0012216
X-0008Y-0003
X-00032Y00015
X-00037Y0008222
X00048Y00069
X0006Y00055
X001Y-0003746
X-00155Y-0008
X-00157Y-00293
X-0023Y0007
X-00255Y0012
X-0025Y00179
X-00242Y00179
X-00234
X-0028Y0017
X-00295Y00192
X-00242Y00245
X-0025Y00263
X-00195Y00262
X-0019Y00249
X-00101Y00256999
X-0009Y00261
X-00061Y00256
X-0001495Y0024
X00008Y00206
X000225Y002165
X0004Y00261
X00064Y00179
X-0000632Y00172
X-00015Y00182
X-00026Y00172
X-00026Y00106
X-0005
X-00071Y00121
X-00005Y0012
X00038Y0011425
X00095Y0012
X00133Y00115
X-0019035Y00131
X00213325Y00108896
X00345Y00109
X0034012Y00103
X0034Y00095
X00415999Y00097
X00442022Y00102255
X00461999Y00128
X00454Y0015
X00433999Y00189
X00413999Y00175
X00489Y0018
X0052765Y00184
X0054035Y0018335
X00506999Y00137
X0056294Y0025494
X00607Y00219
Y00179
X0062Y0017
X0061775Y00149099
X00595Y0012
X00728764Y00168372
X00695Y0022
X00795
Y0012
T02
X005804Y-01665
X00555
X00506481
X00044472Y-01797152
X00019072
X-0001979
X-0004519
X-002193Y00215
X-002447
X-001807
X-001553
X006556
X00681
X007196
X00745
T03
X00173325Y00133
X00193325
X00213325
T04
X0019865Y-008013
X0022405
X0024945
X0030025
X0032565
X0035105
X0037645
X0040185
X0042725
X0045265
X0047805
Y-00708
X0045265
X0042725
X0040185
X0037645
X0035105
X0032565
X0027485
X0024945
X0022405
X0019865
X0050345
X0017325
X0014785
Y-008013
X0012245
X0009705
X0007165
X0002085
X-0000455
X-0002995
X-0005535
X-0008075
X-0010615
X-0013155
X-0015695
X0017325
Y-003187
X0014785
X0012245
X0007165
X0004625
X0002085
X-0000455
X-0002995
X-0005535
X-0008075
X-0010615
X0019865
X0022405
X0024945
X0027485
X0030025
X0034089
X0036629
X0039169
X0041709
X0044249
X0046789
X0049329
X0051869
X0054409
X0056949
X0059489Y-002254
X0056949
X0054409
X0051869
X0049329
X0046789
X0044249
X0041709
X0039169
X0036629
X0032565
X0030025
X0027485
X0024945
X0022405
X0019865
X0017325
X0014785
T05
X00156Y-01615
Y-01539
T06
X-0020775Y-007505
X-0018235
Y-007251
X-0020775
Y-006997
X-0018235
Y-006743
X-0020775
Y-006489
X-0018235
Y-006235
X-0020775
Y-005981
X-0018235
Y-005727
X-0020775
Y-005473
X-0018235
Y-005219
X-0020775
Y-004965
X-0018235
Y-004711
X-0020775
Y-004457
X-0018235
Y-004203
X-0020775
Y-003949
X-0018235
Y-003695
X-0020775
Y-003441
X-0018235
Y-003187
X-0020775
T07
X006288Y-0183335
X007518Y-018336
X002881Y-01705
X002627
X002373
X002119
X0012054Y-017626
Y-01788
Y-018134
X-00084306Y-01543406
X-00109706
X-00135106
X-00160506
X-00185906
X-00211306
X-00258162Y-01546064
Y-01571464
Y-01596864
Y-01622264
Y-01647664
Y-01673064
Y-01520664
Y-01495264
Y-01469864
Y-01444464
Y-01419064
Y-01393664
Y-01368264
Y-01342864
Y-01317464
Y-01292064
X-00211306Y-01429406
X-00185906
X-00160506
X-00135106
X-00109706
X-00084306
X00109Y-01384
Y-013586
Y-013332
Y-013078
Y-012824
Y-01257
Y-012316
Y-012062
X006496Y-014596
X00675
X007004
X007258
Y-01485
X007004
X00675
X006496
X00651099Y-00959999
X00698999
X00744Y-0096
X007608Y-01011
Y-01036
Y-01061
X0047805Y-0085
X0045265
X0042725
X0040185
X0037645
X0035105
X0032565
X0030025
X0024945
X0022405
X0019865
X001984Y-00755
X002238
X002492
X002746
X00173
X001476
X0014785Y-0085
X0012245
X0009705
X0007165
X0002085
X-0000455
X-0002995
X-0005535
X-0008075
X-0010615
X-0013155
X-0015695
X0017325
X-00278Y-0087
Y-00899
X-00277999Y-00928001
X-00283238Y-007505
X-00308638
Y-007251
X-00283238
Y-006997
X-00308638
Y-006743
X-00283238
Y-006489
X-00308638
Y-006235
Y-005981
Y-005727
Y-005473
X-00283238
Y-005219
Y-004965
Y-004711
Y-004457
Y-004203
Y-003949
X-00308638
Y-003695
Y-003441
Y-003187
X-00283238
Y-003441
Y-003695
X-00308638Y-004203
Y-004457
Y-004711
Y-004965
Y-005219
X-00283238Y-005727
Y-005981
Y-006235
X0009578Y-005727
Y-005473
Y-005219
X0012118
Y-005473
Y-005727
Y-004794
Y-00454
Y-004286
X0014658
Y-00454
Y-004794
X0059489Y-00179
X006493Y-002098
X006747
X007001
X007255
X007509
Y-000701
X007255
X007001
X006747
X006493
X0056949Y-00179
X0054409
X0051869
X0049329
X0046789
X0044249
X0041709
X0039169
X0036629
X0032565
X0030025
X0027485
X0024945
X0022405
X0019865
Y-0027
X0022405
X0024945
X0027485
X0030025
X0034089
X0036629
X0039169
X0041709
X0044249
X0046789
X0049329
X0051869
X0054409
X0056949
X00402Y000423
X003766
Y000677
X003512
X003258
Y000423
X003004
Y000677
X00275
X002496
X002242
X001988
Y000423
X002242
X002496
X00275
X003512
X00402Y000677
X001734
Y000423
X00148
Y000677
X001226
Y000423
X000972
Y000677
X-00101652Y000599
X-00127052
Y000853
X-00101652
X-00152452
Y000599
X-00177852
Y000853
X-00178Y0002815
X-001526
X-001272
Y0000275
X-001018
Y0002815
Y-00029
Y-000544
X-001272
Y-00029
X-001526
Y-000544
X-00178
Y-00029
Y0000275
X-001526
X-0015695Y-001746
Y-002
Y-002254
X-0018235
Y-002
Y-001746
X-0010615Y-0027
X-0008075
X-0005535
X-0002995
X-0000455
X0002085
X0004625
X0007165
X0012245
X0014785
X0017325
Y-00179
X0014785
X-002596Y-001746
Y-002
Y-002254
X-00285
Y-002
Y-001746
Y-001492
X-002596
Y-001238
X-00285
Y-000175
Y000079
Y000333
Y000587
Y000841
X-002596
Y000587
Y000333
Y000079
Y-000175
X-00178Y0011705
Y0014245
X-001526
Y0011705
X-001272
Y0014245
X-001018
Y0011705
X00250475Y00133
X00275875
X00301275
X00326675
X0037946Y001896
Y00215
Y002404
T08
X006908Y-01082
Y-0099
T09
X00662Y001458
X007382Y00095
T10
X0044585Y-01788
X0016215
X-00147806Y-01781
X0005415Y00215
X0033785
T11
X0012245Y-003778
T12
X00051838Y-01728064
X-00258162
X001065Y-014729
Y-011179
X004315
Y-014729
X00051838Y-00978064
X-00258162
T13
X0061775Y-008013
X0064315Y-00708
X-0020775Y-008013
X0012245Y-006572
X-0014425Y-003187
X0060505
T14
X005Y-0152
X0
X005Y-0005
Y0005
X0
Y-0005
M30
