G04*
G04 #@! TF.GenerationSoftware,Altium Limited,Altium Designer,18.0.12 (696)*
G04*
G04 Layer_Physical_Order=2*
G04 Layer_Color=39423*
%FSLAX44Y44*%
%MOMM*%
G71*
G01*
G75*
%ADD13C,0.2540*%
%ADD23R,1.0160X1.2700*%
%ADD29R,1.4000X0.8600*%
%ADD70C,0.4000*%
%ADD71C,2.0000*%
%ADD73C,3.0000*%
%ADD74C,4.0000*%
%ADD75C,0.3500*%
%ADD76C,1.0000*%
%ADD78C,0.2800*%
%ADD79C,0.9000*%
%ADD82C,1.6000*%
%ADD97C,4.0000*%
%ADD98C,2.2000*%
%ADD99P,5.9532X8X292.5*%
%ADD100C,0.8000*%
%ADD101C,6.0000*%
%ADD102C,3.4500*%
%ADD103C,2.4000*%
%ADD104P,6.4944X8X292.5*%
%ADD105P,1.7318X8X292.5*%
%ADD106R,1.6000X1.6000*%
%ADD107C,3.0000*%
%ADD108C,3.5000*%
%ADD109C,1.0000*%
%ADD110R,1.0160X1.5240*%
%ADD111R,1.7000X0.8000*%
%ADD112R,1.5000X3.5000*%
%ADD113C,1.2000*%
G36*
X-1000Y56700D02*
X11532D01*
X27922Y40311D01*
Y33000D01*
Y23798D01*
X26748Y23312D01*
X15020Y35040D01*
X3000D01*
Y5000D01*
X-3000D01*
Y35040D01*
X-15020D01*
X-28748Y21312D01*
X-29922Y21798D01*
Y46509D01*
X-29674Y46674D01*
X-29509Y46922D01*
X-25000D01*
X-25000Y46922D01*
X-23439Y47232D01*
X-22116Y48116D01*
X-13532Y56700D01*
X-4000D01*
Y67000D01*
X-1000Y67000D01*
Y56700D01*
D02*
G37*
G36*
X451922Y50491D02*
X451674Y50326D01*
X450348Y48341D01*
X449883Y46000D01*
X450348Y43659D01*
X451674Y41674D01*
X453659Y40348D01*
X456000Y39883D01*
X458341Y40348D01*
X460326Y41674D01*
X461573Y41345D01*
X461801Y41116D01*
X461801Y41116D01*
X463125Y40232D01*
X464685Y39922D01*
X468494D01*
X468980Y38748D01*
X438116Y7884D01*
X437232Y6561D01*
X436922Y5000D01*
X436922Y5000D01*
Y-40311D01*
X432311Y-44922D01*
X346000D01*
X344439Y-45232D01*
X343116Y-46116D01*
X336116Y-53116D01*
X335232Y-54439D01*
X334922Y-56000D01*
X334922Y-56000D01*
Y-59462D01*
X333748Y-59948D01*
X330800Y-57000D01*
X320800D01*
X315800Y-62000D01*
Y-71232D01*
X310116Y-76916D01*
X309232Y-78239D01*
X308922Y-79800D01*
X308922Y-79800D01*
Y-84262D01*
X307748Y-84748D01*
X305400Y-82400D01*
X295400D01*
X293252Y-84548D01*
X292078Y-84062D01*
Y-81089D01*
X296168Y-77000D01*
X305400D01*
X310400Y-72000D01*
Y-62000D01*
X305400Y-57000D01*
X295400D01*
X290400Y-62000D01*
Y-71232D01*
X285116Y-76516D01*
X284232Y-77839D01*
X283922Y-79400D01*
X283922Y-79400D01*
Y-84662D01*
X282748Y-85148D01*
X280000Y-82400D01*
X270000D01*
X267252Y-85148D01*
X266078Y-84662D01*
Y-81689D01*
X270768Y-77000D01*
X280000D01*
X285000Y-72000D01*
Y-62000D01*
X280000Y-57000D01*
X270000D01*
X265000Y-62000D01*
Y-71232D01*
X259116Y-77116D01*
X258232Y-78439D01*
X257922Y-80000D01*
X257922Y-80000D01*
Y-84062D01*
X256748Y-84548D01*
X254600Y-82400D01*
X244600D01*
X242252Y-84748D01*
X241078Y-84262D01*
Y-81289D01*
X245368Y-77000D01*
X254600D01*
X259600Y-72000D01*
Y-62000D01*
X254600Y-57000D01*
X244600D01*
X239600Y-62000D01*
Y-71232D01*
X234116Y-76716D01*
X233232Y-78039D01*
X232922Y-79600D01*
X232922Y-79600D01*
Y-84462D01*
X231748Y-84948D01*
X229200Y-82400D01*
X219200D01*
X217252Y-84348D01*
X216078Y-83862D01*
Y-80889D01*
X219968Y-77000D01*
X229200D01*
X234200Y-72000D01*
Y-62000D01*
X229200Y-57000D01*
X219200D01*
X214200Y-62000D01*
Y-71232D01*
X209116Y-76316D01*
X208232Y-77639D01*
X207922Y-79200D01*
X207922Y-79200D01*
Y-84862D01*
X206748Y-85348D01*
X203800Y-82400D01*
X193800D01*
X188800Y-87400D01*
Y-97400D01*
X193800Y-102400D01*
X194722D01*
Y-114342D01*
X178652Y-130412D01*
X177478Y-129926D01*
Y-102400D01*
X178400D01*
X183400Y-97400D01*
Y-87400D01*
X178400Y-82400D01*
X168400D01*
X163400Y-87400D01*
Y-97400D01*
X168400Y-102400D01*
X169322D01*
Y-131257D01*
X153252Y-147327D01*
X152078Y-146841D01*
Y-102400D01*
X153000D01*
X158000Y-97400D01*
Y-87400D01*
X153000Y-82400D01*
X143000D01*
X138000Y-87400D01*
Y-97400D01*
X143000Y-102400D01*
X143922D01*
Y-148172D01*
X127852Y-164242D01*
X126678Y-163756D01*
Y-102400D01*
X127600D01*
X132600Y-97400D01*
Y-87400D01*
X127600Y-82400D01*
X117600D01*
X112600Y-87400D01*
Y-97400D01*
X117600Y-102400D01*
X118522D01*
Y-165086D01*
X98616Y-184992D01*
X97732Y-186315D01*
X97422Y-187876D01*
X97422Y-187876D01*
Y-239956D01*
X97422Y-239956D01*
X97732Y-241516D01*
X98616Y-242840D01*
X112922Y-257145D01*
Y-340000D01*
Y-347100D01*
X108249D01*
Y-386100D01*
X127249D01*
Y-347100D01*
X121078D01*
Y-340000D01*
Y-258476D01*
X122252Y-257990D01*
X137922Y-273660D01*
Y-340000D01*
Y-347100D01*
X133649D01*
Y-386100D01*
X152649D01*
Y-347100D01*
X146078D01*
Y-340000D01*
Y-274991D01*
X147252Y-274505D01*
X162922Y-290175D01*
Y-347100D01*
X159049D01*
Y-386100D01*
X178049D01*
Y-347100D01*
X171078D01*
Y-300917D01*
X172348Y-300531D01*
X172716Y-301082D01*
X188922Y-317287D01*
Y-347100D01*
X184449D01*
Y-386100D01*
X202922D01*
Y-395000D01*
X202922Y-395000D01*
X203139Y-396090D01*
X202740Y-396867D01*
X202355Y-397360D01*
X196949D01*
Y-414400D01*
X203989D01*
Y-399553D01*
X205259Y-399027D01*
X209849Y-403617D01*
Y-436900D01*
X212673D01*
X213159Y-438073D01*
X168059Y-483173D01*
X166982Y-482454D01*
X168192Y-479535D01*
X168262Y-479000D01*
X158000D01*
Y-489262D01*
X158535Y-489192D01*
X161454Y-487982D01*
X162173Y-489059D01*
X132116Y-519116D01*
X131232Y-520439D01*
X130922Y-522000D01*
X130922Y-522000D01*
Y-737311D01*
X114116Y-754116D01*
X113232Y-755439D01*
X112922Y-757000D01*
X112922Y-757000D01*
Y-837000D01*
X112922Y-837000D01*
X113232Y-838561D01*
X114116Y-839884D01*
X133116Y-858884D01*
X133116Y-858884D01*
X134439Y-859768D01*
X136000Y-860078D01*
X136000Y-860078D01*
X178311D01*
X259922Y-941689D01*
Y-1077509D01*
X259674Y-1077674D01*
X258348Y-1079659D01*
X257882Y-1082000D01*
X258348Y-1084341D01*
X259674Y-1086326D01*
X259922Y-1086491D01*
Y-1102272D01*
X259922Y-1102272D01*
X259922Y-1102272D01*
Y-1105000D01*
X259922Y-1105000D01*
X260232Y-1106561D01*
X261116Y-1107884D01*
X267116Y-1113884D01*
X267116Y-1113884D01*
X268439Y-1114768D01*
X270000Y-1115078D01*
X270000Y-1115078D01*
X410131D01*
X437076Y-1142024D01*
X436883Y-1143000D01*
X437348Y-1145341D01*
X438674Y-1147326D01*
X440659Y-1148652D01*
X443000Y-1149118D01*
X445341Y-1148652D01*
X447326Y-1147326D01*
X448652Y-1145341D01*
X449118Y-1143000D01*
X448652Y-1140659D01*
X447326Y-1138674D01*
X445341Y-1137348D01*
X443587Y-1136999D01*
X416839Y-1110252D01*
X417325Y-1109078D01*
X434825D01*
X460631Y-1134884D01*
X460631Y-1134884D01*
X461954Y-1135768D01*
X463515Y-1136078D01*
X463515Y-1136078D01*
X513728D01*
X513728Y-1136078D01*
X515289Y-1135768D01*
X516612Y-1134884D01*
X521884Y-1129612D01*
X521884Y-1129612D01*
X522768Y-1128289D01*
X523078Y-1126728D01*
Y-1119272D01*
X523078Y-1119272D01*
X522768Y-1117711D01*
X521884Y-1116388D01*
X515862Y-1110366D01*
X514539Y-1109482D01*
X512978Y-1109172D01*
X512978Y-1109172D01*
X491991D01*
X491826Y-1108924D01*
X489841Y-1107598D01*
X487500Y-1107132D01*
X485159Y-1107598D01*
X483174Y-1108924D01*
X481848Y-1110909D01*
X481382Y-1113250D01*
X481848Y-1115591D01*
X483174Y-1117576D01*
X483288Y-1117652D01*
X482903Y-1118922D01*
X472455D01*
X471776Y-1117652D01*
X472652Y-1116341D01*
X473117Y-1114000D01*
X472652Y-1111659D01*
X471326Y-1109674D01*
X469341Y-1108348D01*
X467000Y-1107883D01*
X466708Y-1107941D01*
X435884Y-1077116D01*
X434561Y-1076232D01*
X433000Y-1075922D01*
X433000Y-1075922D01*
X372689D01*
X353078Y-1056311D01*
Y-864689D01*
X385884Y-831884D01*
X385884Y-831884D01*
X386768Y-830561D01*
X387078Y-829000D01*
Y-745505D01*
X388252Y-745019D01*
X414116Y-770884D01*
X415439Y-771768D01*
X417000Y-772078D01*
X417000Y-772078D01*
X436311D01*
X438502Y-774270D01*
X437829Y-775393D01*
X435533Y-774696D01*
X432200Y-774368D01*
X428867Y-774696D01*
X425663Y-775668D01*
X422710Y-777247D01*
X420121Y-779371D01*
X417997Y-781960D01*
X416418Y-784913D01*
X415446Y-788117D01*
X415118Y-791450D01*
X415446Y-794783D01*
X416418Y-797987D01*
X417629Y-800253D01*
X410116Y-807766D01*
X409232Y-809089D01*
X408922Y-810650D01*
X408922Y-810650D01*
Y-854311D01*
X403115Y-860117D01*
X402231Y-861440D01*
X401921Y-863001D01*
X401921Y-863001D01*
Y-918998D01*
X400159Y-919348D01*
X398174Y-920674D01*
X396848Y-922659D01*
X396382Y-925000D01*
X396441Y-925292D01*
X390252Y-931481D01*
X389078Y-930995D01*
Y-918500D01*
X395500D01*
Y-906500D01*
X374500D01*
Y-918500D01*
X380922D01*
Y-932326D01*
X374116Y-939131D01*
X373232Y-940454D01*
X372922Y-942015D01*
X372922Y-942015D01*
Y-1017213D01*
X372922Y-1017213D01*
X373232Y-1018774D01*
X374116Y-1020097D01*
X379901Y-1025882D01*
X381224Y-1026766D01*
X382785Y-1027076D01*
X382785Y-1027076D01*
X405508D01*
X405673Y-1027324D01*
X405921Y-1027489D01*
Y-1035726D01*
X405921Y-1035726D01*
X406231Y-1037287D01*
X407115Y-1038610D01*
X422387Y-1053882D01*
X423711Y-1054766D01*
X425271Y-1055076D01*
X425271Y-1055076D01*
X436999D01*
X436999Y-1055076D01*
X437896Y-1054898D01*
X439000Y-1055117D01*
X441341Y-1054652D01*
X443326Y-1053326D01*
X444652Y-1051341D01*
X445118Y-1049000D01*
X445059Y-1048706D01*
X456384Y-1037381D01*
X457268Y-1036058D01*
X457578Y-1034497D01*
X457578Y-1034497D01*
Y-924500D01*
X457578Y-924500D01*
X457268Y-922939D01*
X456384Y-921616D01*
X456384Y-921616D01*
X449059Y-914292D01*
X449118Y-914000D01*
X448652Y-911659D01*
X447326Y-909674D01*
X445341Y-908348D01*
X443000Y-907883D01*
X442602Y-907962D01*
X441977Y-906791D01*
X455884Y-892884D01*
X455884Y-892884D01*
X456768Y-891561D01*
X457078Y-890000D01*
Y-783000D01*
X457078Y-783000D01*
X456768Y-781439D01*
X455884Y-780116D01*
X455884Y-780116D01*
X440884Y-765116D01*
X439561Y-764232D01*
X438000Y-763922D01*
X438000Y-763922D01*
X418689D01*
X355078Y-700311D01*
Y-554961D01*
X366884Y-543156D01*
X367768Y-541833D01*
X368078Y-540272D01*
X368078Y-540272D01*
Y-284918D01*
X369348Y-284533D01*
X369796Y-285203D01*
X381500Y-296908D01*
X381382Y-297500D01*
X381848Y-299841D01*
X383174Y-301826D01*
X385159Y-303152D01*
X387500Y-303617D01*
X389841Y-303152D01*
X391826Y-301826D01*
X393152Y-299841D01*
X393618Y-297500D01*
X393152Y-295159D01*
X391826Y-293174D01*
X389841Y-291848D01*
X387500Y-291383D01*
X386908Y-291500D01*
X376323Y-280916D01*
Y-252161D01*
X376826Y-251826D01*
X378152Y-249841D01*
X378618Y-247500D01*
X378152Y-245159D01*
X376826Y-243174D01*
X374841Y-241848D01*
X372500Y-241382D01*
X370159Y-241848D01*
X368174Y-243174D01*
X366848Y-245159D01*
X366382Y-247500D01*
X366848Y-249841D01*
X368174Y-251826D01*
X368677Y-252161D01*
Y-260513D01*
X367407Y-260898D01*
X366884Y-260116D01*
X366884Y-260116D01*
X345078Y-238311D01*
Y-212000D01*
X345078Y-212000D01*
X344901Y-211108D01*
X346072Y-210483D01*
X360294Y-224706D01*
X361965Y-225988D01*
X363912Y-226794D01*
X366000Y-227069D01*
X415658D01*
X456931Y-268342D01*
Y-297658D01*
X431794Y-322794D01*
X430512Y-324465D01*
X429706Y-326412D01*
X429431Y-328500D01*
X429706Y-330588D01*
X429931Y-331132D01*
Y-355000D01*
Y-365000D01*
Y-375000D01*
Y-525500D01*
X430206Y-527588D01*
X431012Y-529534D01*
X432294Y-531206D01*
X459431Y-558342D01*
Y-705808D01*
X437075Y-728164D01*
X435533Y-727696D01*
X432200Y-727368D01*
X428867Y-727696D01*
X425663Y-728668D01*
X422710Y-730247D01*
X420121Y-732371D01*
X417997Y-734960D01*
X416418Y-737913D01*
X415446Y-741117D01*
X415118Y-744450D01*
X415446Y-747783D01*
X416418Y-750987D01*
X417997Y-753940D01*
X420121Y-756529D01*
X422710Y-758653D01*
X425663Y-760232D01*
X428867Y-761204D01*
X432200Y-761532D01*
X435533Y-761204D01*
X438737Y-760232D01*
X441690Y-758653D01*
X444279Y-756529D01*
X446403Y-753940D01*
X447982Y-750987D01*
X448954Y-747783D01*
X449282Y-744450D01*
X448954Y-741117D01*
X448486Y-739575D01*
X473206Y-714856D01*
X474488Y-713185D01*
X475294Y-711238D01*
X475569Y-709150D01*
Y-555000D01*
X475294Y-552912D01*
X474488Y-550965D01*
X473206Y-549294D01*
X453908Y-529996D01*
X454533Y-528826D01*
X456000Y-529118D01*
X458341Y-528652D01*
X460326Y-527326D01*
X461652Y-525341D01*
X462118Y-523000D01*
X461652Y-520659D01*
X460326Y-518674D01*
X460078Y-518509D01*
Y-335689D01*
X485884Y-309884D01*
X485884Y-309884D01*
X486768Y-308561D01*
X487078Y-307000D01*
X487078Y-307000D01*
Y-283694D01*
X487992Y-282992D01*
X489114Y-281530D01*
X489820Y-279827D01*
X490060Y-278000D01*
Y-269000D01*
Y-260000D01*
Y-252924D01*
X499992Y-242992D01*
X501115Y-241530D01*
X501820Y-239827D01*
X502060Y-238000D01*
Y-190000D01*
Y-180000D01*
Y-171000D01*
X501820Y-169173D01*
X501115Y-167470D01*
X499992Y-166007D01*
X498530Y-164886D01*
X496827Y-164180D01*
X495000Y-163940D01*
X493173Y-164180D01*
X491470Y-164886D01*
X490008Y-166007D01*
X488885Y-167470D01*
X488180Y-169173D01*
X487940Y-171000D01*
Y-180000D01*
Y-190000D01*
Y-235075D01*
X478008Y-245008D01*
X476885Y-246470D01*
X476180Y-248173D01*
X475940Y-250000D01*
Y-260000D01*
Y-269000D01*
Y-278000D01*
X476180Y-279827D01*
X476885Y-281530D01*
X478008Y-282992D01*
X478922Y-283694D01*
Y-305311D01*
X453116Y-331116D01*
X452232Y-332439D01*
X451922Y-334000D01*
X451922Y-334000D01*
Y-518509D01*
X451674Y-518674D01*
X450348Y-520659D01*
X449883Y-523000D01*
X450174Y-524467D01*
X449004Y-525093D01*
X446069Y-522158D01*
Y-375000D01*
Y-365000D01*
Y-355000D01*
Y-331342D01*
X470706Y-306706D01*
X471988Y-305035D01*
X472794Y-303088D01*
X473069Y-301000D01*
Y-265000D01*
X472794Y-262912D01*
X471988Y-260965D01*
X470706Y-259294D01*
X424706Y-213294D01*
X423035Y-212012D01*
X421088Y-211206D01*
X419000Y-210931D01*
X405449D01*
X404770Y-209661D01*
X405652Y-208341D01*
X406118Y-206000D01*
X405652Y-203659D01*
X404326Y-201674D01*
X403823Y-201339D01*
Y-175237D01*
X404943Y-174314D01*
X405638Y-174530D01*
X405998Y-176341D01*
X407324Y-178326D01*
X409309Y-179652D01*
X411650Y-180117D01*
X413991Y-179652D01*
X415976Y-178326D01*
X417302Y-176341D01*
X417767Y-174000D01*
X417302Y-171659D01*
X415976Y-169674D01*
X413991Y-168348D01*
X412137Y-167979D01*
X411844Y-166647D01*
X412326Y-166326D01*
X413652Y-164341D01*
X414118Y-162000D01*
X413652Y-159659D01*
X412326Y-157674D01*
X410341Y-156348D01*
X408000Y-155883D01*
X407407Y-156000D01*
X399323Y-147916D01*
Y-111300D01*
X399032Y-109837D01*
X398204Y-108596D01*
X386600Y-96993D01*
Y-93055D01*
X386686Y-92400D01*
Y-67000D01*
X386600Y-66345D01*
Y-62000D01*
X381600Y-57000D01*
X377255D01*
X376600Y-56914D01*
X375945Y-57000D01*
X371600D01*
X366600Y-62000D01*
Y-66345D01*
X366514Y-67000D01*
Y-92400D01*
X366600Y-93055D01*
Y-97400D01*
X371600Y-102400D01*
X375945D01*
X376600Y-102486D01*
X377255Y-102400D01*
X381193D01*
X391677Y-112884D01*
Y-120410D01*
X390407Y-120795D01*
X390326Y-120674D01*
X388341Y-119348D01*
X386000Y-118882D01*
X383659Y-119348D01*
X381674Y-120674D01*
X380348Y-122659D01*
X379883Y-125000D01*
X380348Y-127341D01*
X381674Y-129326D01*
X382927Y-130162D01*
Y-146548D01*
X381657Y-147227D01*
X380341Y-146348D01*
X378000Y-145882D01*
X375659Y-146348D01*
X373674Y-147674D01*
X372348Y-149659D01*
X372032Y-151251D01*
X370653Y-151669D01*
X358260Y-139276D01*
Y-100340D01*
X361200Y-97400D01*
Y-87400D01*
X356200Y-82400D01*
X346200D01*
X344252Y-84348D01*
X343078Y-83862D01*
Y-76348D01*
X344252Y-75862D01*
X345930Y-77540D01*
X348200D01*
Y-67000D01*
X351200D01*
D01*
X348200D01*
Y-56460D01*
X346104D01*
X345328Y-55439D01*
X347689Y-53078D01*
X434000D01*
X434000Y-53078D01*
X435561Y-52768D01*
X436884Y-51884D01*
X443884Y-44884D01*
X443884Y-44884D01*
X444768Y-43561D01*
X445078Y-42000D01*
X445078Y-42000D01*
Y3311D01*
X477689Y35922D01*
X484066D01*
X484592Y34652D01*
X469960Y20020D01*
Y8000D01*
X500000D01*
X530040D01*
Y20020D01*
X515020Y35040D01*
X508005D01*
X507853Y35251D01*
X508161Y36977D01*
X508369Y37116D01*
X519175Y47922D01*
X521509D01*
X521674Y47674D01*
X523659Y46348D01*
X526000Y45883D01*
X528341Y46348D01*
X530326Y47674D01*
X530491Y47922D01*
X531000D01*
X531000Y47922D01*
X532561Y48232D01*
X533884Y49116D01*
X539884Y55116D01*
X540768Y56439D01*
X540820Y56700D01*
X544730D01*
X546000Y55430D01*
X546000Y-714886D01*
X544768Y-715195D01*
X544243Y-714212D01*
X541739Y-711161D01*
X538688Y-708657D01*
X535206Y-706796D01*
X531428Y-705650D01*
X530500Y-705558D01*
Y-725400D01*
Y-745241D01*
X531428Y-745150D01*
X535206Y-744004D01*
X538688Y-742143D01*
X541739Y-739639D01*
X544243Y-736588D01*
X544768Y-735605D01*
X546000Y-735914D01*
Y-846986D01*
X544768Y-847295D01*
X544243Y-846312D01*
X541739Y-843261D01*
X538688Y-840757D01*
X535206Y-838896D01*
X531428Y-837750D01*
X530500Y-837658D01*
Y-857500D01*
Y-877342D01*
X531428Y-877250D01*
X535206Y-876104D01*
X538688Y-874243D01*
X541739Y-871739D01*
X544243Y-868688D01*
X544768Y-867705D01*
X546000Y-868014D01*
X546000Y-1097360D01*
X544827Y-1097846D01*
X528828Y-1081848D01*
Y-1079741D01*
X529076Y-1079576D01*
X530402Y-1077591D01*
X530868Y-1075250D01*
X530810Y-1074958D01*
X541884Y-1063884D01*
X541884Y-1063884D01*
X542768Y-1062561D01*
X543078Y-1061000D01*
Y-1048000D01*
X543078Y-1048000D01*
X542768Y-1046439D01*
X541884Y-1045116D01*
X509884Y-1013116D01*
X508561Y-1012232D01*
X507000Y-1011922D01*
X507000Y-1011922D01*
X490000D01*
X488439Y-1012232D01*
X487116Y-1013116D01*
X487116Y-1013116D01*
X483116Y-1017116D01*
X482232Y-1018439D01*
X481922Y-1020000D01*
X481922Y-1020000D01*
Y-1047306D01*
X481008Y-1048008D01*
X479886Y-1049470D01*
X479180Y-1051173D01*
X478940Y-1053000D01*
X479180Y-1054827D01*
X479886Y-1056530D01*
X481008Y-1057992D01*
X482470Y-1059115D01*
X484173Y-1059820D01*
X486000Y-1060060D01*
X487827Y-1059820D01*
X489530Y-1059115D01*
X490993Y-1057992D01*
X492114Y-1056530D01*
X492820Y-1054827D01*
X493060Y-1053000D01*
X492820Y-1051173D01*
X492114Y-1049470D01*
X490993Y-1048008D01*
X490078Y-1047306D01*
Y-1030455D01*
X491348Y-1029776D01*
X492659Y-1030652D01*
X495000Y-1031117D01*
X497341Y-1030652D01*
X499326Y-1029326D01*
X499491Y-1029078D01*
X505825D01*
X525922Y-1049175D01*
Y-1051509D01*
X525674Y-1051674D01*
X524348Y-1053659D01*
X523882Y-1056000D01*
X524348Y-1058341D01*
X525674Y-1060326D01*
X527659Y-1061652D01*
X530000Y-1062117D01*
X530398Y-1062038D01*
X531023Y-1063209D01*
X525042Y-1069191D01*
X524750Y-1069133D01*
X522409Y-1069598D01*
X520424Y-1070924D01*
X519098Y-1072909D01*
X518633Y-1075250D01*
X519098Y-1077591D01*
X520269Y-1079343D01*
X520196Y-1079904D01*
X519165Y-1080335D01*
X518811Y-1080315D01*
X513918Y-1075423D01*
Y-1059651D01*
X514166Y-1059486D01*
X515492Y-1057501D01*
X515957Y-1055160D01*
X515492Y-1052819D01*
X514166Y-1050834D01*
X512181Y-1049508D01*
X509840Y-1049043D01*
X507499Y-1049508D01*
X505514Y-1050834D01*
X504188Y-1052819D01*
X503722Y-1055160D01*
X504188Y-1057501D01*
X505514Y-1059486D01*
X505762Y-1059651D01*
Y-1077112D01*
X505762Y-1077112D01*
X506072Y-1078673D01*
X506956Y-1079996D01*
X533922Y-1106961D01*
Y-1239207D01*
X525207Y-1247922D01*
X107175D01*
X51369Y-1192116D01*
X50046Y-1191232D01*
X48485Y-1190922D01*
X48485Y-1190922D01*
X-11920D01*
X-13922Y-1188920D01*
Y-1010175D01*
X-12825Y-1009078D01*
X153970D01*
X153970Y-1009078D01*
X155531Y-1008768D01*
X156854Y-1007884D01*
X197536Y-967203D01*
X198420Y-965879D01*
X198730Y-964319D01*
X198730Y-964318D01*
Y-924196D01*
X198730Y-924196D01*
X198420Y-922635D01*
X197536Y-921312D01*
X197536Y-921312D01*
X176884Y-900660D01*
X175561Y-899776D01*
X174000Y-899466D01*
X174000Y-899466D01*
X152234D01*
X88078Y-835311D01*
Y-787000D01*
X87768Y-785439D01*
X86884Y-784116D01*
X86884Y-784116D01*
X74884Y-772116D01*
X73561Y-771232D01*
X72000Y-770922D01*
X72000Y-770922D01*
X24689D01*
X6078Y-752311D01*
Y-543175D01*
X64253Y-485000D01*
X82760D01*
Y-501350D01*
X85842D01*
Y-511380D01*
X82760D01*
Y-530620D01*
X96920D01*
Y-515324D01*
X98190Y-514798D01*
X103080Y-519688D01*
Y-530620D01*
X117240D01*
Y-511380D01*
X106308D01*
X104078Y-509151D01*
Y-501350D01*
X117240D01*
Y-484650D01*
X114238D01*
Y-483160D01*
X113928Y-481599D01*
X113044Y-480276D01*
X104805Y-472038D01*
X103482Y-471154D01*
X101922Y-470843D01*
X101922Y-470843D01*
X60078D01*
X58518Y-471154D01*
X57194Y-472038D01*
X-7884Y-537116D01*
X-8193Y-537579D01*
X-9463Y-537194D01*
Y-357236D01*
X-31872D01*
Y-704540D01*
X-10348D01*
X-9463Y-704540D01*
X-9078Y-705651D01*
Y-739913D01*
X-9441Y-740164D01*
X-10348Y-740399D01*
X-33922Y-716825D01*
Y-267223D01*
X-32652Y-266838D01*
X-32326Y-267326D01*
X-30341Y-268652D01*
X-28000Y-269118D01*
X-25659Y-268652D01*
X-23674Y-267326D01*
X-22348Y-265341D01*
X-21883Y-263000D01*
X-21941Y-262708D01*
X-14711Y-255478D01*
X-9450D01*
X-8964Y-256652D01*
X-21328Y-269016D01*
X-22000Y-268883D01*
X-24341Y-269348D01*
X-26326Y-270674D01*
X-27652Y-272659D01*
X-28117Y-275000D01*
X-27652Y-277341D01*
X-26326Y-279326D01*
X-24341Y-280652D01*
X-22000Y-281117D01*
X-19659Y-280652D01*
X-17674Y-279326D01*
X-16348Y-277341D01*
X-16110Y-276144D01*
X-16038Y-276117D01*
X-14930Y-277055D01*
X-15117Y-278000D01*
X-14652Y-280341D01*
X-13326Y-282326D01*
X-11341Y-283652D01*
X-9000Y-284118D01*
X-6659Y-283652D01*
X-4674Y-282326D01*
X-3348Y-280341D01*
X-2882Y-278000D01*
X-3348Y-275659D01*
X-4674Y-273674D01*
X-4657Y-272365D01*
X10797Y-256911D01*
X11920Y-257584D01*
X10918Y-260887D01*
X10494Y-265200D01*
X10918Y-269513D01*
X12176Y-273660D01*
X14219Y-277482D01*
X16968Y-280832D01*
X20318Y-283581D01*
X24140Y-285624D01*
X28287Y-286882D01*
X32600Y-287306D01*
X61000D01*
X61000Y-287306D01*
X61000Y-287306D01*
X83400D01*
X87713Y-286882D01*
X91860Y-285624D01*
X95682Y-283581D01*
X99032Y-280832D01*
X101781Y-277482D01*
X103824Y-273660D01*
X105082Y-269513D01*
X105506Y-265200D01*
X105082Y-260887D01*
X103824Y-256740D01*
X101781Y-252918D01*
X99032Y-249568D01*
X95682Y-246819D01*
X91860Y-244776D01*
X87713Y-243518D01*
X83400Y-243094D01*
X80106D01*
Y-189000D01*
Y-133800D01*
X79682Y-129487D01*
X78424Y-125340D01*
X76381Y-121518D01*
X73632Y-118168D01*
X70282Y-115419D01*
X66460Y-113376D01*
X62313Y-112118D01*
X58000Y-111694D01*
X53687Y-112118D01*
X49540Y-113376D01*
X45718Y-115419D01*
X42368Y-118168D01*
X39619Y-121518D01*
X37576Y-125340D01*
X36318Y-129487D01*
X35894Y-133800D01*
Y-189000D01*
Y-243094D01*
X32600D01*
X28287Y-243518D01*
X24985Y-244520D01*
X24311Y-243397D01*
X26884Y-240825D01*
X26884Y-240825D01*
X27768Y-239502D01*
X28078Y-237941D01*
Y-199053D01*
X28078Y-199053D01*
X27768Y-197493D01*
X26884Y-196169D01*
X26884Y-196169D01*
X7078Y-176364D01*
Y-147491D01*
X7326Y-147326D01*
X8652Y-145341D01*
X9118Y-143000D01*
X8652Y-140659D01*
X7326Y-138674D01*
X5341Y-137348D01*
X4798Y-137240D01*
X4429Y-136025D01*
X69376Y-71078D01*
X87200D01*
Y-72000D01*
X92200Y-77000D01*
X102200D01*
X103948Y-75252D01*
X105122Y-75738D01*
Y-78711D01*
X101432Y-82400D01*
X87200D01*
Y-102400D01*
X107200D01*
Y-88168D01*
X112084Y-83284D01*
X112968Y-81961D01*
X113278Y-80400D01*
X113278Y-80400D01*
Y-75148D01*
X114452Y-74662D01*
X117330Y-77540D01*
X119600D01*
Y-67000D01*
Y-56460D01*
X117330D01*
X114244Y-59546D01*
X113924Y-59569D01*
X112722Y-59272D01*
X112084Y-58316D01*
X105884Y-52116D01*
X104561Y-51232D01*
X103000Y-50922D01*
X103000Y-50922D01*
X71201D01*
X69640Y-51232D01*
X68317Y-52116D01*
X68317Y-52116D01*
X31310Y-89123D01*
X30040Y-88597D01*
Y-78000D01*
X3000D01*
Y-105040D01*
X13597D01*
X14123Y-106310D01*
X-44827Y-165260D01*
X-46000Y-164774D01*
X-46000Y-16499D01*
X-45358Y-16145D01*
X-44730Y-16038D01*
X-22884Y-37884D01*
X-22884Y-37884D01*
X-21561Y-38768D01*
X-20000Y-39078D01*
X-20000Y-39078D01*
X-6491D01*
X-6326Y-39326D01*
X-4341Y-40652D01*
X-2000Y-41118D01*
X-1708Y-41059D01*
X116Y-42884D01*
X116Y-42884D01*
X324Y-43023D01*
X632Y-44749D01*
X480Y-44960D01*
X-15020D01*
X-30040Y-59980D01*
Y-72000D01*
X-0D01*
X30040D01*
Y-59980D01*
X15408Y-45348D01*
X15934Y-44078D01*
X22000D01*
X22000Y-44078D01*
X23561Y-43768D01*
X24884Y-42884D01*
X34884Y-32884D01*
X34884Y-32884D01*
X35768Y-31561D01*
X36078Y-30000D01*
Y28922D01*
X49000D01*
X49000Y28922D01*
X50561Y29232D01*
X51884Y30116D01*
X56884Y35116D01*
X57768Y36439D01*
X58078Y38000D01*
X58078Y38000D01*
Y49509D01*
X58326Y49674D01*
X59652Y51659D01*
X60118Y54000D01*
X60059Y54292D01*
X64689Y58922D01*
X451922D01*
Y50491D01*
D02*
G37*
G36*
X273522Y-128289D02*
Y-190026D01*
X273522Y-190026D01*
X273832Y-191587D01*
X274716Y-192910D01*
X291922Y-210116D01*
Y-217911D01*
X291922Y-217912D01*
X292232Y-219472D01*
X293116Y-220795D01*
X300922Y-228601D01*
Y-254911D01*
X300922Y-254912D01*
X301232Y-256472D01*
X302116Y-257795D01*
X323922Y-279601D01*
Y-420311D01*
X290116Y-454116D01*
X289232Y-455439D01*
X288922Y-457000D01*
X288922Y-457000D01*
Y-547485D01*
X288922Y-547485D01*
X289232Y-549046D01*
X290116Y-550369D01*
X310922Y-571175D01*
Y-716911D01*
X310922Y-716912D01*
X311232Y-718472D01*
X312116Y-719795D01*
X348922Y-756601D01*
Y-765506D01*
X347652Y-765694D01*
X346653Y-762402D01*
X344842Y-759014D01*
X342405Y-756045D01*
X339436Y-753608D01*
X336049Y-751797D01*
X332373Y-750682D01*
X328550Y-750306D01*
X324727Y-750682D01*
X321052Y-751797D01*
X317664Y-753608D01*
X314695Y-756045D01*
X312258Y-759014D01*
X310447Y-762402D01*
X309332Y-766077D01*
X308956Y-769900D01*
X309332Y-773723D01*
X310447Y-777398D01*
X311704Y-779750D01*
X310673Y-780515D01*
X280279Y-750121D01*
X277975Y-748230D01*
X278218Y-746930D01*
X278713Y-746882D01*
X282860Y-745624D01*
X286682Y-743581D01*
X290032Y-740832D01*
X292781Y-737482D01*
X294824Y-733660D01*
X296082Y-729513D01*
X296506Y-725200D01*
X296082Y-720887D01*
X294824Y-716740D01*
X292781Y-712918D01*
X290032Y-709568D01*
X286682Y-706819D01*
X282860Y-704776D01*
X278713Y-703518D01*
X274400Y-703093D01*
X270087Y-703518D01*
X265940Y-704776D01*
X262118Y-706819D01*
X258768Y-709568D01*
X256019Y-712918D01*
X253976Y-716740D01*
X252718Y-720887D01*
X252294Y-725200D01*
X252718Y-729513D01*
X253976Y-733660D01*
X256019Y-737482D01*
X258768Y-740832D01*
X262118Y-743581D01*
X262689Y-743886D01*
X262380Y-745118D01*
X235620D01*
X235311Y-743886D01*
X235882Y-743581D01*
X239232Y-740832D01*
X241981Y-737482D01*
X244024Y-733660D01*
X245282Y-729513D01*
X245706Y-725200D01*
X245282Y-720887D01*
X244024Y-716740D01*
X241981Y-712918D01*
X239232Y-709568D01*
X235882Y-706819D01*
X232060Y-704776D01*
X227913Y-703518D01*
X223600Y-703093D01*
X219287Y-703518D01*
X215140Y-704776D01*
X211318Y-706819D01*
X207968Y-709568D01*
X205219Y-712918D01*
X203176Y-716740D01*
X201918Y-720887D01*
X201494Y-725200D01*
X201918Y-729513D01*
X203176Y-733660D01*
X205219Y-737482D01*
X207968Y-740832D01*
X211318Y-743581D01*
X215140Y-745624D01*
X219287Y-746882D01*
X221411Y-747091D01*
X221810Y-748406D01*
X219721Y-750121D01*
X180774Y-789069D01*
X179769Y-788277D01*
X182100Y-784473D01*
X184028Y-779819D01*
X185204Y-774921D01*
X185599Y-769900D01*
X185204Y-764879D01*
X184028Y-759981D01*
X182100Y-755327D01*
X179469Y-751033D01*
X176197Y-747203D01*
X172367Y-743931D01*
X168073Y-741300D01*
X163419Y-739372D01*
X158521Y-738196D01*
X153500Y-737801D01*
X148479Y-738196D01*
X143581Y-739372D01*
X139975Y-740865D01*
X139554Y-740660D01*
X138891Y-739940D01*
X139078Y-739000D01*
X139078Y-739000D01*
Y-523689D01*
X222233Y-440535D01*
X223117Y-439212D01*
X223428Y-437651D01*
Y-436900D01*
X228849D01*
Y-399413D01*
X230119Y-398887D01*
X235249Y-404017D01*
Y-436900D01*
X254249D01*
Y-397900D01*
X240668D01*
X236078Y-393311D01*
Y-386100D01*
X254249D01*
Y-347100D01*
X247078D01*
Y-331000D01*
X246768Y-329439D01*
X245884Y-328116D01*
X244561Y-327232D01*
X244289Y-327178D01*
X203678Y-286567D01*
Y-277212D01*
X204910Y-276904D01*
X205219Y-277482D01*
X207968Y-280832D01*
X211318Y-283581D01*
X215140Y-285624D01*
X219287Y-286882D01*
X223600Y-287306D01*
X274400D01*
X278713Y-286882D01*
X282860Y-285624D01*
X286682Y-283581D01*
X290032Y-280832D01*
X292781Y-277482D01*
X294824Y-273660D01*
X296082Y-269513D01*
X296506Y-265200D01*
X296082Y-260887D01*
X294824Y-256740D01*
X292781Y-252918D01*
X290032Y-249568D01*
X286682Y-246819D01*
X282860Y-244776D01*
X278713Y-243518D01*
X274400Y-243093D01*
X271106D01*
Y-189000D01*
X271106Y-189000D01*
Y-133800D01*
X270682Y-129487D01*
X269706Y-126269D01*
X270828Y-125596D01*
X273522Y-128289D01*
D02*
G37*
G36*
X335922Y-429991D02*
Y-491650D01*
X323080D01*
Y-508350D01*
X326082D01*
Y-511380D01*
X323080D01*
Y-530620D01*
X331953D01*
X332439Y-531793D01*
X324116Y-540116D01*
X323232Y-541439D01*
X322922Y-543000D01*
X322922Y-543000D01*
Y-561495D01*
X321748Y-561981D01*
X303078Y-543311D01*
Y-531160D01*
X306840D01*
Y-521000D01*
Y-510840D01*
X303078D01*
Y-508350D01*
X316920D01*
Y-491650D01*
X313918D01*
Y-488926D01*
X315188Y-488078D01*
X316605Y-488665D01*
X319999Y-489111D01*
X323393Y-488665D01*
X326555Y-487355D01*
X329271Y-485271D01*
X331355Y-482555D01*
X332665Y-479393D01*
X333111Y-475999D01*
X332665Y-472606D01*
X331355Y-469443D01*
X329271Y-466727D01*
X326555Y-464644D01*
X323393Y-463334D01*
X319999Y-462887D01*
X316605Y-463334D01*
X313443Y-464644D01*
X310728Y-466727D01*
X308644Y-469443D01*
X307334Y-472606D01*
X306887Y-475999D01*
X307334Y-479393D01*
X308360Y-481871D01*
X306956Y-483274D01*
X306072Y-484598D01*
X305762Y-486158D01*
X305762Y-486158D01*
Y-491650D01*
X303078D01*
Y-461175D01*
X334748Y-429505D01*
X335922Y-429991D01*
D02*
G37*
G36*
X303921Y-822079D02*
X306510Y-824203D01*
X309463Y-825782D01*
X312667Y-826754D01*
X316000Y-827082D01*
X328000D01*
X331333Y-826754D01*
X334537Y-825782D01*
X337490Y-824203D01*
X339254Y-822756D01*
X340108Y-823698D01*
X316116Y-847690D01*
X315232Y-849013D01*
X314922Y-850574D01*
X314922Y-850574D01*
Y-1021825D01*
X276116Y-1060631D01*
X275232Y-1061954D01*
X274922Y-1063515D01*
X274922Y-1063515D01*
Y-1092311D01*
X273292Y-1093941D01*
X273000Y-1093883D01*
X270659Y-1094348D01*
X269348Y-1095224D01*
X268078Y-1094545D01*
Y-1086491D01*
X268326Y-1086326D01*
X269652Y-1084341D01*
X270117Y-1082000D01*
X269652Y-1079659D01*
X268326Y-1077674D01*
X268078Y-1077509D01*
Y-940000D01*
X267768Y-938439D01*
X266884Y-937116D01*
X266884Y-937116D01*
X182884Y-853116D01*
X181561Y-852232D01*
X180000Y-851922D01*
X180000Y-851922D01*
X165998D01*
X165909Y-851703D01*
X165781Y-850652D01*
X168490Y-849203D01*
X171079Y-847079D01*
X229339Y-788819D01*
X230371Y-789584D01*
X228576Y-792940D01*
X227318Y-797087D01*
X226894Y-801400D01*
X227318Y-805713D01*
X228576Y-809860D01*
X230619Y-813682D01*
X233368Y-817032D01*
X236718Y-819781D01*
X240540Y-821824D01*
X244687Y-823082D01*
X249000Y-823506D01*
X253313Y-823082D01*
X257460Y-821824D01*
X261282Y-819781D01*
X264632Y-817032D01*
X267381Y-813682D01*
X269424Y-809860D01*
X270682Y-805713D01*
X271106Y-801400D01*
X270682Y-797087D01*
X269424Y-792940D01*
X267381Y-789118D01*
X264632Y-785768D01*
X261282Y-783019D01*
X257460Y-780976D01*
X256062Y-780552D01*
X256250Y-779282D01*
X261124D01*
X303921Y-822079D01*
D02*
G37*
G36*
X107922Y-922281D02*
Y-959213D01*
X107922Y-959213D01*
X108232Y-960774D01*
X109116Y-962097D01*
X115767Y-968748D01*
X115281Y-969922D01*
X-16311D01*
X-19116Y-967116D01*
X-20439Y-966232D01*
X-22000Y-965922D01*
X-22000Y-965922D01*
X-26509D01*
X-26674Y-965674D01*
X-28659Y-964348D01*
X-31000Y-963883D01*
X-33341Y-964348D01*
X-34677Y-965241D01*
X-35487Y-964254D01*
X-34292Y-963059D01*
X-34000Y-963118D01*
X-31659Y-962652D01*
X-29674Y-961326D01*
X-29509Y-961078D01*
X56320D01*
X56320Y-961078D01*
X57881Y-960768D01*
X59204Y-959884D01*
X95708Y-923380D01*
X96000Y-923438D01*
X98341Y-922972D01*
X100326Y-921646D01*
X101652Y-919661D01*
X101959Y-918115D01*
X103337Y-917697D01*
X107922Y-922281D01*
D02*
G37*
G36*
X40903Y-927884D02*
X40903Y-927884D01*
X42226Y-928768D01*
X43787Y-929078D01*
X75592D01*
X75592Y-929078D01*
X76947Y-928809D01*
X77430Y-929322D01*
X77696Y-929856D01*
X54631Y-952922D01*
X52147D01*
X51553Y-951652D01*
X51964Y-951160D01*
X52040Y-951110D01*
X54341Y-950652D01*
X56326Y-949326D01*
X57652Y-947341D01*
X58117Y-945000D01*
X57652Y-942659D01*
X56326Y-940674D01*
X54341Y-939348D01*
X52000Y-938883D01*
X49659Y-939348D01*
X47674Y-940674D01*
X46348Y-942659D01*
X45883Y-945000D01*
X45940Y-945292D01*
X44311Y-946922D01*
X17738D01*
X17252Y-945748D01*
X32000Y-931000D01*
Y-920777D01*
X33270Y-920251D01*
X40903Y-927884D01*
D02*
G37*
G36*
X44116Y-831884D02*
X44116Y-831884D01*
X45439Y-832768D01*
X47000Y-833078D01*
X53518D01*
X53687Y-834318D01*
X49540Y-835576D01*
X45718Y-837619D01*
X42368Y-840368D01*
X39619Y-843718D01*
X37576Y-847540D01*
X36318Y-851687D01*
X35894Y-856000D01*
X36318Y-860313D01*
X37576Y-864460D01*
X39619Y-868282D01*
X42368Y-871632D01*
X45718Y-874381D01*
X49540Y-876424D01*
X53687Y-877682D01*
X58000Y-878106D01*
X62313Y-877682D01*
X66460Y-876424D01*
X70282Y-874381D01*
X73632Y-871632D01*
X76381Y-868282D01*
X78424Y-864460D01*
X79682Y-860313D01*
X80106Y-856000D01*
X79682Y-851687D01*
X78424Y-847540D01*
X78346Y-847395D01*
X79377Y-846630D01*
X145631Y-912884D01*
X145631Y-912884D01*
X146954Y-913768D01*
X148515Y-914078D01*
X148515Y-914078D01*
X151281D01*
X151768Y-915252D01*
X145116Y-921903D01*
X144232Y-923226D01*
X143922Y-924787D01*
X143922Y-924787D01*
Y-954311D01*
X140311Y-957922D01*
X132455D01*
X131776Y-956652D01*
X132652Y-955341D01*
X133118Y-953000D01*
X132652Y-950659D01*
X131326Y-948674D01*
X131078Y-948509D01*
Y-918622D01*
X130768Y-917061D01*
X129884Y-915738D01*
X129884Y-915738D01*
X107582Y-893436D01*
X106259Y-892552D01*
X104698Y-892242D01*
X104698Y-892242D01*
X87302D01*
X85741Y-892552D01*
X84418Y-893436D01*
X84418Y-893436D01*
X68932Y-908922D01*
X66689D01*
X60078Y-902311D01*
Y-893544D01*
X60078Y-893544D01*
X59768Y-891983D01*
X58884Y-890660D01*
X58884Y-890660D01*
X25340Y-857116D01*
X24016Y-856232D01*
X22456Y-855922D01*
X22456Y-855922D01*
X5903D01*
X-8922Y-841097D01*
Y-780602D01*
X-8559Y-780350D01*
X-7652Y-780116D01*
X44116Y-831884D01*
D02*
G37*
G36*
X117114Y-985882D02*
X118437Y-986766D01*
X119998Y-987076D01*
X119998Y-987076D01*
X122509D01*
X122674Y-987324D01*
X124659Y-988650D01*
X127000Y-989116D01*
X128002Y-988916D01*
X129082Y-989996D01*
X128883Y-991000D01*
X129348Y-993341D01*
X129656Y-993802D01*
X129057Y-994922D01*
X57455D01*
X56776Y-993652D01*
X57652Y-992341D01*
X58117Y-990000D01*
X57652Y-987659D01*
X56326Y-985674D01*
X55838Y-985348D01*
X56223Y-984078D01*
X115311D01*
X117114Y-985882D01*
D02*
G37*
G36*
X326922Y-1031505D02*
Y-1052311D01*
X294292Y-1084940D01*
X294000Y-1084883D01*
X291659Y-1085348D01*
X290348Y-1086224D01*
X289078Y-1085545D01*
Y-1067689D01*
X325748Y-1031019D01*
X326922Y-1031505D01*
D02*
G37*
G36*
X368116Y-1082884D02*
X368116Y-1082884D01*
X369439Y-1083768D01*
X371000Y-1084078D01*
X371000Y-1084078D01*
X431311D01*
X441695Y-1094462D01*
X440885Y-1095449D01*
X440561Y-1095232D01*
X439000Y-1094922D01*
X439000Y-1094922D01*
X325455D01*
X324776Y-1093652D01*
X325652Y-1092341D01*
X326118Y-1090000D01*
X326059Y-1089708D01*
X345884Y-1069884D01*
X345884Y-1069884D01*
X346768Y-1068561D01*
X347078Y-1067000D01*
Y-1063505D01*
X348252Y-1063019D01*
X368116Y-1082884D01*
D02*
G37*
G36*
X16530Y-1361298D02*
X15896Y-1362460D01*
X3000D01*
Y-1395000D01*
Y-1427540D01*
X16270D01*
X30748Y-1413062D01*
X31922Y-1413548D01*
Y-1501452D01*
X30748Y-1501938D01*
X16270Y-1487460D01*
X3000D01*
Y-1520000D01*
Y-1552540D01*
X16270D01*
X30748Y-1538062D01*
X31922Y-1538548D01*
Y-1553000D01*
X31922Y-1553000D01*
X32232Y-1554561D01*
X33116Y-1555884D01*
X67116Y-1589884D01*
X67116Y-1589884D01*
X68439Y-1590768D01*
X70000Y-1591078D01*
X70000Y-1591078D01*
X463054D01*
X463243Y-1591645D01*
X463265Y-1592348D01*
X462116Y-1593116D01*
X462116Y-1593116D01*
X450292Y-1604940D01*
X450000Y-1604883D01*
X447659Y-1605348D01*
X445674Y-1606674D01*
X444348Y-1608659D01*
X443882Y-1611000D01*
X443941Y-1611292D01*
X441311Y-1613922D01*
X41000D01*
Y-1611700D01*
X36078D01*
Y-1609272D01*
X35768Y-1607711D01*
X34884Y-1606388D01*
X20612Y-1592116D01*
X19289Y-1591232D01*
X17728Y-1590922D01*
X17728Y-1590922D01*
X4491D01*
X4326Y-1590674D01*
X2341Y-1589348D01*
X0Y-1588882D01*
X-292Y-1588940D01*
X-32531Y-1556702D01*
Y-1537939D01*
X-31357Y-1537453D01*
X-16270Y-1552540D01*
X-3000D01*
Y-1520000D01*
Y-1487460D01*
X-16270D01*
X-31357Y-1502547D01*
X-32531Y-1502061D01*
Y-1412939D01*
X-31357Y-1412453D01*
X-16270Y-1427540D01*
X-3000D01*
Y-1395000D01*
Y-1362460D01*
X-16270D01*
X-31357Y-1377547D01*
X-32531Y-1377061D01*
Y-1313896D01*
X-31357Y-1313410D01*
X16530Y-1361298D01*
D02*
G37*
G36*
X-19884Y-1203884D02*
X-19884Y-1203884D01*
X-18561Y-1204768D01*
X-17000Y-1205078D01*
X-17000Y-1205078D01*
X-13617D01*
X-13163Y-1206348D01*
X-15079Y-1207921D01*
X-17203Y-1210510D01*
X-18782Y-1213463D01*
X-19754Y-1216667D01*
X-20082Y-1220000D01*
X-19754Y-1223333D01*
X-18782Y-1226537D01*
X-17203Y-1229490D01*
X-15079Y-1232079D01*
X-12490Y-1234203D01*
X-9537Y-1235782D01*
X-6333Y-1236754D01*
X-3000Y-1237082D01*
X333Y-1236754D01*
X3537Y-1235782D01*
X6490Y-1234203D01*
X9079Y-1232079D01*
X11203Y-1229490D01*
X12782Y-1226537D01*
X13754Y-1223333D01*
X14082Y-1220000D01*
X13754Y-1216667D01*
X12782Y-1213463D01*
X11203Y-1210510D01*
X9079Y-1207921D01*
X7163Y-1206348D01*
X7617Y-1205078D01*
X22383D01*
X22837Y-1206348D01*
X20921Y-1207921D01*
X18797Y-1210510D01*
X17218Y-1213463D01*
X16246Y-1216667D01*
X15918Y-1220000D01*
X16246Y-1223333D01*
X17218Y-1226537D01*
X18797Y-1229490D01*
X20921Y-1232079D01*
X23510Y-1234203D01*
X26463Y-1235782D01*
X29667Y-1236754D01*
X33000Y-1237082D01*
X36333Y-1236754D01*
X39537Y-1235782D01*
X42490Y-1234203D01*
X45079Y-1232079D01*
X47203Y-1229490D01*
X48782Y-1226537D01*
X49754Y-1223333D01*
X50082Y-1220000D01*
X49754Y-1216667D01*
X48782Y-1213463D01*
X47203Y-1210510D01*
X45079Y-1207921D01*
X43962Y-1207004D01*
X44312Y-1205649D01*
X44793Y-1205561D01*
X100116Y-1260884D01*
X100116Y-1260884D01*
X101439Y-1261768D01*
X103000Y-1262078D01*
X529381D01*
X529381Y-1262078D01*
X530942Y-1261768D01*
X532265Y-1260884D01*
X544827Y-1248322D01*
X546000Y-1248808D01*
X546000Y-1610430D01*
X546000Y-1611700D01*
X541078D01*
Y-1606000D01*
X541078Y-1606000D01*
X540768Y-1604439D01*
X539884Y-1603116D01*
X529884Y-1593116D01*
X528561Y-1592232D01*
X527000Y-1591922D01*
X527000Y-1591922D01*
X505455D01*
X504776Y-1590652D01*
X505652Y-1589341D01*
X506118Y-1587000D01*
X505652Y-1584659D01*
X504326Y-1582674D01*
X502341Y-1581348D01*
X500000Y-1580883D01*
X497659Y-1581348D01*
X495674Y-1582674D01*
X495509Y-1582922D01*
X71689D01*
X40078Y-1551311D01*
Y-1375000D01*
X40078Y-1375000D01*
X39768Y-1373439D01*
X38884Y-1372116D01*
X-25922Y-1307311D01*
Y-1199505D01*
X-24748Y-1199019D01*
X-19884Y-1203884D01*
D02*
G37*
%LPC*%
G36*
X530040Y2000D02*
X503000D01*
Y-25040D01*
X515020D01*
X530040Y-10020D01*
Y2000D01*
D02*
G37*
G36*
X497000D02*
X469960D01*
Y-10020D01*
X484980Y-25040D01*
X497000D01*
Y2000D01*
D02*
G37*
G36*
X356470Y-56460D02*
X354200D01*
Y-64000D01*
X361740D01*
Y-61730D01*
X356470Y-56460D01*
D02*
G37*
G36*
X153270D02*
X151000D01*
Y-64000D01*
X158540D01*
Y-61730D01*
X153270Y-56460D01*
D02*
G37*
G36*
X127870D02*
X125600D01*
Y-64000D01*
X133140D01*
Y-61730D01*
X127870Y-56460D01*
D02*
G37*
G36*
X145000D02*
X142730D01*
X137460Y-61730D01*
Y-64000D01*
X145000D01*
Y-56460D01*
D02*
G37*
G36*
X515020Y-44960D02*
X503000D01*
Y-72000D01*
X530040D01*
Y-59980D01*
X515020Y-44960D01*
D02*
G37*
G36*
X497000D02*
X484980D01*
X469960Y-59980D01*
Y-72000D01*
X497000D01*
Y-44960D01*
D02*
G37*
G36*
X203800Y-57000D02*
X193800D01*
X188800Y-62000D01*
Y-72000D01*
X193800Y-77000D01*
X203800D01*
X208800Y-72000D01*
Y-62000D01*
X203800Y-57000D01*
D02*
G37*
G36*
X178400D02*
X168400D01*
X163400Y-62000D01*
Y-72000D01*
X168400Y-77000D01*
X178400D01*
X183400Y-72000D01*
Y-62000D01*
X178400Y-57000D01*
D02*
G37*
G36*
X361740Y-70000D02*
X354200D01*
Y-77540D01*
X356470D01*
X361740Y-72270D01*
Y-70000D01*
D02*
G37*
G36*
X158540D02*
X151000D01*
Y-77540D01*
X153270D01*
X158540Y-72270D01*
Y-70000D01*
D02*
G37*
G36*
X145000D02*
X137460D01*
Y-72270D01*
X142730Y-77540D01*
X145000D01*
Y-70000D01*
D02*
G37*
G36*
X133140D02*
X125600D01*
Y-77540D01*
X127870D01*
X133140Y-72270D01*
Y-70000D01*
D02*
G37*
G36*
X402000Y-56914D02*
X401345Y-57000D01*
X397000D01*
X392000Y-62000D01*
Y-66345D01*
X391914Y-67000D01*
Y-92400D01*
X392000Y-93055D01*
Y-97400D01*
X397000Y-102400D01*
X401345D01*
X402000Y-102486D01*
X402655Y-102400D01*
X407000D01*
X412000Y-97400D01*
Y-93055D01*
X412086Y-92400D01*
Y-67000D01*
X412000Y-66345D01*
Y-62000D01*
X407000Y-57000D01*
X402655D01*
X402000Y-56914D01*
D02*
G37*
G36*
X530040Y-78000D02*
X503000D01*
Y-105040D01*
X515020D01*
X530040Y-90020D01*
Y-78000D01*
D02*
G37*
G36*
X497000D02*
X469960D01*
Y-90020D01*
X484980Y-105040D01*
X497000D01*
Y-78000D01*
D02*
G37*
G36*
X-3000Y-78000D02*
X-30040D01*
Y-90020D01*
X-15020Y-105040D01*
X-3000D01*
Y-78000D01*
D02*
G37*
G36*
X190949Y-397360D02*
X183909D01*
Y-414400D01*
X190949D01*
Y-397360D01*
D02*
G37*
G36*
X178589D02*
X171549D01*
Y-414400D01*
X178589D01*
Y-397360D01*
D02*
G37*
G36*
X165549D02*
X158509D01*
Y-414400D01*
X165549D01*
Y-397360D01*
D02*
G37*
G36*
X153189D02*
X146149D01*
Y-414400D01*
X153189D01*
Y-397360D01*
D02*
G37*
G36*
X140149D02*
X133109D01*
Y-414400D01*
X140149D01*
Y-397360D01*
D02*
G37*
G36*
X127789D02*
X120749D01*
Y-414400D01*
X127789D01*
Y-397360D01*
D02*
G37*
G36*
X114749D02*
X107709D01*
Y-414400D01*
X114749D01*
Y-397360D01*
D02*
G37*
G36*
X446340Y-266542D02*
X443999Y-267008D01*
X442014Y-268334D01*
X440688Y-270319D01*
X440222Y-272660D01*
X440688Y-275001D01*
X442014Y-276986D01*
X442262Y-277151D01*
Y-281971D01*
X417115Y-307117D01*
X416231Y-308440D01*
X415921Y-310001D01*
X415921Y-310001D01*
Y-321860D01*
X415762Y-322660D01*
X415922Y-323464D01*
Y-413009D01*
X415674Y-413174D01*
X414348Y-415159D01*
X413882Y-417500D01*
X414348Y-419841D01*
X415674Y-421826D01*
X417659Y-423152D01*
X420000Y-423618D01*
X422341Y-423152D01*
X424326Y-421826D01*
X425652Y-419841D01*
X426118Y-417500D01*
X425652Y-415159D01*
X424326Y-413174D01*
X424078Y-413009D01*
Y-322822D01*
X424078Y-322822D01*
X424078Y-322821D01*
X424078Y-322820D01*
X424077Y-322816D01*
Y-311690D01*
X449224Y-286544D01*
X450108Y-285221D01*
X450418Y-283660D01*
X450418Y-283660D01*
Y-277151D01*
X450666Y-276986D01*
X451992Y-275001D01*
X452458Y-272660D01*
X451992Y-270319D01*
X450666Y-268334D01*
X448681Y-267008D01*
X446340Y-266542D01*
D02*
G37*
G36*
X203989Y-420400D02*
X196949D01*
Y-437440D01*
X203989D01*
Y-420400D01*
D02*
G37*
G36*
X190949D02*
X183909D01*
Y-437440D01*
X190949D01*
Y-420400D01*
D02*
G37*
G36*
X178589D02*
X171549D01*
Y-437440D01*
X178589D01*
Y-420400D01*
D02*
G37*
G36*
X165549D02*
X158509D01*
Y-437440D01*
X165549D01*
Y-420400D01*
D02*
G37*
G36*
X153189D02*
X146149D01*
Y-437440D01*
X153189D01*
Y-420400D01*
D02*
G37*
G36*
X140149D02*
X133109D01*
Y-437440D01*
X140149D01*
Y-420400D01*
D02*
G37*
G36*
X127789D02*
X120749D01*
Y-437440D01*
X127789D01*
Y-420400D01*
D02*
G37*
G36*
X114749D02*
X107709D01*
Y-437440D01*
X114749D01*
Y-420400D01*
D02*
G37*
G36*
X158000Y-462738D02*
Y-473000D01*
X168262D01*
X168192Y-472465D01*
X166827Y-469172D01*
X164657Y-466343D01*
X161828Y-464173D01*
X158535Y-462808D01*
X158000Y-462738D01*
D02*
G37*
G36*
X152000Y-462738D02*
X151465Y-462808D01*
X148172Y-464173D01*
X145343Y-466343D01*
X143173Y-469172D01*
X141809Y-472465D01*
X141738Y-473000D01*
X152000D01*
Y-462738D01*
D02*
G37*
G36*
Y-479000D02*
X141738D01*
X141809Y-479535D01*
X143173Y-482828D01*
X145343Y-485657D01*
X148172Y-487827D01*
X151465Y-489192D01*
X152000Y-489262D01*
Y-479000D01*
D02*
G37*
G36*
X516270Y-462460D02*
X503000D01*
Y-492000D01*
X532540D01*
Y-478730D01*
X516270Y-462460D01*
D02*
G37*
G36*
X497000D02*
X483730D01*
X467460Y-478730D01*
Y-492000D01*
X497000D01*
Y-462460D01*
D02*
G37*
G36*
X532540Y-498000D02*
X503000D01*
Y-527540D01*
X516270D01*
X532540Y-511270D01*
Y-498000D01*
D02*
G37*
G36*
X497000D02*
X467460D01*
Y-511270D01*
X483730Y-527540D01*
X497000D01*
Y-498000D01*
D02*
G37*
G36*
X432999Y-551921D02*
X432999Y-551921D01*
X379001D01*
X379001Y-551921D01*
X377440Y-552231D01*
X376117Y-553115D01*
X376117Y-553115D01*
X368116Y-561116D01*
X367232Y-562439D01*
X366922Y-564000D01*
X366922Y-564000D01*
Y-570750D01*
X366922Y-570750D01*
X367232Y-572311D01*
X368116Y-573634D01*
X369190Y-574708D01*
X369132Y-575000D01*
X369598Y-577341D01*
X370924Y-579326D01*
X372909Y-580652D01*
X375250Y-581118D01*
X375843Y-581000D01*
X394076Y-599233D01*
X395316Y-600061D01*
X396779Y-600353D01*
X408609D01*
X408944Y-600855D01*
X410137Y-601652D01*
X409752Y-602922D01*
X391690D01*
X387534Y-598766D01*
X386211Y-597882D01*
X384650Y-597572D01*
X384650Y-597572D01*
X382491D01*
X382325Y-597324D01*
X380341Y-595998D01*
X377999Y-595532D01*
X375658Y-595998D01*
X373674Y-597324D01*
X372348Y-599309D01*
X371882Y-601650D01*
X372348Y-603991D01*
X373674Y-605976D01*
X375658Y-607302D01*
X377999Y-607767D01*
X380341Y-607302D01*
X382325Y-605976D01*
X383567Y-606334D01*
X387117Y-609884D01*
X387117Y-609884D01*
X388440Y-610768D01*
X390000Y-611078D01*
X390001Y-611078D01*
X417000D01*
X417000Y-611078D01*
X418561Y-610768D01*
X419884Y-609884D01*
X426884Y-602884D01*
X427768Y-601561D01*
X428078Y-600000D01*
Y-593272D01*
X428078Y-593272D01*
X427768Y-591711D01*
X426884Y-590388D01*
X426884Y-590388D01*
X398611Y-562115D01*
X397462Y-561347D01*
X397484Y-560644D01*
X397673Y-560077D01*
X431310D01*
X448922Y-577689D01*
Y-579544D01*
X447652Y-580223D01*
X446340Y-579347D01*
X443999Y-578881D01*
X441658Y-579347D01*
X439673Y-580673D01*
X438347Y-582658D01*
X437882Y-584999D01*
X438347Y-587340D01*
X439673Y-589325D01*
X439922Y-589491D01*
Y-597131D01*
X402116Y-634936D01*
X401232Y-636259D01*
X400922Y-637820D01*
X400922Y-637820D01*
Y-728009D01*
X400674Y-728174D01*
X399348Y-730159D01*
X398882Y-732500D01*
X399348Y-734841D01*
X400674Y-736826D01*
X402659Y-738152D01*
X405000Y-738617D01*
X407341Y-738152D01*
X409326Y-736826D01*
X410652Y-734841D01*
X411118Y-732500D01*
X410652Y-730159D01*
X409326Y-728174D01*
X409078Y-728009D01*
Y-639509D01*
X446884Y-601704D01*
X446884Y-601704D01*
X447652Y-600555D01*
X448355Y-600577D01*
X448922Y-600766D01*
Y-616311D01*
X422792Y-642440D01*
X422500Y-642383D01*
X420159Y-642848D01*
X418174Y-644174D01*
X416848Y-646159D01*
X416382Y-648500D01*
X416848Y-650841D01*
X418174Y-652826D01*
X420159Y-654152D01*
X422500Y-654617D01*
X424841Y-654152D01*
X426826Y-652826D01*
X428152Y-650841D01*
X428618Y-648500D01*
X428559Y-648208D01*
X455884Y-620884D01*
X455884Y-620884D01*
X456768Y-619561D01*
X457078Y-618000D01*
X457078Y-618000D01*
Y-576000D01*
X456768Y-574439D01*
X455884Y-573116D01*
X455884Y-573116D01*
X435883Y-553115D01*
X434560Y-552231D01*
X434301Y-552179D01*
X432999Y-551921D01*
D02*
G37*
G36*
X524500Y-705558D02*
X523572Y-705650D01*
X519794Y-706796D01*
X516312Y-708657D01*
X513261Y-711161D01*
X510757Y-714212D01*
X508896Y-717694D01*
X507750Y-721471D01*
X507659Y-722400D01*
X524500D01*
Y-705558D01*
D02*
G37*
G36*
Y-728400D02*
X507659D01*
X507750Y-729329D01*
X508896Y-733106D01*
X510757Y-736588D01*
X513261Y-739639D01*
X516312Y-742143D01*
X519794Y-744004D01*
X523572Y-745150D01*
X524500Y-745241D01*
Y-728400D01*
D02*
G37*
G36*
X83400Y-703094D02*
X79087Y-703518D01*
X74940Y-704776D01*
X71118Y-706819D01*
X67768Y-709568D01*
X65019Y-712918D01*
X62976Y-716740D01*
X61718Y-720887D01*
X61294Y-725200D01*
X61718Y-729513D01*
X62976Y-733660D01*
X65019Y-737482D01*
X67768Y-740832D01*
X71118Y-743581D01*
X74940Y-745624D01*
X79087Y-746882D01*
X83400Y-747307D01*
X87713Y-746882D01*
X91860Y-745624D01*
X95682Y-743581D01*
X99032Y-740832D01*
X101781Y-737482D01*
X103824Y-733660D01*
X105082Y-729513D01*
X105506Y-725200D01*
X105082Y-720887D01*
X103824Y-716740D01*
X101781Y-712918D01*
X99032Y-709568D01*
X95682Y-706819D01*
X91860Y-704776D01*
X87713Y-703518D01*
X83400Y-703094D01*
D02*
G37*
G36*
X32600D02*
X28287Y-703518D01*
X24140Y-704776D01*
X20318Y-706819D01*
X16968Y-709568D01*
X14219Y-712918D01*
X12176Y-716740D01*
X10918Y-720887D01*
X10494Y-725200D01*
X10918Y-729513D01*
X12176Y-733660D01*
X14219Y-737482D01*
X16968Y-740832D01*
X20318Y-743581D01*
X24140Y-745624D01*
X28287Y-746882D01*
X32600Y-747307D01*
X36913Y-746882D01*
X41060Y-745624D01*
X44882Y-743581D01*
X48232Y-740832D01*
X50981Y-737482D01*
X53024Y-733660D01*
X54282Y-729513D01*
X54706Y-725200D01*
X54282Y-720887D01*
X53024Y-716740D01*
X50981Y-712918D01*
X48232Y-709568D01*
X44882Y-706819D01*
X41060Y-704776D01*
X36913Y-703518D01*
X32600Y-703094D01*
D02*
G37*
G36*
X524500Y-837658D02*
X523572Y-837750D01*
X519794Y-838896D01*
X516312Y-840757D01*
X513261Y-843261D01*
X510757Y-846312D01*
X508896Y-849794D01*
X507750Y-853571D01*
X507659Y-854500D01*
X524500D01*
Y-837658D01*
D02*
G37*
G36*
Y-860500D02*
X507659D01*
X507750Y-861429D01*
X508896Y-865206D01*
X510757Y-868688D01*
X513261Y-871739D01*
X516312Y-874243D01*
X519794Y-876104D01*
X523572Y-877250D01*
X524500Y-877342D01*
Y-860500D01*
D02*
G37*
G36*
X384000Y-859883D02*
X381659Y-860348D01*
X379674Y-861674D01*
X378348Y-863659D01*
X377882Y-866000D01*
X378348Y-868341D01*
X379610Y-870230D01*
X379500Y-870714D01*
X379146Y-871500D01*
X374500D01*
Y-883500D01*
X395500D01*
Y-871500D01*
X389078D01*
Y-869199D01*
X389652Y-868341D01*
X390117Y-866000D01*
X389652Y-863659D01*
X388326Y-861674D01*
X386341Y-860348D01*
X384000Y-859883D01*
D02*
G37*
G36*
X385000Y-888882D02*
X382659Y-889348D01*
X380674Y-890674D01*
X379348Y-892659D01*
X378882Y-895000D01*
X379348Y-897341D01*
X380674Y-899326D01*
X382659Y-900652D01*
X385000Y-901117D01*
X387341Y-900652D01*
X389326Y-899326D01*
X390652Y-897341D01*
X391118Y-895000D01*
X390652Y-892659D01*
X389326Y-890674D01*
X387341Y-889348D01*
X385000Y-888882D01*
D02*
G37*
G36*
X516270Y-882460D02*
X503000D01*
Y-912000D01*
X532540D01*
Y-898730D01*
X516270Y-882460D01*
D02*
G37*
G36*
X497000D02*
X483730D01*
X467460Y-898730D01*
Y-912000D01*
X497000D01*
Y-882460D01*
D02*
G37*
G36*
X532540Y-918000D02*
X503000D01*
Y-947540D01*
X516270D01*
X532540Y-931270D01*
Y-918000D01*
D02*
G37*
G36*
X497000D02*
X467460D01*
Y-931270D01*
X483730Y-947540D01*
X497000D01*
Y-918000D01*
D02*
G37*
G36*
X503000Y-1202918D02*
X499667Y-1203246D01*
X496463Y-1204218D01*
X493510Y-1205797D01*
X490921Y-1207921D01*
X488797Y-1210510D01*
X487218Y-1213463D01*
X486246Y-1216667D01*
X485918Y-1220000D01*
X486246Y-1223333D01*
X487218Y-1226537D01*
X488797Y-1229490D01*
X490921Y-1232079D01*
X493510Y-1234203D01*
X496463Y-1235782D01*
X499667Y-1236754D01*
X503000Y-1237082D01*
X506333Y-1236754D01*
X509537Y-1235782D01*
X512490Y-1234203D01*
X515079Y-1232079D01*
X517203Y-1229490D01*
X518782Y-1226537D01*
X519754Y-1223333D01*
X520082Y-1220000D01*
X519754Y-1216667D01*
X518782Y-1213463D01*
X517203Y-1210510D01*
X515079Y-1207921D01*
X512490Y-1205797D01*
X509537Y-1204218D01*
X506333Y-1203246D01*
X503000Y-1202918D01*
D02*
G37*
G36*
X467000D02*
X463667Y-1203246D01*
X460463Y-1204218D01*
X457510Y-1205797D01*
X454921Y-1207921D01*
X452797Y-1210510D01*
X451218Y-1213463D01*
X450246Y-1216667D01*
X449918Y-1220000D01*
X450246Y-1223333D01*
X451218Y-1226537D01*
X452797Y-1229490D01*
X454921Y-1232079D01*
X457510Y-1234203D01*
X460463Y-1235782D01*
X463667Y-1236754D01*
X467000Y-1237082D01*
X470333Y-1236754D01*
X473537Y-1235782D01*
X476490Y-1234203D01*
X479079Y-1232079D01*
X481203Y-1229490D01*
X482782Y-1226537D01*
X483754Y-1223333D01*
X484082Y-1220000D01*
X483754Y-1216667D01*
X482782Y-1213463D01*
X481203Y-1210510D01*
X479079Y-1207921D01*
X476490Y-1205797D01*
X473537Y-1204218D01*
X470333Y-1203246D01*
X467000Y-1202918D01*
D02*
G37*
G36*
X209999Y-462887D02*
X206605Y-463334D01*
X203443Y-464644D01*
X200728Y-466727D01*
X198644Y-469443D01*
X197334Y-472606D01*
X196887Y-475999D01*
X197334Y-479393D01*
X198360Y-481871D01*
X196956Y-483274D01*
X196072Y-484598D01*
X195762Y-486158D01*
X195762Y-486158D01*
Y-491650D01*
X192760D01*
Y-508350D01*
X206920D01*
Y-491650D01*
X203918D01*
Y-488926D01*
X205188Y-488078D01*
X206605Y-488665D01*
X209999Y-489111D01*
X213393Y-488665D01*
X216555Y-487355D01*
X219271Y-485271D01*
X221355Y-482555D01*
X222665Y-479393D01*
X223111Y-475999D01*
X222665Y-472606D01*
X221355Y-469443D01*
X219271Y-466727D01*
X216555Y-464644D01*
X213393Y-463334D01*
X209999Y-462887D01*
D02*
G37*
G36*
X265000Y-462888D02*
X261606Y-463335D01*
X258444Y-464645D01*
X255728Y-466728D01*
X253645Y-469444D01*
X252335Y-472606D01*
X251888Y-476000D01*
X252335Y-479394D01*
X253466Y-482126D01*
X252136Y-483456D01*
X251308Y-484697D01*
X251017Y-486160D01*
Y-491650D01*
X247760D01*
Y-508350D01*
X261920D01*
Y-491650D01*
X258663D01*
Y-488821D01*
X259933Y-487972D01*
X261606Y-488665D01*
X265000Y-489112D01*
X268394Y-488665D01*
X271556Y-487355D01*
X274272Y-485272D01*
X276355Y-482556D01*
X277665Y-479394D01*
X278112Y-476000D01*
X277665Y-472606D01*
X276355Y-469444D01*
X274272Y-466728D01*
X271556Y-464645D01*
X268394Y-463335D01*
X265000Y-462888D01*
D02*
G37*
G36*
X262460Y-510840D02*
X257840D01*
Y-518000D01*
X262460D01*
Y-510840D01*
D02*
G37*
G36*
X207460D02*
X202840D01*
Y-518000D01*
X207460D01*
Y-510840D01*
D02*
G37*
G36*
X196840D02*
X192220D01*
Y-518000D01*
X196840D01*
Y-510840D01*
D02*
G37*
G36*
X251840D02*
X247220D01*
Y-518000D01*
X251840D01*
Y-510840D01*
D02*
G37*
G36*
X282240Y-491650D02*
X268080D01*
Y-508350D01*
X271082D01*
Y-511380D01*
X268080D01*
Y-530620D01*
X282240D01*
Y-511380D01*
X279238D01*
Y-508350D01*
X282240D01*
Y-491650D01*
D02*
G37*
G36*
X227240D02*
X213080D01*
Y-508350D01*
X216082D01*
Y-511380D01*
X213080D01*
Y-530620D01*
X227240D01*
Y-511380D01*
X224238D01*
Y-508350D01*
X227240D01*
Y-491650D01*
D02*
G37*
G36*
X262460Y-524000D02*
X257840D01*
Y-531160D01*
X262460D01*
Y-524000D01*
D02*
G37*
G36*
X251840D02*
X247220D01*
Y-531160D01*
X251840D01*
Y-524000D01*
D02*
G37*
G36*
X207460D02*
X202840D01*
Y-531160D01*
X207460D01*
Y-524000D01*
D02*
G37*
G36*
X196840D02*
X192220D01*
Y-531160D01*
X196840D01*
Y-524000D01*
D02*
G37*
G36*
X317460Y-510840D02*
X312840D01*
Y-518000D01*
X317460D01*
Y-510840D01*
D02*
G37*
G36*
Y-524000D02*
X312840D01*
Y-531160D01*
X317460D01*
Y-524000D01*
D02*
G37*
G36*
X249000Y-833894D02*
X244687Y-834318D01*
X240540Y-835576D01*
X236718Y-837619D01*
X233368Y-840368D01*
X230619Y-843718D01*
X228576Y-847540D01*
X227318Y-851687D01*
X226894Y-856000D01*
X227318Y-860313D01*
X228576Y-864460D01*
X230619Y-868282D01*
X233368Y-871632D01*
X236718Y-874381D01*
X240540Y-876424D01*
X244687Y-877682D01*
X249000Y-878106D01*
X253313Y-877682D01*
X257460Y-876424D01*
X261282Y-874381D01*
X264632Y-871632D01*
X267381Y-868282D01*
X269424Y-864460D01*
X270682Y-860313D01*
X271106Y-856000D01*
X270682Y-851687D01*
X269424Y-847540D01*
X267381Y-843718D01*
X264632Y-840368D01*
X261282Y-837619D01*
X257460Y-835576D01*
X253313Y-834318D01*
X249000Y-833894D01*
D02*
G37*
G36*
X516270Y-1362460D02*
X503000D01*
Y-1392000D01*
X532540D01*
Y-1378730D01*
X516270Y-1362460D01*
D02*
G37*
G36*
X497000D02*
X483730D01*
X467460Y-1378730D01*
Y-1392000D01*
X497000D01*
Y-1362460D01*
D02*
G37*
G36*
X532540Y-1398000D02*
X503000D01*
Y-1427540D01*
X516270D01*
X532540Y-1411270D01*
Y-1398000D01*
D02*
G37*
G36*
X497000D02*
X467460D01*
Y-1411270D01*
X483730Y-1427540D01*
X497000D01*
Y-1398000D01*
D02*
G37*
G36*
X516270Y-1487460D02*
X503000D01*
Y-1517000D01*
X532540D01*
Y-1503730D01*
X516270Y-1487460D01*
D02*
G37*
G36*
X497000D02*
X483730D01*
X467460Y-1503730D01*
Y-1517000D01*
X497000D01*
Y-1487460D01*
D02*
G37*
G36*
X532540Y-1523000D02*
X503000D01*
Y-1552540D01*
X516270D01*
X532540Y-1536270D01*
Y-1523000D01*
D02*
G37*
G36*
X497000D02*
X467460D01*
Y-1536270D01*
X483730Y-1552540D01*
X497000D01*
Y-1523000D01*
D02*
G37*
%LPD*%
D13*
X-14003Y-700000D02*
Y-696668D01*
Y-698334D01*
X-24000D01*
Y-700000D01*
Y-696668D01*
X-14003Y-685005D02*
Y-691669D01*
X-24000D01*
Y-685005D01*
X-19002Y-691669D02*
Y-688337D01*
Y-681673D02*
Y-675008D01*
X-14003Y-671676D02*
Y-665011D01*
Y-668344D01*
X-24000D01*
Y-661679D02*
X-14003D01*
Y-656681D01*
X-15669Y-655014D01*
X-19002D01*
X-20668Y-656681D01*
Y-661679D01*
Y-658347D02*
X-24000Y-655014D01*
Y-651682D02*
X-17335D01*
X-14003Y-648350D01*
X-17335Y-645018D01*
X-24000D01*
X-19002D01*
Y-651682D01*
X-15669Y-635021D02*
X-14003Y-636687D01*
Y-640019D01*
X-15669Y-641685D01*
X-22334D01*
X-24000Y-640019D01*
Y-636687D01*
X-22334Y-635021D01*
X-14003Y-631689D02*
X-24000D01*
X-20668D01*
X-14003Y-625024D01*
X-19002Y-630023D01*
X-24000Y-625024D01*
X-19002Y-621692D02*
Y-615027D01*
X-14003Y-611695D02*
X-24000D01*
X-20668D01*
X-14003Y-605031D01*
X-19002Y-610029D01*
X-24000Y-605031D01*
X-14003Y-601698D02*
Y-598366D01*
Y-600032D01*
X-24000D01*
Y-601698D01*
Y-598366D01*
X-14003Y-593368D02*
Y-586703D01*
Y-590035D01*
X-24000D01*
X-19002Y-583371D02*
Y-576706D01*
X-24000Y-573374D02*
X-14003D01*
Y-568376D01*
X-15669Y-566710D01*
X-19002D01*
X-20668Y-568376D01*
Y-573374D01*
X-14003Y-563377D02*
X-24000D01*
X-20668Y-560045D01*
X-24000Y-556713D01*
X-14003D01*
X-24000Y-553381D02*
X-14003D01*
Y-548382D01*
X-15669Y-546716D01*
X-19002D01*
X-20668Y-548382D01*
Y-553381D01*
Y-550048D02*
X-24000Y-546716D01*
X-19002Y-543384D02*
Y-536719D01*
X-24000Y-533387D02*
Y-530055D01*
Y-531721D01*
X-14003D01*
X-15669Y-533387D01*
X-25666Y-523390D02*
X-24000Y-521724D01*
X-22334D01*
Y-523390D01*
X-24000D01*
Y-521724D01*
X-25666Y-523390D01*
X-27332Y-525056D01*
X-14003Y-505063D02*
X-20668D01*
X-24000Y-501731D01*
X-20668Y-498398D01*
X-14003D01*
X-24000Y-495066D02*
Y-491734D01*
Y-493400D01*
X-14003D01*
X-15669Y-495066D01*
X-24000Y-486735D02*
X-22334D01*
Y-485069D01*
X-24000D01*
Y-486735D01*
Y-471740D02*
Y-478405D01*
X-17335Y-471740D01*
X-15669D01*
X-14003Y-473406D01*
Y-476739D01*
X-15669Y-478405D01*
X-19002Y-448414D02*
Y-441750D01*
X-14003Y-418424D02*
X-24000D01*
Y-413426D01*
X-22334Y-411760D01*
X-20668D01*
X-19002Y-413426D01*
Y-418424D01*
Y-413426D01*
X-17335Y-411760D01*
X-15669D01*
X-14003Y-413426D01*
Y-418424D01*
Y-403429D02*
Y-406761D01*
X-15669Y-408427D01*
X-22334D01*
X-24000Y-406761D01*
Y-403429D01*
X-22334Y-401763D01*
X-15669D01*
X-14003Y-403429D01*
Y-398430D02*
Y-391766D01*
Y-395098D01*
X-24000D01*
X-14003Y-388434D02*
Y-381769D01*
Y-385102D01*
X-24000D01*
X-14003Y-373439D02*
Y-376771D01*
X-15669Y-378437D01*
X-22334D01*
X-24000Y-376771D01*
Y-373439D01*
X-22334Y-371772D01*
X-15669D01*
X-14003Y-373439D01*
X-24000Y-368440D02*
X-14003D01*
X-17335Y-365108D01*
X-14003Y-361776D01*
X-24000D01*
D23*
X110160Y-493000D02*
D03*
X89840D02*
D03*
X330160Y-500000D02*
D03*
X309840D02*
D03*
X254840D02*
D03*
X275160D02*
D03*
X199840D02*
D03*
X220160D02*
D03*
D29*
X-13000Y63000D02*
D03*
X-37000D02*
D03*
X8000D02*
D03*
X32000D02*
D03*
X537000D02*
D03*
X513000D02*
D03*
X468000D02*
D03*
X492000D02*
D03*
X468000Y-1618000D02*
D03*
X492000D02*
D03*
X537000D02*
D03*
X513000D02*
D03*
X-13000D02*
D03*
X-37000D02*
D03*
X8000D02*
D03*
X32000D02*
D03*
D70*
X520000Y-1605000D02*
X521500Y-1606500D01*
X491093Y63000D02*
X491547Y62547D01*
X416000Y-866000D02*
X420000Y-862000D01*
X-17100Y-173273D02*
X-11973Y-178400D01*
X-17100Y-173273D02*
Y-167000D01*
X-11973Y-178400D02*
X-5139D01*
X-30000Y-1000485D02*
X-19515Y-990000D01*
X174000Y-947000D02*
Y-929000D01*
X167000Y-922000D02*
X174000Y-929000D01*
X-37314Y59000D02*
X-37000D01*
X146971Y-974000D02*
X163000Y-957971D01*
X174000Y-903544D02*
X194652Y-924196D01*
X153970Y-1005000D02*
X194652Y-964319D01*
X171971Y-910000D02*
X188652Y-926681D01*
X151485Y-999000D02*
X188652Y-961833D01*
X169485Y-916000D02*
X182652Y-929167D01*
X151000Y-991000D02*
X182652Y-959348D01*
Y-929167D01*
X188652Y-961833D02*
Y-926681D01*
X194652Y-964319D02*
Y-924196D01*
X71201Y-55000D02*
X103000D01*
X-44000Y-170201D02*
X71201Y-55000D01*
X103000D02*
X109200Y-61200D01*
X351000Y-702000D02*
Y-553272D01*
X345000Y-704485D02*
Y-550787D01*
X339000Y-706971D02*
Y-548302D01*
X333000Y-709456D02*
Y-545816D01*
X327000Y-711941D02*
Y-543000D01*
X299000Y-545000D02*
X321000Y-567000D01*
Y-714426D02*
Y-567000D01*
X293000Y-547485D02*
X315000Y-569485D01*
Y-716912D02*
Y-569485D01*
X351000Y-702000D02*
X417000Y-768000D01*
X351000Y-553272D02*
X364000Y-540272D01*
X345000Y-704485D02*
X383000Y-742485D01*
X345000Y-550787D02*
X358000Y-537787D01*
X339000Y-706971D02*
X377000Y-744970D01*
X339000Y-548302D02*
X352000Y-535302D01*
X333000Y-709456D02*
X371000Y-747456D01*
X333000Y-545816D02*
X346000Y-532816D01*
X327000Y-711941D02*
X365000Y-749941D01*
X327000Y-543000D02*
X340000Y-530000D01*
X321000Y-714426D02*
X359000Y-752426D01*
X315000Y-716912D02*
X353000Y-754911D01*
X273000Y-1100000D02*
X279000Y-1094000D01*
X264000Y-1102272D02*
Y-1082000D01*
X264000Y-1102272D02*
X264000Y-1102272D01*
X264000Y-1105000D02*
Y-1102272D01*
Y-1105000D02*
X270000Y-1111000D01*
X47000Y-829000D02*
X67515D01*
X-5000Y-777000D02*
X47000Y-829000D01*
X-5000Y-777000D02*
Y-540000D01*
X167549Y-375549D02*
Y-366600D01*
X173400Y-132946D02*
Y-92400D01*
X113500Y-192846D02*
X173400Y-132946D01*
X113500Y-234985D02*
Y-192846D01*
X438997Y-1049000D02*
X439000D01*
X436999Y-1050998D02*
X438997Y-1049000D01*
X439000D02*
Y-1048997D01*
X453500Y-1034497D01*
Y-924500D01*
X443000Y-914000D02*
X453500Y-924500D01*
X411820Y-1111000D02*
X443820Y-1143000D01*
X135000Y-739000D02*
Y-522000D01*
X117000Y-757000D02*
X135000Y-739000D01*
X117000Y-837000D02*
Y-757000D01*
X264000Y-1082000D02*
Y-940000D01*
X180000Y-856000D02*
X264000Y-940000D01*
X136000Y-856000D02*
X180000D01*
X117000Y-837000D02*
X136000Y-856000D01*
X23000Y-775000D02*
X72000D01*
X2000Y-754000D02*
X23000Y-775000D01*
X72000D02*
X84000Y-787000D01*
X67515Y-829000D02*
X148515Y-910000D01*
X2000Y-754000D02*
Y-541485D01*
X100000Y-510840D02*
X110160Y-521000D01*
X100000Y-510840D02*
Y-486000D01*
X94922Y-480922D02*
X100000Y-486000D01*
X62564Y-480922D02*
X94922D01*
X2000Y-541485D02*
X62564Y-480922D01*
X101922Y-474922D02*
X110160Y-483160D01*
X60078Y-474922D02*
X101922D01*
X-5000Y-540000D02*
X60078Y-474922D01*
X110160Y-493000D02*
Y-483160D01*
X405999Y-921501D02*
Y-863001D01*
X413000Y-856000D01*
Y-810650D01*
X432200Y-791450D01*
X402500Y-925000D02*
X405999Y-921501D01*
X411999Y-929001D02*
Y-893001D01*
X391999Y-949001D02*
X411999Y-929001D01*
Y-893001D02*
X435000Y-870000D01*
X438314Y-862000D02*
X443000Y-866686D01*
Y-891515D02*
Y-866686D01*
X429000Y-905515D02*
X443000Y-891515D01*
X420000Y-862000D02*
X438314D01*
X429000Y-921213D02*
X434000Y-926213D01*
Y-1001000D02*
Y-926213D01*
Y-1001000D02*
X442500Y-1009500D01*
X429000Y-921213D02*
Y-905515D01*
X435000Y-908000D02*
X453000Y-890000D01*
X442499Y-967498D02*
Y-925499D01*
X435000Y-918000D02*
X442499Y-925499D01*
X435000Y-918000D02*
Y-908000D01*
X429999Y-1042998D02*
Y-1024999D01*
X419998Y-1014998D02*
X429999Y-1024999D01*
X406685Y-1014998D02*
X419998D01*
X530000Y-1056000D02*
Y-1047485D01*
X507515Y-1025000D02*
X530000Y-1047485D01*
X495000Y-1025000D02*
X507515D01*
X135000Y-522000D02*
X219349Y-437651D01*
X150544Y-903544D02*
X174000D01*
X84000Y-837000D02*
X150544Y-903544D01*
X148515Y-910000D02*
X171971D01*
X156787Y-916000D02*
X169485D01*
X148000Y-924787D02*
X156787Y-916000D01*
X159272Y-922000D02*
X167000D01*
X154000Y-927272D02*
X159272Y-922000D01*
X163000Y-957971D02*
Y-931000D01*
X154000Y-958485D02*
Y-927272D01*
X148000Y-956000D02*
Y-924787D01*
X84000Y-837000D02*
Y-787000D01*
X377000Y-1017213D02*
X382785Y-1022998D01*
X377000Y-1017213D02*
Y-942015D01*
X385000Y-934015D02*
Y-912500D01*
X377000Y-942015D02*
X385000Y-934015D01*
X353000Y-816574D02*
Y-754911D01*
X319000Y-850574D02*
X353000Y-816574D01*
X319000Y-1023515D02*
Y-850574D01*
X359000Y-819059D02*
Y-752426D01*
X325000Y-853059D02*
X359000Y-819059D01*
X325000Y-1026000D02*
Y-853059D01*
X365000Y-821544D02*
Y-749941D01*
X331000Y-855544D02*
X365000Y-821544D01*
X331000Y-1054000D02*
Y-855544D01*
X371000Y-824029D02*
Y-747456D01*
X337000Y-858029D02*
X371000Y-824029D01*
X337000Y-1059000D02*
Y-858029D01*
X343000Y-1067000D02*
Y-860515D01*
X377000Y-826515D02*
Y-744970D01*
X343000Y-860515D02*
X377000Y-826515D01*
X383000Y-829000D02*
Y-742485D01*
X349000Y-863000D02*
X383000Y-829000D01*
X349000Y-1058000D02*
Y-863000D01*
X524750Y-1075250D02*
X539000Y-1061000D01*
Y-1048000D01*
X507000Y-1016000D02*
X539000Y-1048000D01*
X490000Y-1016000D02*
X507000D01*
X486000Y-1020000D02*
X490000Y-1016000D01*
X486000Y-1053000D02*
Y-1020000D01*
X509840Y-1077112D02*
X538000Y-1105272D01*
X509840Y-1077112D02*
Y-1055160D01*
X382785Y-1022998D02*
X409999D01*
Y-1035726D02*
Y-1022998D01*
X404685Y-1016998D02*
X406685Y-1014998D01*
X385270Y-1016998D02*
X404685D01*
X391999Y-1008998D02*
Y-949001D01*
X383000Y-1014728D02*
X385270Y-1016998D01*
X409999Y-1035726D02*
X425271Y-1050998D01*
X-14515Y-1005000D02*
X153970D01*
X-17000Y-999000D02*
X151485D01*
X-24000Y-1006000D02*
X-17000Y-999000D01*
X-18000Y-1008485D02*
X-14515Y-1005000D01*
X119998Y-982998D02*
X127000D01*
X117000Y-980000D02*
X119998Y-982998D01*
X-18000Y-980000D02*
X117000D01*
X135000Y-991000D02*
X151000D01*
X-18000Y-974000D02*
X146971D01*
X144485Y-968000D02*
X154000Y-958485D01*
X120787Y-968000D02*
X144485D01*
X142000Y-962000D02*
X148000Y-956000D01*
X123272Y-962000D02*
X142000D01*
X118000Y-956728D02*
X123272Y-962000D01*
X127000Y-953000D02*
Y-918622D01*
X112000Y-959213D02*
X120787Y-968000D01*
X-9000Y-270941D02*
X24000Y-237941D01*
X-9000Y-278000D02*
Y-270941D01*
X-22000Y-275000D02*
X-21544D01*
X18000Y-235456D01*
X-6429Y-251400D02*
X12000Y-232971D01*
X-16400Y-251400D02*
X-6429D01*
X-28000Y-263000D02*
X-16400Y-251400D01*
X-23400Y-245400D02*
X-8915D01*
X-30000Y-252000D02*
X-23400Y-245400D01*
X-8915D02*
X6000Y-230485D01*
X-28714Y-239400D02*
X-12594D01*
X-38000Y-718515D02*
Y-248686D01*
X-28714Y-239400D01*
X0Y-226806D02*
Y-208994D01*
X-12594Y-239400D02*
X0Y-226806D01*
X6000Y-230485D02*
Y-206509D01*
X12000Y-232971D02*
Y-204024D01*
X18000Y-235456D02*
Y-201539D01*
X24000Y-237941D02*
Y-199053D01*
X70622Y-913000D02*
X87302Y-896320D01*
X65000Y-913000D02*
X70622D01*
X56000Y-904000D02*
X65000Y-913000D01*
X56000Y-904000D02*
Y-893544D01*
X220589Y-209943D02*
Y-200506D01*
X213726Y-216806D02*
X220589Y-209943D01*
X214590Y-207458D02*
Y-198021D01*
X207726Y-214321D02*
X214590Y-207458D01*
X208589Y-204973D02*
Y-195536D01*
X201726Y-211836D02*
X208589Y-204973D01*
X202589Y-202487D02*
Y-193051D01*
X195726Y-209351D02*
X202589Y-202487D01*
X213726Y-226243D02*
Y-216806D01*
X220589Y-200506D02*
X225000Y-196096D01*
X207726Y-223758D02*
Y-214321D01*
X214590Y-198021D02*
X219000Y-193611D01*
X201726Y-221273D02*
Y-211836D01*
X208589Y-195536D02*
X213000Y-191125D01*
X195726Y-218787D02*
Y-209351D01*
X202589Y-193051D02*
X207000Y-188640D01*
X3000Y-178053D02*
X24000Y-199053D01*
X3000Y-178053D02*
Y-143000D01*
X-10109Y-190400D02*
X6000Y-206509D01*
X-12594Y-196400D02*
X0Y-208994D01*
X-44000Y-721000D02*
Y-170201D01*
X-30406Y-196400D02*
X-12594D01*
X-44000Y-721000D02*
X-19000Y-746000D01*
X-5139Y-178400D02*
X18000Y-201539D01*
X67686Y-67000D02*
X97200D01*
X-38000Y-188806D02*
Y-172686D01*
X67686Y-67000D01*
X-14458Y-184400D02*
X-7624D01*
X12000Y-204024D01*
X-22600Y-190400D02*
X-10109D01*
X-25100Y-173758D02*
X-14458Y-184400D01*
X-30000Y-183000D02*
X-22600Y-190400D01*
X-38000Y-188806D02*
X-30406Y-196400D01*
X116749Y-375749D02*
Y-366600D01*
X122600Y-166776D02*
Y-92400D01*
X101500Y-187876D02*
X122600Y-166776D01*
X101500Y-239956D02*
Y-187876D01*
Y-239956D02*
X117000Y-255456D01*
Y-340000D02*
Y-255456D01*
X142149Y-376149D02*
Y-366600D01*
X142000Y-340000D02*
Y-271971D01*
X107500Y-237470D02*
X142000Y-271971D01*
X107500Y-237470D02*
Y-190361D01*
X167000Y-366051D02*
Y-288485D01*
X113500Y-234985D02*
X167000Y-288485D01*
X192949Y-375949D02*
Y-366600D01*
X193000Y-366549D02*
Y-315598D01*
X175600Y-298198D02*
X193000Y-315598D01*
X175600Y-298198D02*
Y-288600D01*
X119500Y-232500D02*
X175600Y-288600D01*
X119500Y-232500D02*
Y-195331D01*
X148000Y-149861D02*
Y-92400D01*
X107500Y-190361D02*
X148000Y-149861D01*
X119500Y-195331D02*
X198800Y-116032D01*
X210317Y-113000D02*
X212000Y-111317D01*
X210317Y-113086D02*
Y-113000D01*
X207000Y-116403D02*
X210317Y-113086D01*
X213000Y-191125D02*
Y-174088D01*
X213000Y-174088D01*
Y-148712D01*
X213000Y-148712D02*
X213000Y-148712D01*
X213000Y-148712D02*
Y-118888D01*
X224200Y-107688D01*
X219000Y-121374D02*
X237000Y-103374D01*
X219000Y-146226D02*
Y-121374D01*
Y-146226D02*
X219000Y-146226D01*
Y-176574D02*
Y-146226D01*
X219000Y-176574D02*
X219000Y-176574D01*
X219000Y-193611D02*
Y-176574D01*
X225000Y-123859D02*
X239059Y-109800D01*
X225000Y-143741D02*
Y-123859D01*
Y-143741D02*
X225000Y-143741D01*
Y-179059D02*
Y-143741D01*
X225000Y-179059D02*
X225000Y-179059D01*
X225000Y-196096D02*
Y-179059D01*
X224200Y-107688D02*
Y-92400D01*
X207000Y-188640D02*
Y-116403D01*
X188863Y-225651D02*
X195726Y-218787D01*
X188863Y-235088D02*
Y-225651D01*
X181600Y-242351D02*
X188863Y-235088D01*
X181600Y-295713D02*
Y-242351D01*
Y-295713D02*
X207000Y-321113D01*
X219000Y-366600D02*
Y-324627D01*
X218349Y-376349D02*
Y-366600D01*
X194863Y-228136D02*
X201726Y-221273D01*
X194863Y-237573D02*
Y-228136D01*
X187600Y-244836D02*
X194863Y-237573D01*
X187600Y-293227D02*
Y-244836D01*
Y-293227D02*
X219000Y-324627D01*
X200863Y-230621D02*
X207726Y-223758D01*
X200863Y-240058D02*
Y-230621D01*
X193600Y-247321D02*
X200863Y-240058D01*
X193600Y-290742D02*
Y-247321D01*
Y-290742D02*
X232000Y-329142D01*
X243749Y-376749D02*
Y-366600D01*
X199600Y-288257D02*
X242343Y-331000D01*
X199600Y-288257D02*
Y-249806D01*
X206863Y-242543D01*
Y-233106D02*
X213726Y-226243D01*
X206863Y-242543D02*
Y-233106D01*
X237000Y-79600D02*
X249600Y-67000D01*
X237000Y-103374D02*
Y-79600D01*
X232000Y-395000D02*
Y-329142D01*
Y-395000D02*
X244749Y-407749D01*
Y-417400D02*
Y-407749D01*
X244200Y-109800D02*
X249600Y-104400D01*
X239059Y-109800D02*
X244200D01*
X249600Y-104400D02*
Y-92400D01*
X242343Y-331000D02*
X243000D01*
X207000Y-395000D02*
Y-321113D01*
X198800Y-116032D02*
Y-92400D01*
X207000Y-395000D02*
X219349Y-407349D01*
X212000Y-79200D02*
X224200Y-67000D01*
X212000Y-111317D02*
Y-79200D01*
X219349Y-417400D02*
Y-407349D01*
Y-437651D02*
Y-417400D01*
X199840Y-486158D02*
X209999Y-475999D01*
X199840Y-500000D02*
Y-486158D01*
X220160Y-521000D02*
Y-500000D01*
X244749Y-417400D02*
X245000Y-417149D01*
X330160Y-521000D02*
Y-500000D01*
X309840D02*
Y-486158D01*
X319999Y-475999D01*
X275160Y-521000D02*
Y-500000D01*
X334000Y-424485D02*
Y-275426D01*
X299000Y-459485D02*
X334000Y-424485D01*
X299000Y-545000D02*
Y-459485D01*
X328000Y-422000D02*
Y-277912D01*
X293000Y-457000D02*
X328000Y-422000D01*
X293000Y-547485D02*
Y-457000D01*
X319000Y-180000D02*
Y-168000D01*
X307600Y-177600D02*
Y-124400D01*
X301600Y-180085D02*
Y-121400D01*
X295600Y-182570D02*
Y-118915D01*
X289600Y-185056D02*
Y-121600D01*
X283600Y-187541D02*
Y-124115D01*
X277600Y-190026D02*
Y-126600D01*
X517485Y52000D02*
X526000D01*
X531000D01*
X505485Y40000D02*
X517485Y52000D01*
X531000D02*
X531000Y52000D01*
X537000Y58000D01*
X441000Y5000D02*
X476000Y40000D01*
X482578Y46000D02*
X482578Y46000D01*
X473313Y46000D02*
X482578D01*
X471313Y44000D02*
X473313Y46000D01*
X464685Y44000D02*
X471313D01*
X476000Y40000D02*
X505485D01*
X513000Y56000D02*
Y63000D01*
X503000Y46000D02*
X513000Y56000D01*
X482578Y46000D02*
X503000D01*
X462685D02*
X464685Y44000D01*
X456000Y46000D02*
X462685D01*
X480093Y52000D02*
X491093Y63000D01*
X467999Y52000D02*
X480093D01*
X491547Y62547D02*
X491547D01*
X456000Y63000D02*
X468000D01*
X454000D02*
X456000D01*
Y46000D02*
Y63000D01*
X7000Y-28000D02*
X20000D01*
X6000Y-27000D02*
X7000Y-28000D01*
X-18000Y-27000D02*
X6000D01*
X-34000Y-11000D02*
X-18000Y-27000D01*
X-2000Y-35000D02*
X3000Y-40000D01*
X-20000Y-35000D02*
X-2000D01*
X32000Y-30000D02*
Y33000D01*
X22000Y-40000D02*
X32000Y-30000D01*
X3000Y-40000D02*
X22000D01*
X-42000Y-13000D02*
X-20000Y-35000D01*
X-34000Y-11000D02*
Y4000D01*
X-42000Y-13000D02*
Y54314D01*
X-37000Y59000D02*
Y63000D01*
X-42000Y54314D02*
X-37314Y59000D01*
X-36609Y-998609D02*
X-18000Y-980000D01*
X-22000Y-970000D02*
X-18000Y-974000D01*
X-31000Y-970000D02*
X-22000D01*
X-30000Y-1309000D02*
Y-1000485D01*
X-36609Y-1558391D02*
Y-998609D01*
X-24000Y-1194000D02*
Y-1006000D01*
X-18000Y-1190609D02*
Y-1008485D01*
Y-1190609D02*
X-13609Y-1195000D01*
X48485D01*
X-24000Y-1194000D02*
X-17000Y-1201000D01*
X-30000Y-1309000D02*
X36000Y-1375000D01*
X48485Y-1195000D02*
X105485Y-1252000D01*
X-17000Y-1201000D02*
X46000D01*
X103000Y-1258000D01*
X526896Y-1252000D02*
X538000Y-1240896D01*
X105485Y-1252000D02*
X526896D01*
X538000Y-1240896D02*
Y-1105272D01*
X544000Y-1243382D02*
Y-1102787D01*
X529381Y-1258000D02*
X544000Y-1243382D01*
X103000Y-1258000D02*
X529381D01*
X524750Y-1083537D02*
X544000Y-1102787D01*
X524750Y-1083537D02*
Y-1075250D01*
X519000Y-1126728D02*
Y-1119272D01*
X512978Y-1113250D02*
X519000Y-1119272D01*
X487500Y-1113250D02*
X512978D01*
X463000Y-1123000D02*
X510000D01*
X463515Y-1132000D02*
X513728D01*
X519000Y-1126728D01*
X-19515Y-990000D02*
X52000D01*
X425271Y-1050998D02*
X436999D01*
X420999Y-1001999D02*
X437999Y-1018999D01*
Y-1033998D02*
Y-1018999D01*
X433000Y-1080000D02*
X467000Y-1114000D01*
X371000Y-1080000D02*
X433000D01*
X422500Y-648500D02*
X453000Y-618000D01*
X432999Y-555999D02*
X453000Y-576000D01*
X371000Y-564000D02*
X379001Y-555999D01*
X432999D01*
X371000Y-570750D02*
Y-564000D01*
X453000Y-618000D02*
Y-576000D01*
X371000Y-570750D02*
X375250Y-575000D01*
X346000Y-532816D02*
Y-270456D01*
X352000Y-535302D02*
Y-267971D01*
X358000Y-537787D02*
Y-265485D01*
X364000Y-540272D02*
Y-263000D01*
X340000Y-530000D02*
Y-272941D01*
X443999Y-584999D02*
X444000Y-585000D01*
Y-598820D02*
Y-585000D01*
X405000Y-637820D02*
X444000Y-598820D01*
X395727Y-564999D02*
X424000Y-593272D01*
Y-600000D02*
Y-593272D01*
X417000Y-607000D02*
X424000Y-600000D01*
X382999Y-564999D02*
X395727D01*
X390000Y-607000D02*
X417000D01*
X377999Y-601650D02*
X384650D01*
X390000Y-607000D01*
X383000Y-944500D02*
X402500Y-925000D01*
X383000Y-1014728D02*
Y-944500D01*
X420999Y-1001999D02*
Y-926998D01*
X384000Y-866000D02*
X385000Y-867000D01*
X89920Y-521872D02*
Y-493872D01*
X385000Y-877500D02*
Y-867000D01*
X453000Y-890000D02*
Y-783000D01*
X294000Y-1091000D02*
X331000Y-1054000D01*
X279000Y-1063515D02*
X319000Y-1023515D01*
X279000Y-1094000D02*
Y-1063515D01*
X285000Y-1066000D02*
X325000Y-1026000D01*
X285000Y-1098000D02*
Y-1066000D01*
Y-1098000D02*
X292000Y-1105000D01*
X270000Y-1111000D02*
X411820D01*
X310000Y-1086000D02*
X337000Y-1059000D01*
X349000Y-1058000D02*
X371000Y-1080000D01*
X320000Y-1090000D02*
X343000Y-1067000D01*
X310000Y-1095000D02*
Y-1086000D01*
Y-1095000D02*
X314000Y-1099000D01*
X317000Y-249941D02*
X340000Y-272941D01*
X323000Y-247456D02*
X346000Y-270456D01*
X329000Y-244970D02*
X352000Y-267971D01*
X335000Y-242485D02*
X358000Y-265485D01*
X341000Y-240000D02*
X364000Y-263000D01*
X456000Y-523000D02*
Y-334000D01*
X305000Y-254912D02*
X328000Y-277912D01*
X311000Y-252426D02*
X334000Y-275426D01*
X305000Y-254912D02*
Y-226912D01*
X296000Y-217912D02*
X305000Y-226912D01*
X296000Y-217912D02*
Y-208426D01*
X277600Y-190026D02*
X296000Y-208426D01*
X302000Y-215426D02*
Y-205941D01*
Y-215426D02*
X311000Y-224426D01*
Y-252426D02*
Y-224426D01*
X308000Y-212941D02*
Y-203456D01*
Y-212941D02*
X317000Y-221941D01*
Y-249941D02*
Y-221941D01*
X314000Y-210456D02*
Y-200970D01*
Y-210456D02*
X323000Y-219456D01*
Y-247456D02*
Y-219456D01*
X320000Y-207971D02*
Y-198485D01*
Y-207971D02*
X329000Y-216971D01*
Y-244970D02*
Y-216971D01*
X326000Y-205485D02*
Y-196000D01*
Y-205485D02*
X335000Y-214485D01*
Y-242485D02*
Y-214485D01*
X332000Y-203000D02*
Y-193000D01*
Y-203000D02*
X341000Y-212000D01*
Y-240000D02*
Y-212000D01*
X319000Y-180000D02*
X332000Y-193000D01*
X289600Y-185056D02*
X308000Y-203456D01*
X295600Y-182570D02*
X314000Y-200970D01*
X301600Y-180085D02*
X320000Y-198485D01*
X307600Y-177600D02*
X326000Y-196000D01*
X283600Y-187541D02*
X302000Y-205941D01*
X262000Y-111000D02*
X277600Y-126600D01*
X275000Y-115515D02*
X283600Y-124115D01*
X301600Y-121400D02*
X313000Y-110000D01*
X307600Y-124400D02*
X325800Y-106200D01*
X288000Y-120000D02*
X289600Y-121600D01*
X288000Y-120000D02*
Y-79400D01*
X295600Y-118915D02*
X300400Y-114115D01*
X417000Y-768000D02*
X438000D01*
X405000Y-732500D02*
Y-637820D01*
X-44000Y-934272D02*
X-27272Y-951000D01*
X-44000Y-934272D02*
Y-773000D01*
X-27272Y-951000D02*
X46000D01*
X52000Y-945000D01*
X32000Y-1618000D02*
Y-1609272D01*
X0Y-1595000D02*
X17728D01*
X32000Y-1609272D01*
X441000Y-42000D02*
Y5000D01*
X339000Y-56000D02*
X346000Y-49000D01*
X434000D01*
X441000Y-42000D01*
X109200Y-80400D02*
Y-61200D01*
X-38000Y-718515D02*
X-13000Y-743515D01*
Y-842787D02*
Y-743515D01*
Y-842787D02*
X4213Y-860000D01*
X-19000Y-845272D02*
Y-746000D01*
Y-845272D02*
X1728Y-866000D01*
X-44000Y-773000D02*
X-28000Y-757000D01*
X-18000Y-859000D02*
X-5000Y-872000D01*
X1728Y-866000D02*
X19971D01*
X4213Y-860000D02*
X22456D01*
X56000Y-893544D01*
X46272Y-919000D02*
X73107D01*
X41000Y-913728D02*
X46272Y-919000D01*
X41000Y-913728D02*
Y-895515D01*
X43787Y-925000D02*
X75592D01*
X35000Y-916213D02*
X43787Y-925000D01*
X35000Y-916213D02*
Y-898000D01*
X-34000Y-957000D02*
X56320D01*
X73107Y-919000D02*
X89787Y-902320D01*
X75592Y-925000D02*
X92272Y-908320D01*
X56320Y-957000D02*
X96000Y-917320D01*
X15000Y-878000D02*
X35000Y-898000D01*
X87302Y-896320D02*
X104698D01*
X99728Y-908320D02*
X112000Y-920592D01*
X92272Y-908320D02*
X99728D01*
X104698Y-896320D02*
X127000Y-918622D01*
X443000Y-1143000D02*
X443820D01*
X436515Y-1105000D02*
X463515Y-1132000D01*
X292000Y-1105000D02*
X436515D01*
X439000Y-1099000D02*
X463000Y-1123000D01*
X314000Y-1099000D02*
X439000D01*
X438000Y-768000D02*
X453000Y-783000D01*
X243000Y-365349D02*
X244000Y-366349D01*
X-36609Y-1558391D02*
X0Y-1595000D01*
X19971Y-866000D02*
X50000Y-896030D01*
X17485Y-872000D02*
X41000Y-895515D01*
X-5000Y-872000D02*
X17485D01*
X112000Y-959213D02*
Y-920592D01*
X118000Y-956728D02*
Y-918107D01*
X102213Y-902320D02*
X118000Y-918107D01*
X89787Y-902320D02*
X102213D01*
X-44000Y-1589000D02*
X-37000Y-1596000D01*
X-44000Y-986000D02*
X-44000Y-1589000D01*
X-22000Y-1595000D02*
X-15000D01*
X-37000Y-1610000D02*
X-22000Y-1595000D01*
X-37000Y-1618000D02*
Y-1610000D01*
X513000Y-1615000D02*
X521500Y-1606500D01*
X513000Y-1618000D02*
Y-1615000D01*
X500000Y-1603000D02*
Y-1596000D01*
X492000Y-1611000D02*
X500000Y-1603000D01*
X492000Y-1618000D02*
Y-1611000D01*
X50000Y-910000D02*
Y-896030D01*
X-25000Y-878000D02*
X15000D01*
X97200Y-92400D02*
X109200Y-80400D01*
X470000Y-1606000D02*
X480000D01*
X468000Y-1608000D02*
X470000Y-1606000D01*
X468000Y-1618000D02*
Y-1608000D01*
X36000Y-1553000D02*
Y-1375000D01*
Y-1553000D02*
X70000Y-1587000D01*
X500000D01*
X-44000Y-967000D02*
X-34000Y-957000D01*
X-44000Y-986000D02*
Y-967000D01*
X117000Y-366349D02*
Y-340000D01*
X116749Y-366600D02*
X117000Y-366349D01*
X142000Y-366451D02*
Y-340000D01*
Y-366451D02*
X142149Y-366600D01*
X167000Y-366051D02*
X167549Y-366600D01*
X243000Y-365349D02*
Y-331000D01*
X192949Y-366600D02*
X193000Y-366549D01*
X243749Y-366600D02*
X244000Y-366349D01*
X313000Y-110000D02*
Y-79800D01*
X275000Y-115515D02*
Y-92400D01*
X262000Y-111000D02*
Y-80000D01*
X275000Y-67000D01*
X300400Y-114115D02*
Y-92400D01*
X325800Y-106200D02*
Y-92400D01*
X339000Y-109000D02*
Y-56000D01*
X288000Y-79400D02*
X300400Y-67000D01*
X313000Y-79800D02*
X325800Y-67000D01*
X63000Y63000D02*
X453907D01*
X54000Y54000D02*
X63000Y63000D01*
X54000Y38000D02*
Y54000D01*
X43000Y43000D02*
Y52000D01*
X49000Y33000D02*
X54000Y38000D01*
X32000Y33000D02*
X49000D01*
X32000D02*
Y42000D01*
X32000Y63000D02*
X43000Y52000D01*
X11000Y63000D02*
X32000Y42000D01*
X-34000Y4000D02*
Y51000D01*
X-34000Y4000D02*
X-34000Y4000D01*
Y51000D02*
X-25000D01*
X-13000Y63000D01*
X537000Y58000D02*
Y63000D01*
X8000D02*
X11000D01*
X32000Y63000D02*
X32000Y63000D01*
X465000Y-1596000D02*
X500000D01*
X450000Y-1611000D02*
X465000Y-1596000D01*
X483000Y-307000D02*
Y-278000D01*
X443000Y-1618000D02*
X450000Y-1611000D01*
X32000Y-1618000D02*
X443000D01*
X500000Y-1596000D02*
X527000D01*
X8000Y-1610000D02*
X14000Y-1604000D01*
X527000Y-1596000D02*
X537000Y-1606000D01*
Y-1618000D02*
Y-1606000D01*
X520000Y-1605000D02*
X523000D01*
X8000Y-1618000D02*
Y-1610000D01*
X-13000Y-1608000D02*
X0Y-1595000D01*
X-13000Y-1618000D02*
Y-1608000D01*
X456000Y-334000D02*
X483000Y-307000D01*
X420000Y-417500D02*
Y-322822D01*
X446340Y-283660D02*
Y-272660D01*
X419999Y-310001D02*
X446340Y-283660D01*
X419999Y-322501D02*
Y-310001D01*
X419840Y-322660D02*
X419999Y-322501D01*
Y-322819D02*
X420000Y-322820D01*
X419840Y-322660D02*
X419999Y-322819D01*
Y-322501D01*
Y-322821D02*
Y-322819D01*
Y-322821D02*
X420000Y-322820D01*
X419999Y-322821D02*
X420000Y-322822D01*
D71*
X123000Y20000D02*
X123200Y19800D01*
D73*
X268200Y-762200D02*
X316000Y-810000D01*
X328000D01*
X143000Y-835000D02*
X159000D01*
X231800Y-762200D01*
X268200D01*
D74*
X249000Y-801400D02*
X249000Y-801400D01*
X246000Y-265200D02*
X274400D01*
X223600D02*
X246000D01*
X249000Y-262200D01*
Y-189000D01*
X61000Y-265200D02*
X83400D01*
X32600D02*
X61000D01*
X58000Y-262200D02*
X61000Y-265200D01*
X58000Y-262200D02*
Y-189000D01*
X249000Y-189000D02*
X249000Y-189000D01*
Y-133800D01*
X58000Y-189000D02*
Y-133800D01*
D75*
X400000Y-206000D02*
Y-174000D01*
X378000Y-152000D02*
X400000Y-174000D01*
X407400Y-169750D02*
X411650Y-174000D01*
X404790Y-169750D02*
X407400D01*
X400250Y-165210D02*
X404790Y-169750D01*
X400250Y-165210D02*
Y-162600D01*
X386750Y-149100D02*
X400250Y-162600D01*
X386750Y-149100D02*
Y-125750D01*
X254840Y-486160D02*
X265000Y-476000D01*
X254840Y-500000D02*
Y-486160D01*
X375250Y-575000D02*
X396779Y-596529D01*
X413270D01*
X372500Y-282500D02*
Y-247500D01*
Y-282500D02*
X387500Y-297500D01*
X386000Y-125000D02*
X386750Y-125750D01*
X395500Y-149500D02*
Y-111300D01*
Y-149500D02*
X408000Y-162000D01*
X376600Y-92400D02*
X395500Y-111300D01*
D76*
X252000Y-1156000D02*
Y-953000D01*
X247500Y-1160500D02*
X252000Y-1156000D01*
X245000Y-953000D02*
X252000D01*
X244500Y-952500D02*
X245000Y-953000D01*
X527000Y-726900D02*
X528000Y-725900D01*
X518000Y-1170000D02*
X529000Y-1159000D01*
X365000Y-870000D02*
Y-860000D01*
Y-1026000D02*
Y-880000D01*
X360000Y-557000D02*
X401000Y-516000D01*
X360000Y-635000D02*
Y-557000D01*
X126000Y-724000D02*
Y-478000D01*
X11000Y-1170000D02*
X57000D01*
X242000Y-955000D02*
X244500Y-952500D01*
X247500Y-1160500D02*
X250000Y-1163000D01*
X180000Y-893000D02*
X242000Y-955000D01*
X243000Y-1170000D02*
X250000Y-1163000D01*
X126000Y-478000D02*
X128000Y-476000D01*
X117000Y-469000D02*
X126000Y-478000D01*
X117000Y-469000D02*
Y-443000D01*
X128000Y-476000D02*
X155000D01*
X152728Y-893000D02*
X180000D01*
X93000Y-833272D02*
X152728Y-893000D01*
X93000Y-833272D02*
Y-757000D01*
X126000Y-724000D01*
X485000Y-1065000D02*
X529000Y-1109000D01*
X464000Y-1065000D02*
X485000D01*
X462500Y-1063500D02*
Y-1010000D01*
Y-1063500D02*
X464000Y-1065000D01*
X527000Y-857000D02*
Y-768000D01*
Y-857000D02*
X527500Y-857500D01*
X527000Y-768000D02*
Y-726900D01*
X529000Y-1159000D02*
Y-1109000D01*
X452500Y-1065000D02*
X464000D01*
X462500Y-1010000D02*
X500000Y-972500D01*
X404000Y-1065000D02*
X452500D01*
X527500Y-725400D02*
Y-525500D01*
X57000Y-1170000D02*
X481000Y-1170000D01*
X500000Y-498000D02*
X527500Y-525500D01*
X401000Y-516000D02*
Y-290000D01*
X365000Y-1026000D02*
X404000Y-1065000D01*
X254840Y-539840D02*
X255000Y-540000D01*
X254840Y-539840D02*
Y-521000D01*
X309840Y-539840D02*
X310000Y-540000D01*
X309840Y-539840D02*
Y-521000D01*
X199840Y-539840D02*
X200000Y-540000D01*
X199840Y-539840D02*
Y-521000D01*
X351000Y-235500D02*
X388500D01*
X401000Y-248000D01*
X516000Y-1170000D02*
X518000D01*
X505000D02*
X516000D01*
X489000D02*
X505000D01*
X481000D02*
X489000D01*
X117000Y-443000D02*
Y-417651D01*
X116749Y-417400D02*
X117000Y-417651D01*
X355000Y-146000D02*
X366999Y-158000D01*
X351200Y-142200D02*
X355000Y-146000D01*
X351200Y-142200D02*
Y-92400D01*
X495000Y-180000D02*
Y-171000D01*
Y-190000D02*
Y-180000D01*
Y-238000D02*
Y-190000D01*
X500000Y-972500D02*
Y-915000D01*
X365000Y-880000D02*
Y-870000D01*
X500000Y-857500D02*
X527500D01*
X500000Y-915000D02*
Y-857500D01*
X527500Y-725400D02*
X528000Y-725900D01*
X483000Y-260000D02*
Y-250000D01*
Y-269000D02*
Y-260000D01*
Y-278000D02*
Y-269000D01*
Y-250000D02*
X495000Y-238000D01*
X500000Y-498000D02*
Y-495000D01*
X401000Y-290000D02*
Y-248000D01*
D78*
X273000Y-1101000D02*
Y-1100000D01*
D79*
X192949Y-442949D02*
Y-417400D01*
X142000Y-443000D02*
Y-417549D01*
X142149Y-417400D01*
X167000Y-443000D02*
Y-417949D01*
X167549Y-417400D01*
D82*
X402000Y-92400D02*
Y-67000D01*
X376600Y-92400D02*
Y-67000D01*
D97*
X274400Y-265200D02*
D03*
X223600D02*
D03*
X249000Y-189000D02*
D03*
Y-801400D02*
D03*
X274400Y-725200D02*
D03*
X223600D02*
D03*
X83400Y-265200D02*
D03*
X32600D02*
D03*
X58000Y-189000D02*
D03*
Y-801400D02*
D03*
X83400Y-725200D02*
D03*
X32600D02*
D03*
X249000Y-133800D02*
D03*
Y-856000D02*
D03*
X58000Y-133800D02*
D03*
Y-856000D02*
D03*
D98*
X209999Y-475999D02*
D03*
X155000Y-476000D02*
D03*
X319999Y-475999D02*
D03*
X265000Y-476000D02*
D03*
D99*
X0Y5000D02*
D03*
X500000Y-75000D02*
D03*
X0D02*
D03*
X500000Y5000D02*
D03*
D100*
X385000Y-895000D02*
D03*
X252000Y-953000D02*
D03*
X174000Y-947000D02*
D03*
X321000Y-805000D02*
D03*
Y-815000D02*
D03*
X328000Y-820000D02*
D03*
Y-800000D02*
D03*
Y-810000D02*
D03*
X335000Y-815000D02*
D03*
Y-805000D02*
D03*
X69000Y-515000D02*
D03*
Y-565800D02*
D03*
Y-616600D02*
D03*
X17000Y-143000D02*
D03*
X372000Y-300000D02*
D03*
Y-483000D02*
D03*
X360000Y-635000D02*
D03*
X359000Y-567000D02*
D03*
X440000Y-547000D02*
D03*
X316000Y-748000D02*
D03*
X372460Y-921390D02*
D03*
X323000Y-831000D02*
D03*
X430000Y-1115000D02*
D03*
X497500Y-1037500D02*
D03*
X398000Y-1037000D02*
D03*
X307500Y-892500D02*
D03*
X465000Y-745000D02*
D03*
X455000Y-647500D02*
D03*
X305000Y-615000D02*
D03*
X200000D02*
D03*
X255000D02*
D03*
X228600Y-298450D02*
D03*
X292100Y-317500D02*
D03*
Y-368300D02*
D03*
Y-419100D02*
D03*
X0Y-292100D02*
D03*
X69000Y-330500D02*
D03*
Y-394000D02*
D03*
Y-444800D02*
D03*
X18200Y-368600D02*
D03*
Y-419400D02*
D03*
Y-470200D02*
D03*
X18000Y-543400D02*
D03*
Y-594200D02*
D03*
Y-645000D02*
D03*
X72500Y-690000D02*
D03*
X17500D02*
D03*
X122500D02*
D03*
X305000D02*
D03*
X200000D02*
D03*
X255000D02*
D03*
X273000Y-1100000D02*
D03*
X280000Y-1035000D02*
D03*
Y-962500D02*
D03*
X89000Y-990000D02*
D03*
X126000Y-906000D02*
D03*
X13000Y-850000D02*
D03*
X206000Y-858000D02*
D03*
X439000Y-1049000D02*
D03*
X150000Y-830000D02*
D03*
Y-840000D02*
D03*
X143000Y-835000D02*
D03*
Y-825000D02*
D03*
Y-845000D02*
D03*
X136000Y-840000D02*
D03*
Y-830000D02*
D03*
X443000Y-914000D02*
D03*
X163000Y-931000D02*
D03*
X495000Y-1025000D02*
D03*
X509840Y-1055160D02*
D03*
X409999Y-1022998D02*
D03*
X391999Y-1008998D02*
D03*
X135000Y-991000D02*
D03*
X127000Y-982998D02*
D03*
X127000Y-953000D02*
D03*
X-9000Y-278000D02*
D03*
X-22000Y-275000D02*
D03*
X-28000Y-263000D02*
D03*
X-30000Y-252000D02*
D03*
X-17100Y-167000D02*
D03*
X3000Y-143000D02*
D03*
X-25100Y-173758D02*
D03*
X-30000Y-183000D02*
D03*
X319000Y-168000D02*
D03*
X527000Y-768000D02*
D03*
X526000Y52000D02*
D03*
X456000Y46000D02*
D03*
X467999Y52000D02*
D03*
X-2000Y-35000D02*
D03*
X20000Y-28000D02*
D03*
X-36000Y-31000D02*
D03*
X510000Y-1123000D02*
D03*
X527000Y-1170000D02*
D03*
Y-1180000D02*
D03*
X524750Y-1075250D02*
D03*
X530000Y-1056000D02*
D03*
X429999Y-1042998D02*
D03*
X462500Y-1010000D02*
D03*
X442500Y-1009500D02*
D03*
X437999Y-1033998D02*
D03*
X442499Y-967498D02*
D03*
X422500Y-648500D02*
D03*
X443999Y-584999D02*
D03*
X413270Y-596529D02*
D03*
X377999Y-601650D02*
D03*
X382999Y-564999D02*
D03*
X420999Y-926998D02*
D03*
X384000Y-866000D02*
D03*
X416000D02*
D03*
X402500Y-925000D02*
D03*
X435000Y-870000D02*
D03*
X294000Y-1091000D02*
D03*
X375250Y-575000D02*
D03*
X456000Y-523000D02*
D03*
X255000Y-540000D02*
D03*
X310000D02*
D03*
X200000D02*
D03*
X411650Y-174000D02*
D03*
X372500Y-247500D02*
D03*
X351000Y-235500D02*
D03*
X387500Y-297500D02*
D03*
X0Y-1457500D02*
D03*
X-25000Y-1330000D02*
D03*
X500000Y-1320000D02*
D03*
Y-1457500D02*
D03*
X417500Y-727500D02*
D03*
X422500Y-482500D02*
D03*
X422340Y-437660D02*
D03*
X475000Y-422500D02*
D03*
X472500Y-362500D02*
D03*
X470000Y-135000D02*
D03*
X90000Y-5000D02*
D03*
X172500D02*
D03*
X255000D02*
D03*
X420000D02*
D03*
X337500D02*
D03*
X172500Y45000D02*
D03*
X255000D02*
D03*
X337500D02*
D03*
X420000D02*
D03*
X90000D02*
D03*
X67500Y-100000D02*
D03*
X525000Y-242500D02*
D03*
X524290Y-180000D02*
D03*
Y-375000D02*
D03*
Y-309500D02*
D03*
X455000Y-180000D02*
D03*
Y-232500D02*
D03*
X400000Y-517500D02*
D03*
X385000Y-682500D02*
D03*
Y-365000D02*
D03*
X387500Y-837340D02*
D03*
X317500Y-1050000D02*
D03*
X65000Y-935000D02*
D03*
X342500Y-1090000D02*
D03*
X382500Y-1065000D02*
D03*
X452500D02*
D03*
X522500D02*
D03*
X497500Y-1097500D02*
D03*
X17500D02*
D03*
X-5000Y-1025000D02*
D03*
X75000D02*
D03*
X285000Y-1150000D02*
D03*
X315000Y-1460000D02*
D03*
Y-1350000D02*
D03*
X-5000Y-1270000D02*
D03*
X75000D02*
D03*
Y-1350000D02*
D03*
X155000D02*
D03*
X230000Y-1342500D02*
D03*
X247500Y-1392500D02*
D03*
X-5000Y-1575000D02*
D03*
X75000Y-1605000D02*
D03*
X155000D02*
D03*
X235000D02*
D03*
X315000D02*
D03*
X395000D02*
D03*
X475000Y-1575000D02*
D03*
X395000D02*
D03*
X315000D02*
D03*
X155000D02*
D03*
X75000D02*
D03*
X235000D02*
D03*
X88000Y-957000D02*
D03*
X516000Y-1170000D02*
D03*
Y-1160000D02*
D03*
Y-1180000D02*
D03*
X527000Y-1160000D02*
D03*
X57000Y-1180000D02*
D03*
Y-1160000D02*
D03*
Y-1170000D02*
D03*
X46000Y-1180000D02*
D03*
Y-1160000D02*
D03*
Y-1170000D02*
D03*
X-28000Y-757000D02*
D03*
X-18000Y-859000D02*
D03*
X443000Y-1143000D02*
D03*
X52000Y-990000D02*
D03*
X-37000Y-1596000D02*
D03*
X264000Y-1082000D02*
D03*
X320000Y-1090000D02*
D03*
X505000Y-1170000D02*
D03*
X487500Y-1113250D02*
D03*
X467000Y-1114000D02*
D03*
X50000Y-910000D02*
D03*
X52000Y-945000D02*
D03*
X-25000Y-878000D02*
D03*
X-31000Y-970000D02*
D03*
X-34000Y-957000D02*
D03*
X96000Y-917320D02*
D03*
X142000Y-443000D02*
D03*
X117000D02*
D03*
X167000D02*
D03*
X192949Y-442949D02*
D03*
X339000Y-109000D02*
D03*
X344000Y-197000D02*
D03*
Y-189000D02*
D03*
Y-181000D02*
D03*
X400000Y-206000D02*
D03*
X378000Y-152000D02*
D03*
X408000Y-162000D02*
D03*
X386000Y-125000D02*
D03*
X355000Y-146000D02*
D03*
X361000Y-152000D02*
D03*
X366999Y-158000D02*
D03*
X54000Y54000D02*
D03*
X43000Y43000D02*
D03*
X-34000Y51000D02*
D03*
X500000Y-1587000D02*
D03*
X480000Y-1606000D02*
D03*
X438000Y-365000D02*
D03*
X483000Y-269000D02*
D03*
Y-260000D02*
D03*
X364840Y-860000D02*
D03*
X365000Y-870000D02*
D03*
Y-880000D02*
D03*
X364840Y-890000D02*
D03*
Y-900000D02*
D03*
X450000Y-1611000D02*
D03*
X14000Y-1604000D02*
D03*
X523000Y-1605000D02*
D03*
X-15000Y-1595000D02*
D03*
X0Y-1595000D02*
D03*
X505000Y-1160000D02*
D03*
Y-1180000D02*
D03*
X35000D02*
D03*
Y-1170000D02*
D03*
Y-1160000D02*
D03*
X19000Y-1170000D02*
D03*
X11000D02*
D03*
X481000D02*
D03*
X489000D02*
D03*
X495000Y-171000D02*
D03*
Y-180000D02*
D03*
Y-190000D02*
D03*
X405000Y-732500D02*
D03*
X420000Y-417500D02*
D03*
X446340Y-272660D02*
D03*
X483000Y-278000D02*
D03*
X401000Y-290000D02*
D03*
X438000Y-355000D02*
D03*
Y-375000D02*
D03*
D101*
X153500Y-769900D02*
D03*
Y-217900D02*
D03*
D102*
X328550Y-769900D02*
D03*
X-21500Y-217900D02*
D03*
D103*
X328550Y-129900D02*
D03*
D104*
X0Y-1395000D02*
D03*
Y-1520000D02*
D03*
X500000Y-1395000D02*
D03*
Y-1520000D02*
D03*
Y-915000D02*
D03*
Y-495000D02*
D03*
X0Y-915000D02*
D03*
D105*
X402000Y-92400D02*
D03*
Y-67000D02*
D03*
X351200Y-92400D02*
D03*
Y-67000D02*
D03*
X376600Y-92400D02*
D03*
Y-67000D02*
D03*
X275000Y-92400D02*
D03*
Y-67000D02*
D03*
X249600D02*
D03*
Y-92400D02*
D03*
X224200Y-67000D02*
D03*
Y-92400D02*
D03*
X97200Y-67000D02*
D03*
X122600Y-92400D02*
D03*
Y-67000D02*
D03*
X148000Y-92400D02*
D03*
Y-67000D02*
D03*
X173400Y-92400D02*
D03*
Y-67000D02*
D03*
X198800Y-92400D02*
D03*
Y-67000D02*
D03*
X300400Y-92400D02*
D03*
Y-67000D02*
D03*
X325800Y-92400D02*
D03*
Y-67000D02*
D03*
D106*
X97200Y-92400D02*
D03*
D107*
X503000Y-1220000D02*
D03*
X467000D02*
D03*
X33000D02*
D03*
X-3000D02*
D03*
X432200Y-791450D02*
D03*
Y-838450D02*
D03*
Y-744450D02*
D03*
D108*
X527500Y-857500D02*
D03*
Y-725400D02*
D03*
D109*
X486000Y-1053000D02*
D03*
D110*
X330160Y-521000D02*
D03*
X309840D02*
D03*
X254840D02*
D03*
X275160D02*
D03*
X199840D02*
D03*
X220160D02*
D03*
X110160D02*
D03*
X89840D02*
D03*
D111*
X385000Y-877500D02*
D03*
Y-912500D02*
D03*
D112*
X117749Y-366600D02*
D03*
X143149D02*
D03*
X168549D02*
D03*
X193949D02*
D03*
X219349D02*
D03*
X244749D02*
D03*
Y-417400D02*
D03*
X219349D02*
D03*
X193949D02*
D03*
X168549D02*
D03*
X143149D02*
D03*
X117749D02*
D03*
D113*
X366000Y-219000D02*
X419000D01*
X344000Y-197000D02*
X366000Y-219000D01*
X438000Y-525500D02*
Y-375000D01*
Y-525500D02*
X467500Y-555000D01*
Y-709150D02*
Y-555000D01*
X344000Y-187000D02*
Y-181000D01*
Y-189000D02*
Y-187000D01*
Y-197000D02*
Y-189000D01*
X419000Y-219000D02*
X465000Y-265000D01*
X432200Y-744450D02*
X467500Y-709150D01*
X438000Y-355000D02*
Y-329000D01*
Y-365000D02*
Y-355000D01*
Y-375000D02*
Y-365000D01*
X437500Y-328500D02*
X465000Y-301000D01*
X437500Y-328500D02*
X438000Y-329000D01*
X465000Y-301000D02*
Y-265000D01*
M02*
