M48
;Layer_Color=9474304
;FILE_FORMAT=2:5
INCH,LZ
;TYPE=PLATED
T1F00S00C0.01575
T2F00S00C0.03150
T3F00S00C0.03937
T4F00S00C0.05906
T5F00S00C0.07480
T6F00S00C0.09449
T7F00S00C0.12598
T8F00S00C0.13780
%
T01
X0071851Y-0643701
X0101378
X0130906
X0160433
X0189961
X0199606Y-0658268
X0197638Y-0665748
X0190945Y-0672441
X0212992Y-0657087
X0212205Y-0651575
X0175197Y-0614173
X0145669
X0116142
X0086614
X0057087
X0027559
X-0001968
X0012795Y-0643701
X0008268Y-0654724
X0011024Y-0672441
X-0001575
X-0006299Y-0662992
X-0015551
X0042323Y-0643701
Y-0584646
X0012795
X0027559Y-0555118
X0057087
X0042323Y-0525591
X001378Y-0513779
Y-0509842
Y-0505905
X000748Y-0509842
X0004331
X-0001968Y-0496063
X-0007087Y-0450787
X-0013386Y-0451575
X-0011024Y-044685
X0027559Y-0474409
X00375Y-04675
X0045
X00525
X0057087Y-0496063
X0086614
X0094488Y-0488583
X0102362
X0116142Y-0496063
X0145669
X0177327Y-0501807
X018937Y-0509842
X019252
X0198819
Y-0513779
Y-0505905
X0160433Y-0525591
X0130906
X0116142Y-0555118
X0086614
X0071851Y-0584646
Y-0525591
X0101378Y-0466535
X0130906
X0160433
X0145669Y-0437008
X0116142
X0086614
X0175197
X0204724Y-0448819
X021063
X0175197Y-0555118
X0145669
X0130906Y-0584646
X0160433
Y-040748
X0153878Y-0398957
X0168307Y-0398622
X0182087Y-0397638
X0174212Y-0380905
X0158465Y-0364173
X0168012Y-0343799
X0174213Y-034252
X0181102Y-0301181
X0159449Y-0288386
X0130906Y-028937
X0101378
X0071851
X0101378Y-0348425
X0086614Y-0377953
X0116142
X0071851Y-040748
X0198622Y-0366929
X0058071Y-0434055
X0048819Y-0425197
X0041339
X0012795Y-028937
X-0001968Y-0200787
X0012795Y-017126
X0042323
X0101378
X0108268Y-0172244
X0130906Y-017126
X0165354Y-016437
X0172441Y-0147638
Y-0139764
X0145669Y-0141732
Y-0200787
X0147736Y-0226378
X0130906Y-0230315
X0101378
X0071851
X0086614Y-0259842
X0116142
X0141732Y-025
X0159449Y-0245079
X0169354Y-0241205
X0202756Y-0270472
X0205906Y-027441
X0189961Y-017126
X0116142Y-0200787
X0086614
X0071851Y-0112205
X0130906
X0152559Y-0117126
X0157874Y-0114173
X0175724Y-0107346
X0190157Y-0105905
Y-0109449
Y-0102362
X0194882Y-0074803
Y-0070866
Y-0067323
X0189961Y-005315
X016063Y-0052362
X0151969
X0148425Y-0048031
X0151969Y-0037402
X0132283Y-0040551
X0125197Y-0044094
Y-0047244
Y-0050394
X0101378Y-005315
Y0005906
X0071851
X0130906
X0160433
X0176378Y0026378
X0208661Y-003937
X0212598Y-0044882
X0175197Y-0082677
X0146653Y-0097441
X0042323Y-0112205
X0012795
X-0001968Y-0082677
X-0011024Y-0061811
X0027559Y-0023622
X0012795Y0005906
X0042323
X0019685Y0031496
X0005118Y0038976
X-0001181
X0169685Y0043701
X018622Y0038976
X0199213Y0038976
T02
X0181102Y-0362205
X0097658Y-006248
X0087657
X0077658
X0082657Y-005248
X0092658
X0072658
X0062657
X0052658
X0042658
X0032658
X0037657Y-006248
X0047657
X0057657
X0067658
T03
X0078425Y-0024567
Y-0014567
X0088425
Y-0024567
X0098425
Y-0014567
X0108425
X0118425
X0128425
Y-0024567
X0118425
X0108425
X0138425
X0148425
Y-0014567
X0138425
X0158425
Y-0024567
X0068425
Y-0014567
X0058425
Y-0024567
X0048425
Y-0014567
X0038425
Y-0024567
T04
X-0001181Y-0529528
X0012992
X0183858
X0198031
X0170158Y-0330098
Y-0311595
Y-0293091
X0027146Y-0059567
T05
X0207677Y-0337598
Y-0285591
T06
X0129941Y-0100394
T07
X019685Y-0598425
X0
Y-0562992
X019685
Y-0431102
X0
X0061024Y-0352362
Y-0135827
X019685Y-0194882
Y-0019685
Y0019685
X0
Y-0019685
T08
X0129941Y-0352362
X-0007894Y-0135827
M30
