G04 Layer_Color=65535*
%FSLAX25Y25*%
%MOIN*%
G70*
G01*
G75*
%ADD42C,0.01000*%
%ADD71C,0.00984*%
%ADD72C,0.00394*%
%ADD73C,0.00787*%
%ADD74C,0.00900*%
%ADD75C,0.00591*%
%ADD76R,0.09500X0.02000*%
G36*
X33516Y-141690D02*
X14173D01*
Y-122047D01*
X33516D01*
Y-141690D01*
D02*
G37*
G36*
X32638Y-366929D02*
X14268D01*
Y-347287D01*
X32638D01*
Y-366929D01*
D02*
G37*
G36*
X215354Y-364961D02*
X206510D01*
Y-347681D01*
X215354D01*
Y-364961D01*
D02*
G37*
G36*
X215354Y-386614D02*
X206510D01*
Y-369334D01*
X215354D01*
Y-386614D01*
D02*
G37*
G36*
X107874Y-366142D02*
X88531D01*
Y-346499D01*
X107874D01*
Y-366142D01*
D02*
G37*
G36*
X161024Y-328346D02*
X152180D01*
Y-311047D01*
X161024D01*
Y-328346D01*
D02*
G37*
G36*
X107779Y-141690D02*
X89409D01*
Y-122047D01*
X107779D01*
Y-141690D01*
D02*
G37*
G36*
X215354Y-408268D02*
X206609D01*
Y-390988D01*
X215354D01*
Y-408268D01*
D02*
G37*
%LPC*%
G36*
X31545Y-130720D02*
X16145D01*
Y-133016D01*
X31545D01*
Y-130720D01*
D02*
G37*
G36*
X24519Y-351811D02*
X22387D01*
Y-356026D01*
X18205D01*
Y-358190D01*
X22387D01*
Y-362405D01*
X24519D01*
Y-358190D01*
X28701D01*
Y-356026D01*
X24519D01*
Y-351811D01*
D02*
G37*
G36*
X211923Y-349685D02*
X211864D01*
X211759Y-349692D01*
X211667Y-349698D01*
X211582Y-349711D01*
X211516Y-349731D01*
X211464Y-349751D01*
X211424Y-349764D01*
X211398Y-349770D01*
X211392Y-349777D01*
X211267Y-349856D01*
X211214Y-349895D01*
X211169Y-349935D01*
X211136Y-349974D01*
X211109Y-350000D01*
X211090Y-350020D01*
X211083Y-350026D01*
X210998Y-350144D01*
X210965Y-350197D01*
X210932Y-350249D01*
X210913Y-350295D01*
X210900Y-350328D01*
X210887Y-350354D01*
Y-350361D01*
X210847Y-350485D01*
X210827Y-350545D01*
X210821Y-350597D01*
X210808Y-350636D01*
Y-350669D01*
X210801Y-350689D01*
Y-350695D01*
X210755D01*
X210716Y-350558D01*
X210657Y-350427D01*
X210591Y-350322D01*
X210526Y-350230D01*
X210467Y-350157D01*
X210414Y-350105D01*
X210375Y-350072D01*
X210362Y-350059D01*
X210244Y-349974D01*
X210119Y-349915D01*
X210001Y-349869D01*
X209896Y-349843D01*
X209798Y-349823D01*
X209725Y-349816D01*
X209699Y-349810D01*
X209660D01*
X209555Y-349816D01*
X209456Y-349830D01*
X209365Y-349849D01*
X209292Y-349875D01*
X209227Y-349902D01*
X209181Y-349921D01*
X209155Y-349935D01*
X209141Y-349941D01*
X209063Y-349993D01*
X208991Y-350052D01*
X208925Y-350118D01*
X208873Y-350184D01*
X208827Y-350236D01*
X208794Y-350282D01*
X208774Y-350315D01*
X208768Y-350328D01*
X208722Y-350413D01*
X208682Y-350505D01*
X208643Y-350597D01*
X208610Y-350682D01*
X208591Y-350761D01*
X208571Y-350820D01*
X208564Y-350866D01*
X208558Y-350872D01*
Y-350879D01*
X208531Y-351010D01*
X208512Y-351142D01*
X208499Y-351273D01*
X208486Y-351397D01*
Y-351502D01*
X208479Y-351548D01*
Y-351588D01*
Y-351614D01*
Y-351640D01*
Y-351653D01*
Y-351660D01*
X208486Y-351830D01*
X208492Y-351994D01*
X208512Y-352145D01*
X208525Y-352283D01*
X208538Y-352342D01*
X208544Y-352401D01*
X208551Y-352447D01*
X208564Y-352486D01*
X208571Y-352519D01*
Y-352545D01*
X208577Y-352558D01*
Y-352565D01*
X208617Y-352722D01*
X208649Y-352860D01*
X208682Y-352985D01*
X208715Y-353083D01*
X208741Y-353162D01*
X208761Y-353221D01*
X208774Y-353254D01*
X208781Y-353267D01*
X209798D01*
Y-353155D01*
X209732Y-353031D01*
X209673Y-352913D01*
X209620Y-352795D01*
X209581Y-352696D01*
X209548Y-352604D01*
X209528Y-352539D01*
X209522Y-352513D01*
X209515Y-352493D01*
X209509Y-352486D01*
Y-352480D01*
X209476Y-352348D01*
X209450Y-352231D01*
X209430Y-352119D01*
X209417Y-352027D01*
X209411Y-351942D01*
X209404Y-351883D01*
Y-351843D01*
Y-351830D01*
Y-351732D01*
X209411Y-351640D01*
X209417Y-351601D01*
Y-351568D01*
X209424Y-351548D01*
Y-351542D01*
X209443Y-351424D01*
X209456Y-351378D01*
X209470Y-351332D01*
X209483Y-351299D01*
X209496Y-351273D01*
X209502Y-351260D01*
Y-351253D01*
X209548Y-351174D01*
X209588Y-351122D01*
X209627Y-351082D01*
X209633Y-351069D01*
X209640D01*
X209673Y-351043D01*
X209712Y-351023D01*
X209784Y-350997D01*
X209817D01*
X209837Y-350991D01*
X209935D01*
X209994Y-351004D01*
X210040Y-351010D01*
X210086Y-351023D01*
X210119Y-351037D01*
X210139Y-351050D01*
X210152Y-351056D01*
X210158Y-351063D01*
X210224Y-351128D01*
X210276Y-351194D01*
X210290Y-351227D01*
X210303Y-351253D01*
X210316Y-351266D01*
Y-351273D01*
X210349Y-351378D01*
X210375Y-351483D01*
X210381Y-351529D01*
X210388Y-351568D01*
Y-351594D01*
Y-351601D01*
X210395Y-351752D01*
Y-351824D01*
X210401Y-351889D01*
Y-351948D01*
Y-351994D01*
Y-352021D01*
Y-352034D01*
Y-352303D01*
X211241D01*
Y-352047D01*
Y-351902D01*
Y-351837D01*
Y-351771D01*
X211247Y-351719D01*
Y-351679D01*
Y-351647D01*
Y-351640D01*
X211254Y-351561D01*
X211260Y-351489D01*
X211267Y-351424D01*
X211280Y-351371D01*
X211287Y-351325D01*
X211300Y-351292D01*
X211306Y-351273D01*
Y-351266D01*
X211326Y-351207D01*
X211352Y-351161D01*
X211379Y-351115D01*
X211405Y-351082D01*
X211424Y-351056D01*
X211444Y-351037D01*
X211457Y-351023D01*
X211464Y-351017D01*
X211510Y-350984D01*
X211562Y-350958D01*
X211615Y-350945D01*
X211667Y-350932D01*
X211713Y-350925D01*
X211752Y-350918D01*
X211857D01*
X211923Y-350932D01*
X211982Y-350938D01*
X212028Y-350951D01*
X212067Y-350964D01*
X212093Y-350977D01*
X212107Y-350984D01*
X212113Y-350991D01*
X212192Y-351050D01*
X212251Y-351115D01*
X212271Y-351142D01*
X212290Y-351161D01*
X212297Y-351174D01*
X212303Y-351181D01*
X212336Y-351240D01*
X212363Y-351299D01*
X212389Y-351358D01*
X212408Y-351417D01*
X212421Y-351463D01*
X212428Y-351502D01*
X212435Y-351535D01*
Y-351542D01*
X212441Y-351620D01*
X212448Y-351693D01*
X212454Y-351765D01*
Y-351824D01*
X212461Y-351870D01*
Y-351909D01*
Y-351935D01*
Y-351942D01*
X212454Y-352060D01*
X212441Y-352185D01*
X212421Y-352303D01*
X212402Y-352408D01*
X212382Y-352499D01*
X212363Y-352572D01*
X212356Y-352598D01*
X212349Y-352618D01*
X212343Y-352631D01*
Y-352637D01*
X212297Y-352775D01*
X212244Y-352893D01*
X212198Y-353005D01*
X212153Y-353103D01*
X212113Y-353182D01*
X212080Y-353241D01*
X212061Y-353274D01*
X212054Y-353287D01*
Y-353405D01*
X213091D01*
X213130Y-353300D01*
X213169Y-353188D01*
X213209Y-353077D01*
X213235Y-352965D01*
X213261Y-352873D01*
X213281Y-352795D01*
X213287Y-352768D01*
Y-352749D01*
X213294Y-352736D01*
Y-352729D01*
X213327Y-352565D01*
X213347Y-352395D01*
X213366Y-352224D01*
X213373Y-352066D01*
X213379Y-351994D01*
Y-351929D01*
X213386Y-351870D01*
Y-351817D01*
Y-351778D01*
Y-351745D01*
Y-351725D01*
Y-351719D01*
X213379Y-351535D01*
X213366Y-351364D01*
X213353Y-351220D01*
X213333Y-351096D01*
X213320Y-351037D01*
X213314Y-350991D01*
X213307Y-350951D01*
X213294Y-350918D01*
X213287Y-350886D01*
Y-350866D01*
X213281Y-350859D01*
Y-350853D01*
X213235Y-350722D01*
X213189Y-350604D01*
X213137Y-350492D01*
X213091Y-350400D01*
X213045Y-350328D01*
X213012Y-350269D01*
X212986Y-350236D01*
X212979Y-350223D01*
X212900Y-350131D01*
X212815Y-350046D01*
X212730Y-349980D01*
X212651Y-349921D01*
X212585Y-349875D01*
X212533Y-349849D01*
X212500Y-349830D01*
X212487Y-349823D01*
X212376Y-349777D01*
X212271Y-349744D01*
X212166Y-349718D01*
X212067Y-349705D01*
X211982Y-349692D01*
X211923Y-349685D01*
D02*
G37*
G36*
Y-359237D02*
X211864D01*
X211759Y-359243D01*
X211667Y-359250D01*
X211582Y-359263D01*
X211516Y-359282D01*
X211464Y-359302D01*
X211424Y-359315D01*
X211398Y-359322D01*
X211392Y-359328D01*
X211267Y-359407D01*
X211214Y-359447D01*
X211169Y-359486D01*
X211136Y-359525D01*
X211109Y-359551D01*
X211090Y-359571D01*
X211083Y-359578D01*
X210998Y-359696D01*
X210965Y-359748D01*
X210932Y-359801D01*
X210913Y-359847D01*
X210900Y-359879D01*
X210887Y-359906D01*
Y-359912D01*
X210847Y-360037D01*
X210827Y-360096D01*
X210821Y-360148D01*
X210808Y-360188D01*
Y-360221D01*
X210801Y-360240D01*
Y-360247D01*
X210755D01*
X210716Y-360109D01*
X210657Y-359978D01*
X210591Y-359873D01*
X210526Y-359781D01*
X210467Y-359709D01*
X210414Y-359656D01*
X210375Y-359624D01*
X210362Y-359610D01*
X210244Y-359525D01*
X210119Y-359466D01*
X210001Y-359420D01*
X209896Y-359394D01*
X209798Y-359374D01*
X209725Y-359368D01*
X209699Y-359361D01*
X209660D01*
X209555Y-359368D01*
X209456Y-359381D01*
X209365Y-359401D01*
X209292Y-359427D01*
X209227Y-359453D01*
X209181Y-359473D01*
X209155Y-359486D01*
X209141Y-359492D01*
X209063Y-359545D01*
X208991Y-359604D01*
X208925Y-359669D01*
X208873Y-359735D01*
X208827Y-359788D01*
X208794Y-359834D01*
X208774Y-359866D01*
X208768Y-359879D01*
X208722Y-359965D01*
X208682Y-360056D01*
X208643Y-360148D01*
X208610Y-360234D01*
X208591Y-360312D01*
X208571Y-360371D01*
X208564Y-360417D01*
X208558Y-360424D01*
Y-360431D01*
X208531Y-360562D01*
X208512Y-360693D01*
X208499Y-360824D01*
X208486Y-360949D01*
Y-361054D01*
X208479Y-361100D01*
Y-361139D01*
Y-361165D01*
Y-361191D01*
Y-361205D01*
Y-361211D01*
X208486Y-361382D01*
X208492Y-361546D01*
X208512Y-361697D01*
X208525Y-361834D01*
X208538Y-361893D01*
X208544Y-361952D01*
X208551Y-361998D01*
X208564Y-362038D01*
X208571Y-362070D01*
Y-362097D01*
X208577Y-362110D01*
Y-362116D01*
X208617Y-362274D01*
X208649Y-362412D01*
X208682Y-362536D01*
X208715Y-362635D01*
X208741Y-362713D01*
X208761Y-362772D01*
X208774Y-362805D01*
X208781Y-362818D01*
X209798D01*
Y-362707D01*
X209732Y-362582D01*
X209673Y-362464D01*
X209620Y-362346D01*
X209581Y-362248D01*
X209548Y-362156D01*
X209528Y-362090D01*
X209522Y-362064D01*
X209515Y-362044D01*
X209509Y-362038D01*
Y-362031D01*
X209476Y-361900D01*
X209450Y-361782D01*
X209430Y-361670D01*
X209417Y-361578D01*
X209411Y-361493D01*
X209404Y-361434D01*
Y-361395D01*
Y-361382D01*
Y-361283D01*
X209411Y-361191D01*
X209417Y-361152D01*
Y-361119D01*
X209424Y-361100D01*
Y-361093D01*
X209443Y-360975D01*
X209456Y-360929D01*
X209470Y-360883D01*
X209483Y-360850D01*
X209496Y-360824D01*
X209502Y-360811D01*
Y-360804D01*
X209548Y-360726D01*
X209588Y-360673D01*
X209627Y-360634D01*
X209633Y-360621D01*
X209640D01*
X209673Y-360595D01*
X209712Y-360575D01*
X209784Y-360548D01*
X209817D01*
X209837Y-360542D01*
X209935D01*
X209994Y-360555D01*
X210040Y-360562D01*
X210086Y-360575D01*
X210119Y-360588D01*
X210139Y-360601D01*
X210152Y-360608D01*
X210158Y-360614D01*
X210224Y-360680D01*
X210276Y-360745D01*
X210290Y-360778D01*
X210303Y-360804D01*
X210316Y-360818D01*
Y-360824D01*
X210349Y-360929D01*
X210375Y-361034D01*
X210381Y-361080D01*
X210388Y-361119D01*
Y-361145D01*
Y-361152D01*
X210395Y-361303D01*
Y-361375D01*
X210401Y-361441D01*
Y-361500D01*
Y-361546D01*
Y-361572D01*
Y-361585D01*
Y-361854D01*
X211241D01*
Y-361598D01*
Y-361454D01*
Y-361388D01*
Y-361323D01*
X211247Y-361270D01*
Y-361231D01*
Y-361198D01*
Y-361191D01*
X211254Y-361113D01*
X211260Y-361040D01*
X211267Y-360975D01*
X211280Y-360922D01*
X211287Y-360876D01*
X211300Y-360844D01*
X211306Y-360824D01*
Y-360818D01*
X211326Y-360758D01*
X211352Y-360713D01*
X211379Y-360667D01*
X211405Y-360634D01*
X211424Y-360608D01*
X211444Y-360588D01*
X211457Y-360575D01*
X211464Y-360568D01*
X211510Y-360535D01*
X211562Y-360509D01*
X211615Y-360496D01*
X211667Y-360483D01*
X211713Y-360476D01*
X211752Y-360470D01*
X211857D01*
X211923Y-360483D01*
X211982Y-360490D01*
X212028Y-360503D01*
X212067Y-360516D01*
X212093Y-360529D01*
X212107Y-360535D01*
X212113Y-360542D01*
X212192Y-360601D01*
X212251Y-360667D01*
X212271Y-360693D01*
X212290Y-360713D01*
X212297Y-360726D01*
X212303Y-360732D01*
X212336Y-360791D01*
X212363Y-360850D01*
X212389Y-360909D01*
X212408Y-360968D01*
X212421Y-361014D01*
X212428Y-361054D01*
X212435Y-361087D01*
Y-361093D01*
X212441Y-361172D01*
X212448Y-361244D01*
X212454Y-361316D01*
Y-361375D01*
X212461Y-361421D01*
Y-361460D01*
Y-361487D01*
Y-361493D01*
X212454Y-361611D01*
X212441Y-361736D01*
X212421Y-361854D01*
X212402Y-361959D01*
X212382Y-362051D01*
X212363Y-362123D01*
X212356Y-362149D01*
X212349Y-362169D01*
X212343Y-362182D01*
Y-362189D01*
X212297Y-362326D01*
X212244Y-362444D01*
X212198Y-362556D01*
X212153Y-362654D01*
X212113Y-362733D01*
X212080Y-362792D01*
X212061Y-362825D01*
X212054Y-362838D01*
Y-362956D01*
X213091D01*
X213130Y-362851D01*
X213169Y-362740D01*
X213209Y-362628D01*
X213235Y-362516D01*
X213261Y-362425D01*
X213281Y-362346D01*
X213287Y-362320D01*
Y-362300D01*
X213294Y-362287D01*
Y-362280D01*
X213327Y-362116D01*
X213347Y-361946D01*
X213366Y-361775D01*
X213373Y-361618D01*
X213379Y-361546D01*
Y-361480D01*
X213386Y-361421D01*
Y-361368D01*
Y-361329D01*
Y-361296D01*
Y-361277D01*
Y-361270D01*
X213379Y-361087D01*
X213366Y-360916D01*
X213353Y-360772D01*
X213333Y-360647D01*
X213320Y-360588D01*
X213314Y-360542D01*
X213307Y-360503D01*
X213294Y-360470D01*
X213287Y-360437D01*
Y-360417D01*
X213281Y-360411D01*
Y-360404D01*
X213235Y-360273D01*
X213189Y-360155D01*
X213137Y-360043D01*
X213091Y-359952D01*
X213045Y-359879D01*
X213012Y-359820D01*
X212986Y-359788D01*
X212979Y-359774D01*
X212900Y-359683D01*
X212815Y-359597D01*
X212730Y-359532D01*
X212651Y-359473D01*
X212585Y-359427D01*
X212533Y-359401D01*
X212500Y-359381D01*
X212487Y-359374D01*
X212376Y-359328D01*
X212271Y-359296D01*
X212166Y-359269D01*
X212067Y-359256D01*
X211982Y-359243D01*
X211923Y-359237D01*
D02*
G37*
G36*
X208577Y-353923D02*
Y-355169D01*
X211890Y-356304D01*
X208577Y-357446D01*
Y-358712D01*
X213287Y-357000D01*
Y-355642D01*
X208577Y-353923D01*
D02*
G37*
G36*
X211083Y-371332D02*
X210932D01*
X210716Y-371339D01*
X210519Y-371345D01*
X210335Y-371365D01*
X210257Y-371372D01*
X210185Y-371385D01*
X210119Y-371391D01*
X210060Y-371404D01*
X210007Y-371411D01*
X209962Y-371417D01*
X209929Y-371424D01*
X209903Y-371430D01*
X209889Y-371437D01*
X209883D01*
X209719Y-371483D01*
X209575Y-371535D01*
X209443Y-371588D01*
X209332Y-371647D01*
X209240Y-371700D01*
X209174Y-371739D01*
X209148Y-371759D01*
X209128Y-371765D01*
X209122Y-371778D01*
X209115D01*
X209004Y-371870D01*
X208905Y-371969D01*
X208827Y-372067D01*
X208761Y-372165D01*
X208709Y-372244D01*
X208669Y-372316D01*
X208656Y-372342D01*
X208649Y-372356D01*
X208643Y-372369D01*
Y-372375D01*
X208591Y-372519D01*
X208551Y-372670D01*
X208518Y-372821D01*
X208499Y-372966D01*
X208486Y-373090D01*
Y-373143D01*
X208479Y-373189D01*
Y-373228D01*
Y-373254D01*
Y-373274D01*
Y-373281D01*
X208486Y-373471D01*
X208505Y-373641D01*
X208531Y-373792D01*
X208558Y-373923D01*
X208571Y-373982D01*
X208584Y-374035D01*
X208597Y-374074D01*
X208610Y-374114D01*
X208623Y-374140D01*
X208630Y-374160D01*
X208636Y-374173D01*
Y-374179D01*
X208702Y-374310D01*
X208774Y-374429D01*
X208853Y-374533D01*
X208925Y-374619D01*
X208997Y-374691D01*
X209050Y-374737D01*
X209089Y-374770D01*
X209096Y-374783D01*
X209102D01*
X209227Y-374868D01*
X209351Y-374934D01*
X209483Y-374993D01*
X209601Y-375039D01*
X209712Y-375078D01*
X209758Y-375091D01*
X209791Y-375104D01*
X209824Y-375111D01*
X209850Y-375117D01*
X209863Y-375124D01*
X209870D01*
X210047Y-375157D01*
X210224Y-375183D01*
X210408Y-375202D01*
X210572Y-375216D01*
X210644Y-375222D01*
X210775D01*
X210827Y-375229D01*
X210932D01*
X211149Y-375222D01*
X211352Y-375216D01*
X211529Y-375196D01*
X211615Y-375189D01*
X211687Y-375176D01*
X211752Y-375170D01*
X211818Y-375163D01*
X211871Y-375150D01*
X211910Y-375144D01*
X211949Y-375137D01*
X211975D01*
X211989Y-375130D01*
X211995D01*
X212159Y-375084D01*
X212310Y-375032D01*
X212441Y-374973D01*
X212553Y-374921D01*
X212638Y-374868D01*
X212710Y-374829D01*
X212730Y-374809D01*
X212750Y-374802D01*
X212756Y-374789D01*
X212763D01*
X212874Y-374697D01*
X212966Y-374599D01*
X213045Y-374494D01*
X213110Y-374402D01*
X213163Y-374317D01*
X213196Y-374245D01*
X213209Y-374219D01*
X213222Y-374199D01*
X213228Y-374192D01*
Y-374186D01*
X213281Y-374041D01*
X213320Y-373884D01*
X213347Y-373733D01*
X213366Y-373595D01*
X213379Y-373471D01*
Y-373412D01*
X213386Y-373372D01*
Y-373333D01*
Y-373307D01*
Y-373287D01*
Y-373281D01*
X213379Y-373090D01*
X213360Y-372913D01*
X213340Y-372762D01*
X213307Y-372631D01*
X213294Y-372579D01*
X213281Y-372526D01*
X213268Y-372480D01*
X213261Y-372447D01*
X213248Y-372421D01*
X213242Y-372401D01*
X213235Y-372388D01*
Y-372382D01*
X213169Y-372251D01*
X213097Y-372132D01*
X213018Y-372027D01*
X212940Y-371942D01*
X212874Y-371870D01*
X212822Y-371818D01*
X212782Y-371791D01*
X212776Y-371778D01*
X212769D01*
X212651Y-371700D01*
X212520Y-371627D01*
X212395Y-371568D01*
X212271Y-371522D01*
X212166Y-371490D01*
X212120Y-371477D01*
X212080Y-371463D01*
X212048Y-371457D01*
X212021Y-371450D01*
X212008Y-371444D01*
X212002D01*
X211818Y-371404D01*
X211634Y-371378D01*
X211457Y-371358D01*
X211287Y-371345D01*
X211214Y-371339D01*
X211149D01*
X211083Y-371332D01*
D02*
G37*
G36*
X208577Y-375662D02*
Y-376908D01*
X211890Y-378043D01*
X208577Y-379185D01*
Y-380451D01*
X213287Y-378738D01*
Y-377380D01*
X208577Y-375662D01*
D02*
G37*
G36*
X211752Y-380956D02*
X211693D01*
X211536Y-380962D01*
X211398Y-380982D01*
X211274Y-381008D01*
X211175Y-381034D01*
X211090Y-381067D01*
X211031Y-381093D01*
X210991Y-381113D01*
X210978Y-381120D01*
X210873Y-381185D01*
X210782Y-381257D01*
X210703Y-381330D01*
X210637Y-381402D01*
X210585Y-381467D01*
X210545Y-381520D01*
X210519Y-381553D01*
X210513Y-381559D01*
Y-381566D01*
X210467Y-381651D01*
X210427Y-381743D01*
X210388Y-381835D01*
X210362Y-381913D01*
X210342Y-381986D01*
X210322Y-382045D01*
X210309Y-382084D01*
Y-382090D01*
Y-382097D01*
X210283Y-382215D01*
X210263Y-382333D01*
X210250Y-382445D01*
X210237Y-382556D01*
Y-382648D01*
X210230Y-382720D01*
Y-382747D01*
Y-382766D01*
Y-382779D01*
Y-382786D01*
Y-382878D01*
Y-382963D01*
X210237Y-383002D01*
Y-383029D01*
Y-383048D01*
Y-383055D01*
X210244Y-383153D01*
Y-383199D01*
Y-383232D01*
X210250Y-383258D01*
Y-383278D01*
Y-383291D01*
Y-383298D01*
X209476D01*
Y-381093D01*
X208577D01*
Y-384439D01*
X211234D01*
Y-384301D01*
X211201Y-384150D01*
X211182Y-384072D01*
X211169Y-383999D01*
X211162Y-383941D01*
X211149Y-383894D01*
X211142Y-383862D01*
Y-383849D01*
X211109Y-383652D01*
X211103Y-383560D01*
X211096Y-383475D01*
X211090Y-383402D01*
Y-383344D01*
Y-383311D01*
Y-383298D01*
X211096Y-383147D01*
X211103Y-383074D01*
X211109Y-383009D01*
X211116Y-382950D01*
X211123Y-382904D01*
X211129Y-382878D01*
Y-382865D01*
X211142Y-382779D01*
X211162Y-382701D01*
X211188Y-382628D01*
X211208Y-382569D01*
X211234Y-382517D01*
X211247Y-382484D01*
X211260Y-382458D01*
X211267Y-382451D01*
X211326Y-382373D01*
X211392Y-382314D01*
X211418Y-382287D01*
X211438Y-382274D01*
X211451Y-382261D01*
X211457D01*
X211503Y-382235D01*
X211549Y-382215D01*
X211641Y-382189D01*
X211680D01*
X211713Y-382182D01*
X211811D01*
X211877Y-382189D01*
X211929Y-382202D01*
X211975Y-382209D01*
X212008Y-382222D01*
X212035Y-382235D01*
X212048Y-382241D01*
X212054D01*
X212126Y-382287D01*
X212192Y-382340D01*
X212212Y-382366D01*
X212231Y-382386D01*
X212244Y-382399D01*
X212251Y-382405D01*
X212290Y-382458D01*
X212323Y-382523D01*
X212376Y-382642D01*
X212395Y-382694D01*
X212408Y-382733D01*
X212415Y-382760D01*
Y-382773D01*
X212428Y-382858D01*
X212441Y-382937D01*
X212448Y-383009D01*
X212454Y-383074D01*
X212461Y-383127D01*
Y-383173D01*
Y-383199D01*
Y-383206D01*
X212454Y-383330D01*
X212441Y-383449D01*
X212428Y-383560D01*
X212402Y-383658D01*
X212382Y-383744D01*
X212369Y-383809D01*
X212363Y-383836D01*
X212356Y-383855D01*
X212349Y-383862D01*
Y-383868D01*
X212303Y-383986D01*
X212258Y-384104D01*
X212212Y-384209D01*
X212166Y-384301D01*
X212120Y-384373D01*
X212087Y-384433D01*
X212067Y-384472D01*
X212061Y-384478D01*
Y-384485D01*
Y-384616D01*
X213104D01*
X213143Y-384518D01*
X213176Y-384413D01*
X213209Y-384308D01*
X213235Y-384209D01*
X213261Y-384124D01*
X213281Y-384052D01*
X213287Y-384026D01*
Y-384006D01*
X213294Y-383993D01*
Y-383986D01*
X213320Y-383829D01*
X213347Y-383671D01*
X213360Y-383507D01*
X213373Y-383357D01*
Y-383291D01*
X213379Y-383225D01*
Y-383173D01*
X213386Y-383120D01*
Y-383081D01*
Y-383055D01*
Y-383035D01*
Y-383029D01*
X213379Y-382852D01*
X213366Y-382687D01*
X213353Y-382543D01*
X213327Y-382418D01*
X213307Y-382314D01*
X213301Y-382268D01*
X213294Y-382235D01*
X213287Y-382209D01*
X213281Y-382189D01*
X213274Y-382176D01*
Y-382169D01*
X213222Y-382031D01*
X213169Y-381900D01*
X213110Y-381789D01*
X213051Y-381690D01*
X212999Y-381605D01*
X212959Y-381546D01*
X212933Y-381507D01*
X212920Y-381494D01*
X212828Y-381402D01*
X212736Y-381323D01*
X212645Y-381251D01*
X212559Y-381192D01*
X212487Y-381153D01*
X212428Y-381120D01*
X212389Y-381100D01*
X212382Y-381093D01*
X212376D01*
X212258Y-381048D01*
X212133Y-381015D01*
X212021Y-380989D01*
X211916Y-380975D01*
X211825Y-380962D01*
X211752Y-380956D01*
D02*
G37*
%LPD*%
G36*
X211228Y-372565D02*
X211359Y-372572D01*
X211477Y-372585D01*
X211588Y-372598D01*
X211687Y-372611D01*
X211779Y-372631D01*
X211857Y-372644D01*
X211923Y-372657D01*
X211982Y-372677D01*
X212035Y-372690D01*
X212074Y-372703D01*
X212107Y-372716D01*
X212126Y-372723D01*
X212139Y-372729D01*
X212146D01*
X212212Y-372762D01*
X212264Y-372802D01*
X212317Y-372841D01*
X212356Y-372887D01*
X212421Y-372979D01*
X212467Y-373071D01*
X212494Y-373149D01*
X212507Y-373215D01*
X212513Y-373241D01*
Y-373261D01*
Y-373274D01*
Y-373281D01*
X212507Y-373353D01*
X212500Y-373418D01*
X212454Y-373530D01*
X212395Y-373628D01*
X212330Y-373707D01*
X212264Y-373766D01*
X212205Y-373805D01*
X212159Y-373832D01*
X212153Y-373838D01*
X212146D01*
X212074Y-373864D01*
X211989Y-373890D01*
X211897Y-373917D01*
X211805Y-373930D01*
X211601Y-373963D01*
X211405Y-373982D01*
X211313Y-373989D01*
X211221Y-373995D01*
X211142D01*
X211077Y-374002D01*
X210782D01*
X210637Y-373995D01*
X210506Y-373989D01*
X210388Y-373976D01*
X210276Y-373963D01*
X210178Y-373950D01*
X210086Y-373937D01*
X210007Y-373917D01*
X209935Y-373904D01*
X209876Y-373890D01*
X209830Y-373877D01*
X209791Y-373864D01*
X209758Y-373851D01*
X209738Y-373845D01*
X209725Y-373838D01*
X209719D01*
X209653Y-373805D01*
X209594Y-373766D01*
X209548Y-373727D01*
X209509Y-373681D01*
X209443Y-373589D01*
X209397Y-373497D01*
X209371Y-373412D01*
X209358Y-373346D01*
X209351Y-373320D01*
Y-373300D01*
Y-373287D01*
Y-373281D01*
X209358Y-373208D01*
X209365Y-373143D01*
X209411Y-373031D01*
X209470Y-372933D01*
X209535Y-372861D01*
X209601Y-372802D01*
X209660Y-372762D01*
X209706Y-372736D01*
X209712Y-372729D01*
X209719D01*
X209791Y-372697D01*
X209876Y-372670D01*
X209962Y-372651D01*
X210060Y-372631D01*
X210263Y-372598D01*
X210460Y-372579D01*
X210552Y-372572D01*
X210644Y-372565D01*
X210722D01*
X210795Y-372559D01*
X211083D01*
X211228Y-372565D01*
D02*
G37*
%LPC*%
G36*
X105902Y-355173D02*
X90503D01*
Y-357469D01*
X105902D01*
Y-355173D01*
D02*
G37*
G36*
X156661Y-321530D02*
X156608D01*
X156398Y-321537D01*
X156208Y-321556D01*
X156018Y-321589D01*
X155847Y-321628D01*
X155690Y-321681D01*
X155539Y-321733D01*
X155408Y-321793D01*
X155283Y-321852D01*
X155178Y-321917D01*
X155080Y-321976D01*
X155001Y-322029D01*
X154929Y-322075D01*
X154876Y-322120D01*
X154844Y-322153D01*
X154817Y-322173D01*
X154811Y-322180D01*
X154693Y-322304D01*
X154594Y-322442D01*
X154502Y-322586D01*
X154430Y-322731D01*
X154365Y-322882D01*
X154312Y-323026D01*
X154266Y-323170D01*
X154234Y-323314D01*
X154201Y-323446D01*
X154181Y-323564D01*
X154168Y-323675D01*
X154161Y-323774D01*
X154155Y-323846D01*
X154148Y-323905D01*
Y-323944D01*
Y-323951D01*
Y-323957D01*
X154155Y-324167D01*
X154174Y-324358D01*
X154207Y-324541D01*
X154253Y-324712D01*
X154299Y-324869D01*
X154358Y-325020D01*
X154417Y-325151D01*
X154476Y-325269D01*
X154542Y-325381D01*
X154601Y-325473D01*
X154660Y-325551D01*
X154706Y-325617D01*
X154752Y-325670D01*
X154785Y-325702D01*
X154804Y-325729D01*
X154811Y-325735D01*
X154942Y-325847D01*
X155080Y-325945D01*
X155224Y-326030D01*
X155368Y-326109D01*
X155519Y-326168D01*
X155670Y-326220D01*
X155815Y-326266D01*
X155959Y-326299D01*
X156090Y-326325D01*
X156215Y-326345D01*
X156326Y-326358D01*
X156418Y-326365D01*
X156497Y-326371D01*
X156556Y-326378D01*
X156608D01*
X156812Y-326371D01*
X157008Y-326352D01*
X157192Y-326319D01*
X157363Y-326280D01*
X157520Y-326227D01*
X157664Y-326175D01*
X157802Y-326116D01*
X157920Y-326057D01*
X158032Y-325997D01*
X158124Y-325938D01*
X158202Y-325886D01*
X158274Y-325834D01*
X158327Y-325794D01*
X158360Y-325761D01*
X158386Y-325742D01*
X158393Y-325735D01*
X158511Y-325610D01*
X158609Y-325473D01*
X158701Y-325335D01*
X158773Y-325184D01*
X158839Y-325040D01*
X158891Y-324889D01*
X158937Y-324745D01*
X158970Y-324607D01*
X159003Y-324476D01*
X159022Y-324351D01*
X159035Y-324239D01*
X159042Y-324148D01*
X159049Y-324069D01*
X159055Y-324010D01*
Y-323970D01*
Y-323957D01*
X159049Y-323747D01*
X159029Y-323557D01*
X158996Y-323374D01*
X158950Y-323203D01*
X158904Y-323039D01*
X158845Y-322895D01*
X158786Y-322763D01*
X158721Y-322645D01*
X158661Y-322534D01*
X158602Y-322442D01*
X158543Y-322363D01*
X158498Y-322298D01*
X158452Y-322245D01*
X158419Y-322212D01*
X158399Y-322186D01*
X158393Y-322180D01*
X158261Y-322068D01*
X158124Y-321963D01*
X157979Y-321878D01*
X157835Y-321806D01*
X157684Y-321740D01*
X157540Y-321688D01*
X157389Y-321648D01*
X157251Y-321609D01*
X157120Y-321583D01*
X156995Y-321563D01*
X156890Y-321550D01*
X156792Y-321543D01*
X156713Y-321537D01*
X156661Y-321530D01*
D02*
G37*
G36*
X155158Y-313015D02*
X154247D01*
Y-316387D01*
X158957D01*
Y-315174D01*
X156943D01*
Y-313173D01*
X156031D01*
Y-315174D01*
X155158D01*
Y-313015D01*
D02*
G37*
G36*
Y-317227D02*
X154247D01*
Y-320599D01*
X158957D01*
Y-319385D01*
X156943D01*
Y-317384D01*
X156031D01*
Y-319385D01*
X155158D01*
Y-317227D01*
D02*
G37*
%LPD*%
G36*
X156746Y-322796D02*
X156877Y-322803D01*
X156995Y-322816D01*
X157100Y-322836D01*
X157185Y-322855D01*
X157245Y-322868D01*
X157284Y-322875D01*
X157290Y-322882D01*
X157297D01*
X157402Y-322914D01*
X157500Y-322960D01*
X157586Y-323000D01*
X157658Y-323039D01*
X157717Y-323078D01*
X157763Y-323111D01*
X157789Y-323131D01*
X157802Y-323137D01*
X157868Y-323203D01*
X157927Y-323262D01*
X157973Y-323328D01*
X158012Y-323387D01*
X158045Y-323439D01*
X158065Y-323478D01*
X158078Y-323505D01*
X158084Y-323511D01*
X158110Y-323590D01*
X158130Y-323669D01*
X158150Y-323747D01*
X158156Y-323813D01*
X158163Y-323872D01*
X158169Y-323918D01*
Y-323944D01*
Y-323957D01*
X158163Y-324043D01*
X158156Y-324121D01*
X158143Y-324200D01*
X158124Y-324266D01*
X158110Y-324325D01*
X158097Y-324364D01*
X158091Y-324390D01*
X158084Y-324403D01*
X158045Y-324482D01*
X157999Y-324548D01*
X157960Y-324613D01*
X157914Y-324666D01*
X157874Y-324712D01*
X157842Y-324745D01*
X157815Y-324764D01*
X157809Y-324771D01*
X157730Y-324830D01*
X157651Y-324876D01*
X157573Y-324922D01*
X157494Y-324954D01*
X157428Y-324987D01*
X157369Y-325007D01*
X157336Y-325020D01*
X157323Y-325027D01*
X157205Y-325059D01*
X157087Y-325079D01*
X156969Y-325099D01*
X156858Y-325105D01*
X156759Y-325112D01*
X156713Y-325118D01*
X156608D01*
X156457Y-325112D01*
X156320Y-325105D01*
X156195Y-325086D01*
X156090Y-325066D01*
X156005Y-325053D01*
X155939Y-325033D01*
X155919Y-325027D01*
X155900D01*
X155893Y-325020D01*
X155887D01*
X155775Y-324981D01*
X155677Y-324941D01*
X155591Y-324895D01*
X155519Y-324856D01*
X155467Y-324817D01*
X155427Y-324790D01*
X155401Y-324771D01*
X155395Y-324764D01*
X155329Y-324699D01*
X155270Y-324633D01*
X155224Y-324574D01*
X155185Y-324515D01*
X155158Y-324462D01*
X155132Y-324423D01*
X155126Y-324397D01*
X155119Y-324390D01*
X155093Y-324312D01*
X155067Y-324239D01*
X155053Y-324161D01*
X155047Y-324095D01*
X155040Y-324043D01*
X155034Y-323997D01*
Y-323970D01*
Y-323957D01*
X155040Y-323872D01*
X155047Y-323793D01*
X155060Y-323715D01*
X155080Y-323649D01*
X155099Y-323597D01*
X155113Y-323557D01*
X155119Y-323524D01*
X155126Y-323518D01*
X155165Y-323439D01*
X155204Y-323374D01*
X155250Y-323308D01*
X155296Y-323249D01*
X155336Y-323210D01*
X155368Y-323170D01*
X155395Y-323150D01*
X155401Y-323144D01*
X155473Y-323085D01*
X155552Y-323039D01*
X155631Y-322993D01*
X155710Y-322954D01*
X155775Y-322927D01*
X155828Y-322908D01*
X155867Y-322895D01*
X155874Y-322888D01*
X155880D01*
X155998Y-322855D01*
X156116Y-322829D01*
X156241Y-322816D01*
X156352Y-322803D01*
X156451Y-322796D01*
X156497Y-322790D01*
X156602D01*
X156746Y-322796D01*
D02*
G37*
%LPC*%
G36*
X99660Y-126571D02*
X97528D01*
Y-130786D01*
X93346D01*
Y-132951D01*
X97528D01*
Y-137166D01*
X99660D01*
Y-132951D01*
X103842D01*
Y-130786D01*
X99660D01*
Y-126571D01*
D02*
G37*
G36*
X209611Y-402606D02*
X208672D01*
Y-406299D01*
X209571D01*
Y-403879D01*
X213383Y-406096D01*
Y-404751D01*
X209611Y-402606D01*
D02*
G37*
G36*
X213383Y-392956D02*
X212484D01*
Y-395075D01*
X212444Y-395023D01*
X212399Y-394957D01*
X212300Y-394819D01*
X212248Y-394760D01*
X212208Y-394708D01*
X212182Y-394675D01*
X212175Y-394662D01*
X212090Y-394550D01*
X212005Y-394445D01*
X211920Y-394347D01*
X211847Y-394262D01*
X211782Y-394190D01*
X211729Y-394130D01*
X211697Y-394098D01*
X211684Y-394085D01*
X211526Y-393920D01*
X211375Y-393783D01*
X211237Y-393665D01*
X211113Y-393573D01*
X211008Y-393494D01*
X210962Y-393468D01*
X210929Y-393442D01*
X210896Y-393428D01*
X210877Y-393415D01*
X210863Y-393402D01*
X210857D01*
X210706Y-393323D01*
X210555Y-393271D01*
X210411Y-393232D01*
X210286Y-393199D01*
X210175Y-393186D01*
X210129Y-393179D01*
X210089D01*
X210057Y-393173D01*
X210011D01*
X209886Y-393179D01*
X209768Y-393192D01*
X209657Y-393219D01*
X209558Y-393245D01*
X209466Y-393278D01*
X209374Y-393317D01*
X209296Y-393363D01*
X209224Y-393402D01*
X209165Y-393448D01*
X209105Y-393494D01*
X209060Y-393533D01*
X209020Y-393566D01*
X208994Y-393593D01*
X208974Y-393619D01*
X208961Y-393632D01*
X208955Y-393638D01*
X208889Y-393730D01*
X208830Y-393829D01*
X208784Y-393934D01*
X208738Y-394045D01*
X208699Y-394157D01*
X208672Y-394268D01*
X208627Y-394491D01*
X208613Y-394590D01*
X208600Y-394688D01*
X208594Y-394767D01*
X208587Y-394846D01*
X208581Y-394904D01*
Y-394950D01*
Y-394977D01*
Y-394990D01*
X208587Y-395154D01*
X208594Y-395318D01*
X208613Y-395469D01*
X208627Y-395600D01*
X208646Y-395711D01*
X208653Y-395757D01*
X208666Y-395797D01*
X208672Y-395830D01*
Y-395856D01*
X208679Y-395869D01*
Y-395875D01*
X208718Y-396026D01*
X208751Y-396158D01*
X208784Y-396275D01*
X208817Y-396367D01*
X208837Y-396440D01*
X208856Y-396492D01*
X208869Y-396518D01*
X208876Y-396531D01*
X209919D01*
Y-396433D01*
X209853Y-396328D01*
X209794Y-396223D01*
X209742Y-396125D01*
X209696Y-396033D01*
X209663Y-395954D01*
X209637Y-395888D01*
X209624Y-395849D01*
X209617Y-395843D01*
Y-395836D01*
X209578Y-395718D01*
X209545Y-395606D01*
X209525Y-395501D01*
X209506Y-395410D01*
X209499Y-395331D01*
X209492Y-395272D01*
Y-395233D01*
Y-395219D01*
X209499Y-395082D01*
X209519Y-394964D01*
X209552Y-394859D01*
X209578Y-394773D01*
X209611Y-394708D01*
X209643Y-394662D01*
X209663Y-394629D01*
X209670Y-394622D01*
X209742Y-394550D01*
X209821Y-394498D01*
X209906Y-394465D01*
X209984Y-394439D01*
X210057Y-394426D01*
X210116Y-394412D01*
X210168D01*
X210267Y-394419D01*
X210365Y-394439D01*
X210457Y-394465D01*
X210542Y-394491D01*
X210614Y-394524D01*
X210667Y-394550D01*
X210700Y-394570D01*
X210713Y-394577D01*
X210818Y-394649D01*
X210929Y-394727D01*
X211041Y-394819D01*
X211139Y-394911D01*
X211231Y-394990D01*
X211297Y-395062D01*
X211323Y-395082D01*
X211342Y-395101D01*
X211355Y-395114D01*
X211362Y-395121D01*
X211460Y-395226D01*
X211559Y-395338D01*
X211657Y-395456D01*
X211756Y-395561D01*
X211834Y-395659D01*
X211900Y-395738D01*
X211926Y-395770D01*
X211946Y-395790D01*
X211952Y-395803D01*
X211959Y-395810D01*
X212084Y-395967D01*
X212202Y-396125D01*
X212313Y-396262D01*
X212412Y-396394D01*
X212490Y-396499D01*
X212523Y-396545D01*
X212556Y-396584D01*
X212576Y-396617D01*
X212595Y-396636D01*
X212602Y-396650D01*
X212609Y-396656D01*
X213383D01*
Y-392956D01*
D02*
G37*
G36*
X208672Y-397319D02*
Y-398565D01*
X211985Y-399700D01*
X208672Y-400841D01*
Y-402107D01*
X213383Y-400395D01*
Y-399037D01*
X208672Y-397319D01*
D02*
G37*
%LPD*%
D42*
X33275Y25383D02*
X38425Y20233D01*
X43625Y25433D01*
X18425Y-10067D02*
Y25433D01*
Y-10067D02*
X178425D01*
X18425Y25433D02*
X178425D01*
Y-10067D02*
Y25433D01*
X107925Y-167D02*
Y25433D01*
X88925Y-367D02*
Y25433D01*
Y-367D02*
X107925D01*
X96925D02*
Y22433D01*
X98425Y23933D01*
X99925Y22433D01*
Y-367D02*
Y22433D01*
D71*
X-1628Y-55893D02*
G03*
X-1628Y-55893I-492J0D01*
G01*
X14514D02*
G03*
X14514Y-55893I-492J0D01*
G01*
X150886Y-41929D02*
G03*
X150886Y-41929I-492J0D01*
G01*
X134363Y-39219D02*
G03*
X134363Y-39219I-492J0D01*
G01*
X152310Y-36602D02*
G03*
X152310Y-36602I-492J0D01*
G01*
X140650Y-52165D02*
G03*
X140650Y-52165I-492J0D01*
G01*
X168209Y-40354D02*
G03*
X168209Y-40354I-492J0D01*
G01*
X174750Y-27547D02*
G03*
X174750Y-27547I-492J0D01*
G01*
X140453Y-98819D02*
G03*
X140453Y-98819I-492J0D01*
G01*
X167618Y-95276D02*
G03*
X167618Y-95276I-492J0D01*
G01*
X141575Y-153701D02*
G03*
X141575Y-153701I-492J0D01*
G01*
X141437Y-227756D02*
G03*
X141437Y-227756I-492J0D01*
G01*
X168602Y-228150D02*
G03*
X168602Y-228150I-492J0D01*
G01*
X163189Y-373031D02*
G03*
X163189Y-373031I-492J0D01*
G01*
X141535Y-390748D02*
G03*
X141535Y-390748I-492J0D01*
G01*
X-6746Y-657074D02*
G03*
X-6746Y-657074I-492J0D01*
G01*
X211758Y-649594D02*
G03*
X211758Y-649594I-492J0D01*
G01*
X141575Y-279685D02*
G03*
X141575Y-279685I-492J0D01*
G01*
D72*
X186417Y-515551D02*
G03*
X186417Y-515551I-197J0D01*
G01*
X1378D02*
G03*
X1378Y-515551I-197J0D01*
G01*
D73*
X212598Y40157D02*
Y40748D01*
X201575Y40157D02*
Y40748D01*
X209842Y40157D02*
X212598D01*
X209055Y40551D02*
X209842Y40157D01*
X208661Y40551D02*
X209055D01*
X205118D02*
X208661D01*
X204331Y40157D02*
X205118Y40551D01*
X201575Y40157D02*
X204331D01*
X205906Y45276D02*
X208268D01*
X196063Y40157D02*
Y40748D01*
X185039Y40157D02*
Y40748D01*
X193307Y40157D02*
X196063D01*
X192520Y40551D02*
X193307Y40157D01*
X192126Y40551D02*
X192520D01*
X188583D02*
X192126D01*
X187795Y40157D02*
X188583Y40551D01*
X185039Y40157D02*
X187795D01*
X189370Y45276D02*
X191732D01*
X173178Y28633D02*
X179578D01*
X173178D02*
Y33433D01*
X179578Y28633D02*
Y33433D01*
X173178Y37433D02*
Y42233D01*
X179578Y37433D02*
Y42233D01*
X173178D02*
X179578D01*
X-11417Y45276D02*
X-9055D01*
X-15748Y40157D02*
X-12992D01*
X-12205Y40551D01*
X-8661D01*
X-8268D01*
X-7480Y40157D01*
X-4724D01*
X-15748D02*
Y40748D01*
X-4724Y40157D02*
Y40748D01*
X5118Y45276D02*
X7480D01*
X787Y40157D02*
X3543D01*
X4331Y40551D01*
X7874D01*
X8268D01*
X9055Y40157D01*
X11811D01*
X787D02*
Y40748D01*
X11811Y40157D02*
Y40748D01*
X1288Y-47295D02*
Y-40894D01*
X-3512Y-47295D02*
X1288D01*
X-3512Y-40894D02*
X1288D01*
X-12312Y-47295D02*
X-7512D01*
X-12312Y-40894D02*
X-7512D01*
X-12312Y-47295D02*
Y-40894D01*
X17430Y-47295D02*
Y-40894D01*
X12630Y-47295D02*
X17430D01*
X12630Y-40894D02*
X17430D01*
X3830Y-47295D02*
X8630D01*
X3830Y-40894D02*
X8630D01*
X3830Y-47295D02*
Y-40894D01*
X-11512Y-59193D02*
X-8512D01*
X-2512D02*
X488D01*
X-6512Y-53693D02*
X-4512D01*
X-11512Y-59193D02*
Y-53693D01*
X488Y-59193D02*
Y-53693D01*
X4630Y-59193D02*
X7630D01*
X13630D02*
X16630D01*
X9630Y-53693D02*
X11630D01*
X4630Y-59193D02*
Y-53693D01*
X16630Y-59193D02*
Y-53693D01*
X174740Y-141977D02*
X182740D01*
Y-136024D01*
X174740Y-141977D02*
Y-136024D01*
X182740Y-129331D02*
Y-123386D01*
X174740Y-129331D02*
Y-123386D01*
X182740D01*
X202362Y-81299D02*
X215158D01*
X202362Y-122244D02*
X215158D01*
X174606D02*
X187402D01*
X174606D02*
Y-81299D01*
X187402D01*
X215158Y-122244D02*
Y-81299D01*
X154331Y-50984D02*
Y-50787D01*
X159843Y-50984D02*
Y-50787D01*
X154331Y-42126D02*
Y-41929D01*
X159843Y-42126D02*
Y-41929D01*
X154331D02*
X159843D01*
X154331Y-50984D02*
X159843D01*
X130571Y-41827D02*
X136071D01*
X130571Y-29827D02*
X136071D01*
Y-36827D02*
Y-34827D01*
X130571Y-41827D02*
Y-38827D01*
Y-32827D02*
Y-29827D01*
X142425Y-39902D02*
X145425D01*
X151425D02*
X154425D01*
X147425Y-34402D02*
X149425D01*
X142425Y-39902D02*
Y-34402D01*
X154425Y-39902D02*
Y-34402D01*
X136221Y-43307D02*
Y-43110D01*
X130709Y-43307D02*
Y-43110D01*
X136221Y-52165D02*
Y-51968D01*
X130709Y-52165D02*
Y-51968D01*
Y-52165D02*
X136221D01*
X130709Y-43110D02*
X136221D01*
X126721Y-53436D02*
X133121D01*
Y-58236D02*
Y-53436D01*
X126721Y-58236D02*
Y-53436D01*
X133121Y-67036D02*
Y-62236D01*
X126721Y-67036D02*
Y-62236D01*
Y-67036D02*
X133121D01*
X134595Y-53436D02*
X140995D01*
Y-58236D02*
Y-53436D01*
X134595Y-58236D02*
Y-53436D01*
X140995Y-67036D02*
Y-62236D01*
X134595Y-67036D02*
Y-62236D01*
Y-67036D02*
X140995D01*
X149106Y-67767D02*
Y-61367D01*
X153905D01*
X149106Y-67767D02*
X153905D01*
X157905Y-61367D02*
X162706D01*
X157905Y-67767D02*
X162706D01*
Y-61367D01*
X164123Y-42413D02*
X170523D01*
Y-47213D02*
Y-42413D01*
X164123Y-47213D02*
Y-42413D01*
X170523Y-56013D02*
Y-51213D01*
X164123Y-56013D02*
Y-51213D01*
Y-56013D02*
X170523D01*
X149106Y-61074D02*
Y-54674D01*
X153905D01*
X149106Y-61074D02*
X153905D01*
X157905Y-54674D02*
X162706D01*
X157905Y-61074D02*
X162706D01*
Y-54674D01*
X163779Y-31496D02*
Y-31299D01*
X158268Y-31496D02*
Y-31299D01*
X163779Y-40354D02*
Y-40157D01*
X158268Y-40354D02*
Y-40157D01*
Y-40354D02*
X163779D01*
X158268Y-31299D02*
X163779D01*
X177666Y-18948D02*
Y-12548D01*
X172866Y-18948D02*
X177666D01*
X172866Y-12548D02*
X177666D01*
X164066Y-18948D02*
X168866D01*
X164066Y-12548D02*
X168866D01*
X164066Y-18948D02*
Y-12548D01*
X164866Y-30847D02*
X167866D01*
X173866D02*
X176866D01*
X169866Y-25346D02*
X171866D01*
X164866Y-30847D02*
Y-25346D01*
X176866Y-30847D02*
Y-25346D01*
X209413Y-76342D02*
Y-63842D01*
X182413Y-76342D02*
X209413D01*
X176413Y-70342D02*
X182413Y-76342D01*
X176413Y-70342D02*
Y-63842D01*
Y-55843D02*
Y-49343D01*
X182413Y-43343D01*
X209413D01*
X178413Y-52342D02*
X182382D01*
X180413Y-54311D02*
Y-50343D01*
X209413Y-55843D02*
Y-43343D01*
Y-155842D02*
Y-143342D01*
X180413Y-154311D02*
Y-150343D01*
X178413Y-152342D02*
X182382D01*
X182413Y-143342D02*
X209413D01*
X176413Y-149343D02*
X182413Y-143342D01*
X176413Y-155842D02*
Y-149343D01*
Y-170343D02*
Y-163842D01*
Y-170343D02*
X182413Y-176342D01*
X209413D01*
Y-163842D01*
X183465Y-139370D02*
X185827Y-141732D01*
X183465Y-129134D02*
X185827Y-126772D01*
Y-141732D02*
X193898D01*
X183465Y-139370D02*
Y-129134D01*
X185827Y-126772D02*
X193898D01*
X204528Y-141732D02*
X214961D01*
Y-126772D01*
X204528D02*
X214961D01*
X143898Y-107874D02*
X149409D01*
X143898Y-98819D02*
X149409D01*
Y-99016D02*
Y-98819D01*
X143898Y-99016D02*
Y-98819D01*
X149409Y-107874D02*
Y-107677D01*
X143898Y-107874D02*
Y-107677D01*
X158633Y-103394D02*
X158733D01*
X162333D02*
X162433D01*
X158533Y-97394D02*
X158633D01*
X162233D02*
X162333D01*
X166339Y-103394D02*
Y-97394D01*
X154528Y-103394D02*
Y-97394D01*
X167076Y-110146D02*
X173476D01*
X167076D02*
Y-105347D01*
X173476Y-110146D02*
Y-105347D01*
X167076Y-101347D02*
Y-96547D01*
X173476Y-101347D02*
Y-96547D01*
X167076D02*
X173476D01*
X168898Y-110873D02*
X173701D01*
Y-117473D02*
Y-110873D01*
X168898Y-117473D02*
X173701D01*
X160158D02*
X164961D01*
X160158D02*
Y-110873D01*
X164961D01*
X141822Y-116389D02*
Y-109989D01*
X146622D01*
X141822Y-116389D02*
X146622D01*
X150622Y-109989D02*
X155422D01*
X150622Y-116389D02*
X155422D01*
Y-109989D01*
X141822Y-126232D02*
Y-119832D01*
X146622D01*
X141822Y-126232D02*
X146622D01*
X150622Y-119832D02*
X155422D01*
X150622Y-126232D02*
X155422D01*
Y-119832D01*
X141732Y-147169D02*
X161417D01*
X141732Y-149201D02*
Y-138201D01*
X161417Y-149201D02*
Y-138201D01*
X141732Y-149201D02*
X161417D01*
X141732Y-138201D02*
X161417D01*
X170186Y-126232D02*
Y-119832D01*
X165386Y-126232D02*
X170186D01*
X165386Y-119832D02*
X170186D01*
X156586Y-126232D02*
X161386D01*
X156586Y-119832D02*
X161386D01*
X156586Y-126232D02*
Y-119832D01*
X163139Y-130011D02*
X169539D01*
Y-134811D02*
Y-130011D01*
X163139Y-134811D02*
Y-130011D01*
X169539Y-143611D02*
Y-138811D01*
X163139Y-143611D02*
Y-138811D01*
Y-143611D02*
X169539D01*
X163039Y-149669D02*
Y-144866D01*
X169639D01*
Y-149669D02*
Y-144866D01*
Y-158409D02*
Y-153606D01*
X163039Y-158409D02*
X169639D01*
X163039D02*
Y-153606D01*
X141485Y-175044D02*
X147885D01*
X141485D02*
Y-170244D01*
X147885Y-175044D02*
Y-170244D01*
X141485Y-166244D02*
Y-161444D01*
X147885Y-166244D02*
Y-161444D01*
X141485D02*
X147885D01*
X149259Y-166339D02*
Y-161535D01*
X155859D01*
Y-166339D02*
Y-161535D01*
Y-175079D02*
Y-170276D01*
X149259Y-175079D02*
X155859D01*
X149259D02*
Y-170276D01*
X157133Y-166339D02*
Y-161535D01*
X163733D01*
Y-166339D02*
Y-161535D01*
Y-175079D02*
Y-170276D01*
X157133Y-175079D02*
X163733D01*
X157133D02*
Y-170276D01*
X168898Y-179331D02*
X181693D01*
X168898Y-220276D02*
X181693D01*
X141142D02*
X153937D01*
X141142D02*
Y-179331D01*
X153937D01*
X181693Y-220276D02*
Y-179331D01*
X144882Y-236811D02*
X150394D01*
X144882Y-227756D02*
X150394D01*
Y-227953D02*
Y-227756D01*
X144882Y-227953D02*
Y-227756D01*
X150394Y-236811D02*
Y-236614D01*
X144882Y-236811D02*
Y-236614D01*
X159617Y-236268D02*
X159717D01*
X163317D02*
X163417D01*
X159517Y-230268D02*
X159617D01*
X163217D02*
X163317D01*
X167323Y-236268D02*
Y-230268D01*
X155512Y-236268D02*
Y-230268D01*
X171013Y-244005D02*
X177413D01*
X171013D02*
Y-239205D01*
X177413Y-244005D02*
Y-239205D01*
X171013Y-235205D02*
Y-230405D01*
X177413Y-235205D02*
Y-230405D01*
X171013D02*
X177413D01*
X187992Y-242473D02*
X192795D01*
Y-235873D01*
X187992D02*
X192795D01*
X179252D02*
X184055D01*
X179252Y-242473D02*
Y-235873D01*
Y-242473D02*
X184055D01*
X181102Y-231496D02*
X183465Y-233858D01*
X181102Y-221260D02*
X183465Y-218898D01*
Y-233858D02*
X191535D01*
X181102Y-231496D02*
Y-221260D01*
X183465Y-218898D02*
X191535D01*
X202165Y-233858D02*
X212598D01*
Y-218898D01*
X202165D02*
X212598D01*
X209413Y-256827D02*
Y-244327D01*
X180413Y-255295D02*
Y-251327D01*
X178413Y-253327D02*
X182382D01*
X182413Y-244327D02*
X209413D01*
X176413Y-250327D02*
X182413Y-244327D01*
X176413Y-256827D02*
Y-250327D01*
Y-271327D02*
Y-264827D01*
Y-271327D02*
X182413Y-277327D01*
X209413D01*
Y-264827D01*
X140838Y-245326D02*
Y-238926D01*
X145638D01*
X140838Y-245326D02*
X145638D01*
X149638Y-238926D02*
X154438D01*
X149638Y-245326D02*
X154438D01*
Y-238926D01*
X157391Y-253200D02*
Y-246800D01*
X152591Y-253200D02*
X157391D01*
X152591Y-246800D02*
X157391D01*
X143791Y-253200D02*
X148591D01*
X143791Y-246800D02*
X148591D01*
X143791Y-253200D02*
Y-246800D01*
X160523Y-253200D02*
Y-246800D01*
X165323D01*
X160523Y-253200D02*
X165323D01*
X169323Y-246800D02*
X174123D01*
X169323Y-253200D02*
X174123D01*
Y-246800D01*
X163039Y-284331D02*
Y-279528D01*
Y-284331D02*
X169639D01*
Y-279528D01*
Y-275591D02*
Y-270787D01*
X163039D02*
X169639D01*
X163039Y-275591D02*
Y-270787D01*
X163139Y-269595D02*
X169539D01*
X163139D02*
Y-264795D01*
X169539Y-269595D02*
Y-264795D01*
X163139Y-260795D02*
Y-255995D01*
X169539Y-260795D02*
Y-255995D01*
X163139D02*
X169539D01*
X186158Y-336595D02*
X200157D01*
X186158Y-286595D02*
X200157D01*
X186158Y-336595D02*
Y-286595D01*
X212657Y-331594D02*
Y-291595D01*
X140401Y-294291D02*
Y-289488D01*
X147001D01*
Y-294291D02*
Y-289488D01*
Y-303031D02*
Y-298228D01*
X140401Y-303031D02*
X147001D01*
X140401D02*
Y-298228D01*
X148375Y-303060D02*
X154775D01*
X148375D02*
Y-298260D01*
X154775Y-303060D02*
Y-298260D01*
X148375Y-294260D02*
Y-289460D01*
X154775Y-294260D02*
Y-289460D01*
X148375D02*
X154775D01*
X156149Y-303031D02*
Y-298228D01*
Y-303031D02*
X162749D01*
Y-298228D01*
Y-294291D02*
Y-289488D01*
X156149D02*
X162749D01*
X156149Y-294291D02*
Y-289488D01*
X161765Y-339567D02*
Y-334764D01*
X155165D02*
X161765D01*
X155165Y-339567D02*
Y-334764D01*
Y-348307D02*
Y-343504D01*
Y-348307D02*
X161765D01*
Y-343504D01*
X155265Y-363036D02*
X161665D01*
X155265D02*
Y-358236D01*
X161665Y-363036D02*
Y-358236D01*
X155265Y-354236D02*
Y-349436D01*
X161665Y-354236D02*
Y-349436D01*
X155265D02*
X161665D01*
X176378Y-368110D02*
Y-356299D01*
Y-368110D02*
X176772D01*
X185433D02*
X185827D01*
Y-356299D01*
X176378D02*
X176772D01*
X185433D02*
X185827D01*
X155265Y-378910D02*
X161665D01*
X155265D02*
Y-374110D01*
X161665Y-378910D02*
Y-374110D01*
X155265Y-370110D02*
Y-365310D01*
X161665Y-370110D02*
Y-365310D01*
X155265D02*
X161665D01*
X154438Y-362452D02*
Y-356052D01*
X149638Y-362452D02*
X154438D01*
X149638Y-356052D02*
X154438D01*
X140838Y-362452D02*
X145638D01*
X140838Y-356052D02*
X145638D01*
X140838Y-362452D02*
Y-356052D01*
X144438Y-386721D02*
X150838D01*
X144438D02*
Y-381921D01*
X150838Y-386721D02*
Y-381921D01*
X144438Y-377921D02*
Y-373121D01*
X150838Y-377921D02*
Y-373121D01*
X144438D02*
X150838D01*
X155165Y-395551D02*
Y-390748D01*
Y-395551D02*
X161765D01*
Y-390748D01*
Y-386811D02*
Y-382008D01*
X155165D02*
X161765D01*
X155165Y-386811D02*
Y-382008D01*
X163039Y-395551D02*
Y-390748D01*
Y-395551D02*
X169639D01*
Y-390748D01*
Y-386811D02*
Y-382008D01*
X163039D02*
X169639D01*
X163039Y-386811D02*
Y-382008D01*
X171013Y-381979D02*
X177413D01*
Y-386779D02*
Y-381979D01*
X171013Y-386779D02*
Y-381979D01*
X177413Y-395580D02*
Y-390779D01*
X171013Y-395580D02*
Y-390779D01*
Y-395580D02*
X177413D01*
X178887Y-381979D02*
X185287D01*
Y-386779D02*
Y-381979D01*
X178887Y-386779D02*
Y-381979D01*
X185287Y-395580D02*
Y-390779D01*
X178887Y-395580D02*
Y-390779D01*
Y-395580D02*
X185287D01*
X189713Y-349499D02*
X196113D01*
Y-354299D02*
Y-349499D01*
X189713Y-354299D02*
Y-349499D01*
X196113Y-363099D02*
Y-358299D01*
X189713Y-363099D02*
Y-358299D01*
Y-363099D02*
X196113D01*
X196653Y-354331D02*
Y-349114D01*
X204921D01*
Y-354331D02*
Y-349114D01*
X196653Y-362795D02*
X197343Y-363484D01*
X196653Y-362795D02*
Y-358268D01*
X197343Y-363484D02*
X204232D01*
X204921Y-362795D01*
Y-358268D01*
X196653Y-375984D02*
Y-370768D01*
X204921D01*
Y-375984D02*
Y-370768D01*
X196653Y-384449D02*
X197343Y-385138D01*
X196653Y-384449D02*
Y-379921D01*
X197343Y-385138D02*
X204232D01*
X204921Y-384449D01*
Y-379921D01*
X189713Y-371153D02*
X196113D01*
Y-375953D02*
Y-371153D01*
X189713Y-375953D02*
Y-371153D01*
X196113Y-384753D02*
Y-379953D01*
X189713Y-384753D02*
Y-379953D01*
Y-384753D02*
X196113D01*
X189713Y-392806D02*
X196113D01*
Y-397606D02*
Y-392806D01*
X189713Y-397606D02*
Y-392806D01*
X196113Y-406406D02*
Y-401606D01*
X189713Y-406406D02*
Y-401606D01*
Y-406406D02*
X196113D01*
X196653Y-397638D02*
Y-392421D01*
X204921D01*
Y-397638D02*
Y-392421D01*
X196653Y-406102D02*
X197343Y-406791D01*
X196653Y-406102D02*
Y-401575D01*
X197343Y-406791D02*
X204232D01*
X204921Y-406102D01*
Y-401575D01*
X114173Y-90551D02*
X139764D01*
Y-395669D02*
Y-90551D01*
X114173Y-395669D02*
X139764D01*
X38386D02*
X83661D01*
X38386Y-90551D02*
X83661D01*
X-17717D02*
X7874D01*
X-17717Y-395669D02*
Y-90551D01*
Y-395669D02*
X7874D01*
X209413Y-477102D02*
Y-464602D01*
X180413Y-475571D02*
Y-471602D01*
X178413Y-473602D02*
X182382D01*
X182413Y-464602D02*
X209413D01*
X176413Y-470602D02*
X182413Y-464602D01*
X176413Y-477102D02*
Y-470602D01*
Y-491602D02*
Y-485102D01*
Y-491602D02*
X182413Y-497602D01*
X209413D01*
Y-485102D01*
X178787Y-503839D02*
Y-499035D01*
X185387D01*
Y-503839D02*
Y-499035D01*
Y-512579D02*
Y-507776D01*
X178787Y-512579D02*
X185387D01*
X178787D02*
Y-507776D01*
X186221Y-513976D02*
Y-512815D01*
Y-506870D02*
Y-505709D01*
X195669Y-506870D02*
Y-505709D01*
Y-513976D02*
Y-512815D01*
X177513Y-517402D02*
Y-512598D01*
X170913Y-517402D02*
X177513D01*
X170913D02*
Y-512598D01*
Y-508661D02*
Y-503858D01*
X177513D01*
Y-508661D02*
Y-503858D01*
X10630Y-513976D02*
Y-512815D01*
Y-506870D02*
Y-505709D01*
X1181Y-506870D02*
Y-505709D01*
Y-513976D02*
Y-512815D01*
X-6253Y-503839D02*
Y-499035D01*
X347D01*
Y-503839D02*
Y-499035D01*
Y-512579D02*
Y-507776D01*
X-6253Y-512579D02*
X347D01*
X-6253D02*
Y-507776D01*
X-7527Y-517366D02*
Y-512563D01*
X-14127Y-517366D02*
X-7527D01*
X-14127D02*
Y-512563D01*
Y-508626D02*
Y-503823D01*
X-7527D01*
Y-508626D02*
Y-503823D01*
X20437Y-477299D02*
Y-464799D01*
X-8563Y-475768D02*
Y-471799D01*
X-10563Y-473799D02*
X-6594D01*
X-6563Y-464799D02*
X20437D01*
X-12563Y-470799D02*
X-6563Y-464799D01*
X-12563Y-477299D02*
Y-470799D01*
Y-491799D02*
Y-485299D01*
Y-491799D02*
X-6563Y-497799D01*
X20437D01*
Y-485299D01*
X-17430Y-648869D02*
Y-642469D01*
X-12630D01*
X-17430Y-648869D02*
X-12630D01*
X-8630Y-642469D02*
X-3830D01*
X-8630Y-648869D02*
X-3830D01*
Y-642469D01*
X-4630Y-660374D02*
Y-654874D01*
X-16630Y-660374D02*
Y-654874D01*
X-11630D02*
X-9630D01*
X-7630Y-660374D02*
X-4630D01*
X-16630D02*
X-13630D01*
X-17493Y-673279D02*
Y-666879D01*
X-12693D01*
X-17493Y-673279D02*
X-12693D01*
X-8693Y-666879D02*
X-3893D01*
X-8693Y-673279D02*
X-3893D01*
Y-666879D01*
X-15748Y-674606D02*
Y-674016D01*
X-4724Y-674606D02*
Y-674016D01*
X-15748D02*
X-12992D01*
X-12205Y-674409D01*
X-11811D01*
X-8268D01*
X-7480Y-674016D01*
X-4724D01*
X-11417Y-679134D02*
X-9055D01*
X201074Y-640995D02*
Y-634595D01*
X205874D01*
X201074Y-640995D02*
X205874D01*
X209874Y-634595D02*
X214674D01*
X209874Y-640995D02*
X214674D01*
Y-634595D01*
X213874Y-652894D02*
Y-647394D01*
X201874Y-652894D02*
Y-647394D01*
X206874D02*
X208874D01*
X210874Y-652894D02*
X213874D01*
X201874D02*
X204874D01*
X214674Y-666192D02*
Y-659792D01*
X209874Y-666192D02*
X214674D01*
X209874Y-659792D02*
X214674D01*
X201074Y-666192D02*
X205874D01*
X201074Y-659792D02*
X205874D01*
X201074Y-666192D02*
Y-659792D01*
Y-673672D02*
Y-667272D01*
X205874D01*
X201074Y-673672D02*
X205874D01*
X209874Y-667272D02*
X214674D01*
X209874Y-673672D02*
X214674D01*
Y-667272D01*
X205906Y-679134D02*
X208268D01*
X209842Y-674016D02*
X212598D01*
X209055Y-674409D02*
X209842Y-674016D01*
X205512Y-674409D02*
X209055D01*
X205118D02*
X205512D01*
X204331Y-674016D02*
X205118Y-674409D01*
X201575Y-674016D02*
X204331D01*
X212598Y-674606D02*
Y-674016D01*
X201575Y-674606D02*
Y-674016D01*
X141732Y-264185D02*
X161417D01*
X141732Y-275185D02*
X161417D01*
Y-264185D01*
X141732Y-275185D02*
Y-264185D01*
Y-273153D02*
X161417D01*
D74*
X163189Y-367913D02*
X175394D01*
X163189Y-354823D02*
X175393D01*
X163189Y-369587D02*
X175393D01*
Y-354823D01*
X163189Y-369587D02*
Y-354823D01*
X141535Y-385630D02*
X153740D01*
X141535Y-372539D02*
X153740D01*
X141535Y-387303D02*
X153740D01*
Y-372539D01*
X141535Y-387303D02*
Y-372539D01*
D75*
X201181Y-633465D02*
Y-631103D01*
X202362D01*
X202755Y-631497D01*
Y-632284D01*
X202362Y-632677D01*
X201181D01*
X201968D02*
X202755Y-633465D01*
X203542Y-631497D02*
X203936Y-631103D01*
X204723D01*
X205117Y-631497D01*
Y-631890D01*
X204723Y-632284D01*
X204330D01*
X204723D01*
X205117Y-632677D01*
Y-633071D01*
X204723Y-633465D01*
X203936D01*
X203542Y-633071D01*
X205904Y-631497D02*
X206298Y-631103D01*
X207085D01*
X207478Y-631497D01*
Y-633071D01*
X207085Y-633465D01*
X206298D01*
X205904Y-633071D01*
Y-631497D01*
X200000Y-673622D02*
X197639D01*
Y-672441D01*
X198032Y-672048D01*
X198819D01*
X199213Y-672441D01*
Y-673622D01*
Y-672835D02*
X200000Y-672048D01*
Y-669686D02*
Y-671261D01*
X198426Y-669686D01*
X198032D01*
X197639Y-670080D01*
Y-670867D01*
X198032Y-671261D01*
Y-668899D02*
X197639Y-668506D01*
Y-667719D01*
X198032Y-667325D01*
X198426D01*
X198819Y-667719D01*
X199213Y-667325D01*
X199606D01*
X200000Y-667719D01*
Y-668506D01*
X199606Y-668899D01*
X199213D01*
X198819Y-668506D01*
X198426Y-668899D01*
X198032D01*
X198819Y-668506D02*
Y-667719D01*
X-394Y-673228D02*
X-2755D01*
Y-672048D01*
X-2362Y-671654D01*
X-1574D01*
X-1181Y-672048D01*
Y-673228D01*
Y-672441D02*
X-394Y-671654D01*
Y-669293D02*
Y-670867D01*
X-1968Y-669293D01*
X-2362D01*
X-2755Y-669686D01*
Y-670473D01*
X-2362Y-670867D01*
X-2755Y-668505D02*
Y-666931D01*
X-2362D01*
X-787Y-668505D01*
X-394D01*
X-16929Y-641339D02*
Y-638977D01*
X-15748D01*
X-15355Y-639371D01*
Y-640158D01*
X-15748Y-640551D01*
X-16929D01*
X-16142D02*
X-15355Y-641339D01*
X-12993D02*
X-14568D01*
X-12993Y-639764D01*
Y-639371D01*
X-13387Y-638977D01*
X-14174D01*
X-14568Y-639371D01*
X-12206Y-640945D02*
X-11813Y-641339D01*
X-11026D01*
X-10632Y-640945D01*
Y-639371D01*
X-11026Y-638977D01*
X-11813D01*
X-12206Y-639371D01*
Y-639764D01*
X-11813Y-640158D01*
X-10632D01*
X200394Y-650394D02*
X198819D01*
X198426Y-650788D01*
Y-651575D01*
X198819Y-651968D01*
X200394D01*
X200787Y-651575D01*
Y-650788D01*
X200000Y-651181D02*
X200787Y-650394D01*
Y-650788D02*
X200394Y-650394D01*
Y-649607D02*
X200787Y-649214D01*
Y-648426D01*
X200394Y-648033D01*
X198819D01*
X198426Y-648426D01*
Y-649214D01*
X198819Y-649607D01*
X199213D01*
X199607Y-649214D01*
Y-648033D01*
X-1575Y-658268D02*
X-3149D01*
X-3542Y-658662D01*
Y-659449D01*
X-3149Y-659842D01*
X-1575D01*
X-1181Y-659449D01*
Y-658662D01*
X-1968Y-659055D02*
X-1181Y-658268D01*
Y-658662D02*
X-1575Y-658268D01*
X-3149Y-657481D02*
X-3542Y-657088D01*
Y-656300D01*
X-3149Y-655907D01*
X-2755D01*
X-2362Y-656300D01*
X-1968Y-655907D01*
X-1575D01*
X-1181Y-656300D01*
Y-657088D01*
X-1575Y-657481D01*
X-1968D01*
X-2362Y-657088D01*
X-2755Y-657481D01*
X-3149D01*
X-2362Y-657088D02*
Y-656300D01*
X203937Y38582D02*
Y36220D01*
X205118D01*
X205511Y36614D01*
Y38188D01*
X205118Y38582D01*
X203937D01*
X206298Y36220D02*
X207086D01*
X206692D01*
Y38582D01*
X206298Y38188D01*
X208266D02*
X208660Y38582D01*
X209447D01*
X209841Y38188D01*
Y37795D01*
X209447Y37401D01*
X209841Y37008D01*
Y36614D01*
X209447Y36220D01*
X208660D01*
X208266Y36614D01*
Y37008D01*
X208660Y37401D01*
X208266Y37795D01*
Y38188D01*
X208660Y37401D02*
X209447D01*
X195670Y-679921D02*
X198031D01*
Y-678741D01*
X197638Y-678347D01*
X196064D01*
X195670Y-678741D01*
Y-679921D01*
X198031Y-677560D02*
Y-676773D01*
Y-677166D01*
X195670D01*
X196064Y-677560D01*
X197638Y-675592D02*
X198031Y-675198D01*
Y-674411D01*
X197638Y-674018D01*
X196064D01*
X195670Y-674411D01*
Y-675198D01*
X196064Y-675592D01*
X196457D01*
X196851Y-675198D01*
Y-674018D01*
X-1180Y-679921D02*
X1181D01*
Y-678741D01*
X788Y-678347D01*
X-787D01*
X-1180Y-678741D01*
Y-679921D01*
X1181Y-677560D02*
Y-676773D01*
Y-677166D01*
X-1180D01*
X-787Y-677560D01*
X-1180Y-675592D02*
Y-674018D01*
X-787D01*
X788Y-675592D01*
X1181D01*
X-13780Y38976D02*
Y36614D01*
X-12599D01*
X-12205Y37008D01*
Y38582D01*
X-12599Y38976D01*
X-13780D01*
X-11418Y36614D02*
X-10631D01*
X-11024D01*
Y38976D01*
X-11418Y38582D01*
X-7876Y38976D02*
X-8663Y38582D01*
X-9450Y37795D01*
Y37008D01*
X-9057Y36614D01*
X-8269D01*
X-7876Y37008D01*
Y37401D01*
X-8269Y37795D01*
X-9450D01*
X135039Y-70472D02*
Y-68111D01*
X136220D01*
X136614Y-68505D01*
Y-69292D01*
X136220Y-69685D01*
X135039D01*
X135827D02*
X136614Y-70472D01*
X137401Y-68505D02*
X137794Y-68111D01*
X138582D01*
X138975Y-68505D01*
Y-68898D01*
X138582Y-69292D01*
X138188D01*
X138582D01*
X138975Y-69685D01*
Y-70079D01*
X138582Y-70472D01*
X137794D01*
X137401Y-70079D01*
X141337Y-70472D02*
X139762D01*
X141337Y-68898D01*
Y-68505D01*
X140943Y-68111D01*
X140156D01*
X139762Y-68505D01*
X127559Y-70472D02*
Y-68111D01*
X128740D01*
X129133Y-68505D01*
Y-69292D01*
X128740Y-69685D01*
X127559D01*
X128346D02*
X129133Y-70472D01*
X129920Y-68505D02*
X130314Y-68111D01*
X131101D01*
X131495Y-68505D01*
Y-68898D01*
X131101Y-69292D01*
X130708D01*
X131101D01*
X131495Y-69685D01*
Y-70079D01*
X131101Y-70472D01*
X130314D01*
X129920Y-70079D01*
X132282Y-70472D02*
X133069D01*
X132676D01*
Y-68111D01*
X132282Y-68505D01*
X124409Y-31890D02*
Y-30316D01*
X124015Y-29922D01*
X123228D01*
X122835Y-30316D01*
Y-31890D01*
X123228Y-32283D01*
X124015D01*
X123622Y-31496D02*
X124409Y-32283D01*
X124015D02*
X124409Y-31890D01*
X125196Y-32283D02*
X125983D01*
X125590D01*
Y-29922D01*
X125196Y-30316D01*
X127164D02*
X127558Y-29922D01*
X128345D01*
X128738Y-30316D01*
Y-31890D01*
X128345Y-32283D01*
X127558D01*
X127164Y-31890D01*
Y-30316D01*
X26377Y-12993D02*
X25984Y-12599D01*
X25197D01*
X24803Y-12993D01*
Y-14567D01*
X25197Y-14961D01*
X25984D01*
X26377Y-14567D01*
X27165Y-14961D02*
Y-12599D01*
X28739Y-14961D01*
Y-12599D01*
X31100Y-14961D02*
X29526D01*
X31100Y-13386D01*
Y-12993D01*
X30707Y-12599D01*
X29920D01*
X29526Y-12993D01*
X147637Y-225984D02*
Y-224410D01*
X147244Y-224016D01*
X146457D01*
X146063Y-224410D01*
Y-225984D01*
X146457Y-226378D01*
X147244D01*
X146850Y-225591D02*
X147637Y-226378D01*
X147244D02*
X147637Y-225984D01*
X149999Y-226378D02*
X148424D01*
X149999Y-224804D01*
Y-224410D01*
X149605Y-224016D01*
X148818D01*
X148424Y-224410D01*
X144488Y-381102D02*
Y-378741D01*
X145669D01*
X146063Y-379134D01*
Y-379922D01*
X145669Y-380315D01*
X144488D01*
X145275D02*
X146063Y-381102D01*
X148424D02*
X146850D01*
X148424Y-379528D01*
Y-379134D01*
X148030Y-378741D01*
X147243D01*
X146850Y-379134D01*
X150785Y-381102D02*
X149211D01*
X150785Y-379528D01*
Y-379134D01*
X150392Y-378741D01*
X149605D01*
X149211Y-379134D01*
X195669Y-522441D02*
Y-520080D01*
X196850D01*
X197244Y-520473D01*
Y-521260D01*
X196850Y-521654D01*
X195669D01*
X199212Y-522441D02*
Y-520080D01*
X198031Y-521260D01*
X199605D01*
X181890Y-522441D02*
Y-520080D01*
X183071D01*
X183464Y-520473D01*
Y-521260D01*
X183071Y-521654D01*
X181890D01*
X184251Y-520473D02*
X184645Y-520080D01*
X185432D01*
X185826Y-520473D01*
Y-520867D01*
X185432Y-521260D01*
X185038D01*
X185432D01*
X185826Y-521654D01*
Y-522047D01*
X185432Y-522441D01*
X184645D01*
X184251Y-522047D01*
X11024Y-522441D02*
Y-520080D01*
X12204D01*
X12598Y-520473D01*
Y-521260D01*
X12204Y-521654D01*
X11024D01*
X14959Y-522441D02*
X13385D01*
X14959Y-520867D01*
Y-520473D01*
X14566Y-520080D01*
X13779D01*
X13385Y-520473D01*
X-2756Y-522441D02*
Y-520080D01*
X-1575D01*
X-1182Y-520473D01*
Y-521260D01*
X-1575Y-521654D01*
X-2756D01*
X-395Y-522441D02*
X393D01*
X-1D01*
Y-520080D01*
X-395Y-520473D01*
X-4331Y-514174D02*
X-4725Y-513780D01*
X-5512D01*
X-5906Y-514174D01*
Y-515748D01*
X-5512Y-516142D01*
X-4725D01*
X-4331Y-515748D01*
X-3544Y-516142D02*
X-2757D01*
X-3150D01*
Y-513780D01*
X-3544Y-514174D01*
X-2Y-513780D02*
X-789Y-514174D01*
X-1576Y-514961D01*
Y-515748D01*
X-1183Y-516142D01*
X-396D01*
X-2Y-515748D01*
Y-515355D01*
X-396Y-514961D01*
X-1576D01*
X-12205Y-500788D02*
X-12599Y-500394D01*
X-13386D01*
X-13780Y-500788D01*
Y-502362D01*
X-13386Y-502756D01*
X-12599D01*
X-12205Y-502362D01*
X-11418Y-502756D02*
X-10631D01*
X-11024D01*
Y-500394D01*
X-11418Y-500788D01*
X-9450Y-500394D02*
X-7876D01*
Y-500788D01*
X-9450Y-502362D01*
Y-502756D01*
X180315Y-513780D02*
X179921Y-513387D01*
X179134D01*
X178740Y-513780D01*
Y-515354D01*
X179134Y-515748D01*
X179921D01*
X180315Y-515354D01*
X181102Y-515748D02*
X181889D01*
X181495D01*
Y-513387D01*
X181102Y-513780D01*
X183070Y-515354D02*
X183463Y-515748D01*
X184250D01*
X184644Y-515354D01*
Y-513780D01*
X184250Y-513387D01*
X183463D01*
X183070Y-513780D01*
Y-514174D01*
X183463Y-514567D01*
X184644D01*
X172834Y-500788D02*
X172441Y-500394D01*
X171653D01*
X171260Y-500788D01*
Y-502362D01*
X171653Y-502756D01*
X172441D01*
X172834Y-502362D01*
X175196Y-502756D02*
X173621D01*
X175196Y-501182D01*
Y-500788D01*
X174802Y-500394D01*
X174015D01*
X173621Y-500788D01*
X175983D02*
X176376Y-500394D01*
X177163D01*
X177557Y-500788D01*
Y-502362D01*
X177163Y-502756D01*
X176376D01*
X175983Y-502362D01*
Y-500788D01*
X196850Y-508662D02*
Y-510630D01*
X197244Y-511024D01*
X198031D01*
X198425Y-510630D01*
Y-508662D01*
X200786D02*
X199212D01*
Y-509843D01*
X199999Y-509449D01*
X200393D01*
X200786Y-509843D01*
Y-510630D01*
X200393Y-511024D01*
X199605D01*
X199212Y-510630D01*
X11417Y-509056D02*
Y-511024D01*
X11811Y-511417D01*
X12598D01*
X12992Y-511024D01*
Y-509056D01*
X14960Y-511417D02*
Y-509056D01*
X13779Y-510237D01*
X15353D01*
X190157Y-370079D02*
Y-367717D01*
X191338D01*
X191732Y-368111D01*
Y-368898D01*
X191338Y-369292D01*
X190157D01*
X190945D02*
X191732Y-370079D01*
X192519D02*
X193306D01*
X192912D01*
Y-367717D01*
X192519Y-368111D01*
X194487D02*
X194880Y-367717D01*
X195668D01*
X196061Y-368111D01*
Y-368504D01*
X195668Y-368898D01*
X195274D01*
X195668D01*
X196061Y-369292D01*
Y-369685D01*
X195668Y-370079D01*
X194880D01*
X194487Y-369685D01*
X190157Y-348425D02*
Y-346064D01*
X191338D01*
X191732Y-346457D01*
Y-347245D01*
X191338Y-347638D01*
X190157D01*
X190945D02*
X191732Y-348425D01*
X193700D02*
Y-346064D01*
X192519Y-347245D01*
X194093D01*
X198819Y-367324D02*
Y-369685D01*
X200000D01*
X200393Y-369291D01*
Y-367717D01*
X200000Y-367324D01*
X198819D01*
X202361Y-369685D02*
Y-367324D01*
X201180Y-368504D01*
X202755D01*
X199213Y-345670D02*
Y-348031D01*
X200393D01*
X200787Y-347638D01*
Y-346064D01*
X200393Y-345670D01*
X199213D01*
X201574Y-348031D02*
X202361D01*
X201968D01*
Y-345670D01*
X201574Y-346064D01*
X176772Y-134252D02*
Y-131890D01*
X177952D01*
X178346Y-132284D01*
Y-133071D01*
X177952Y-133465D01*
X176772D01*
X177559D02*
X178346Y-134252D01*
X179133Y-133858D02*
X179527Y-134252D01*
X180314D01*
X180707Y-133858D01*
Y-132284D01*
X180314Y-131890D01*
X179527D01*
X179133Y-132284D01*
Y-132678D01*
X179527Y-133071D01*
X180707D01*
X149213Y-142127D02*
Y-144095D01*
X149606Y-144488D01*
X150393D01*
X150787Y-144095D01*
Y-142127D01*
X153148Y-144488D02*
X151574D01*
X153148Y-142914D01*
Y-142520D01*
X152755Y-142127D01*
X151968D01*
X151574Y-142520D01*
X141732Y-178347D02*
Y-175985D01*
X142913D01*
X143307Y-176379D01*
Y-177166D01*
X142913Y-177559D01*
X141732D01*
X142519D02*
X143307Y-178347D01*
X144094D02*
X144881D01*
X144487D01*
Y-175985D01*
X144094Y-176379D01*
X147636Y-175985D02*
X146849Y-176379D01*
X146062Y-177166D01*
Y-177953D01*
X146455Y-178347D01*
X147242D01*
X147636Y-177953D01*
Y-177559D01*
X147242Y-177166D01*
X146062D01*
X149606Y-125984D02*
X147245D01*
Y-124803D01*
X147638Y-124410D01*
X148426D01*
X148819Y-124803D01*
Y-125984D01*
Y-125197D02*
X149606Y-124410D01*
Y-123623D02*
Y-122836D01*
Y-123229D01*
X147245D01*
X147638Y-123623D01*
X147245Y-120081D02*
Y-121655D01*
X148426D01*
X148032Y-120868D01*
Y-120474D01*
X148426Y-120081D01*
X149213D01*
X149606Y-120474D01*
Y-121261D01*
X149213Y-121655D01*
X167618Y-95276D02*
Y-92914D01*
X168799D01*
X169192Y-93308D01*
Y-94095D01*
X168799Y-94488D01*
X167618D01*
X168405D02*
X169192Y-95276D01*
X169980D02*
X170767D01*
X170373D01*
Y-92914D01*
X169980Y-93308D01*
X173128Y-95276D02*
Y-92914D01*
X171947Y-94095D01*
X173522D01*
X173622Y-125984D02*
X171261D01*
Y-124803D01*
X171654Y-124410D01*
X172441D01*
X172835Y-124803D01*
Y-125984D01*
Y-125197D02*
X173622Y-124410D01*
Y-123623D02*
Y-122836D01*
Y-123229D01*
X171261D01*
X171654Y-123623D01*
X173622Y-120081D02*
Y-121655D01*
X172048Y-120081D01*
X171654D01*
X171261Y-120474D01*
Y-121261D01*
X171654Y-121655D01*
X149606Y-115354D02*
X147245D01*
Y-114174D01*
X147638Y-113780D01*
X148426D01*
X148819Y-114174D01*
Y-115354D01*
Y-114567D02*
X149606Y-113780D01*
Y-112993D02*
Y-112206D01*
Y-112599D01*
X147245D01*
X147638Y-112993D01*
X149606Y-111025D02*
Y-110238D01*
Y-110632D01*
X147245D01*
X147638Y-111025D01*
X173228Y-136614D02*
X170867D01*
Y-135433D01*
X171260Y-135040D01*
X172048D01*
X172441Y-135433D01*
Y-136614D01*
Y-135827D02*
X173228Y-135040D01*
Y-134253D02*
Y-133466D01*
Y-133859D01*
X170867D01*
X171260Y-134253D01*
Y-132285D02*
X170867Y-131891D01*
Y-131104D01*
X171260Y-130711D01*
X172835D01*
X173228Y-131104D01*
Y-131891D01*
X172835Y-132285D01*
X171260D01*
X183071Y-77953D02*
Y-80315D01*
X184645D01*
X187007D02*
X185432D01*
X187007Y-78741D01*
Y-78347D01*
X186613Y-77953D01*
X185826D01*
X185432Y-78347D01*
X210630Y-142914D02*
Y-145276D01*
X211811D01*
X212204Y-144882D01*
Y-143308D01*
X211811Y-142914D01*
X210630D01*
X214566D02*
X212991D01*
Y-144095D01*
X213778Y-143701D01*
X214172D01*
X214566Y-144095D01*
Y-144882D01*
X214172Y-145276D01*
X213385D01*
X212991Y-144882D01*
X151574Y-167717D02*
X151181Y-167324D01*
X150394D01*
X150000Y-167717D01*
Y-169291D01*
X150394Y-169685D01*
X151181D01*
X151574Y-169291D01*
X152361Y-169685D02*
X153149D01*
X152755D01*
Y-167324D01*
X152361Y-167717D01*
X154329Y-169685D02*
X155116D01*
X154723D01*
Y-167324D01*
X154329Y-167717D01*
X166535Y-172835D02*
X166141Y-172442D01*
X165354D01*
X164961Y-172835D01*
Y-174410D01*
X165354Y-174803D01*
X166141D01*
X166535Y-174410D01*
X167322Y-174803D02*
X168109D01*
X167716D01*
Y-172442D01*
X167322Y-172835D01*
X169290D02*
X169684Y-172442D01*
X170471D01*
X170864Y-172835D01*
Y-174410D01*
X170471Y-174803D01*
X169684D01*
X169290Y-174410D01*
Y-172835D01*
X167322Y-159843D02*
X166929Y-159450D01*
X166142D01*
X165748Y-159843D01*
Y-161417D01*
X166142Y-161811D01*
X166929D01*
X167322Y-161417D01*
X168110D02*
X168503Y-161811D01*
X169290D01*
X169684Y-161417D01*
Y-159843D01*
X169290Y-159450D01*
X168503D01*
X168110Y-159843D01*
Y-160237D01*
X168503Y-160630D01*
X169684D01*
X157087Y-114567D02*
X156694Y-114961D01*
Y-115748D01*
X157087Y-116142D01*
X158662D01*
X159055Y-115748D01*
Y-114961D01*
X158662Y-114567D01*
X157087Y-113780D02*
X156694Y-113387D01*
Y-112600D01*
X157087Y-112206D01*
X157481D01*
X157874Y-112600D01*
X158268Y-112206D01*
X158662D01*
X159055Y-112600D01*
Y-113387D01*
X158662Y-113780D01*
X158268D01*
X157874Y-113387D01*
X157481Y-113780D01*
X157087D01*
X157874Y-113387D02*
Y-112600D01*
X212598Y-64961D02*
X212204Y-64568D01*
X211417D01*
X211024Y-64961D01*
Y-66536D01*
X211417Y-66929D01*
X212204D01*
X212598Y-66536D01*
X213385Y-64568D02*
X214959D01*
Y-64961D01*
X213385Y-66536D01*
Y-66929D01*
X172441Y-229528D02*
Y-227166D01*
X173622D01*
X174015Y-227560D01*
Y-228347D01*
X173622Y-228740D01*
X172441D01*
X173228D02*
X174015Y-229528D01*
X176377Y-227166D02*
X174802D01*
Y-228347D01*
X175590Y-227953D01*
X175983D01*
X176377Y-228347D01*
Y-229134D01*
X175983Y-229528D01*
X175196D01*
X174802Y-229134D01*
X149213Y-288583D02*
Y-286221D01*
X150393D01*
X150787Y-286615D01*
Y-287402D01*
X150393Y-287795D01*
X149213D01*
X150000D02*
X150787Y-288583D01*
X151574Y-286221D02*
X153148D01*
Y-286615D01*
X151574Y-288189D01*
Y-288583D01*
X148819Y-244094D02*
X146458D01*
Y-242914D01*
X146851Y-242520D01*
X147638D01*
X148032Y-242914D01*
Y-244094D01*
Y-243307D02*
X148819Y-242520D01*
Y-240159D02*
Y-241733D01*
X147245Y-240159D01*
X146851D01*
X146458Y-240552D01*
Y-241339D01*
X146851Y-241733D01*
X146456Y-97244D02*
Y-95670D01*
X146063Y-95276D01*
X145275D01*
X144882Y-95670D01*
Y-97244D01*
X145275Y-97638D01*
X146063D01*
X145669Y-96851D02*
X146456Y-97638D01*
X146063D02*
X146456Y-97244D01*
X148424Y-97638D02*
Y-95276D01*
X147243Y-96457D01*
X148818D01*
X161811Y-233858D02*
Y-232284D01*
X161417Y-231891D01*
X160630D01*
X160236Y-232284D01*
Y-233858D01*
X160630Y-234252D01*
X161417D01*
X161023Y-233465D02*
X161811Y-234252D01*
X161417D02*
X161811Y-233858D01*
X162598Y-234252D02*
X163385D01*
X162991D01*
Y-231891D01*
X162598Y-232284D01*
X142913Y-304725D02*
X142519Y-304331D01*
X141732D01*
X141339Y-304725D01*
Y-306299D01*
X141732Y-306693D01*
X142519D01*
X142913Y-306299D01*
X145274Y-304331D02*
X144487Y-304725D01*
X143700Y-305512D01*
Y-306299D01*
X144094Y-306693D01*
X144881D01*
X145274Y-306299D01*
Y-305906D01*
X144881Y-305512D01*
X143700D01*
X171260Y-282284D02*
X170867Y-282678D01*
Y-283465D01*
X171260Y-283858D01*
X172835D01*
X173228Y-283465D01*
Y-282678D01*
X172835Y-282284D01*
X173228Y-280316D02*
X170867D01*
X172048Y-281497D01*
Y-279923D01*
X158661Y-304725D02*
X158267Y-304331D01*
X157480D01*
X157087Y-304725D01*
Y-306299D01*
X157480Y-306693D01*
X158267D01*
X158661Y-306299D01*
X161022Y-304331D02*
X159448D01*
Y-305512D01*
X160235Y-305119D01*
X160629D01*
X161022Y-305512D01*
Y-306299D01*
X160629Y-306693D01*
X159842D01*
X159448Y-306299D01*
X195669Y-240552D02*
X195275Y-240158D01*
X194488D01*
X194095Y-240552D01*
Y-242126D01*
X194488Y-242520D01*
X195275D01*
X195669Y-242126D01*
X196456Y-240552D02*
X196850Y-240158D01*
X197637D01*
X198030Y-240552D01*
Y-240945D01*
X197637Y-241339D01*
X197243D01*
X197637D01*
X198030Y-241733D01*
Y-242126D01*
X197637Y-242520D01*
X196850D01*
X196456Y-242126D01*
X212204Y-164961D02*
X211811Y-164568D01*
X211023D01*
X210630Y-164961D01*
Y-166536D01*
X211023Y-166929D01*
X211811D01*
X212204Y-166536D01*
X214566Y-166929D02*
X212991D01*
X214566Y-165355D01*
Y-164961D01*
X214172Y-164568D01*
X213385D01*
X212991Y-164961D01*
X208661Y-215355D02*
Y-217717D01*
X209842D01*
X210236Y-217323D01*
Y-215749D01*
X209842Y-215355D01*
X208661D01*
X212597Y-217717D02*
X211023D01*
X212597Y-216142D01*
Y-215749D01*
X212204Y-215355D01*
X211416D01*
X211023Y-215749D01*
X170079Y-222048D02*
Y-224410D01*
X171653D01*
X172440D02*
X173227D01*
X172834D01*
Y-222048D01*
X172440Y-222442D01*
X192913Y-282678D02*
X192519Y-282284D01*
X191732D01*
X191339Y-282678D01*
Y-283071D01*
X191732Y-283465D01*
X192519D01*
X192913Y-283858D01*
Y-284252D01*
X192519Y-284646D01*
X191732D01*
X191339Y-284252D01*
X193700Y-282284D02*
Y-284646D01*
X194487Y-283858D01*
X195274Y-284646D01*
Y-282284D01*
X196062Y-284646D02*
X196849D01*
X196455D01*
Y-282284D01*
X196062Y-282678D01*
X173228Y-269291D02*
X170867D01*
Y-268111D01*
X171260Y-267717D01*
X172048D01*
X172441Y-268111D01*
Y-269291D01*
Y-268504D02*
X173228Y-267717D01*
Y-266930D02*
Y-266143D01*
Y-266536D01*
X170867D01*
X171260Y-266930D01*
X142520Y-251969D02*
X140158D01*
Y-250788D01*
X140552Y-250394D01*
X141339D01*
X141733Y-250788D01*
Y-251969D01*
Y-251181D02*
X142520Y-250394D01*
X140158Y-248033D02*
X140552Y-248820D01*
X141339Y-249607D01*
X142126D01*
X142520Y-249214D01*
Y-248426D01*
X142126Y-248033D01*
X141733D01*
X141339Y-248426D01*
Y-249607D01*
X170866Y-256693D02*
Y-254331D01*
X172047D01*
X172440Y-254725D01*
Y-255512D01*
X172047Y-255906D01*
X170866D01*
X171653D02*
X172440Y-256693D01*
X173228Y-254725D02*
X173621Y-254331D01*
X174408D01*
X174802Y-254725D01*
Y-255119D01*
X174408Y-255512D01*
X174015D01*
X174408D01*
X174802Y-255906D01*
Y-256299D01*
X174408Y-256693D01*
X173621D01*
X173228Y-256299D01*
X149606Y-268111D02*
Y-270079D01*
X150000Y-270472D01*
X150787D01*
X151181Y-270079D01*
Y-268111D01*
X151968Y-270472D02*
X152755D01*
X152361D01*
Y-268111D01*
X151968Y-268505D01*
X212204Y-265749D02*
X211811Y-265355D01*
X211023D01*
X210630Y-265749D01*
Y-267323D01*
X211023Y-267717D01*
X211811D01*
X212204Y-267323D01*
X212991Y-267717D02*
X213778D01*
X213385D01*
Y-265355D01*
X212991Y-265749D01*
X-17717Y-86221D02*
Y-88583D01*
X-16536D01*
X-16142Y-88189D01*
Y-87796D01*
X-16536Y-87402D01*
X-17717D01*
X-16536D01*
X-16142Y-87008D01*
Y-86615D01*
X-16536Y-86221D01*
X-17717D01*
X-15355D02*
X-13781D01*
X-14568D01*
Y-88583D01*
X-12994D02*
X-12207D01*
X-12600D01*
Y-86221D01*
X-12994Y-86615D01*
X151576Y-339371D02*
X151182Y-339764D01*
Y-340551D01*
X151576Y-340945D01*
X153150D01*
X153543Y-340551D01*
Y-339764D01*
X153150Y-339371D01*
X153543Y-338583D02*
Y-337796D01*
Y-338190D01*
X151182D01*
X151576Y-338583D01*
X153543Y-335041D02*
Y-336616D01*
X151969Y-335041D01*
X151576D01*
X151182Y-335435D01*
Y-336222D01*
X151576Y-336616D01*
X164960Y-378741D02*
X164567Y-378347D01*
X163779D01*
X163386Y-378741D01*
Y-380315D01*
X163779Y-380709D01*
X164567D01*
X164960Y-380315D01*
X165747Y-380709D02*
X166534D01*
X166141D01*
Y-378347D01*
X165747Y-378741D01*
X167715D02*
X168109Y-378347D01*
X168896D01*
X169289Y-378741D01*
Y-379134D01*
X168896Y-379528D01*
X168502D01*
X168896D01*
X169289Y-379922D01*
Y-380315D01*
X168896Y-380709D01*
X168109D01*
X167715Y-380315D01*
X157086Y-397245D02*
X156693Y-396851D01*
X155905D01*
X155512Y-397245D01*
Y-398819D01*
X155905Y-399213D01*
X156693D01*
X157086Y-398819D01*
X157873Y-399213D02*
X158660D01*
X158267D01*
Y-396851D01*
X157873Y-397245D01*
X161022Y-399213D02*
Y-396851D01*
X159841Y-398032D01*
X161415D01*
X148032Y-399213D02*
X146457D01*
X146064Y-399607D01*
Y-400394D01*
X146457Y-400787D01*
X148032D01*
X148425Y-400394D01*
Y-399607D01*
X147638Y-400000D02*
X148425Y-399213D01*
Y-399607D02*
X148032Y-399213D01*
X146064Y-396852D02*
Y-398426D01*
X147245D01*
X146851Y-397639D01*
Y-397245D01*
X147245Y-396852D01*
X148032D01*
X148425Y-397245D01*
Y-398032D01*
X148032Y-398426D01*
X153937Y-354724D02*
X151576D01*
Y-353544D01*
X151969Y-353150D01*
X152756D01*
X153150Y-353544D01*
Y-354724D01*
Y-353937D02*
X153937Y-353150D01*
Y-352363D02*
Y-351576D01*
Y-351969D01*
X151576D01*
X151969Y-352363D01*
X151576Y-350395D02*
Y-348821D01*
X151969D01*
X153543Y-350395D01*
X153937D01*
X155512Y-373228D02*
Y-370867D01*
X156693D01*
X157086Y-371260D01*
Y-372048D01*
X156693Y-372441D01*
X155512D01*
X156299D02*
X157086Y-373228D01*
X157873D02*
X158660D01*
X158267D01*
Y-370867D01*
X157873Y-371260D01*
X159841D02*
X160235Y-370867D01*
X161022D01*
X161415Y-371260D01*
Y-371654D01*
X161022Y-372048D01*
X161415Y-372441D01*
Y-372835D01*
X161022Y-373228D01*
X160235D01*
X159841Y-372835D01*
Y-372441D01*
X160235Y-372048D01*
X159841Y-371654D01*
Y-371260D01*
X160235Y-372048D02*
X161022D01*
X171260Y-399213D02*
Y-396851D01*
X172441D01*
X172834Y-397245D01*
Y-398032D01*
X172441Y-398426D01*
X171260D01*
X172047D02*
X172834Y-399213D01*
X173621D02*
X174408D01*
X174015D01*
Y-396851D01*
X173621Y-397245D01*
X175589Y-398819D02*
X175983Y-399213D01*
X176770D01*
X177163Y-398819D01*
Y-397245D01*
X176770Y-396851D01*
X175983D01*
X175589Y-397245D01*
Y-397638D01*
X175983Y-398032D01*
X177163D01*
X179134Y-380709D02*
Y-378347D01*
X180315D01*
X180708Y-378741D01*
Y-379528D01*
X180315Y-379922D01*
X179134D01*
X179921D02*
X180708Y-380709D01*
X183070D02*
X181495D01*
X183070Y-379134D01*
Y-378741D01*
X182676Y-378347D01*
X181889D01*
X181495Y-378741D01*
X183857D02*
X184250Y-378347D01*
X185038D01*
X185431Y-378741D01*
Y-380315D01*
X185038Y-380709D01*
X184250D01*
X183857Y-380315D01*
Y-378741D01*
X140945Y-354724D02*
Y-352363D01*
X142126D01*
X142519Y-352757D01*
Y-353544D01*
X142126Y-353937D01*
X140945D01*
X141732D02*
X142519Y-354724D01*
X144881D02*
X143306D01*
X144881Y-353150D01*
Y-352757D01*
X144487Y-352363D01*
X143700D01*
X143306Y-352757D01*
X145668Y-354724D02*
X146455D01*
X146061D01*
Y-352363D01*
X145668Y-352757D01*
X175591Y-375590D02*
X177559D01*
X177953Y-375197D01*
Y-374410D01*
X177559Y-374016D01*
X175591D01*
X175985Y-373229D02*
X175591Y-372835D01*
Y-372048D01*
X175985Y-371655D01*
X176379D01*
X176772Y-372048D01*
Y-372442D01*
Y-372048D01*
X177166Y-371655D01*
X177559D01*
X177953Y-372048D01*
Y-372835D01*
X177559Y-373229D01*
X16141Y-499607D02*
X15748Y-499213D01*
X14961D01*
X14567Y-499607D01*
Y-501181D01*
X14961Y-501575D01*
X15748D01*
X16141Y-501181D01*
X16928Y-501575D02*
X17716D01*
X17322D01*
Y-499213D01*
X16928Y-499607D01*
X18896D02*
X19290Y-499213D01*
X20077D01*
X20470Y-499607D01*
Y-500000D01*
X20077Y-500394D01*
X20470Y-500788D01*
Y-501181D01*
X20077Y-501575D01*
X19290D01*
X18896Y-501181D01*
Y-500788D01*
X19290Y-500394D01*
X18896Y-500000D01*
Y-499607D01*
X19290Y-500394D02*
X20077D01*
X198819Y-388977D02*
Y-391339D01*
X200000D01*
X200393Y-390945D01*
Y-389371D01*
X200000Y-388977D01*
X198819D01*
X201180Y-389371D02*
X201574Y-388977D01*
X202361D01*
X202755Y-389371D01*
Y-389764D01*
X202361Y-390158D01*
X201968D01*
X202361D01*
X202755Y-390551D01*
Y-390945D01*
X202361Y-391339D01*
X201574D01*
X201180Y-390945D01*
X190945Y-391732D02*
Y-389371D01*
X192126D01*
X192519Y-389764D01*
Y-390552D01*
X192126Y-390945D01*
X190945D01*
X191732D02*
X192519Y-391732D01*
X193306Y-389764D02*
X193700Y-389371D01*
X194487D01*
X194881Y-389764D01*
Y-390158D01*
X194487Y-390552D01*
X194881Y-390945D01*
Y-391339D01*
X194487Y-391732D01*
X193700D01*
X193306Y-391339D01*
Y-390945D01*
X193700Y-390552D01*
X193306Y-390158D01*
Y-389764D01*
X193700Y-390552D02*
X194487D01*
X204724Y-499213D02*
X204330Y-498820D01*
X203543D01*
X203150Y-499213D01*
Y-500787D01*
X203543Y-501181D01*
X204330D01*
X204724Y-500787D01*
X205511Y-501181D02*
X206298D01*
X205905D01*
Y-498820D01*
X205511Y-499213D01*
X209053Y-498820D02*
X207479D01*
Y-500000D01*
X208266Y-499607D01*
X208660D01*
X209053Y-500000D01*
Y-500787D01*
X208660Y-501181D01*
X207873D01*
X207479Y-500787D01*
X-394Y-62599D02*
Y-61024D01*
X-788Y-60631D01*
X-1575D01*
X-1969Y-61024D01*
Y-62599D01*
X-1575Y-62992D01*
X-788D01*
X-1181Y-62205D02*
X-394Y-62992D01*
X-788D02*
X-394Y-62599D01*
X393Y-60631D02*
X1967D01*
Y-61024D01*
X393Y-62599D01*
Y-62992D01*
X15747Y-62599D02*
Y-61024D01*
X15354Y-60631D01*
X14567D01*
X14173Y-61024D01*
Y-62599D01*
X14567Y-62992D01*
X15354D01*
X14960Y-62205D02*
X15747Y-62992D01*
X15354D02*
X15747Y-62599D01*
X18109Y-60631D02*
X17322Y-61024D01*
X16535Y-61811D01*
Y-62599D01*
X16928Y-62992D01*
X17715D01*
X18109Y-62599D01*
Y-62205D01*
X17715Y-61811D01*
X16535D01*
X171653Y28740D02*
X169292D01*
Y29921D01*
X169686Y30314D01*
X170473D01*
X170866Y29921D01*
Y28740D01*
Y29527D02*
X171653Y30314D01*
Y32676D02*
Y31102D01*
X170079Y32676D01*
X169686D01*
X169292Y32282D01*
Y31495D01*
X169686Y31102D01*
X171653Y34644D02*
X169292D01*
X170473Y33463D01*
Y35037D01*
X200000Y-666142D02*
X197639D01*
Y-664961D01*
X198032Y-664567D01*
X198819D01*
X199213Y-664961D01*
Y-666142D01*
Y-665355D02*
X200000Y-664567D01*
Y-662206D02*
Y-663780D01*
X198426Y-662206D01*
X198032D01*
X197639Y-662600D01*
Y-663387D01*
X198032Y-663780D01*
Y-661419D02*
X197639Y-661025D01*
Y-660238D01*
X198032Y-659845D01*
X198426D01*
X198819Y-660238D01*
Y-660632D01*
Y-660238D01*
X199213Y-659845D01*
X199606D01*
X200000Y-660238D01*
Y-661025D01*
X199606Y-661419D01*
X-13386Y-47244D02*
X-15747D01*
Y-46063D01*
X-15354Y-45670D01*
X-14567D01*
X-14173Y-46063D01*
Y-47244D01*
Y-46457D02*
X-13386Y-45670D01*
Y-43308D02*
Y-44883D01*
X-14960Y-43308D01*
X-15354D01*
X-15747Y-43702D01*
Y-44489D01*
X-15354Y-44883D01*
X-15747Y-40947D02*
X-15354Y-41734D01*
X-14567Y-42521D01*
X-13779D01*
X-13386Y-42128D01*
Y-41341D01*
X-13779Y-40947D01*
X-14173D01*
X-14567Y-41341D01*
Y-42521D01*
X20866Y-47244D02*
X18505D01*
Y-46063D01*
X18898Y-45670D01*
X19685D01*
X20079Y-46063D01*
Y-47244D01*
Y-46457D02*
X20866Y-45670D01*
Y-43308D02*
Y-44883D01*
X19292Y-43308D01*
X18898D01*
X18505Y-43702D01*
Y-44489D01*
X18898Y-44883D01*
X18505Y-40947D02*
Y-42521D01*
X19685D01*
X19292Y-41734D01*
Y-41341D01*
X19685Y-40947D01*
X20473D01*
X20866Y-41341D01*
Y-42128D01*
X20473Y-42521D01*
X187795Y38976D02*
Y36614D01*
X188976D01*
X189370Y37008D01*
Y38582D01*
X188976Y38976D01*
X187795D01*
X190157Y36614D02*
X190944D01*
X190550D01*
Y38976D01*
X190157Y38582D01*
X192125D02*
X192518Y38976D01*
X193305D01*
X193699Y38582D01*
Y37008D01*
X193305Y36614D01*
X192518D01*
X192125Y37008D01*
Y38582D01*
X2362Y38976D02*
Y36614D01*
X3543D01*
X3937Y37008D01*
Y38582D01*
X3543Y38976D01*
X2362D01*
X4724Y36614D02*
X5511D01*
X5117D01*
Y38976D01*
X4724Y38582D01*
X6691Y36614D02*
X7479D01*
X7085D01*
Y38976D01*
X6691Y38582D01*
X180316Y-350394D02*
X179922Y-350788D01*
Y-351575D01*
X180316Y-351969D01*
X180709D01*
X181103Y-351575D01*
Y-350788D01*
X181496Y-350394D01*
X181890D01*
X182283Y-350788D01*
Y-351575D01*
X181890Y-351969D01*
X179922Y-349607D02*
X182283D01*
X181496Y-348820D01*
X182283Y-348033D01*
X179922D01*
X182283Y-345671D02*
Y-347246D01*
X180709Y-345671D01*
X180316D01*
X179922Y-346065D01*
Y-346852D01*
X180316Y-347246D01*
X144882Y-45276D02*
X143308D01*
X142914Y-45670D01*
Y-46457D01*
X143308Y-46850D01*
X144882D01*
X145276Y-46457D01*
Y-45670D01*
X144488Y-46063D02*
X145276Y-45276D01*
Y-45670D02*
X144882Y-45276D01*
X145276Y-44489D02*
Y-43702D01*
Y-44095D01*
X142914D01*
X143308Y-44489D01*
X145276Y-40947D02*
Y-42521D01*
X143701Y-40947D01*
X143308D01*
X142914Y-41340D01*
Y-42127D01*
X143308Y-42521D01*
X175984Y-33858D02*
Y-32284D01*
X175590Y-31890D01*
X174803D01*
X174409Y-32284D01*
Y-33858D01*
X174803Y-34252D01*
X175590D01*
X175197Y-33465D02*
X175984Y-34252D01*
X175590D02*
X175984Y-33858D01*
X176771Y-34252D02*
X177558D01*
X177164D01*
Y-31890D01*
X176771Y-32284D01*
X179920Y-34252D02*
Y-31890D01*
X178739Y-33071D01*
X180313D01*
X163779Y-67323D02*
Y-64961D01*
X164960D01*
X165354Y-65355D01*
Y-66142D01*
X164960Y-66536D01*
X163779D01*
X164567D02*
X165354Y-67323D01*
X166141Y-65355D02*
X166534Y-64961D01*
X167322D01*
X167715Y-65355D01*
Y-65749D01*
X167322Y-66142D01*
X166928D01*
X167322D01*
X167715Y-66536D01*
Y-66929D01*
X167322Y-67323D01*
X166534D01*
X166141Y-66929D01*
X168502Y-65355D02*
X168896Y-64961D01*
X169683D01*
X170077Y-65355D01*
Y-65749D01*
X169683Y-66142D01*
X169290D01*
X169683D01*
X170077Y-66536D01*
Y-66929D01*
X169683Y-67323D01*
X168896D01*
X168502Y-66929D01*
X164173Y-60236D02*
Y-57875D01*
X165354D01*
X165747Y-58268D01*
Y-59056D01*
X165354Y-59449D01*
X164173D01*
X164960D02*
X165747Y-60236D01*
X166535Y-58268D02*
X166928Y-57875D01*
X167715D01*
X168109Y-58268D01*
Y-58662D01*
X167715Y-59056D01*
X167322D01*
X167715D01*
X168109Y-59449D01*
Y-59843D01*
X167715Y-60236D01*
X166928D01*
X166535Y-59843D01*
X170077Y-60236D02*
Y-57875D01*
X168896Y-59056D01*
X170470D01*
X174016Y-52756D02*
X171654D01*
Y-51575D01*
X172048Y-51182D01*
X172835D01*
X173229Y-51575D01*
Y-52756D01*
Y-51969D02*
X174016Y-51182D01*
X172048Y-50394D02*
X171654Y-50001D01*
Y-49214D01*
X172048Y-48820D01*
X172441D01*
X172835Y-49214D01*
Y-49607D01*
Y-49214D01*
X173229Y-48820D01*
X173622D01*
X174016Y-49214D01*
Y-50001D01*
X173622Y-50394D01*
X171654Y-46459D02*
Y-48033D01*
X172835D01*
X172441Y-47246D01*
Y-46852D01*
X172835Y-46459D01*
X173622D01*
X174016Y-46852D01*
Y-47640D01*
X173622Y-48033D01*
X172047Y-18898D02*
X169686D01*
Y-17717D01*
X170079Y-17323D01*
X170867D01*
X171260Y-17717D01*
Y-18898D01*
Y-18111D02*
X172047Y-17323D01*
X170079Y-16536D02*
X169686Y-16143D01*
Y-15356D01*
X170079Y-14962D01*
X170473D01*
X170867Y-15356D01*
Y-15749D01*
Y-15356D01*
X171260Y-14962D01*
X171654D01*
X172047Y-15356D01*
Y-16143D01*
X171654Y-16536D01*
X169686Y-12600D02*
X170079Y-13388D01*
X170867Y-14175D01*
X171654D01*
X172047Y-13781D01*
Y-12994D01*
X171654Y-12600D01*
X171260D01*
X170867Y-12994D01*
Y-14175D01*
X141732Y-48426D02*
X140158D01*
X139764Y-48819D01*
Y-49606D01*
X140158Y-50000D01*
X141732D01*
X142126Y-49606D01*
Y-48819D01*
X141339Y-49213D02*
X142126Y-48426D01*
Y-48819D02*
X141732Y-48426D01*
X142126Y-47639D02*
Y-46851D01*
Y-47245D01*
X139764D01*
X140158Y-47639D01*
X142126Y-45671D02*
Y-44884D01*
Y-45277D01*
X139764D01*
X140158Y-45671D01*
X149606Y-48032D02*
X148032D01*
X147639Y-48426D01*
Y-49213D01*
X148032Y-49606D01*
X149606D01*
X150000Y-49213D01*
Y-48426D01*
X149213Y-48819D02*
X150000Y-48032D01*
Y-48426D02*
X149606Y-48032D01*
X150000Y-47245D02*
Y-46458D01*
Y-46851D01*
X147639D01*
X148032Y-47245D01*
Y-45277D02*
X147639Y-44883D01*
Y-44096D01*
X148032Y-43703D01*
X148426D01*
X148819Y-44096D01*
Y-44490D01*
Y-44096D01*
X149213Y-43703D01*
X149606D01*
X150000Y-44096D01*
Y-44883D01*
X149606Y-45277D01*
X171259Y-40945D02*
Y-39371D01*
X170866Y-38977D01*
X170079D01*
X169685Y-39371D01*
Y-40945D01*
X170079Y-41339D01*
X170866D01*
X170472Y-40551D02*
X171259Y-41339D01*
X170866D02*
X171259Y-40945D01*
X172046Y-41339D02*
X172834D01*
X172440D01*
Y-38977D01*
X172046Y-39371D01*
X175589Y-38977D02*
X174014D01*
Y-40158D01*
X174802Y-39764D01*
X175195D01*
X175589Y-40158D01*
Y-40945D01*
X175195Y-41339D01*
X174408D01*
X174014Y-40945D01*
X160236Y-101181D02*
Y-99607D01*
X159842Y-99213D01*
X159055D01*
X158661Y-99607D01*
Y-101181D01*
X159055Y-101575D01*
X159842D01*
X159449Y-100788D02*
X160236Y-101575D01*
X159842D02*
X160236Y-101181D01*
X161023Y-99607D02*
X161416Y-99213D01*
X162204D01*
X162597Y-99607D01*
Y-100001D01*
X162204Y-100394D01*
X161810D01*
X162204D01*
X162597Y-100788D01*
Y-101181D01*
X162204Y-101575D01*
X161416D01*
X161023Y-101181D01*
D76*
X181407Y-311595D02*
D03*
Y-330098D02*
D03*
Y-293091D02*
D03*
M02*
