G04 Layer_Color=8388736*
%FSLAX25Y25*%
%MOIN*%
G70*
G01*
G75*
%ADD76R,0.06312X0.04186*%
%ADD77R,0.05800X0.04800*%
%ADD78R,0.04800X0.05800*%
%ADD79R,0.04343X0.06312*%
%ADD80R,0.07300X0.05800*%
%ADD81R,0.13398X0.10249*%
%ADD82R,0.04934X0.02178*%
%ADD83R,0.06312X0.04343*%
%ADD84R,0.16548X0.06706*%
%ADD85R,0.10642X0.09855*%
%ADD86R,0.03556X0.05524*%
%ADD87R,0.03162X0.08674*%
%ADD88R,0.02454X0.07808*%
%ADD89R,0.07493X0.03950*%
%ADD90R,0.06800X0.04800*%
%ADD91R,0.28359X0.32296*%
%ADD92R,0.01654X0.02520*%
%ADD93R,0.06850X0.04095*%
G04:AMPARAMS|DCode=94|XSize=70.99mil|YSize=86.74mil|CornerRadius=0mil|HoleSize=0mil|Usage=FLASHONLY|Rotation=270.000|XOffset=0mil|YOffset=0mil|HoleType=Round|Shape=Octagon|*
%AMOCTAGOND94*
4,1,8,0.04337,0.01775,0.04337,-0.01775,0.02562,-0.03550,-0.02562,-0.03550,-0.04337,-0.01775,-0.04337,0.01775,-0.02562,0.03550,0.02562,0.03550,0.04337,0.01775,0.0*
%
%ADD94OCTAGOND94*%

G04:AMPARAMS|DCode=95|XSize=86.74mil|YSize=70.99mil|CornerRadius=0mil|HoleSize=0mil|Usage=FLASHONLY|Rotation=270.000|XOffset=0mil|YOffset=0mil|HoleType=Round|Shape=Octagon|*
%AMOCTAGOND95*
4,1,8,-0.01775,-0.04337,0.01775,-0.04337,0.03550,-0.02562,0.03550,0.02562,0.01775,0.04337,-0.01775,0.04337,-0.03550,0.02562,-0.03550,-0.02562,-0.01775,-0.04337,0.0*
%
%ADD95OCTAGOND95*%

%ADD96R,0.07099X0.08674*%
%ADD97C,0.14579*%
%ADD98C,0.12611*%
%ADD99C,0.03950*%
%ADD100P,0.26434X8X292.5*%
%ADD101P,0.07684X8X292.5*%
%ADD102R,0.07099X0.07099*%
%ADD103C,0.00800*%
%ADD104P,0.30696X8X292.5*%
%ADD105C,0.24422*%
%ADD106C,0.14383*%
%ADD107C,0.10249*%
%ADD108C,0.04737*%
D76*
X212205Y43701D02*
D03*
X202756D02*
D03*
X195669D02*
D03*
X186221D02*
D03*
X-15354D02*
D03*
X-5906D02*
D03*
X1181D02*
D03*
X10630D02*
D03*
X-15354Y-677559D02*
D03*
X-5906D02*
D03*
X212205D02*
D03*
X202756D02*
D03*
D77*
X176378Y39433D02*
D03*
Y31433D02*
D03*
X129921Y-64236D02*
D03*
Y-56236D02*
D03*
X137795Y-64236D02*
D03*
Y-56236D02*
D03*
X167323Y-53213D02*
D03*
Y-45213D02*
D03*
X170276Y-99347D02*
D03*
Y-107346D02*
D03*
X166339Y-140811D02*
D03*
Y-132811D02*
D03*
Y-155638D02*
D03*
Y-147638D02*
D03*
X144685Y-164244D02*
D03*
Y-172244D02*
D03*
X152559Y-172307D02*
D03*
Y-164307D02*
D03*
X160433Y-172307D02*
D03*
Y-164307D02*
D03*
X174213Y-233205D02*
D03*
Y-241205D02*
D03*
X166339Y-273559D02*
D03*
Y-281559D02*
D03*
Y-258795D02*
D03*
Y-266795D02*
D03*
X143701Y-300260D02*
D03*
Y-292260D02*
D03*
X151575D02*
D03*
Y-300260D02*
D03*
X159449Y-292260D02*
D03*
Y-300260D02*
D03*
X158465Y-345535D02*
D03*
Y-337535D02*
D03*
Y-352236D02*
D03*
Y-360236D02*
D03*
Y-368110D02*
D03*
Y-376110D02*
D03*
X147638Y-375921D02*
D03*
Y-383921D02*
D03*
X158465Y-384780D02*
D03*
Y-392779D02*
D03*
X166339Y-384780D02*
D03*
Y-392779D02*
D03*
X174213D02*
D03*
Y-384780D02*
D03*
X182087Y-392779D02*
D03*
Y-384780D02*
D03*
X192913Y-360299D02*
D03*
Y-352299D02*
D03*
Y-381953D02*
D03*
Y-373953D02*
D03*
Y-403606D02*
D03*
Y-395606D02*
D03*
X182087Y-509807D02*
D03*
Y-501807D02*
D03*
X174213Y-506630D02*
D03*
Y-514630D02*
D03*
X-2953Y-509807D02*
D03*
Y-501807D02*
D03*
X-10827Y-506595D02*
D03*
Y-514595D02*
D03*
D78*
X-9512Y-44094D02*
D03*
X-1512D02*
D03*
X6630D02*
D03*
X14630D02*
D03*
X159906Y-64567D02*
D03*
X151906D02*
D03*
X159906Y-57874D02*
D03*
X151906D02*
D03*
X166866Y-15748D02*
D03*
X174866D02*
D03*
X162929Y-114173D02*
D03*
X170929D02*
D03*
X152622Y-113189D02*
D03*
X144622D02*
D03*
X152622Y-123031D02*
D03*
X144622D02*
D03*
X159386D02*
D03*
X167386D02*
D03*
X182024Y-239173D02*
D03*
X190024D02*
D03*
X151638Y-242126D02*
D03*
X143638D02*
D03*
X146591Y-250000D02*
D03*
X154591D02*
D03*
X171323D02*
D03*
X163323D02*
D03*
X143638Y-359252D02*
D03*
X151638D02*
D03*
X-6630Y-645669D02*
D03*
X-14630D02*
D03*
X-6693Y-670079D02*
D03*
X-14693D02*
D03*
X211874Y-637795D02*
D03*
X203874D02*
D03*
Y-662992D02*
D03*
X211874D02*
D03*
Y-670472D02*
D03*
X203874D02*
D03*
D79*
X-1969Y-51575D02*
D03*
X-9055D02*
D03*
X-5512Y-61811D02*
D03*
X14173Y-51575D02*
D03*
X7087D02*
D03*
X10630Y-61811D02*
D03*
X151969Y-32283D02*
D03*
X144882D02*
D03*
X148425Y-42520D02*
D03*
X174409Y-23228D02*
D03*
X167323D02*
D03*
X170866Y-33465D02*
D03*
X-10630Y-662992D02*
D03*
X-14173Y-652756D02*
D03*
X-7087D02*
D03*
X207874Y-655512D02*
D03*
X204331Y-645276D02*
D03*
X211417D02*
D03*
D80*
X178740Y-126677D02*
D03*
Y-138677D02*
D03*
D81*
X194882Y-83071D02*
D03*
Y-120472D02*
D03*
X161417Y-181102D02*
D03*
Y-218504D02*
D03*
D82*
X153642Y-43898D02*
D03*
Y-46457D02*
D03*
Y-49016D02*
D03*
X160531Y-43898D02*
D03*
Y-49016D02*
D03*
Y-46457D02*
D03*
X136909Y-50197D02*
D03*
Y-47638D02*
D03*
Y-45079D02*
D03*
X130020Y-50197D02*
D03*
Y-45079D02*
D03*
Y-47638D02*
D03*
X164469Y-38386D02*
D03*
Y-35827D02*
D03*
Y-33268D02*
D03*
X157579Y-38386D02*
D03*
Y-33268D02*
D03*
Y-35827D02*
D03*
X150098Y-103347D02*
D03*
Y-105905D02*
D03*
Y-100787D02*
D03*
X143209Y-105905D02*
D03*
Y-103347D02*
D03*
Y-100787D02*
D03*
X151083Y-232283D02*
D03*
Y-234842D02*
D03*
Y-229724D02*
D03*
X144193Y-234842D02*
D03*
Y-232283D02*
D03*
Y-229724D02*
D03*
D83*
X127953Y-35827D02*
D03*
X138189Y-32283D02*
D03*
Y-39370D02*
D03*
D84*
X179413Y-59842D02*
D03*
X206413D02*
D03*
Y-159843D02*
D03*
X179413D02*
D03*
X206413Y-260827D02*
D03*
X179413D02*
D03*
X206413Y-481102D02*
D03*
X179413D02*
D03*
X17437Y-481299D02*
D03*
X-9563D02*
D03*
D85*
X209213Y-134252D02*
D03*
X189213D02*
D03*
X206850Y-226378D02*
D03*
X186850D02*
D03*
D86*
X160433Y-105905D02*
D03*
X164173D02*
D03*
Y-94882D02*
D03*
X160433D02*
D03*
X156693D02*
D03*
Y-105905D02*
D03*
X161417Y-238779D02*
D03*
X165157D02*
D03*
Y-227756D02*
D03*
X161417D02*
D03*
X157677D02*
D03*
Y-238779D02*
D03*
D87*
X144075Y-154701D02*
D03*
X149075D02*
D03*
X154075D02*
D03*
X159075D02*
D03*
X144075Y-132701D02*
D03*
X149075D02*
D03*
X154075D02*
D03*
X159075D02*
D03*
Y-258685D02*
D03*
X154075D02*
D03*
X149075D02*
D03*
X144075D02*
D03*
X159075Y-280685D02*
D03*
X154075D02*
D03*
X149075D02*
D03*
X144075D02*
D03*
D88*
X173130Y-350394D02*
D03*
X170571D02*
D03*
X168012D02*
D03*
X165453D02*
D03*
X173130Y-374016D02*
D03*
X170571D02*
D03*
X168012D02*
D03*
X165453D02*
D03*
X151476Y-368110D02*
D03*
X148917D02*
D03*
X146358D02*
D03*
X143799D02*
D03*
X151476Y-391732D02*
D03*
X148917D02*
D03*
X146358D02*
D03*
X143799D02*
D03*
D89*
X181102Y-369094D02*
D03*
Y-355315D02*
D03*
D90*
X200787Y-352299D02*
D03*
Y-360299D02*
D03*
Y-373953D02*
D03*
Y-381953D02*
D03*
Y-395606D02*
D03*
Y-403606D02*
D03*
D91*
X23405Y-403543D02*
D03*
Y-84646D02*
D03*
X98642Y-403543D02*
D03*
Y-84646D02*
D03*
D92*
X187992Y-513583D02*
D03*
X189961D02*
D03*
X191929D02*
D03*
X193898D02*
D03*
Y-506102D02*
D03*
X191929D02*
D03*
X189961D02*
D03*
X187992D02*
D03*
X2953D02*
D03*
X4921D02*
D03*
X6890D02*
D03*
X8858D02*
D03*
Y-513583D02*
D03*
X6890D02*
D03*
X4921D02*
D03*
X2953D02*
D03*
D93*
X190945Y-509842D02*
D03*
X5906D02*
D03*
D94*
X128425Y-14567D02*
D03*
X118425D02*
D03*
X78425D02*
D03*
X68425D02*
D03*
X58425D02*
D03*
X48425D02*
D03*
X38425D02*
D03*
X88425D02*
D03*
X98425D02*
D03*
X108425D02*
D03*
X148425D02*
D03*
X138425D02*
D03*
X158425D02*
D03*
D95*
X128425Y-24567D02*
D03*
X118425D02*
D03*
X78425D02*
D03*
X68425D02*
D03*
X58425D02*
D03*
X48425D02*
D03*
X88425D02*
D03*
X98425D02*
D03*
X108425D02*
D03*
X148425D02*
D03*
X138425D02*
D03*
X158425D02*
D03*
D96*
X38425D02*
D03*
D97*
X207677Y-285591D02*
D03*
Y-337598D02*
D03*
D98*
X170158Y-293091D02*
D03*
Y-330098D02*
D03*
Y-311595D02*
D03*
X-1181Y-529528D02*
D03*
X12992D02*
D03*
X183858D02*
D03*
X198031D02*
D03*
D99*
X181102Y-362205D02*
D03*
D100*
X0Y19685D02*
D03*
X196850Y-598425D02*
D03*
X0Y-431102D02*
D03*
Y-598425D02*
D03*
X196850Y-431102D02*
D03*
X0Y-19685D02*
D03*
Y-562992D02*
D03*
X196850D02*
D03*
D101*
X97658Y-62480D02*
D03*
X92658Y-52480D02*
D03*
X87657Y-62480D02*
D03*
X82657Y-52480D02*
D03*
X77658Y-62480D02*
D03*
X72658Y-52480D02*
D03*
X67658Y-62480D02*
D03*
X62657Y-52480D02*
D03*
X37657Y-62480D02*
D03*
X42658Y-52480D02*
D03*
X47657Y-62480D02*
D03*
X52658Y-52480D02*
D03*
X57657Y-62480D02*
D03*
D102*
X32658Y-52480D02*
D03*
D103*
X27146Y-59567D02*
D03*
D104*
X196850Y-194882D02*
D03*
Y19685D02*
D03*
Y-19685D02*
D03*
D105*
X61024Y-352362D02*
D03*
Y-135827D02*
D03*
D106*
X129941Y-352362D02*
D03*
X-7894Y-135827D02*
D03*
D107*
X129941Y-100394D02*
D03*
D108*
X13780Y-505905D02*
D03*
Y-509842D02*
D03*
Y-513779D02*
D03*
X198819D02*
D03*
Y-509842D02*
D03*
Y-505905D02*
D03*
M02*
