G04 Layer_Physical_Order=2*
G04 Layer_Color=16711680*
%FSLAX25Y25*%
%MOIN*%
G70*
G01*
G75*
%ADD10R,0.05512X0.03386*%
%ADD28C,0.07874*%
%ADD30C,0.01575*%
%ADD31C,0.01181*%
%ADD32C,0.01968*%
%ADD33C,0.03937*%
%ADD35C,0.01378*%
%ADD36C,0.04724*%
%ADD42C,0.01000*%
G04:AMPARAMS|DCode=57|XSize=62.99mil|YSize=78.74mil|CornerRadius=0mil|HoleSize=0mil|Usage=FLASHONLY|Rotation=270.000|XOffset=0mil|YOffset=0mil|HoleType=Round|Shape=Octagon|*
%AMOCTAGOND57*
4,1,8,0.03937,0.01575,0.03937,-0.01575,0.02362,-0.03150,-0.02362,-0.03150,-0.03937,-0.01575,-0.03937,0.01575,-0.02362,0.03150,0.02362,0.03150,0.03937,0.01575,0.0*
%
%ADD57OCTAGOND57*%

G04:AMPARAMS|DCode=58|XSize=78.74mil|YSize=62.99mil|CornerRadius=0mil|HoleSize=0mil|Usage=FLASHONLY|Rotation=270.000|XOffset=0mil|YOffset=0mil|HoleType=Round|Shape=Octagon|*
%AMOCTAGOND58*
4,1,8,-0.01575,-0.03937,0.01575,-0.03937,0.03150,-0.02362,0.03150,0.02362,0.01575,0.03937,-0.01575,0.03937,-0.03150,0.02362,-0.03150,-0.02362,-0.01575,-0.03937,0.0*
%
%ADD58OCTAGOND58*%

%ADD59R,0.06299X0.07874*%
%ADD60C,0.13780*%
%ADD61C,0.11811*%
%ADD62C,0.03150*%
%ADD63P,0.25568X8X292.5*%
%ADD64P,0.06818X8X292.5*%
%ADD65R,0.06299X0.06299*%
%ADD66P,0.29830X8X292.5*%
%ADD67C,0.23622*%
%ADD68C,0.13583*%
%ADD69C,0.09449*%
%ADD70C,0.03937*%
G36*
X184816Y-674685D02*
X182283D01*
Y-679134D01*
X14567Y-679134D01*
Y-674685D01*
X13406D01*
X13159Y-674185D01*
X13431Y-673831D01*
X13709Y-673160D01*
X13803Y-672441D01*
X13709Y-671722D01*
X13431Y-671051D01*
X12989Y-670475D01*
X12902Y-670409D01*
X13072Y-669909D01*
X184816D01*
Y-674685D01*
D02*
G37*
G36*
X214567Y-42288D02*
X214067Y-42535D01*
X213988Y-42475D01*
X213318Y-42197D01*
X212598Y-42102D01*
X211879Y-42197D01*
X211209Y-42475D01*
X210633Y-42916D01*
X210566Y-43003D01*
X210066Y-42833D01*
Y-41766D01*
X210627Y-41336D01*
X211069Y-40760D01*
X211346Y-40089D01*
X211441Y-39370D01*
X211346Y-38651D01*
X211069Y-37980D01*
X210627Y-37405D01*
X210051Y-36963D01*
X209381Y-36685D01*
X208661Y-36590D01*
X207942Y-36685D01*
X207272Y-36963D01*
X206696Y-37405D01*
X206254Y-37980D01*
X205977Y-38651D01*
X205882Y-39370D01*
X205977Y-40089D01*
X206254Y-40760D01*
X206696Y-41336D01*
X207257Y-41766D01*
Y-75197D01*
X207363Y-75735D01*
X207668Y-76190D01*
X210603Y-79125D01*
Y-185812D01*
X210141Y-186003D01*
X204240Y-180102D01*
X198031D01*
Y-194882D01*
Y-209661D01*
X204240D01*
X210141Y-203761D01*
X210603Y-203952D01*
Y-260638D01*
X203456Y-267785D01*
X202756Y-267693D01*
X202036Y-267788D01*
X201366Y-268065D01*
X200790Y-268507D01*
X200349Y-269083D01*
X200071Y-269753D01*
X199976Y-270472D01*
X200071Y-271192D01*
X200349Y-271862D01*
X200790Y-272438D01*
X201366Y-272880D01*
X202036Y-273157D01*
X202756Y-273252D01*
X202943Y-273227D01*
X203248Y-273624D01*
X203221Y-273690D01*
X203126Y-274410D01*
X203221Y-275129D01*
X203498Y-275799D01*
X203940Y-276375D01*
X204516Y-276817D01*
X205186Y-277094D01*
X205906Y-277189D01*
X206625Y-277094D01*
X207295Y-276817D01*
X207871Y-276375D01*
X208313Y-275799D01*
X208591Y-275129D01*
X208685Y-274410D01*
X208593Y-273709D01*
X214105Y-268197D01*
X214567Y-268388D01*
Y-280761D01*
X214067Y-280940D01*
X213283Y-279985D01*
X212082Y-278999D01*
X210711Y-278266D01*
X209224Y-277815D01*
X208858Y-277779D01*
Y-285591D01*
Y-293402D01*
X209224Y-293366D01*
X210711Y-292915D01*
X212082Y-292182D01*
X213283Y-291196D01*
X214067Y-290241D01*
X214567Y-290420D01*
Y-332769D01*
X214067Y-332948D01*
X213283Y-331993D01*
X212082Y-331007D01*
X210711Y-330274D01*
X209224Y-329823D01*
X208858Y-329787D01*
Y-337598D01*
Y-345410D01*
X209224Y-345374D01*
X210711Y-344923D01*
X212082Y-344190D01*
X213283Y-343204D01*
X214067Y-342249D01*
X214567Y-342428D01*
X214567Y-649372D01*
X214067Y-649530D01*
X213610Y-649179D01*
Y-458053D01*
X213896Y-457624D01*
X214003Y-457087D01*
X213896Y-456549D01*
X213592Y-456093D01*
X212035Y-454536D01*
Y-451215D01*
X212595Y-450784D01*
X213037Y-450209D01*
X213315Y-449538D01*
X213410Y-448819D01*
X213315Y-448100D01*
X213037Y-447429D01*
X212595Y-446853D01*
X212020Y-446412D01*
X211349Y-446134D01*
X210630Y-446039D01*
X209910Y-446134D01*
X209240Y-446412D01*
X208664Y-446853D01*
X208223Y-447429D01*
X207945Y-448100D01*
X207929Y-448218D01*
X207425D01*
X207409Y-448100D01*
X207132Y-447429D01*
X206690Y-446853D01*
X206114Y-446412D01*
X205444Y-446134D01*
X204724Y-446039D01*
X204005Y-446134D01*
X203335Y-446412D01*
X202759Y-446853D01*
X202317Y-447429D01*
X202040Y-448100D01*
X201945Y-448819D01*
X202040Y-449538D01*
X202317Y-450209D01*
X202759Y-450784D01*
X203320Y-451215D01*
Y-452756D01*
X203426Y-453294D01*
X203731Y-453749D01*
X208831Y-458850D01*
Y-555103D01*
X208369Y-555295D01*
X203256Y-550181D01*
X198031D01*
Y-562992D01*
Y-575803D01*
X203256D01*
X208369Y-570690D01*
X208831Y-570881D01*
Y-590536D01*
X208369Y-590728D01*
X203256Y-585614D01*
X198031D01*
Y-598425D01*
Y-611236D01*
X203256D01*
X208369Y-606123D01*
X208831Y-606314D01*
Y-636032D01*
X191920Y-652944D01*
X191615Y-653399D01*
X191508Y-653937D01*
Y-661024D01*
X191615Y-661561D01*
X191920Y-662017D01*
X194872Y-664969D01*
X194789Y-665412D01*
X194323Y-665565D01*
X182490Y-653731D01*
X182034Y-653426D01*
X181496Y-653320D01*
X10663D01*
X10233Y-652759D01*
X9658Y-652317D01*
X8987Y-652039D01*
X8268Y-651945D01*
X7548Y-652039D01*
X6878Y-652317D01*
X6302Y-652759D01*
X5861Y-653335D01*
X5583Y-654005D01*
X5488Y-654724D01*
X5583Y-655444D01*
X5861Y-656114D01*
X6302Y-656690D01*
X6878Y-657132D01*
X7548Y-657409D01*
X8268Y-657504D01*
X8987Y-657409D01*
X9658Y-657132D01*
X10233Y-656690D01*
X10663Y-656129D01*
X180914D01*
X191422Y-666637D01*
X191230Y-667099D01*
X3677D01*
X3657Y-666388D01*
X3601Y-666139D01*
X3551Y-665888D01*
X3540Y-665872D01*
X3536Y-665854D01*
X3388Y-665645D01*
X3246Y-665433D01*
X-11784Y-650402D01*
Y-606511D01*
X-11322Y-606320D01*
X-6406Y-611236D01*
X-1181D01*
Y-598425D01*
Y-585614D01*
X-6406D01*
X-11322Y-590531D01*
X-11784Y-590339D01*
Y-571078D01*
X-11322Y-570887D01*
X-6406Y-575803D01*
X-1181D01*
Y-562992D01*
Y-550181D01*
X-6406D01*
X-11322Y-555098D01*
X-11784Y-554906D01*
Y-463012D01*
X-6093Y-457321D01*
X-5789Y-456865D01*
X-5682Y-456327D01*
Y-453183D01*
X-5121Y-452753D01*
X-4679Y-452177D01*
X-4402Y-451507D01*
X-4307Y-450787D01*
X-4402Y-450068D01*
X-4679Y-449398D01*
X-5121Y-448822D01*
X-5697Y-448380D01*
X-6367Y-448102D01*
X-7087Y-448008D01*
X-7806Y-448102D01*
X-8062Y-448209D01*
X-8445Y-447826D01*
X-8339Y-447570D01*
X-8244Y-446850D01*
X-8339Y-446131D01*
X-8616Y-445461D01*
X-9058Y-444885D01*
X-9634Y-444443D01*
X-10304Y-444165D01*
X-11024Y-444071D01*
X-11743Y-444165D01*
X-12414Y-444443D01*
X-12989Y-444885D01*
X-13419Y-445445D01*
X-13780D01*
X-14317Y-445552D01*
X-14773Y-445857D01*
X-17255Y-448339D01*
X-17717Y-448147D01*
X-17717Y-402247D01*
X-17255Y-402055D01*
X-2175Y-417135D01*
X-1719Y-417440D01*
X-1181Y-417547D01*
X6898D01*
X13556Y-424204D01*
Y-472835D01*
X13663Y-473372D01*
X13967Y-473828D01*
X23022Y-482883D01*
X23478Y-483188D01*
X24016Y-483295D01*
X87213D01*
X91801Y-487882D01*
X91708Y-488583D01*
X91803Y-489302D01*
X92081Y-489972D01*
X92523Y-490548D01*
X93098Y-490990D01*
X93769Y-491268D01*
X94488Y-491362D01*
X95208Y-491268D01*
X95878Y-490990D01*
X96454Y-490548D01*
X96895Y-489972D01*
X97173Y-489302D01*
X97268Y-488583D01*
X97173Y-487863D01*
X96895Y-487193D01*
X96454Y-486617D01*
X95878Y-486175D01*
X95208Y-485898D01*
X94488Y-485803D01*
X93788Y-485895D01*
X89681Y-481788D01*
X89872Y-481326D01*
X93119D01*
X99675Y-487882D01*
X99582Y-488583D01*
X99677Y-489302D01*
X99955Y-489972D01*
X100397Y-490548D01*
X100972Y-490990D01*
X101643Y-491268D01*
X102362Y-491362D01*
X103082Y-491268D01*
X103752Y-490990D01*
X104328Y-490548D01*
X104770Y-489972D01*
X105047Y-489302D01*
X105142Y-488583D01*
X105047Y-487863D01*
X104770Y-487193D01*
X104328Y-486617D01*
X103752Y-486175D01*
X103082Y-485898D01*
X102362Y-485803D01*
X101662Y-485895D01*
X94694Y-478928D01*
X94238Y-478623D01*
X93701Y-478516D01*
X25413D01*
X18334Y-471437D01*
Y-422441D01*
X18227Y-421903D01*
X17923Y-421448D01*
X9261Y-412786D01*
X8805Y-412481D01*
X8268Y-412375D01*
X582D01*
X-13753Y-398040D01*
Y-158149D01*
X3336Y-141060D01*
X3641Y-140604D01*
X3748Y-140067D01*
Y-131587D01*
X3641Y-131049D01*
X3336Y-130593D01*
X-13753Y-113505D01*
Y-78732D01*
X35688Y-29291D01*
X42362D01*
Y-19842D01*
X35790D01*
X35598Y-19381D01*
X36475Y-18504D01*
X41181D01*
X43004Y-16681D01*
X43402Y-16649D01*
X43571Y-16725D01*
X45563Y-18717D01*
X47244D01*
Y-14567D01*
Y-10417D01*
X45563D01*
X43571Y-12409D01*
X43402Y-12485D01*
X43004Y-12453D01*
X41181Y-10630D01*
X35669D01*
X33701Y-12598D01*
Y-16535D01*
X34085Y-16920D01*
X31684Y-19321D01*
X31379Y-19777D01*
X31272Y-20315D01*
Y-26583D01*
X-17255Y-75110D01*
X-17716Y-74919D01*
Y-58042D01*
X-17255Y-57851D01*
X-13744Y-61361D01*
X-13803Y-61811D01*
X-13709Y-62530D01*
X-13431Y-63201D01*
X-12989Y-63776D01*
X-12414Y-64218D01*
X-11743Y-64496D01*
X-11024Y-64591D01*
X-10304Y-64496D01*
X-9634Y-64218D01*
X-9058Y-63776D01*
X-8616Y-63201D01*
X-8339Y-62530D01*
X-8244Y-61811D01*
X-8339Y-61092D01*
X-8616Y-60421D01*
X-9058Y-59846D01*
X-9634Y-59404D01*
X-10304Y-59126D01*
X-11024Y-59031D01*
X-11473Y-59091D01*
X-15324Y-55240D01*
Y31465D01*
X-8090D01*
X-7898Y31003D01*
X-12811Y26091D01*
Y20866D01*
X-0D01*
X12811D01*
Y26091D01*
X7898Y31003D01*
X8090Y31465D01*
X14296D01*
X15400Y30361D01*
X15400Y30361D01*
X15921Y30013D01*
X16535Y29890D01*
X16535Y29890D01*
X17443D01*
X17719Y29531D01*
X18295Y29089D01*
X18966Y28811D01*
X19685Y28716D01*
X20404Y28811D01*
X21075Y29089D01*
X21651Y29531D01*
X22092Y30106D01*
X22370Y30777D01*
X22465Y31496D01*
X22370Y32215D01*
X22092Y32886D01*
X21651Y33462D01*
X21075Y33903D01*
X20404Y34181D01*
X19685Y34276D01*
X18966Y34181D01*
X18295Y33903D01*
X17719Y33462D01*
X17610Y33319D01*
X17015Y33287D01*
X16096Y34206D01*
X15575Y34554D01*
X14961Y34677D01*
X14961Y34677D01*
X9648D01*
X9456Y35138D01*
X11295Y36977D01*
X19291D01*
X19291Y36977D01*
X19906Y37099D01*
X20312Y37371D01*
X183978D01*
X184255Y37011D01*
X184830Y36569D01*
X185501Y36291D01*
X186220Y36197D01*
X186940Y36291D01*
X187610Y36569D01*
X188186Y37011D01*
X188462Y37371D01*
X194064D01*
Y36614D01*
X194064Y36614D01*
X194186Y36000D01*
X194534Y35479D01*
X195086Y34927D01*
X194895Y34465D01*
X189461D01*
X182071Y27075D01*
Y20866D01*
X196850D01*
X211630D01*
Y27075D01*
X204346Y34359D01*
X210814Y40827D01*
X214567D01*
Y-42288D01*
D02*
G37*
G36*
X167483Y45276D02*
X167640Y44776D01*
X167278Y44303D01*
X167000Y43633D01*
X166905Y42913D01*
X167000Y42194D01*
X167278Y41524D01*
X167617Y41082D01*
X167429Y40582D01*
X19685D01*
X19685Y40582D01*
X19071Y40460D01*
X18664Y40188D01*
X12236D01*
Y40827D01*
X14567D01*
Y45276D01*
X167483Y45276D01*
D02*
G37*
%LPC*%
G36*
X175724Y-104567D02*
X175005Y-104662D01*
X174335Y-104939D01*
X173759Y-105381D01*
X173317Y-105957D01*
X173039Y-106627D01*
X172945Y-107346D01*
X173039Y-108066D01*
X173317Y-108736D01*
X173759Y-109312D01*
X174119Y-109588D01*
Y-111012D01*
X164219Y-120912D01*
X163871Y-121433D01*
X163748Y-122048D01*
X163748Y-122048D01*
Y-126716D01*
X163686Y-127032D01*
X163749Y-127348D01*
Y-162128D01*
X163389Y-162405D01*
X162947Y-162980D01*
X162669Y-163651D01*
X162575Y-164370D01*
X162669Y-165089D01*
X162947Y-165760D01*
X163389Y-166336D01*
X163964Y-166777D01*
X164635Y-167055D01*
X165354Y-167150D01*
X166074Y-167055D01*
X166744Y-166777D01*
X167320Y-166336D01*
X167762Y-165760D01*
X168039Y-165089D01*
X168134Y-164370D01*
X168039Y-163651D01*
X167762Y-162980D01*
X167320Y-162405D01*
X166960Y-162128D01*
Y-127095D01*
X166960Y-127095D01*
X166960Y-127095D01*
X166960Y-127094D01*
X166960Y-127093D01*
Y-122713D01*
X176860Y-112813D01*
X177208Y-112292D01*
X177330Y-111677D01*
X177330Y-111677D01*
Y-109588D01*
X177690Y-109312D01*
X178132Y-108736D01*
X178409Y-108066D01*
X178504Y-107346D01*
X178409Y-106627D01*
X178132Y-105957D01*
X177690Y-105381D01*
X177114Y-104939D01*
X176444Y-104662D01*
X175724Y-104567D01*
D02*
G37*
G36*
X195669Y-180102D02*
X189461D01*
X182071Y-187492D01*
Y-193701D01*
X195669D01*
Y-180102D01*
D02*
G37*
G36*
X61024Y-123189D02*
X59047Y-123345D01*
X57118Y-123808D01*
X55286Y-124567D01*
X53596Y-125603D01*
X52088Y-126891D01*
X50800Y-128399D01*
X49764Y-130089D01*
X49005Y-131922D01*
X48542Y-133850D01*
X48386Y-135827D01*
X48542Y-137804D01*
X49005Y-139732D01*
X49764Y-141564D01*
X50800Y-143255D01*
X52088Y-144763D01*
X53596Y-146051D01*
X55286Y-147087D01*
X57118Y-147846D01*
X59047Y-148309D01*
X61024Y-148464D01*
X63001Y-148309D01*
X64929Y-147846D01*
X66761Y-147087D01*
X68452Y-146051D01*
X69960Y-144763D01*
X71248Y-143255D01*
X72284Y-141564D01*
X73043Y-139732D01*
X73505Y-137804D01*
X73661Y-135827D01*
X73505Y-133850D01*
X73043Y-131922D01*
X72284Y-130089D01*
X71248Y-128399D01*
X69960Y-126891D01*
X68452Y-125603D01*
X66761Y-124567D01*
X64929Y-123808D01*
X63001Y-123345D01*
X61024Y-123189D01*
D02*
G37*
G36*
X129941Y-94834D02*
X128502Y-95024D01*
X127161Y-95579D01*
X126010Y-96463D01*
X125126Y-97614D01*
X124571Y-98955D01*
X124382Y-100394D01*
X124571Y-101833D01*
X125126Y-103173D01*
X126010Y-104325D01*
X127161Y-105208D01*
X128502Y-105764D01*
X129941Y-105953D01*
X131380Y-105764D01*
X132721Y-105208D01*
X133872Y-104325D01*
X134756Y-103173D01*
X135311Y-101833D01*
X135500Y-100394D01*
X135311Y-98955D01*
X134756Y-97614D01*
X133872Y-96463D01*
X132721Y-95579D01*
X131380Y-95024D01*
X129941Y-94834D01*
D02*
G37*
G36*
X146653Y-94661D02*
X145934Y-94756D01*
X145264Y-95034D01*
X144688Y-95475D01*
X144246Y-96051D01*
X143969Y-96722D01*
X143874Y-97441D01*
X143969Y-98160D01*
X144246Y-98831D01*
X144688Y-99406D01*
X145148Y-99760D01*
Y-111221D01*
X145263Y-111796D01*
X145589Y-112285D01*
X149855Y-116551D01*
X149779Y-117126D01*
X149874Y-117845D01*
X150152Y-118516D01*
X150593Y-119091D01*
X151169Y-119533D01*
X151840Y-119811D01*
X152559Y-119906D01*
X153279Y-119811D01*
X153949Y-119533D01*
X154525Y-119091D01*
X154966Y-118516D01*
X155244Y-117845D01*
X155339Y-117126D01*
X155244Y-116407D01*
X154966Y-115736D01*
X154525Y-115160D01*
X153949Y-114719D01*
X153279Y-114441D01*
X152559Y-114346D01*
X151984Y-114422D01*
X148159Y-110597D01*
Y-99760D01*
X148619Y-99406D01*
X149061Y-98831D01*
X149338Y-98160D01*
X149433Y-97441D01*
X149338Y-96722D01*
X149061Y-96051D01*
X148619Y-95475D01*
X148043Y-95034D01*
X147373Y-94756D01*
X146653Y-94661D01*
D02*
G37*
G36*
X206496Y-286772D02*
X199866D01*
X199902Y-287137D01*
X200353Y-288624D01*
X201085Y-289995D01*
X202071Y-291196D01*
X203273Y-292182D01*
X204643Y-292915D01*
X206131Y-293366D01*
X206496Y-293402D01*
Y-286772D01*
D02*
G37*
G36*
X194882Y-64543D02*
X194162Y-64638D01*
X193492Y-64916D01*
X192916Y-65357D01*
X192475Y-65933D01*
X192197Y-66603D01*
X192102Y-67323D01*
Y-70866D01*
Y-74803D01*
Y-92549D01*
X188192Y-96460D01*
X187750Y-97035D01*
X187472Y-97706D01*
X187378Y-98425D01*
Y-102362D01*
X187472Y-103082D01*
X187750Y-103752D01*
X188043Y-104134D01*
X187750Y-104516D01*
X187472Y-105186D01*
X187378Y-105905D01*
X187472Y-106625D01*
X187750Y-107295D01*
X188043Y-107677D01*
X187750Y-108059D01*
X187472Y-108729D01*
X187378Y-109449D01*
X187472Y-110168D01*
X187750Y-110839D01*
X188192Y-111414D01*
X188552Y-111690D01*
Y-120201D01*
X178392Y-130361D01*
X178044Y-130882D01*
X177922Y-131496D01*
X177922Y-131496D01*
Y-204331D01*
X177922Y-204331D01*
X178044Y-204945D01*
X178392Y-205466D01*
X190127Y-217200D01*
Y-281618D01*
X177203Y-294542D01*
X176767Y-294271D01*
X176883Y-293091D01*
X176753Y-291778D01*
X176569Y-291171D01*
X186301Y-281439D01*
X186806Y-280781D01*
X187124Y-280015D01*
X187232Y-279193D01*
Y-218504D01*
X187124Y-217682D01*
X186806Y-216915D01*
X186301Y-216258D01*
X175618Y-205574D01*
Y-147638D01*
X175510Y-146816D01*
X175192Y-146049D01*
X174687Y-145391D01*
X174029Y-144887D01*
X173263Y-144569D01*
X172441Y-144461D01*
X171619Y-144569D01*
X170852Y-144887D01*
X170195Y-145391D01*
X169690Y-146049D01*
X169372Y-146816D01*
X169264Y-147638D01*
Y-205657D01*
X169176Y-205871D01*
X169067Y-206693D01*
X169176Y-207515D01*
X169493Y-208281D01*
X169998Y-208939D01*
X180878Y-219820D01*
Y-277877D01*
X172077Y-286679D01*
X171469Y-286494D01*
X170158Y-286365D01*
X168845Y-286494D01*
X167584Y-286877D01*
X166421Y-287499D01*
X165402Y-288335D01*
X164566Y-289354D01*
X163944Y-290517D01*
X163561Y-291778D01*
X163432Y-293091D01*
X163561Y-294403D01*
X163944Y-295664D01*
X164566Y-296827D01*
X165402Y-297846D01*
X166421Y-298682D01*
X167584Y-299304D01*
X168845Y-299687D01*
X170158Y-299816D01*
X171469Y-299687D01*
X172731Y-299304D01*
X173894Y-298682D01*
X174913Y-297846D01*
X175089Y-297632D01*
X175560Y-297800D01*
Y-302503D01*
X175060Y-302710D01*
X174757Y-302408D01*
X174237Y-302060D01*
X173622Y-301938D01*
X173622Y-301938D01*
X163657D01*
X136645Y-274925D01*
Y-199016D01*
X136645Y-199016D01*
X136523Y-198401D01*
X136175Y-197880D01*
X110988Y-172694D01*
X111047Y-172244D01*
X110953Y-171525D01*
X110675Y-170854D01*
X110233Y-170279D01*
X109658Y-169837D01*
X108987Y-169559D01*
X108268Y-169464D01*
X107548Y-169559D01*
X106878Y-169837D01*
X106302Y-170279D01*
X105860Y-170854D01*
X105583Y-171525D01*
X105488Y-172244D01*
X105583Y-172964D01*
X105860Y-173634D01*
X106302Y-174210D01*
X106878Y-174651D01*
X107548Y-174929D01*
X108268Y-175024D01*
X108718Y-174965D01*
X133434Y-199681D01*
Y-275590D01*
X133434Y-275590D01*
X133556Y-276205D01*
X133904Y-276726D01*
X161857Y-304679D01*
X161857Y-304679D01*
X162378Y-305027D01*
X162992Y-305149D01*
X166957D01*
X167083Y-305649D01*
X166421Y-306003D01*
X165402Y-306839D01*
X164566Y-307858D01*
X163944Y-309021D01*
X163561Y-310282D01*
X163432Y-311595D01*
X163561Y-312907D01*
X163944Y-314168D01*
X164421Y-315060D01*
X157329Y-322152D01*
X156981Y-322673D01*
X156859Y-323287D01*
X156859Y-323287D01*
Y-361932D01*
X156499Y-362208D01*
X156057Y-362783D01*
X155780Y-363454D01*
X155685Y-364173D01*
X155780Y-364893D01*
X156057Y-365563D01*
X156499Y-366139D01*
X157075Y-366581D01*
X157745Y-366858D01*
X158465Y-366953D01*
X159184Y-366858D01*
X159854Y-366581D01*
X160430Y-366139D01*
X160872Y-365563D01*
X161150Y-364893D01*
X161244Y-364173D01*
X161150Y-363454D01*
X160872Y-362783D01*
X160430Y-362208D01*
X160070Y-361932D01*
Y-323953D01*
X166692Y-317331D01*
X167584Y-317808D01*
X168845Y-318191D01*
X170158Y-318320D01*
X171469Y-318191D01*
X172731Y-317808D01*
X173894Y-317186D01*
X174913Y-316350D01*
X175749Y-315331D01*
X176241Y-314411D01*
X176741Y-314537D01*
Y-327156D01*
X176241Y-327281D01*
X175749Y-326362D01*
X174913Y-325343D01*
X173894Y-324507D01*
X172731Y-323885D01*
X171469Y-323502D01*
X170158Y-323373D01*
X168845Y-323502D01*
X167584Y-323885D01*
X166421Y-324507D01*
X165402Y-325343D01*
X164566Y-326362D01*
X163944Y-327525D01*
X163561Y-328786D01*
X163432Y-330098D01*
X163561Y-331411D01*
X163944Y-332672D01*
X164566Y-333835D01*
X165402Y-334854D01*
X166421Y-335690D01*
X167584Y-336312D01*
X168845Y-336695D01*
X170158Y-336824D01*
X171469Y-336695D01*
X172731Y-336312D01*
X173894Y-335690D01*
X174913Y-334854D01*
X175749Y-333835D01*
X176241Y-332915D01*
X176741Y-333041D01*
Y-340466D01*
X176241Y-340636D01*
X176178Y-340554D01*
X175602Y-340112D01*
X174932Y-339835D01*
X174213Y-339740D01*
X173763Y-339799D01*
X172395Y-338432D01*
X171874Y-338084D01*
X171260Y-337961D01*
X171260Y-337961D01*
X165354D01*
X165354Y-337961D01*
X164740Y-338084D01*
X164219Y-338432D01*
X162250Y-340400D01*
X161902Y-340921D01*
X161780Y-341535D01*
X161780Y-341535D01*
Y-369414D01*
X152743Y-378451D01*
X152394Y-378972D01*
X152272Y-379587D01*
X152272Y-379587D01*
Y-396715D01*
X151912Y-396991D01*
X151471Y-397567D01*
X151193Y-398237D01*
X151098Y-398957D01*
X151193Y-399676D01*
X151471Y-400347D01*
X151912Y-400922D01*
X152488Y-401364D01*
X153158Y-401642D01*
X153878Y-401736D01*
X154597Y-401642D01*
X155268Y-401364D01*
X155843Y-400922D01*
X156285Y-400347D01*
X156563Y-399676D01*
X156658Y-398957D01*
X156563Y-398237D01*
X156285Y-397567D01*
X155843Y-396991D01*
X155484Y-396715D01*
Y-380252D01*
X164521Y-371214D01*
X164521Y-371214D01*
X164869Y-370693D01*
X164991Y-370079D01*
Y-345016D01*
X165491Y-344916D01*
X165604Y-345189D01*
X166046Y-345765D01*
X166406Y-346041D01*
Y-396607D01*
X166342Y-396656D01*
X165900Y-397232D01*
X165622Y-397903D01*
X165527Y-398622D01*
X165622Y-399342D01*
X165900Y-400012D01*
X166342Y-400588D01*
X166917Y-401029D01*
X167588Y-401307D01*
X168307Y-401402D01*
X169027Y-401307D01*
X169697Y-401029D01*
X170273Y-400588D01*
X170714Y-400012D01*
X170992Y-399342D01*
X171087Y-398622D01*
X170992Y-397903D01*
X170714Y-397232D01*
X170273Y-396656D01*
X169697Y-396215D01*
X169617Y-396182D01*
Y-346041D01*
X169977Y-345765D01*
X170419Y-345189D01*
X170697Y-344519D01*
X170791Y-343799D01*
X170697Y-343080D01*
X170419Y-342409D01*
X169977Y-341834D01*
X169767Y-341673D01*
X169937Y-341173D01*
X170595D01*
X171492Y-342070D01*
X171433Y-342520D01*
X171528Y-343239D01*
X171805Y-343910D01*
X172247Y-344485D01*
X172823Y-344927D01*
X173493Y-345205D01*
X174213Y-345299D01*
X174932Y-345205D01*
X175602Y-344927D01*
X176178Y-344485D01*
X176241Y-344404D01*
X176741Y-344573D01*
Y-351500D01*
X173077Y-355164D01*
X172729Y-355685D01*
X172607Y-356300D01*
X172607Y-356300D01*
Y-378663D01*
X172247Y-378939D01*
X171805Y-379515D01*
X171527Y-380185D01*
X171433Y-380905D01*
X171527Y-381624D01*
X171805Y-382295D01*
X172247Y-382870D01*
X172822Y-383312D01*
X173493Y-383590D01*
X174212Y-383684D01*
X174932Y-383590D01*
X175602Y-383312D01*
X176178Y-382870D01*
X176620Y-382295D01*
X176897Y-381624D01*
X176992Y-380905D01*
X176897Y-380185D01*
X176620Y-379515D01*
X176178Y-378939D01*
X175818Y-378663D01*
Y-356965D01*
X179482Y-353301D01*
X179482Y-353301D01*
X179830Y-352780D01*
X179952Y-352165D01*
X179952Y-352165D01*
Y-308914D01*
X180452Y-308707D01*
X197016Y-325271D01*
Y-364687D01*
X196657Y-364964D01*
X196215Y-365539D01*
X195937Y-366210D01*
X195842Y-366929D01*
X195937Y-367649D01*
X196215Y-368319D01*
X196657Y-368895D01*
X197232Y-369336D01*
X197903Y-369614D01*
X198622Y-369709D01*
X199341Y-369614D01*
X200012Y-369336D01*
X200588Y-368895D01*
X201029Y-368319D01*
X201307Y-367649D01*
X201402Y-366929D01*
X201307Y-366210D01*
X201029Y-365539D01*
X200588Y-364964D01*
X200228Y-364687D01*
Y-341459D01*
X200728Y-341334D01*
X201085Y-342003D01*
X202071Y-343204D01*
X203273Y-344190D01*
X204643Y-344923D01*
X206131Y-345374D01*
X206496Y-345410D01*
Y-337598D01*
Y-329787D01*
X206131Y-329823D01*
X204643Y-330274D01*
X203273Y-331007D01*
X202071Y-331993D01*
X201085Y-333194D01*
X200728Y-333863D01*
X200228Y-333738D01*
Y-324606D01*
X200228Y-324606D01*
X200106Y-323992D01*
X199757Y-323471D01*
X199757Y-323471D01*
X178771Y-302484D01*
Y-297516D01*
X192868Y-283419D01*
X193216Y-282898D01*
X193338Y-282283D01*
X193338Y-282283D01*
Y-216535D01*
X193338Y-216535D01*
X193216Y-215921D01*
X192868Y-215400D01*
X181133Y-203666D01*
Y-132161D01*
X191293Y-122002D01*
X191293Y-122002D01*
X191641Y-121481D01*
X191763Y-120866D01*
X191763Y-120866D01*
Y-111690D01*
X192123Y-111414D01*
X192565Y-110839D01*
X192842Y-110168D01*
X192937Y-109449D01*
X192842Y-108729D01*
X192565Y-108059D01*
X192272Y-107677D01*
X192565Y-107295D01*
X192842Y-106625D01*
X192937Y-105905D01*
X192842Y-105186D01*
X192565Y-104516D01*
X192272Y-104134D01*
X192565Y-103752D01*
X192842Y-103082D01*
X192937Y-102362D01*
Y-99577D01*
X196847Y-95666D01*
X197289Y-95091D01*
X197567Y-94420D01*
X197662Y-93701D01*
Y-74803D01*
Y-70866D01*
Y-67323D01*
X197567Y-66603D01*
X197289Y-65933D01*
X196847Y-65357D01*
X196272Y-64916D01*
X195601Y-64638D01*
X194882Y-64543D01*
D02*
G37*
G36*
X206496Y-277779D02*
X206131Y-277815D01*
X204643Y-278266D01*
X203273Y-278999D01*
X202071Y-279985D01*
X201085Y-281186D01*
X200353Y-282557D01*
X199902Y-284044D01*
X199866Y-284409D01*
X206496D01*
Y-277779D01*
D02*
G37*
G36*
X195669Y-196063D02*
X182071D01*
Y-202272D01*
X189461Y-209661D01*
X195669D01*
Y-196063D01*
D02*
G37*
G36*
X147736Y-223598D02*
X147017Y-223693D01*
X146346Y-223971D01*
X145771Y-224412D01*
X145329Y-224988D01*
X145051Y-225658D01*
X144957Y-226378D01*
X145051Y-227097D01*
X145329Y-227768D01*
X145771Y-228344D01*
X146231Y-228697D01*
Y-233366D01*
X146345Y-233942D01*
X146672Y-234431D01*
X156745Y-244504D01*
X156669Y-245079D01*
X156764Y-245798D01*
X157042Y-246469D01*
X157483Y-247044D01*
X158059Y-247486D01*
X158729Y-247764D01*
X159449Y-247858D01*
X159764Y-247817D01*
X159998Y-248290D01*
X158313Y-249975D01*
X157965Y-250496D01*
X157843Y-251110D01*
X157843Y-251110D01*
Y-286144D01*
X157483Y-286420D01*
X157042Y-286996D01*
X156764Y-287666D01*
X156669Y-288386D01*
X156764Y-289105D01*
X157042Y-289776D01*
X157483Y-290351D01*
X158059Y-290793D01*
X158729Y-291071D01*
X159449Y-291165D01*
X160168Y-291071D01*
X160839Y-290793D01*
X161414Y-290351D01*
X161856Y-289776D01*
X162134Y-289105D01*
X162229Y-288386D01*
X162134Y-287666D01*
X161856Y-286996D01*
X161414Y-286420D01*
X161055Y-286144D01*
Y-251775D01*
X168905Y-243925D01*
X169354Y-243984D01*
X170074Y-243890D01*
X170744Y-243612D01*
X171320Y-243170D01*
X171762Y-242595D01*
X172039Y-241924D01*
X172134Y-241205D01*
X172039Y-240485D01*
X171762Y-239815D01*
X171320Y-239239D01*
X170744Y-238797D01*
X170074Y-238520D01*
X169354Y-238425D01*
X168635Y-238520D01*
X167964Y-238797D01*
X167389Y-239239D01*
X166947Y-239815D01*
X166669Y-240485D01*
X166575Y-241205D01*
X166634Y-241654D01*
X162661Y-245628D01*
X162187Y-245394D01*
X162229Y-245079D01*
X162134Y-244359D01*
X161856Y-243689D01*
X161414Y-243113D01*
X160839Y-242671D01*
X160168Y-242394D01*
X159449Y-242299D01*
X158874Y-242375D01*
X149241Y-232743D01*
Y-228697D01*
X149702Y-228344D01*
X150144Y-227768D01*
X150421Y-227097D01*
X150516Y-226378D01*
X150421Y-225658D01*
X150144Y-224988D01*
X149702Y-224412D01*
X149126Y-223971D01*
X148456Y-223693D01*
X147736Y-223598D01*
D02*
G37*
G36*
X41476Y-53662D02*
X38508D01*
Y-54555D01*
X40583Y-56630D01*
X41476D01*
Y-53662D01*
D02*
G37*
G36*
X36807D02*
X33839D01*
Y-56630D01*
X36807D01*
Y-53662D01*
D02*
G37*
G36*
X46807D02*
X43839D01*
Y-56630D01*
X44732D01*
X46807Y-54555D01*
Y-53662D01*
D02*
G37*
G36*
X56807D02*
X53839D01*
Y-56630D01*
X54732D01*
X56807Y-54555D01*
Y-53662D01*
D02*
G37*
G36*
X51476D02*
X48508D01*
Y-54555D01*
X50583Y-56630D01*
X51476D01*
Y-53662D01*
D02*
G37*
G36*
X49626Y-58543D02*
X45689D01*
X43720Y-60512D01*
Y-64449D01*
X45689Y-66417D01*
X49626D01*
X51595Y-64449D01*
Y-60512D01*
X49626Y-58543D01*
D02*
G37*
G36*
X39626D02*
X35689D01*
X33720Y-60512D01*
Y-64449D01*
X35689Y-66417D01*
X39626D01*
X41594Y-64449D01*
Y-60512D01*
X39626Y-58543D01*
D02*
G37*
G36*
X59626D02*
X55689D01*
X53720Y-60512D01*
Y-64449D01*
X55689Y-66417D01*
X59626D01*
X61594Y-64449D01*
Y-60512D01*
X59626Y-58543D01*
D02*
G37*
G36*
X99626D02*
X95689D01*
X93721Y-60512D01*
Y-64449D01*
X95689Y-66417D01*
X99626D01*
X101594Y-64449D01*
Y-60512D01*
X99626Y-58543D01*
D02*
G37*
G36*
X69626D02*
X65689D01*
X63721Y-60512D01*
Y-64449D01*
X65689Y-66417D01*
X69626D01*
X71595Y-64449D01*
Y-60512D01*
X69626Y-58543D01*
D02*
G37*
G36*
X6406Y-550181D02*
X1181D01*
Y-561811D01*
X12811D01*
Y-556587D01*
X6406Y-550181D01*
D02*
G37*
G36*
X195669Y-564173D02*
X184039D01*
Y-569398D01*
X190445Y-575803D01*
X195669D01*
Y-564173D01*
D02*
G37*
G36*
Y-550181D02*
X190445D01*
X184039Y-556587D01*
Y-561811D01*
X195669D01*
Y-550181D01*
D02*
G37*
G36*
X12992Y-522802D02*
X11680Y-522931D01*
X10419Y-523314D01*
X9256Y-523936D01*
X8237Y-524772D01*
X7400Y-525791D01*
X6779Y-526954D01*
X6396Y-528216D01*
X6267Y-529528D01*
X6396Y-530840D01*
X6779Y-532101D01*
X7400Y-533264D01*
X8237Y-534283D01*
X9256Y-535119D01*
X10419Y-535741D01*
X11680Y-536124D01*
X12992Y-536253D01*
X14304Y-536124D01*
X15566Y-535741D01*
X16728Y-535119D01*
X17748Y-534283D01*
X18584Y-533264D01*
X19206Y-532101D01*
X19588Y-530840D01*
X19717Y-529528D01*
X19588Y-528216D01*
X19206Y-526954D01*
X18584Y-525791D01*
X17748Y-524772D01*
X16728Y-523936D01*
X15566Y-523314D01*
X14304Y-522931D01*
X12992Y-522802D01*
D02*
G37*
G36*
X-1181D02*
X-2493Y-522931D01*
X-3755Y-523314D01*
X-4918Y-523936D01*
X-5937Y-524772D01*
X-6773Y-525791D01*
X-7395Y-526954D01*
X-7777Y-528216D01*
X-7906Y-529528D01*
X-7777Y-530840D01*
X-7395Y-532101D01*
X-6773Y-533264D01*
X-5937Y-534283D01*
X-4918Y-535119D01*
X-3755Y-535741D01*
X-2493Y-536124D01*
X-1181Y-536253D01*
X131Y-536124D01*
X1393Y-535741D01*
X2555Y-535119D01*
X3574Y-534283D01*
X4411Y-533264D01*
X5032Y-532101D01*
X5415Y-530840D01*
X5544Y-529528D01*
X5415Y-528216D01*
X5032Y-526954D01*
X4411Y-525791D01*
X3574Y-524772D01*
X2555Y-523936D01*
X1393Y-523314D01*
X131Y-522931D01*
X-1181Y-522802D01*
D02*
G37*
G36*
X195669Y-599606D02*
X184039D01*
Y-604831D01*
X190445Y-611236D01*
X195669D01*
Y-599606D01*
D02*
G37*
G36*
X12811Y-599606D02*
X1181D01*
Y-611236D01*
X6406D01*
X12811Y-604831D01*
Y-599606D01*
D02*
G37*
G36*
X6406Y-585614D02*
X1181D01*
Y-597244D01*
X12811D01*
Y-592020D01*
X6406Y-585614D01*
D02*
G37*
G36*
X12811Y-564173D02*
X1181D01*
Y-575803D01*
X6406D01*
X12811Y-569398D01*
Y-564173D01*
D02*
G37*
G36*
X195669Y-585614D02*
X190445D01*
X184039Y-592020D01*
Y-597244D01*
X195669D01*
Y-585614D01*
D02*
G37*
G36*
X203256Y-418291D02*
X198031D01*
Y-429921D01*
X209661D01*
Y-424697D01*
X203256Y-418291D01*
D02*
G37*
G36*
X195669D02*
X190445D01*
X184039Y-424697D01*
Y-429921D01*
X195669D01*
Y-418291D01*
D02*
G37*
G36*
X3755Y-260394D02*
X-5068D01*
Y-396472D01*
X3755D01*
Y-260394D01*
D02*
G37*
G36*
X129941Y-344648D02*
X128436Y-344796D01*
X126989Y-345235D01*
X125655Y-345948D01*
X124486Y-346907D01*
X123527Y-348076D01*
X122814Y-349410D01*
X122375Y-350857D01*
X122227Y-352362D01*
X122375Y-353867D01*
X122814Y-355314D01*
X123527Y-356648D01*
X124486Y-357817D01*
X125655Y-358776D01*
X126989Y-359489D01*
X128436Y-359928D01*
X129941Y-360076D01*
X131446Y-359928D01*
X132893Y-359489D01*
X134227Y-358776D01*
X135396Y-357817D01*
X136355Y-356648D01*
X137068Y-355314D01*
X137507Y-353867D01*
X137655Y-352362D01*
X137507Y-350857D01*
X137068Y-349410D01*
X136355Y-348076D01*
X135396Y-346907D01*
X134227Y-345948D01*
X132893Y-345235D01*
X131446Y-344796D01*
X129941Y-344648D01*
D02*
G37*
G36*
X181102Y-359796D02*
X180181Y-359980D01*
X179399Y-360502D01*
X178877Y-361283D01*
X178694Y-362205D01*
X178877Y-363126D01*
X179399Y-363908D01*
X180181Y-364430D01*
X181102Y-364613D01*
X182024Y-364430D01*
X182805Y-363908D01*
X183327Y-363126D01*
X183511Y-362205D01*
X183327Y-361283D01*
X182805Y-360502D01*
X182024Y-359980D01*
X181102Y-359796D01*
D02*
G37*
G36*
X198031Y-522802D02*
X196720Y-522931D01*
X195458Y-523314D01*
X194295Y-523936D01*
X193276Y-524772D01*
X192440Y-525791D01*
X191818Y-526954D01*
X191435Y-528216D01*
X191306Y-529528D01*
X191435Y-530840D01*
X191818Y-532101D01*
X192440Y-533264D01*
X193276Y-534283D01*
X194295Y-535119D01*
X195458Y-535741D01*
X196720Y-536124D01*
X198031Y-536253D01*
X199344Y-536124D01*
X200605Y-535741D01*
X201768Y-535119D01*
X202787Y-534283D01*
X203623Y-533264D01*
X204245Y-532101D01*
X204628Y-530840D01*
X204757Y-529528D01*
X204628Y-528216D01*
X204245Y-526954D01*
X203623Y-525791D01*
X202787Y-524772D01*
X201768Y-523936D01*
X200605Y-523314D01*
X199344Y-522931D01*
X198031Y-522802D01*
D02*
G37*
G36*
X183858D02*
X182546Y-522931D01*
X181285Y-523314D01*
X180122Y-523936D01*
X179103Y-524772D01*
X178266Y-525791D01*
X177645Y-526954D01*
X177262Y-528216D01*
X177133Y-529528D01*
X177262Y-530840D01*
X177645Y-532101D01*
X178266Y-533264D01*
X179103Y-534283D01*
X180122Y-535119D01*
X181285Y-535741D01*
X182546Y-536124D01*
X183858Y-536253D01*
X185170Y-536124D01*
X186432Y-535741D01*
X187595Y-535119D01*
X188614Y-534283D01*
X189450Y-533264D01*
X190072Y-532101D01*
X190454Y-530840D01*
X190584Y-529528D01*
X190454Y-528216D01*
X190072Y-526954D01*
X189450Y-525791D01*
X188614Y-524772D01*
X187595Y-523936D01*
X186432Y-523314D01*
X185170Y-522931D01*
X183858Y-522802D01*
D02*
G37*
G36*
X195669Y-432283D02*
X184039D01*
Y-437508D01*
X190445Y-443913D01*
X195669D01*
Y-432283D01*
D02*
G37*
G36*
X6299Y-418504D02*
X-6299D01*
X-12598Y-424803D01*
Y-437402D01*
X-6299Y-443701D01*
X6299D01*
X12598Y-437402D01*
Y-424803D01*
X6299Y-418504D01*
D02*
G37*
G36*
X209661Y-432283D02*
X198031D01*
Y-443913D01*
X203256D01*
X209661Y-437508D01*
Y-432283D01*
D02*
G37*
G36*
X61287Y-10417D02*
X59606D01*
Y-14567D01*
Y-18717D01*
X61287D01*
X63279Y-16725D01*
X63449Y-16649D01*
X63846Y-16681D01*
X65669Y-18504D01*
X71181D01*
X73150Y-16535D01*
Y-12598D01*
X71181Y-10630D01*
X65669D01*
X63846Y-12453D01*
X63449Y-12485D01*
X63279Y-12409D01*
X61287Y-10417D01*
D02*
G37*
G36*
X91181Y-10630D02*
X85669D01*
X83701Y-12598D01*
Y-16535D01*
X83943Y-16778D01*
X82329Y-18392D01*
X81981Y-18913D01*
X81859Y-19528D01*
X81859Y-19528D01*
Y-20654D01*
X81397Y-20846D01*
X80394Y-19842D01*
X76457D01*
X74488Y-21811D01*
Y-27323D01*
X76457Y-29291D01*
X80394D01*
X81397Y-28288D01*
X81859Y-28479D01*
Y-44611D01*
X81522Y-44947D01*
X81174Y-45468D01*
X81052Y-46083D01*
X81052Y-46083D01*
Y-48543D01*
X80689D01*
X78720Y-50512D01*
Y-54449D01*
X80689Y-56417D01*
X81052D01*
Y-59316D01*
X80590Y-59507D01*
X79626Y-58543D01*
X75689D01*
X73721Y-60512D01*
Y-64449D01*
X75689Y-66417D01*
X79626D01*
X80590Y-65453D01*
X81052Y-65645D01*
Y-89906D01*
X26424Y-144534D01*
X26076Y-145055D01*
X25953Y-145669D01*
X25953Y-145669D01*
Y-472168D01*
X25594Y-472444D01*
X25152Y-473020D01*
X24874Y-473690D01*
X24779Y-474409D01*
X24874Y-475129D01*
X25152Y-475799D01*
X25594Y-476375D01*
X26169Y-476817D01*
X26840Y-477094D01*
X27559Y-477189D01*
X28278Y-477094D01*
X28949Y-476817D01*
X29525Y-476375D01*
X29801Y-476015D01*
X149264D01*
X174606Y-501357D01*
X174547Y-501807D01*
X174642Y-502527D01*
X174919Y-503197D01*
X175361Y-503773D01*
X175937Y-504214D01*
X176607Y-504492D01*
X177327Y-504587D01*
X178046Y-504492D01*
X178717Y-504214D01*
X179292Y-503773D01*
X179734Y-503197D01*
X180012Y-502527D01*
X180106Y-501807D01*
X180012Y-501088D01*
X179734Y-500417D01*
X179292Y-499842D01*
X178717Y-499400D01*
X178046Y-499122D01*
X177327Y-499027D01*
X176877Y-499087D01*
X151065Y-473274D01*
X150544Y-472926D01*
X149929Y-472804D01*
X149929Y-472804D01*
X29801D01*
X29525Y-472444D01*
X29165Y-472168D01*
Y-146334D01*
X83793Y-91706D01*
X84141Y-91185D01*
X84263Y-90571D01*
X84263Y-90571D01*
Y-65645D01*
X84725Y-65453D01*
X85689Y-66417D01*
X89626D01*
X91594Y-64449D01*
Y-60512D01*
X89626Y-58543D01*
X85689D01*
X84725Y-59507D01*
X84263Y-59316D01*
Y-56417D01*
X84626D01*
X86594Y-54449D01*
Y-50512D01*
X84626Y-48543D01*
X84263D01*
Y-46748D01*
X84600Y-46411D01*
X84600Y-46411D01*
X84948Y-45890D01*
X85070Y-45276D01*
Y-28558D01*
X85532Y-28367D01*
X86457Y-29291D01*
X90394D01*
X92362Y-27323D01*
Y-21811D01*
X90394Y-19842D01*
X86457D01*
X85701Y-20598D01*
X85184Y-20408D01*
X85149Y-20114D01*
X86759Y-18504D01*
X91181D01*
X93150Y-16535D01*
Y-12598D01*
X91181Y-10630D01*
D02*
G37*
G36*
X81181D02*
X75669D01*
X73701Y-12598D01*
Y-16535D01*
X75669Y-18504D01*
X81181D01*
X83150Y-16535D01*
Y-12598D01*
X81181Y-10630D01*
D02*
G37*
G36*
X161181D02*
X155669D01*
X153701Y-12598D01*
Y-16535D01*
X155669Y-18504D01*
X161181D01*
X163150Y-16535D01*
Y-12598D01*
X161181Y-10630D01*
D02*
G37*
G36*
X101181D02*
X95669D01*
X93701Y-12598D01*
Y-16535D01*
X95669Y-18504D01*
X101181D01*
X103150Y-16535D01*
Y-12598D01*
X101181Y-10630D01*
D02*
G37*
G36*
X50394Y-19842D02*
X46457D01*
X44488Y-21811D01*
Y-27323D01*
X46457Y-29291D01*
X50394D01*
X52362Y-27323D01*
Y-21811D01*
X50394Y-19842D01*
D02*
G37*
G36*
X12811Y-20866D02*
X1181D01*
Y-32496D01*
X6406D01*
X12811Y-26091D01*
Y-20866D01*
D02*
G37*
G36*
X60394Y-19842D02*
X56457D01*
X54488Y-21811D01*
Y-27323D01*
X56457Y-29291D01*
X60394D01*
X62362Y-27323D01*
Y-21811D01*
X60394Y-19842D01*
D02*
G37*
G36*
X160394D02*
X156457D01*
X154488Y-21811D01*
Y-27323D01*
X156457Y-29291D01*
X160394D01*
X162362Y-27323D01*
Y-21811D01*
X160394Y-19842D01*
D02*
G37*
G36*
X70394D02*
X66457D01*
X64488Y-21811D01*
Y-27323D01*
X66457Y-29291D01*
X70394D01*
X72362Y-27323D01*
Y-21811D01*
X70394Y-19842D01*
D02*
G37*
G36*
X195669Y18504D02*
X182071D01*
Y12295D01*
X189461Y4905D01*
X195669D01*
Y18504D01*
D02*
G37*
G36*
X57244Y-10417D02*
X55563D01*
X53753Y-12228D01*
X53425Y-12449D01*
X53098Y-12228D01*
X51287Y-10417D01*
X49606D01*
Y-14567D01*
Y-18717D01*
X51287D01*
X53098Y-16906D01*
X53425Y-16684D01*
X53753Y-16906D01*
X55563Y-18717D01*
X57244D01*
Y-14567D01*
Y-10417D01*
D02*
G37*
G36*
X211630Y18504D02*
X198031D01*
Y4905D01*
X204240D01*
X211630Y12295D01*
Y18504D01*
D02*
G37*
G36*
X12811Y18504D02*
X1181D01*
Y6874D01*
X6406D01*
X12811Y13280D01*
Y18504D01*
D02*
G37*
G36*
X-1181D02*
X-12811D01*
Y13280D01*
X-6406Y6874D01*
X-1181D01*
Y18504D01*
D02*
G37*
G36*
X6406Y-6874D02*
X1181D01*
Y-18504D01*
X12811D01*
Y-13280D01*
X6406Y-6874D01*
D02*
G37*
G36*
X-1181D02*
X-6406D01*
X-12811Y-13280D01*
Y-18504D01*
X-1181D01*
Y-6874D01*
D02*
G37*
G36*
X195669Y-4905D02*
X189461D01*
X182071Y-12295D01*
Y-18504D01*
X195669D01*
Y-4905D01*
D02*
G37*
G36*
X137244Y-10417D02*
X135563D01*
X133571Y-12409D01*
X133402Y-12485D01*
X133004Y-12453D01*
X131181Y-10630D01*
X125669D01*
X123701Y-12598D01*
Y-16535D01*
X123943Y-16778D01*
X122487Y-18235D01*
X122139Y-18756D01*
X122016Y-19370D01*
X122016Y-19370D01*
Y-20812D01*
X121555Y-21003D01*
X120394Y-19842D01*
X116457D01*
X115623Y-20677D01*
X115105Y-20487D01*
X115070Y-20192D01*
X116759Y-18504D01*
X121181D01*
X123150Y-16535D01*
Y-12598D01*
X121181Y-10630D01*
X115669D01*
X113701Y-12598D01*
Y-16535D01*
X113943Y-16778D01*
X112250Y-18471D01*
X111902Y-18992D01*
X111780Y-19606D01*
X111780Y-19606D01*
Y-20576D01*
X111318Y-20767D01*
X110394Y-19842D01*
X106457D01*
X105780Y-20519D01*
X105263Y-20329D01*
X105228Y-20035D01*
X106759Y-18504D01*
X111181D01*
X113150Y-16535D01*
Y-12598D01*
X111181Y-10630D01*
X105669D01*
X103701Y-12598D01*
Y-16535D01*
X103943Y-16778D01*
X102408Y-18314D01*
X102060Y-18834D01*
X101938Y-19449D01*
X101938Y-19449D01*
Y-20733D01*
X101476Y-20924D01*
X100394Y-19842D01*
X96457D01*
X94488Y-21811D01*
Y-27323D01*
X96457Y-29291D01*
X100394D01*
X101476Y-28209D01*
X101938Y-28401D01*
Y-33071D01*
X101938Y-33071D01*
X102060Y-33685D01*
X102408Y-34206D01*
X105481Y-37279D01*
Y-111737D01*
X36365Y-180853D01*
X36017Y-181374D01*
X35894Y-181988D01*
X35894Y-181988D01*
Y-465258D01*
X35535Y-465534D01*
X35093Y-466110D01*
X34815Y-466781D01*
X34720Y-467500D01*
X34815Y-468219D01*
X35093Y-468890D01*
X35535Y-469465D01*
X36110Y-469907D01*
X36781Y-470185D01*
X37500Y-470280D01*
X38219Y-470185D01*
X38890Y-469907D01*
X39465Y-469465D01*
X39907Y-468890D01*
X40185Y-468219D01*
X40280Y-467500D01*
X40185Y-466781D01*
X39907Y-466110D01*
X39465Y-465534D01*
X39106Y-465258D01*
Y-427587D01*
X39606Y-427341D01*
X39949Y-427604D01*
X40619Y-427882D01*
X41339Y-427977D01*
X42058Y-427882D01*
X42728Y-427604D01*
X42894Y-427477D01*
X43394Y-427723D01*
Y-465258D01*
X43034Y-465534D01*
X42593Y-466110D01*
X42315Y-466781D01*
X42220Y-467500D01*
X42315Y-468219D01*
X42593Y-468890D01*
X43034Y-469465D01*
X43610Y-469907D01*
X44281Y-470185D01*
X45000Y-470280D01*
X45719Y-470185D01*
X46390Y-469907D01*
X46966Y-469465D01*
X47407Y-468890D01*
X47685Y-468219D01*
X47780Y-467500D01*
X47685Y-466781D01*
X47407Y-466110D01*
X46966Y-465534D01*
X46606Y-465258D01*
Y-427602D01*
X47106Y-427356D01*
X47429Y-427604D01*
X48099Y-427882D01*
X48819Y-427977D01*
X49538Y-427882D01*
X50209Y-427604D01*
X50394Y-427462D01*
X50894Y-427708D01*
Y-465258D01*
X50534Y-465534D01*
X50093Y-466110D01*
X49815Y-466781D01*
X49720Y-467500D01*
X49815Y-468219D01*
X50093Y-468890D01*
X50534Y-469465D01*
X51110Y-469907D01*
X51781Y-470185D01*
X52500Y-470280D01*
X53219Y-470185D01*
X53890Y-469907D01*
X54466Y-469465D01*
X54907Y-468890D01*
X55185Y-468219D01*
X55280Y-467500D01*
X55185Y-466781D01*
X54907Y-466110D01*
X54466Y-465534D01*
X54106Y-465258D01*
Y-387929D01*
X56039Y-385995D01*
X56500Y-386241D01*
X56465Y-386417D01*
X56465Y-386417D01*
Y-431813D01*
X56105Y-432090D01*
X55664Y-432665D01*
X55386Y-433336D01*
X55291Y-434055D01*
X55386Y-434774D01*
X55664Y-435445D01*
X56105Y-436021D01*
X56681Y-436462D01*
X57351Y-436740D01*
X58071Y-436835D01*
X58790Y-436740D01*
X59461Y-436462D01*
X60036Y-436021D01*
X60478Y-435445D01*
X60756Y-434774D01*
X60851Y-434055D01*
X60756Y-433336D01*
X60478Y-432665D01*
X60036Y-432090D01*
X59676Y-431813D01*
Y-387082D01*
X83812Y-362946D01*
X83812Y-362946D01*
X84161Y-362425D01*
X84283Y-361811D01*
Y-343701D01*
X84283Y-343701D01*
X84161Y-343086D01*
X83812Y-342565D01*
X83812Y-342565D01*
X57708Y-316461D01*
Y-188657D01*
X122002Y-124364D01*
X122002Y-124364D01*
X122350Y-123843D01*
X122472Y-123228D01*
X122472Y-123228D01*
Y-65786D01*
X122839Y-65661D01*
X122972Y-65653D01*
X143817Y-86498D01*
X144475Y-87003D01*
X145241Y-87321D01*
X146063Y-87429D01*
X161676D01*
X179894Y-105647D01*
Y-117188D01*
X169998Y-127084D01*
X169493Y-127742D01*
X169176Y-128508D01*
X169067Y-129331D01*
X169176Y-130153D01*
X169264Y-130367D01*
Y-139764D01*
X169372Y-140586D01*
X169690Y-141352D01*
X170195Y-142010D01*
X170852Y-142515D01*
X171619Y-142832D01*
X172441Y-142941D01*
X173263Y-142832D01*
X174029Y-142515D01*
X174687Y-142010D01*
X175192Y-141352D01*
X175510Y-140586D01*
X175618Y-139764D01*
Y-130450D01*
X185317Y-120750D01*
X185822Y-120092D01*
X186139Y-119326D01*
X186248Y-118504D01*
Y-104331D01*
X186139Y-103508D01*
X185822Y-102742D01*
X185317Y-102084D01*
X165238Y-82006D01*
X164581Y-81501D01*
X163814Y-81183D01*
X162992Y-81075D01*
X147379D01*
X128374Y-62070D01*
Y-50394D01*
X128265Y-49571D01*
X127948Y-48805D01*
X127679Y-48454D01*
X127882Y-47964D01*
X127977Y-47244D01*
X127882Y-46525D01*
X127604Y-45854D01*
X127462Y-45669D01*
X127604Y-45484D01*
X127882Y-44814D01*
X127977Y-44094D01*
X127882Y-43375D01*
X127604Y-42705D01*
X127162Y-42129D01*
X126587Y-41687D01*
X125916Y-41410D01*
X125197Y-41315D01*
X124477Y-41410D01*
X123807Y-41687D01*
X123231Y-42129D01*
X122972Y-42467D01*
X122472Y-42298D01*
Y-39248D01*
X129560Y-32159D01*
X129561Y-32159D01*
X129909Y-31638D01*
X130031Y-31024D01*
X130031Y-31024D01*
Y-29291D01*
X130394D01*
X132362Y-27323D01*
Y-21811D01*
X130394Y-19842D01*
X126457D01*
X125859Y-20440D01*
X125342Y-20250D01*
X125307Y-19956D01*
X126759Y-18504D01*
X131181D01*
X133004Y-16681D01*
X133402Y-16649D01*
X133571Y-16725D01*
X135563Y-18717D01*
X137244D01*
Y-14567D01*
Y-10417D01*
D02*
G37*
G36*
X204240Y-4905D02*
X198031D01*
Y-18504D01*
X211630D01*
Y-12295D01*
X204240Y-4905D01*
D02*
G37*
G36*
X-1181Y-20866D02*
X-12811D01*
Y-26091D01*
X-6406Y-32496D01*
X-1181D01*
Y-20866D01*
D02*
G37*
G36*
X176378Y29158D02*
X175659Y29063D01*
X174988Y28785D01*
X174412Y28343D01*
X173971Y27768D01*
X173693Y27097D01*
X173598Y26378D01*
X173693Y25659D01*
X173971Y24988D01*
X174412Y24412D01*
X174973Y23982D01*
Y-41544D01*
X163877Y-52640D01*
X163404Y-52406D01*
X163410Y-52362D01*
X163315Y-51643D01*
X163037Y-50972D01*
X162595Y-50397D01*
X162020Y-49955D01*
X161349Y-49677D01*
X160630Y-49582D01*
X159929Y-49675D01*
X158885Y-48631D01*
Y-33622D01*
X158778Y-33084D01*
X158474Y-32629D01*
X152362Y-26517D01*
Y-21811D01*
X150394Y-19842D01*
X149830D01*
Y-18504D01*
X151181D01*
X153150Y-16535D01*
Y-12598D01*
X151181Y-10630D01*
X145669D01*
X143846Y-12453D01*
X143449Y-12485D01*
X143279Y-12409D01*
X141287Y-10417D01*
X139606D01*
Y-14567D01*
Y-18717D01*
X141287D01*
X143279Y-16725D01*
X143449Y-16649D01*
X143846Y-16681D01*
X145669Y-18504D01*
X147020D01*
Y-19842D01*
X146457D01*
X144488Y-21811D01*
Y-27323D01*
X146457Y-29291D01*
X150394D01*
X150778Y-28907D01*
X156075Y-34204D01*
Y-49213D01*
X156182Y-49750D01*
X156487Y-50206D01*
X157942Y-51662D01*
X157850Y-52362D01*
X157945Y-53082D01*
X158223Y-53752D01*
X158664Y-54328D01*
X158751Y-54394D01*
X158581Y-54894D01*
X154017D01*
X153847Y-54394D01*
X153934Y-54328D01*
X154376Y-53752D01*
X154654Y-53082D01*
X154748Y-52362D01*
X154654Y-51643D01*
X154376Y-50972D01*
X153934Y-50397D01*
X153374Y-49966D01*
Y-39797D01*
X153934Y-39367D01*
X154376Y-38791D01*
X154654Y-38121D01*
X154748Y-37402D01*
X154654Y-36682D01*
X154376Y-36012D01*
X153934Y-35436D01*
X153358Y-34994D01*
X152688Y-34717D01*
X151969Y-34622D01*
X151249Y-34717D01*
X150579Y-34994D01*
X150003Y-35436D01*
X149561Y-36012D01*
X149284Y-36682D01*
X149189Y-37402D01*
X149284Y-38121D01*
X149561Y-38791D01*
X150003Y-39367D01*
X150564Y-39797D01*
Y-45568D01*
X150064Y-45815D01*
X149815Y-45624D01*
X149145Y-45347D01*
X148425Y-45252D01*
X147706Y-45347D01*
X147035Y-45624D01*
X146460Y-46066D01*
X146018Y-46642D01*
X145740Y-47312D01*
X145645Y-48031D01*
X145740Y-48751D01*
X146018Y-49421D01*
X146460Y-49997D01*
X147020Y-50427D01*
Y-54331D01*
X147127Y-54868D01*
X147432Y-55324D01*
X149400Y-57293D01*
X149856Y-57597D01*
X150394Y-57704D01*
X162205D01*
X162742Y-57597D01*
X163198Y-57293D01*
X177371Y-43119D01*
X177676Y-42664D01*
X177783Y-42126D01*
Y23982D01*
X178343Y24412D01*
X178785Y24988D01*
X179063Y25659D01*
X179158Y26378D01*
X179063Y27097D01*
X178785Y27768D01*
X178343Y28343D01*
X177768Y28785D01*
X177097Y29063D01*
X176378Y29158D01*
D02*
G37*
G36*
X31476Y-53662D02*
X28508D01*
Y-55612D01*
X28008Y-55908D01*
X27146Y-55795D01*
X26169Y-55923D01*
X25260Y-56300D01*
X24478Y-56899D01*
X23879Y-57681D01*
X23502Y-58591D01*
X23373Y-59567D01*
X23502Y-60543D01*
X23879Y-61453D01*
X24478Y-62234D01*
X25260Y-62834D01*
X26169Y-63211D01*
X27146Y-63339D01*
X28122Y-63211D01*
X29032Y-62834D01*
X29813Y-62234D01*
X30413Y-61453D01*
X30790Y-60543D01*
X30918Y-59567D01*
X30790Y-58591D01*
X30413Y-57681D01*
X29990Y-57130D01*
X30237Y-56630D01*
X31476D01*
Y-53662D01*
D02*
G37*
G36*
Y-48331D02*
X28508D01*
Y-51299D01*
X31476D01*
Y-48331D01*
D02*
G37*
G36*
X51476D02*
X50583D01*
X48508Y-50406D01*
Y-51299D01*
X51476D01*
Y-48331D01*
D02*
G37*
G36*
X41476D02*
X40583D01*
X38508Y-50406D01*
Y-51299D01*
X41476D01*
Y-48331D01*
D02*
G37*
G36*
X66807Y-53662D02*
X63839D01*
Y-56630D01*
X64732D01*
X66807Y-54555D01*
Y-53662D01*
D02*
G37*
G36*
X61476D02*
X58508D01*
Y-54555D01*
X60583Y-56630D01*
X61476D01*
Y-53662D01*
D02*
G37*
G36*
X71476D02*
X68508D01*
Y-54555D01*
X70583Y-56630D01*
X71476D01*
Y-53662D01*
D02*
G37*
G36*
X94626Y-48543D02*
X90689D01*
X88721Y-50512D01*
Y-54449D01*
X90689Y-56417D01*
X94626D01*
X96595Y-54449D01*
Y-50512D01*
X94626Y-48543D01*
D02*
G37*
G36*
X76807Y-53662D02*
X73839D01*
Y-56630D01*
X74732D01*
X76807Y-54555D01*
Y-53662D01*
D02*
G37*
G36*
X74732Y-48331D02*
X73839D01*
Y-51299D01*
X76807D01*
Y-50406D01*
X74732Y-48331D01*
D02*
G37*
G36*
X64732D02*
X63839D01*
Y-51299D01*
X66807D01*
Y-50406D01*
X64732Y-48331D01*
D02*
G37*
G36*
X140394Y-19842D02*
X136457D01*
X134488Y-21811D01*
Y-27323D01*
X136457Y-29291D01*
X137020D01*
Y-33827D01*
X132984Y-37864D01*
X132283Y-37771D01*
X131564Y-37866D01*
X130894Y-38144D01*
X130318Y-38586D01*
X129876Y-39161D01*
X129598Y-39832D01*
X129504Y-40551D01*
X129598Y-41271D01*
X129876Y-41941D01*
X130318Y-42517D01*
X130894Y-42958D01*
X131564Y-43236D01*
X132283Y-43331D01*
X133003Y-43236D01*
X133673Y-42958D01*
X134249Y-42517D01*
X134691Y-41941D01*
X134968Y-41271D01*
X135063Y-40551D01*
X134971Y-39851D01*
X139419Y-35403D01*
X139723Y-34947D01*
X139830Y-34409D01*
Y-29291D01*
X140394D01*
X142362Y-27323D01*
Y-21811D01*
X140394Y-19842D01*
D02*
G37*
G36*
X211630Y-20866D02*
X198031D01*
Y-34465D01*
X204240D01*
X211630Y-27075D01*
Y-20866D01*
D02*
G37*
G36*
X195669D02*
X182071D01*
Y-27075D01*
X189461Y-34465D01*
X195669D01*
Y-20866D01*
D02*
G37*
G36*
X71476Y-48331D02*
X70583D01*
X68508Y-50406D01*
Y-51299D01*
X71476D01*
Y-48331D01*
D02*
G37*
G36*
X61476D02*
X60583D01*
X58508Y-50406D01*
Y-51299D01*
X61476D01*
Y-48331D01*
D02*
G37*
G36*
X36807D02*
X33839D01*
Y-51299D01*
X36807D01*
Y-48331D01*
D02*
G37*
G36*
X54732D02*
X53839D01*
Y-51299D01*
X56807D01*
Y-50406D01*
X54732Y-48331D01*
D02*
G37*
G36*
X44732D02*
X43839D01*
Y-51299D01*
X46807D01*
Y-50406D01*
X44732Y-48331D01*
D02*
G37*
%LPD*%
D10*
X11024Y-677165D02*
D03*
X1575D02*
D03*
X-14961D02*
D03*
X-5512D02*
D03*
X202362D02*
D03*
X211811D02*
D03*
X195276D02*
D03*
X185827D02*
D03*
X195276Y43307D02*
D03*
X185827D02*
D03*
X202362D02*
D03*
X211811D02*
D03*
X11024D02*
D03*
X1575D02*
D03*
X-14961D02*
D03*
X-5512D02*
D03*
D28*
X138425Y-14567D02*
Y4095D01*
X36614Y19685D02*
X122835D01*
X0D02*
X36614D01*
X48425Y-14567D02*
X58425D01*
X0Y-19685D02*
Y19685D01*
X196850Y-19685D02*
Y19685D01*
Y-196063D02*
Y-194882D01*
X48425Y-14567D02*
Y7874D01*
X36614Y19685D02*
X48425Y7874D01*
X122835Y19685D02*
X138425Y4095D01*
D30*
X202756Y42520D02*
Y43701D01*
X1181D02*
X5906Y38976D01*
X-15354Y39370D02*
Y43701D01*
X181890Y43307D02*
X185827D01*
X181496Y42913D02*
X181890Y43307D01*
X169685Y42913D02*
X181496D01*
X185827Y43307D02*
X186221Y43701D01*
X19685Y38976D02*
X195669D01*
X-16929Y37795D02*
X-15354Y39370D01*
X-16929Y33071D02*
Y37795D01*
Y-55905D02*
Y33071D01*
Y-55905D02*
X-11024Y-61811D01*
X1181Y43701D02*
X1181D01*
X211221Y43504D02*
X211614Y43110D01*
X-5906Y42520D02*
Y43701D01*
Y42520D02*
X-1575Y38189D01*
X1181Y35433D02*
X7480D01*
X-1575Y38189D02*
X1181Y35433D01*
X197244Y35039D02*
X202756D01*
X195669Y36614D02*
X197244Y35039D01*
X199213Y38583D02*
Y38976D01*
X202756Y42520D01*
X212205Y-677559D02*
Y-671323D01*
X-5906Y-677559D02*
Y-674409D01*
X195276Y-677165D02*
Y-676772D01*
X190945Y-672441D02*
X195276Y-676772D01*
Y-677165D02*
X195669Y-677559D01*
X83465Y-19528D02*
X88425Y-14567D01*
X83465Y-45276D02*
Y-19528D01*
X82657Y-46083D02*
X83465Y-45276D01*
X16535Y31496D02*
X19685D01*
X14961Y33071D02*
X16535Y31496D01*
X-16929Y33071D02*
X14961D01*
X7480Y35433D02*
X10630Y38583D01*
X103543Y-19449D02*
X108425Y-14567D01*
X103543Y-33071D02*
Y-19449D01*
Y-33071D02*
X107087Y-36614D01*
Y-112402D02*
Y-36614D01*
X37500Y-181988D02*
X107087Y-112402D01*
X109843Y-114157D02*
Y-34646D01*
X108425Y-33228D02*
X109843Y-34646D01*
X108425Y-33228D02*
Y-24567D01*
X41339Y-182661D02*
X109843Y-114157D01*
X113386Y-19606D02*
X118425Y-14567D01*
X113386Y-34055D02*
Y-19606D01*
X112598Y-34843D02*
X113386Y-34055D01*
X112598Y-116732D02*
Y-34843D01*
X45000Y-184331D02*
X112598Y-116732D01*
X128425Y-31024D02*
Y-24567D01*
X120866Y-38583D02*
X128425Y-31024D01*
X120866Y-123228D02*
Y-38583D01*
X118425Y-33150D02*
Y-24567D01*
X115354Y-36220D02*
X118425Y-33150D01*
X115354Y-118898D02*
Y-36220D01*
X118110Y-37402D02*
X123622Y-31890D01*
X118110Y-121063D02*
Y-37402D01*
X52500Y-186673D02*
X118110Y-121063D01*
X48819Y-185433D02*
X115354Y-118898D01*
X123622Y-31890D02*
Y-19370D01*
X128425Y-14567D01*
X56102Y-187992D02*
X120866Y-123228D01*
X199606Y-658724D02*
Y-658268D01*
Y-658724D02*
X202724Y-661842D01*
X212205Y-671323D01*
X10630Y-677559D02*
X11024Y-677165D01*
Y-672441D01*
X-3937D02*
X-1575D01*
X-5906Y-674409D02*
X-3937Y-672441D01*
X10630Y38583D02*
X19291D01*
X202756Y35039D02*
X211221Y43504D01*
X195669Y36614D02*
Y38976D01*
Y42520D01*
X10630Y38583D02*
Y42913D01*
X82657Y-52480D02*
Y-46083D01*
X37500Y-467500D02*
Y-181988D01*
X165354Y-127095D02*
X165354Y-127095D01*
X165354Y-127095D02*
X165354Y-127094D01*
X171260Y-339567D02*
X174213Y-342520D01*
X165354Y-339567D02*
X171260D01*
X163386Y-341535D02*
X165354Y-339567D01*
X163386Y-370079D02*
Y-341535D01*
X153878Y-379587D02*
X163386Y-370079D01*
X153878Y-398957D02*
Y-379587D01*
X165354Y-127095D02*
Y-127094D01*
Y-126969D01*
X165291Y-127032D02*
X165354Y-127094D01*
X165354Y-127094D01*
X165291Y-127032D02*
X165354Y-126969D01*
X158465Y-364173D02*
Y-323287D01*
X170158Y-311595D01*
X168012Y-398327D02*
X168307Y-398622D01*
X168012Y-398327D02*
Y-343799D01*
X174212Y-380905D02*
Y-356300D01*
X178347Y-352165D01*
Y-308268D01*
X173622Y-303543D02*
X178347Y-308268D01*
X162992Y-303543D02*
X173622D01*
X135039Y-275590D02*
X162992Y-303543D01*
X135039Y-275590D02*
Y-199016D01*
X108268Y-172244D02*
X135039Y-199016D01*
X27559Y-474409D02*
X149929D01*
X177327Y-501807D01*
X27559Y-474409D02*
Y-145669D01*
X82657Y-90571D01*
Y-52480D01*
X41339Y-425197D02*
Y-182661D01*
X45000Y-467500D02*
Y-184331D01*
X48819Y-318504D02*
Y-185433D01*
Y-425197D02*
Y-386221D01*
X75590Y-359449D01*
Y-345276D01*
X48819Y-318504D02*
X75590Y-345276D01*
X52500Y-317854D02*
Y-186673D01*
Y-317854D02*
X79134Y-344488D01*
X56102Y-317126D02*
Y-187992D01*
Y-317126D02*
X82677Y-343701D01*
X52500Y-467500D02*
Y-387264D01*
X79134Y-360630D01*
Y-344488D01*
X58071Y-434055D02*
Y-386417D01*
X82677Y-361811D01*
Y-343701D01*
X165354Y-126969D02*
Y-122048D01*
X198622Y-366929D02*
Y-324606D01*
X19291Y38583D02*
X19685Y38976D01*
X165354Y-122048D02*
X175724Y-111677D01*
Y-107346D01*
X165354Y-164370D02*
Y-127095D01*
X159449Y-251110D02*
X169354Y-241205D01*
X159449Y-288386D02*
Y-251110D01*
X177165Y-303150D02*
Y-296850D01*
X191732Y-282283D01*
Y-216535D01*
X179528Y-204331D02*
X191732Y-216535D01*
X179528Y-204331D02*
Y-131496D01*
X190157Y-120866D01*
Y-109449D01*
Y-105905D01*
Y-102362D01*
X177165Y-303150D02*
X198622Y-324606D01*
D31*
X186221Y-677559D02*
Y-668504D01*
X2362Y-677559D02*
Y-668504D01*
X-13780Y-446850D02*
X-11024D01*
X-17126Y-450197D02*
X-13780Y-446850D01*
X-17126Y-655315D02*
Y-450197D01*
Y-655315D02*
X-15551Y-656890D01*
Y-662992D02*
Y-656890D01*
X-15157Y-654134D02*
Y-461614D01*
Y-654134D02*
X-6299Y-662992D01*
X-15157Y-461614D02*
X-13386Y-459842D01*
X-13189Y-462430D02*
X-7087Y-456327D01*
X-13189Y-650984D02*
Y-462430D01*
Y-650984D02*
X2253Y-666426D01*
X206169Y-656823D02*
X212412D01*
X205906Y-657087D02*
X206169Y-656823D01*
X2253Y-666426D02*
X2309Y-668504D01*
X93701Y-479921D02*
X102362Y-488583D01*
X24831Y-479921D02*
X93701D01*
X16929Y-472019D02*
X24831Y-479921D01*
X87795Y-481890D02*
X94488Y-488583D01*
X24016Y-481890D02*
X87795D01*
X14961Y-472835D02*
X24016Y-481890D01*
X16929Y-472019D02*
Y-422441D01*
X8268Y-413779D02*
X16929Y-422441D01*
X0Y-413779D02*
X8268D01*
X14961Y-472835D02*
Y-423622D01*
X7480Y-416142D02*
X14961Y-423622D01*
X-1181Y-416142D02*
X7480D01*
X-17126Y-114902D02*
Y-76968D01*
X-15157Y-114087D02*
Y-78150D01*
X-17126Y-76968D02*
X32677Y-27165D01*
X-15157Y-78150D02*
X38425Y-24567D01*
X-17126Y-400197D02*
Y-156751D01*
X-15157Y-398622D02*
Y-157567D01*
X-17126Y-400197D02*
X-1181Y-416142D01*
X-15157Y-157567D02*
X2342Y-140067D01*
Y-131587D01*
X-15157Y-114087D02*
X2342Y-131587D01*
X-17126Y-114902D02*
X374Y-132402D01*
Y-139251D02*
Y-132402D01*
X-17126Y-156751D02*
X374Y-139251D01*
X-15157Y-398622D02*
X0Y-413779D01*
X202362Y-677165D02*
X202756Y-677559D01*
X199213Y-674016D02*
X202362Y-677165D01*
X132283Y-40551D02*
X138425Y-34409D01*
Y-24567D01*
X32677Y-27165D02*
Y-20315D01*
X38425Y-14567D01*
X8268Y-654724D02*
X181496D01*
X7874D02*
X8268D01*
X181496D02*
X196063Y-669291D01*
X176378Y-42126D02*
Y26378D01*
X162205Y-56299D02*
X176378Y-42126D01*
X150394Y-56299D02*
X162205D01*
X148425Y-54331D02*
X150394Y-56299D01*
X148425Y-54331D02*
Y-48031D01*
Y-24567D02*
Y-14567D01*
X157480Y-49213D02*
X160630Y-52362D01*
X148425Y-24567D02*
X157480Y-33622D01*
Y-49213D02*
Y-33622D01*
X151969Y-52362D02*
Y-37402D01*
X192913Y-661024D02*
X197638Y-665748D01*
X192913Y-661024D02*
Y-653937D01*
X198819Y-661811D02*
X201181Y-664173D01*
Y-667323D02*
Y-664173D01*
X199213Y-669291D02*
X201181Y-667323D01*
X196063Y-669291D02*
X199213D01*
X197638Y-665748D02*
X197638D01*
Y-674016D02*
X199213D01*
X192126Y-668504D02*
X197638Y-674016D01*
X186221Y-668504D02*
X192126D01*
X197638Y-661811D02*
X198819D01*
X195669Y-659842D02*
X197638Y-661811D01*
X195669Y-659842D02*
Y-656693D01*
X197638Y-654724D01*
X203543D01*
X205906Y-657087D01*
X192913Y-653937D02*
X210236Y-636614D01*
Y-458268D01*
X212205Y-651575D02*
Y-457480D01*
X212598Y-457087D01*
X210630Y-455118D02*
X212598Y-457087D01*
X210630Y-455118D02*
Y-448819D01*
X204724Y-452756D02*
X210236Y-458268D01*
X204724Y-452756D02*
Y-448819D01*
X2362Y-668504D02*
X186221D01*
X2309D02*
X2362D01*
X-11417D02*
X2309D01*
X-14961Y-672047D02*
X-11417Y-668504D01*
X-13386Y-459842D02*
Y-451575D01*
X-15354Y-677559D02*
X-14961Y-677165D01*
Y-672047D01*
X-7087Y-456327D02*
Y-450787D01*
X202756Y-270472D02*
X212008Y-261221D01*
X205906Y-274410D02*
X214173Y-266142D01*
Y-77559D01*
X212598Y-75984D02*
X214173Y-77559D01*
X212598Y-75984D02*
Y-44882D01*
X208661Y-75197D02*
Y-39370D01*
Y-75197D02*
X212008Y-78543D01*
Y-261221D02*
Y-78543D01*
D32*
X62657Y-52480D02*
X72658D01*
X52658D02*
X62657D01*
X42658D02*
X52658D01*
D33*
X97638Y-262992D02*
X146063Y-311417D01*
X157874Y-114173D02*
Y-97638D01*
X151575Y-91339D02*
X157874Y-97638D01*
X144488Y-91339D02*
X151575D01*
X196850Y-274764D02*
X207677Y-285591D01*
X196850Y-274764D02*
Y-196063D01*
X207677Y-301181D02*
Y-285591D01*
X182087Y-397638D02*
X196850D01*
Y-431102D02*
Y-397638D01*
X141732Y-250000D02*
Y-222441D01*
X181102Y-301181D02*
X207677D01*
X4331Y-509842D02*
X7480D01*
X189370D02*
X192520D01*
X193307D01*
X146063Y-418110D02*
X159055Y-431102D01*
X196850D01*
X207677Y-386811D02*
Y-337598D01*
X139764Y-96063D02*
X144488Y-91339D01*
X139764Y-117717D02*
Y-96063D01*
X157874Y-131800D02*
Y-114173D01*
X160039Y-203346D02*
X160433Y-203740D01*
X160039Y-203346D02*
Y-133965D01*
X157874Y-131800D02*
X160039Y-133965D01*
X190157Y-98425D02*
X194882Y-93701D01*
X190157Y-102362D02*
Y-98425D01*
X194882Y-93701D02*
Y-74803D01*
Y-70866D01*
Y-67323D01*
X207677Y-337598D02*
Y-301181D01*
X196850Y-397638D02*
X207677Y-386811D01*
X146063Y-418110D02*
Y-311417D01*
X141732Y-222441D02*
X160433Y-203740D01*
X97638Y-159843D02*
X139764Y-117717D01*
X7480Y-509842D02*
X13780D01*
X189370D01*
X97638Y-262992D02*
Y-159843D01*
X193307Y-509842D02*
X196850Y-506299D01*
Y-431102D01*
D35*
X147736Y-233366D02*
X159449Y-245079D01*
X147736Y-233366D02*
Y-226378D01*
X146653Y-111221D02*
Y-97441D01*
Y-111221D02*
X152559Y-117126D01*
D36*
X125197Y-63386D02*
Y-50394D01*
Y-63386D02*
X146063Y-84252D01*
X162992D02*
X183071Y-104331D01*
X146063Y-84252D02*
X162992D01*
X183071Y-118504D02*
Y-104331D01*
X170158Y-293091D02*
X184055Y-279193D01*
Y-218504D01*
X172244Y-206693D02*
X184055Y-218504D01*
X172244Y-206693D02*
X172441Y-206496D01*
Y-147638D01*
Y-139764D02*
Y-129528D01*
X172244Y-129331D02*
X172441Y-129528D01*
X172244Y-129331D02*
X183071Y-118504D01*
D42*
X1967Y-394685D02*
Y-393373D01*
Y-394029D01*
X-1969D01*
Y-394685D01*
Y-393373D01*
X1967Y-388781D02*
Y-391405D01*
X-1969D01*
Y-388781D01*
X-1Y-391405D02*
Y-390093D01*
Y-387470D02*
Y-384846D01*
X1967Y-383534D02*
Y-380910D01*
Y-382222D01*
X-1969D01*
Y-379598D02*
X1967D01*
Y-377630D01*
X1311Y-376974D01*
X-1D01*
X-657Y-377630D01*
Y-379598D01*
Y-378286D02*
X-1969Y-376974D01*
Y-375662D02*
X655D01*
X1967Y-374350D01*
X655Y-373039D01*
X-1969D01*
X-1D01*
Y-375662D01*
X1311Y-369103D02*
X1967Y-369759D01*
Y-371071D01*
X1311Y-371727D01*
X-1312D01*
X-1969Y-371071D01*
Y-369759D01*
X-1312Y-369103D01*
X1967Y-367791D02*
X-1969D01*
X-657D01*
X1967Y-365167D01*
X-1Y-367135D01*
X-1969Y-365167D01*
X-1Y-363855D02*
Y-361231D01*
X1967Y-359919D02*
X-1969D01*
X-657D01*
X1967Y-357295D01*
X-1Y-359263D01*
X-1969Y-357295D01*
X1967Y-355984D02*
Y-354672D01*
Y-355328D01*
X-1969D01*
Y-355984D01*
Y-354672D01*
X1967Y-352704D02*
Y-350080D01*
Y-351392D01*
X-1969D01*
X-1Y-348768D02*
Y-346144D01*
X-1969Y-344832D02*
X1967D01*
Y-342864D01*
X1311Y-342209D01*
X-1D01*
X-657Y-342864D01*
Y-344832D01*
X1967Y-340897D02*
X-1969D01*
X-657Y-339585D01*
X-1969Y-338273D01*
X1967D01*
X-1969Y-336961D02*
X1967D01*
Y-334993D01*
X1311Y-334337D01*
X-1D01*
X-657Y-334993D01*
Y-336961D01*
Y-335649D02*
X-1969Y-334337D01*
X-1Y-333025D02*
Y-330401D01*
X-1969Y-329089D02*
Y-327778D01*
Y-328433D01*
X1967D01*
X1311Y-329089D01*
X-2624Y-325154D02*
X-1969Y-324498D01*
X-1312D01*
Y-325154D01*
X-1969D01*
Y-324498D01*
X-2624Y-325154D01*
X-3280Y-325810D01*
X1967Y-317938D02*
X-657D01*
X-1969Y-316626D01*
X-657Y-315314D01*
X1967D01*
X-1969Y-314002D02*
Y-312690D01*
Y-313346D01*
X1967D01*
X1311Y-314002D01*
X-1969Y-310723D02*
X-1312D01*
Y-310067D01*
X-1969D01*
Y-310723D01*
Y-307443D02*
Y-306131D01*
Y-306787D01*
X1967D01*
X1311Y-307443D01*
X-1Y-296292D02*
Y-293668D01*
X1967Y-284484D02*
X-1969D01*
Y-282517D01*
X-1312Y-281860D01*
X-657D01*
X-1Y-282517D01*
Y-284484D01*
Y-282517D01*
X655Y-281860D01*
X1311D01*
X1967Y-282517D01*
Y-284484D01*
Y-278581D02*
Y-279893D01*
X1311Y-280549D01*
X-1312D01*
X-1969Y-279893D01*
Y-278581D01*
X-1312Y-277925D01*
X1311D01*
X1967Y-278581D01*
Y-276613D02*
Y-273989D01*
Y-275301D01*
X-1969D01*
X1967Y-272677D02*
Y-270053D01*
Y-271365D01*
X-1969D01*
X1967Y-266774D02*
Y-268085D01*
X1311Y-268741D01*
X-1312D01*
X-1969Y-268085D01*
Y-266774D01*
X-1312Y-266118D01*
X1311D01*
X1967Y-266774D01*
X-1969Y-264806D02*
X1967D01*
X655Y-263494D01*
X1967Y-262182D01*
X-1969D01*
D57*
X128425Y-14567D02*
D03*
X118425D02*
D03*
X78425D02*
D03*
X68425D02*
D03*
X58425D02*
D03*
X48425D02*
D03*
X38425D02*
D03*
X88425D02*
D03*
X98425D02*
D03*
X108425D02*
D03*
X148425D02*
D03*
X138425D02*
D03*
X158425D02*
D03*
D58*
X128425Y-24567D02*
D03*
X118425D02*
D03*
X78425D02*
D03*
X68425D02*
D03*
X58425D02*
D03*
X48425D02*
D03*
X88425D02*
D03*
X98425D02*
D03*
X108425D02*
D03*
X148425D02*
D03*
X138425D02*
D03*
X158425D02*
D03*
D59*
X38425D02*
D03*
D60*
X207677Y-285591D02*
D03*
Y-337598D02*
D03*
D61*
X170158Y-293091D02*
D03*
Y-330098D02*
D03*
Y-311595D02*
D03*
X-1181Y-529528D02*
D03*
X12992D02*
D03*
X183858D02*
D03*
X198031D02*
D03*
D62*
X181102Y-362205D02*
D03*
D63*
X0Y19685D02*
D03*
X196850Y-598425D02*
D03*
X0Y-431102D02*
D03*
Y-598425D02*
D03*
X196850Y-431102D02*
D03*
X0Y-19685D02*
D03*
Y-562992D02*
D03*
X196850D02*
D03*
D64*
X97658Y-62480D02*
D03*
X92658Y-52480D02*
D03*
X87657Y-62480D02*
D03*
X82657Y-52480D02*
D03*
X77658Y-62480D02*
D03*
X72658Y-52480D02*
D03*
X67658Y-62480D02*
D03*
X62657Y-52480D02*
D03*
X37657Y-62480D02*
D03*
X42658Y-52480D02*
D03*
X47657Y-62480D02*
D03*
X52658Y-52480D02*
D03*
X57657Y-62480D02*
D03*
D65*
X32658Y-52480D02*
D03*
D66*
X196850Y-194882D02*
D03*
Y19685D02*
D03*
Y-19685D02*
D03*
D67*
X61024Y-352362D02*
D03*
Y-135827D02*
D03*
D68*
X129941Y-352362D02*
D03*
X-7894Y-135827D02*
D03*
D69*
X129941Y-100394D02*
D03*
D70*
X101378Y-289370D02*
D03*
X145669Y-614173D02*
D03*
X12795Y5906D02*
D03*
X160433D02*
D03*
X86614Y-200787D02*
D03*
X-1968Y-82677D02*
D03*
X160433Y-643701D02*
D03*
X130906Y-171260D02*
D03*
X-1968Y-614173D02*
D03*
X160433Y-584646D02*
D03*
X145669Y-555118D02*
D03*
X86614Y-496063D02*
D03*
X101378Y-230315D02*
D03*
Y-348425D02*
D03*
X175197Y-82677D02*
D03*
X42323Y-584646D02*
D03*
X61024Y-676378D02*
D03*
X86614Y-259842D02*
D03*
X130906Y-643701D02*
D03*
X71851Y5906D02*
D03*
X160630Y-664961D02*
D03*
X101378Y-466535D02*
D03*
X71851Y-112205D02*
D03*
X149606Y-676378D02*
D03*
X12795Y-643701D02*
D03*
X145669Y-496063D02*
D03*
X101378Y5906D02*
D03*
X71851Y-289370D02*
D03*
X101378Y-53150D02*
D03*
X130906Y-466535D02*
D03*
X116142Y-437008D02*
D03*
X86614Y-555118D02*
D03*
X42323Y-112205D02*
D03*
X86614Y-614173D02*
D03*
X175197Y-437008D02*
D03*
X120079Y-676378D02*
D03*
X179134D02*
D03*
X160433Y-466535D02*
D03*
X42520Y-664961D02*
D03*
X175197Y-614173D02*
D03*
X116142Y-377953D02*
D03*
X130906Y-112205D02*
D03*
X12795Y-289370D02*
D03*
X189961Y-643701D02*
D03*
X116142Y-200787D02*
D03*
X27559Y-614173D02*
D03*
X116142D02*
D03*
X131102Y-664961D02*
D03*
X71851Y-407480D02*
D03*
X86614Y-437008D02*
D03*
X-1968Y-200787D02*
D03*
X57087Y-555118D02*
D03*
Y-614173D02*
D03*
X27559Y-23622D02*
D03*
X189961Y-53150D02*
D03*
X160433Y-525591D02*
D03*
X72047Y-664961D02*
D03*
X42323Y5906D02*
D03*
X71851Y-584646D02*
D03*
X189961Y-171260D02*
D03*
X86614Y-377953D02*
D03*
X130906Y-584646D02*
D03*
X12795Y-112205D02*
D03*
X31496Y-676378D02*
D03*
X130906Y-525591D02*
D03*
X116142Y-259842D02*
D03*
X130906Y-289370D02*
D03*
X12795Y-171260D02*
D03*
X130906Y-230315D02*
D03*
X116142Y-555118D02*
D03*
X12992Y-664961D02*
D03*
X130906Y5906D02*
D03*
X71851Y-230315D02*
D03*
X101378Y-643701D02*
D03*
X160433Y-407480D02*
D03*
X101378Y-171260D02*
D03*
X-1968Y-496063D02*
D03*
X12795Y-584646D02*
D03*
X101575Y-664961D02*
D03*
X27559Y-555118D02*
D03*
X90551Y-676378D02*
D03*
X57087Y-496063D02*
D03*
X42323Y-525591D02*
D03*
X145669Y-141732D02*
D03*
X42323Y-643701D02*
D03*
Y-171260D02*
D03*
X175197Y-555118D02*
D03*
X116142Y-496063D02*
D03*
X71851Y-525591D02*
D03*
Y-643701D02*
D03*
X145669Y-437008D02*
D03*
Y-200787D02*
D03*
X169685Y42913D02*
D03*
X186220Y38976D02*
D03*
X212412Y-656823D02*
D03*
X5906Y38976D02*
D03*
X-1575Y38189D02*
D03*
X199213Y38583D02*
D03*
X125197Y-50394D02*
D03*
Y-47244D02*
D03*
X132283Y-40551D02*
D03*
X125197Y-44094D02*
D03*
X102362Y-488583D02*
D03*
X94488D02*
D03*
X8268Y-654724D02*
D03*
X-11024Y-61811D02*
D03*
X176378Y26378D02*
D03*
X148425Y-48031D02*
D03*
X160630Y-52362D02*
D03*
X151969Y-37402D02*
D03*
Y-52362D02*
D03*
X197638Y-665748D02*
D03*
X199606Y-658268D02*
D03*
X190945Y-672441D02*
D03*
X212205Y-651575D02*
D03*
X204724Y-448819D02*
D03*
X210630D02*
D03*
X11024Y-672441D02*
D03*
X-1575D02*
D03*
X-15551Y-662992D02*
D03*
X-6299D02*
D03*
X-13386Y-451575D02*
D03*
X-7087Y-450787D02*
D03*
X-11024Y-446850D02*
D03*
X202756Y-270472D02*
D03*
X205906Y-274410D02*
D03*
X19685Y31496D02*
D03*
X41339Y-425197D02*
D03*
X52500Y-467500D02*
D03*
X45000D02*
D03*
X37500D02*
D03*
X146653Y-97441D02*
D03*
X147736Y-226378D02*
D03*
X159449Y-245079D02*
D03*
X169354Y-241205D02*
D03*
X141732Y-250000D02*
D03*
X182087Y-397638D02*
D03*
X174213Y-342520D02*
D03*
X153878Y-398957D02*
D03*
X168012Y-343799D02*
D03*
X158465Y-364173D02*
D03*
X174212Y-380905D02*
D03*
X152559Y-117126D02*
D03*
X181102Y-301181D02*
D03*
X177327Y-501807D02*
D03*
X27559Y-474409D02*
D03*
X48819Y-425197D02*
D03*
X58071Y-434055D02*
D03*
X168307Y-398622D02*
D03*
X108268Y-172244D02*
D03*
X198622Y-366929D02*
D03*
X172441Y-147638D02*
D03*
Y-139764D02*
D03*
X157874Y-114173D02*
D03*
X190157Y-105905D02*
D03*
Y-109449D02*
D03*
X175724Y-107346D02*
D03*
X190157Y-102362D02*
D03*
X165354Y-164370D02*
D03*
X159449Y-288386D02*
D03*
X194882Y-74803D02*
D03*
Y-70866D02*
D03*
Y-67323D02*
D03*
X208661Y-39370D02*
D03*
X212598Y-44882D02*
D03*
X192520Y-509842D02*
D03*
X189370D02*
D03*
X4331D02*
D03*
X7480D02*
D03*
X13780Y-505905D02*
D03*
Y-509842D02*
D03*
Y-513779D02*
D03*
X198819D02*
D03*
Y-509842D02*
D03*
Y-505905D02*
D03*
X88583Y42913D02*
D03*
X59055D02*
D03*
X29528D02*
D03*
X118110D02*
D03*
X147638D02*
D03*
M02*
