G04 Layer_Color=16711935*
%FSLAX25Y25*%
%MOIN*%
G70*
G01*
G75*
%ADD77R,0.06312X0.04186*%
G04:AMPARAMS|DCode=95|XSize=70.99mil|YSize=86.74mil|CornerRadius=0mil|HoleSize=0mil|Usage=FLASHONLY|Rotation=270.000|XOffset=0mil|YOffset=0mil|HoleType=Round|Shape=Octagon|*
%AMOCTAGOND95*
4,1,8,0.04337,0.01775,0.04337,-0.01775,0.02562,-0.03550,-0.02562,-0.03550,-0.04337,-0.01775,-0.04337,0.01775,-0.02562,0.03550,0.02562,0.03550,0.04337,0.01775,0.0*
%
%ADD95OCTAGOND95*%

G04:AMPARAMS|DCode=96|XSize=86.74mil|YSize=70.99mil|CornerRadius=0mil|HoleSize=0mil|Usage=FLASHONLY|Rotation=270.000|XOffset=0mil|YOffset=0mil|HoleType=Round|Shape=Octagon|*
%AMOCTAGOND96*
4,1,8,-0.01775,-0.04337,0.01775,-0.04337,0.03550,-0.02562,0.03550,0.02562,0.01775,0.04337,-0.01775,0.04337,-0.03550,0.02562,-0.03550,-0.02562,-0.01775,-0.04337,0.0*
%
%ADD96OCTAGOND96*%

%ADD97R,0.07099X0.08674*%
%ADD98C,0.14579*%
%ADD99C,0.12611*%
%ADD100C,0.03950*%
%ADD101P,0.26434X8X292.5*%
%ADD102P,0.07684X8X292.5*%
%ADD103R,0.07099X0.07099*%
%ADD104C,0.00800*%
%ADD105P,0.30696X8X292.5*%
%ADD106C,0.24422*%
%ADD107C,0.14383*%
%ADD108C,0.10249*%
%ADD109C,0.04737*%
D77*
X11024Y-677165D02*
D03*
X1575D02*
D03*
X-14961D02*
D03*
X-5512D02*
D03*
X202362D02*
D03*
X211811D02*
D03*
X195276D02*
D03*
X185827D02*
D03*
X195276Y43307D02*
D03*
X185827D02*
D03*
X202362D02*
D03*
X211811D02*
D03*
X11024D02*
D03*
X1575D02*
D03*
X-14961D02*
D03*
X-5512D02*
D03*
D95*
X128425Y-14567D02*
D03*
X118425D02*
D03*
X78425D02*
D03*
X68425D02*
D03*
X58425D02*
D03*
X48425D02*
D03*
X38425D02*
D03*
X88425D02*
D03*
X98425D02*
D03*
X108425D02*
D03*
X148425D02*
D03*
X138425D02*
D03*
X158425D02*
D03*
D96*
X128425Y-24567D02*
D03*
X118425D02*
D03*
X78425D02*
D03*
X68425D02*
D03*
X58425D02*
D03*
X48425D02*
D03*
X88425D02*
D03*
X98425D02*
D03*
X108425D02*
D03*
X148425D02*
D03*
X138425D02*
D03*
X158425D02*
D03*
D97*
X38425D02*
D03*
D98*
X207677Y-285591D02*
D03*
Y-337598D02*
D03*
D99*
X170158Y-293091D02*
D03*
Y-330098D02*
D03*
Y-311595D02*
D03*
X-1181Y-529528D02*
D03*
X12992D02*
D03*
X183858D02*
D03*
X198031D02*
D03*
D100*
X181102Y-362205D02*
D03*
D101*
X0Y19685D02*
D03*
X196850Y-598425D02*
D03*
X0Y-431102D02*
D03*
Y-598425D02*
D03*
X196850Y-431102D02*
D03*
X0Y-19685D02*
D03*
Y-562992D02*
D03*
X196850D02*
D03*
D102*
X97658Y-62480D02*
D03*
X92658Y-52480D02*
D03*
X87657Y-62480D02*
D03*
X82657Y-52480D02*
D03*
X77658Y-62480D02*
D03*
X72658Y-52480D02*
D03*
X67658Y-62480D02*
D03*
X62657Y-52480D02*
D03*
X37657Y-62480D02*
D03*
X42658Y-52480D02*
D03*
X47657Y-62480D02*
D03*
X52658Y-52480D02*
D03*
X57657Y-62480D02*
D03*
D103*
X32658Y-52480D02*
D03*
D104*
X27146Y-59567D02*
D03*
D105*
X196850Y-194882D02*
D03*
Y19685D02*
D03*
Y-19685D02*
D03*
D106*
X61024Y-352362D02*
D03*
Y-135827D02*
D03*
D107*
X129941Y-352362D02*
D03*
X-7894Y-135827D02*
D03*
D108*
X129941Y-100394D02*
D03*
D109*
X13780Y-505905D02*
D03*
Y-509842D02*
D03*
Y-513779D02*
D03*
X198819D02*
D03*
Y-509842D02*
D03*
Y-505905D02*
D03*
M02*
